<?xml version="1.0" encoding="utf-8"?>
<!-- Generator: Adobe Illustrator 17.0.0, SVG Export Plug-In . SVG Version: 6.00 Build 0)  -->
<!DOCTYPE svg PUBLIC "-//W3C//DTD SVG 1.1//EN" "http://www.w3.org/Graphics/SVG/1.1/DTD/svg11.dtd">
<svg version="1.1" id="svg1" xmlns="http://www.w3.org/2000/svg" xmlns:xlink="http://www.w3.org/1999/xlink" x="0px" y="0px"
	 width="613.34px" height="552.34px" viewBox="-5.17 0.33 613.34 552.34" enable-background="new -5.17 0.33 613.34 552.34"
	 xml:space="preserve">
<g>
	<rect x="-2.5" y="3" fill="#FFFFFF" width="608" height="547"  id = "border"/>
	<path fill="#222E63" d="M605.5,552.67h-608c-1.475,0-2.67-1.195-2.67-2.67V3c0-1.475,1.195-2.67,2.67-2.67h608
		c1.475,0,2.67,1.195,2.67,2.67v547C608.17,551.475,606.975,552.67,605.5,552.67z M0.17,547.331h602.66V5.67H0.17V547.331z"/>
</g>
<g>
	<rect x="14" y="17.845" fill="#FFFFFF" width="575" height="517.311"/>
	<path fill="#222E63" d="M589,537.826H14c-1.475,0-2.67-1.195-2.67-2.67V17.845c0-1.475,1.195-2.67,2.67-2.67h575
		c1.475,0,2.67,1.195,2.67,2.67v517.311C591.67,536.63,590.475,537.826,589,537.826z M16.67,532.486h569.66V20.515H16.67V532.486z"
		/>
</g>
<polygon fill="#FFFFFF" points="114.91,140.481 114.91,162.636 119.465,162.636 119.465,176.23 123.204,176.23 123.204,198.318 
	123.204,401.443 208.686,401.443 425.531,401.443 487.152,401.443 487.152,198.318 487.152,176.23 490.892,176.23 490.892,162.636 
	495.447,162.636 495.447,140.481 "/>
<path fill="#222E63" d="M487.152,404.029H123.204c-1.428,0-2.586-1.158-2.586-2.586V178.816h-1.153
	c-1.428,0-2.586-1.158-2.586-2.586v-11.007h-1.969c-1.428,0-2.586-1.158-2.586-2.586v-22.155c0-1.428,1.158-2.586,2.586-2.586
	h380.538c1.428,0,2.586,1.158,2.586,2.586v22.155c0,1.428-1.158,2.586-2.586,2.586h-1.969v11.007c0,1.428-1.158,2.586-2.586,2.586
	h-1.153v222.627C489.738,402.871,488.581,404.029,487.152,404.029z M125.791,398.857h358.775V176.23
	c0-1.428,1.158-2.586,2.586-2.586h1.153v-11.007c0-1.428,1.158-2.586,2.586-2.586h1.969v-16.983H117.496v16.983h1.969
	c1.428,0,2.586,1.158,2.586,2.586v11.007h1.153c1.428,0,2.586,1.158,2.586,2.586L125.791,398.857L125.791,398.857z"/>
<path fill="#FFFFFF" d="M527.65,464.065c0,22.205-6.379,40.206-14.249,40.206H96.956c-7.871,0-14.25-18.001-14.25-40.206l0,0
	c0-22.202,6.379-40.196,14.25-40.196h416.445C521.271,423.869,527.65,441.863,527.65,464.065L527.65,464.065z"/>
<path fill="#222E63" d="M513.401,506.857H96.956c-10.935,0-16.836-22.048-16.836-42.792c0-20.74,5.901-42.782,16.836-42.782h416.445
	c10.935,0,16.835,22.042,16.835,42.782C530.237,484.809,524.337,506.857,513.401,506.857z M96.956,426.456
	c-4.871,0-11.664,14.308-11.664,37.609c0,23.308,6.793,37.62,11.664,37.62h416.445c4.87,0,11.663-14.312,11.663-37.62
	c0-23.302-6.793-37.609-11.663-37.609H96.956z"/>
<polygon fill="#FFFFFF" points="434.613,58.256 175.743,58.256 102.151,146.172 508.207,146.172 "/>
<polygon fill="#FFFFFF" points="417.22,146.172 305.177,58.256 193.133,146.172 "/>
<path fill="#222E63" d="M510.189,144.512l-73.594-87.916c-0.491-0.587-1.218-0.926-1.983-0.926H305.181c-0.002,0-0.004,0-0.006,0
	H175.742c-0.766,0-1.492,0.339-1.983,0.926l-73.591,87.916c-0.645,0.77-0.785,1.844-0.36,2.754s1.338,1.492,2.343,1.492h90.982
	h224.088h90.986c1.005,0,1.919-0.582,2.342-1.492C510.974,146.356,510.834,145.282,510.189,144.512z M176.951,60.842h120.741
	l-105.453,82.744h-84.55L176.951,60.842z M200.618,143.586l104.559-82.043l104.558,82.043H200.618z M418.116,143.586L312.664,60.842
	h120.741l69.265,82.744H418.116z"/>
<polygon fill="#FFFFFF" points="366.857,119.932 305.179,71.532 243.502,119.932 226.644,133.152 226.644,146.172 226.644,401.445 
	383.698,401.445 383.698,146.172 383.698,133.152 "/>
<path fill="#222E63" d="M383.698,404.032H226.644c-1.428,0-2.586-1.158-2.586-2.586V133.152c0-0.794,0.365-1.545,0.99-2.035
	l78.534-61.619c0.938-0.735,2.255-0.735,3.194,0l78.519,61.62c0.624,0.49,0.989,1.24,0.989,2.034v268.294
	C386.284,402.874,385.126,404.032,383.698,404.032z M229.231,398.859h151.881v-264.45l-75.933-59.59L229.23,134.41L229.231,398.859
	L229.231,398.859z"/>
<path fill="#FFFFFF" d="M175.423,189.988c-11.237,0-22.087,3.282-31.37,9.491l-0.997,0.665v53.493h64.737v-2.245v-50.049v-1.199
	l-0.996-0.665C197.51,193.27,186.66,189.988,175.423,189.988z"/>
<path fill="#222E63" d="M207.792,256.224h-64.737c-1.428,0-2.586-1.158-2.586-2.586v-53.493c0-0.865,0.432-1.672,1.151-2.152
	l0.998-0.665c9.706-6.493,21.051-9.926,32.805-9.926c11.753,0,23.098,3.433,32.811,9.928l0.995,0.665
	c0.718,0.48,1.149,1.286,1.149,2.15v53.493C210.379,255.066,209.221,256.224,207.792,256.224z M145.641,251.052h59.565v-49.524
	c-8.826-5.859-19.12-8.953-29.783-8.953c-10.666,0-20.959,3.096-29.781,8.954L145.641,251.052L145.641,251.052z"/>
<rect x="139.556" y="260.175" fill="#FFFFFF" width="71.734" height="7.644"/>
<path fill="#222E63" d="M211.29,270.405h-71.734c-1.428,0-2.586-1.158-2.586-2.586v-7.644c0-1.428,1.158-2.586,2.586-2.586h71.734
	c1.428,0,2.586,1.158,2.586,2.586v7.644C213.876,269.247,212.718,270.405,211.29,270.405z M142.142,265.233h66.561v-2.471h-66.561
	V265.233z"/>
<path fill="#FFFFFF" d="M436.149,189.988c-11.239,0-22.088,3.282-31.374,9.491l-0.995,0.665v53.493h64.737v-2.245v-50.049v-1.199
	l-0.997-0.665C458.235,193.27,447.385,189.988,436.149,189.988z"/>
<path fill="#222E63" d="M468.518,256.224h-64.737c-1.428,0-2.586-1.158-2.586-2.586v-53.493c0-0.863,0.431-1.67,1.148-2.15
	l0.995-0.665c9.712-6.495,21.058-9.928,32.811-9.928c11.752,0,23.097,3.433,32.809,9.928l0.995,0.664
	c0.719,0.48,1.15,1.287,1.15,2.151v53.493C471.104,255.066,469.946,256.224,468.518,256.224z M406.367,251.052h59.565v-49.524
	c-8.826-5.859-19.119-8.954-29.782-8.954c-10.665,0-20.959,3.095-29.782,8.952L406.367,251.052L406.367,251.052z"/>
<rect x="400.283" y="260.175" fill="#FFFFFF" width="71.733" height="7.644"/>
<path fill="#222E63" d="M472.017,270.405h-71.733c-1.428,0-2.586-1.158-2.586-2.586v-7.644c0-1.428,1.158-2.586,2.586-2.586h71.733
	c1.428,0,2.586,1.158,2.586,2.586v7.644C474.603,269.247,473.445,270.405,472.017,270.405z M402.87,265.233h66.561v-2.471H402.87
	V265.233z"/>
<path fill="#FFFFFF" d="M304.115,189.988c-11.239,0-22.089,3.282-31.372,9.491l-0.997,0.665v53.493h64.739v-2.245v-50.049v-1.199
	l-0.999-0.665C326.203,193.27,315.351,189.988,304.115,189.988z"/>
<path fill="#222E63" d="M336.485,256.224h-64.739c-1.428,0-2.586-1.158-2.586-2.586v-53.493c0-0.865,0.432-1.672,1.151-2.152
	l0.998-0.665c9.706-6.493,21.051-9.926,32.807-9.926c11.754,0,23.099,3.433,32.809,9.928l0.995,0.663
	c0.72,0.48,1.152,1.287,1.152,2.152v53.493C339.071,255.066,337.913,256.224,336.485,256.224z M274.332,251.052h59.567V201.53
	c-8.826-5.86-19.118-8.955-29.783-8.955c-10.667,0-20.961,3.096-29.783,8.954v49.523L274.332,251.052L274.332,251.052z"/>
<rect x="268.248" y="260.175" fill="#FFFFFF" width="71.732" height="7.644"/>
<path fill="#222E63" d="M339.981,270.405h-71.733c-1.428,0-2.586-1.158-2.586-2.586v-7.644c0-1.428,1.158-2.586,2.586-2.586h71.733
	c1.428,0,2.586,1.158,2.586,2.586v7.644C342.567,269.247,341.409,270.405,339.981,270.405z M270.835,265.233h66.56v-2.471h-66.56
	V265.233z"/>
<path fill="#FFFFFF" d="M175.423,298.886c-11.237,0-22.087,3.282-31.37,9.491l-0.997,0.668v53.491h64.737v-2.247v-50.044v-1.199
	l-0.996-0.668C197.51,302.168,186.66,298.886,175.423,298.886z"/>
<path fill="#222E63" d="M207.792,365.123h-64.737c-1.428,0-2.586-1.158-2.586-2.586v-53.491c0-0.863,0.43-1.669,1.148-2.149
	l0.998-0.668c9.708-6.495,21.053-9.928,32.808-9.928c11.753,0,23.098,3.433,32.811,9.928l0.998,0.67
	c0.717,0.48,1.146,1.286,1.146,2.148v53.491C210.379,363.965,209.221,365.123,207.792,365.123z M145.641,359.95h59.565v-49.524
	c-8.823-5.858-19.118-8.953-29.783-8.953s-20.96,3.096-29.781,8.954L145.641,359.95L145.641,359.95z"/>
<rect x="139.556" y="369.073" fill="#FFFFFF" width="71.734" height="7.646"/>
<path fill="#222E63" d="M211.29,379.306h-71.734c-1.428,0-2.586-1.158-2.586-2.586v-7.646c0-1.428,1.158-2.586,2.586-2.586h71.734
	c1.428,0,2.586,1.158,2.586,2.586v7.646C213.876,378.148,212.718,379.306,211.29,379.306z M142.142,374.134h66.561v-2.474h-66.561
	V374.134z"/>
<path fill="#FFFFFF" d="M436.149,298.886c-11.239,0-22.088,3.282-31.374,9.491l-0.995,0.668v53.491h64.737v-2.247v-50.044v-1.199
	l-0.997-0.668C458.235,302.168,447.385,298.886,436.149,298.886z"/>
<path fill="#222E63" d="M468.518,365.123h-64.737c-1.428,0-2.586-1.158-2.586-2.586v-53.491c0-0.862,0.429-1.667,1.146-2.147
	l0.995-0.668c9.715-6.497,21.061-9.93,32.814-9.93s23.097,3.433,32.809,9.928l0.999,0.669c0.716,0.48,1.146,1.286,1.146,2.149
	v53.491C471.104,363.965,469.946,365.123,468.518,365.123z M406.367,359.95h59.565v-49.524c-8.823-5.858-19.118-8.954-29.782-8.954
	s-20.959,3.095-29.782,8.952L406.367,359.95L406.367,359.95z"/>
<polygon fill="#222E63" points="448.44,332.513 448.44,335.047 448.44,358.043 464.026,358.043 464.026,332.513 450.973,332.513 "/>
<polygon fill="#222E63" points="436.149,332.513 428.356,332.513 428.356,345.548 428.356,355.129 428.356,358.043 443.947,358.043 
	443.947,339.538 443.947,332.513 441.388,332.513 "/>
<rect x="400.283" y="369.073" fill="#FFFFFF" width="71.733" height="7.646"/>
<path fill="#222E63" d="M472.017,379.306h-71.733c-1.428,0-2.586-1.158-2.586-2.586v-7.646c0-1.428,1.158-2.586,2.586-2.586h71.733
	c1.428,0,2.586,1.158,2.586,2.586v7.646C474.603,378.148,473.445,379.306,472.017,379.306z M402.87,374.134h66.561v-2.474H402.87
	V374.134z"/>
<path fill="#FFFFFF" d="M322.481,144.985V120.47c0-9.548-7.765-17.309-17.309-17.309c-9.545,0-17.311,7.761-17.311,17.309v24.515
	H322.481z"/>
<path fill="#222E63" d="M322.481,147.571h-34.62c-1.428,0-2.586-1.158-2.586-2.586V120.47c0-10.97,8.926-19.896,19.897-19.896
	c10.97,0,19.895,8.925,19.895,19.896v24.515C325.067,146.413,323.909,147.571,322.481,147.571z M290.447,142.398h29.448V120.47
	c0-8.118-6.605-14.723-14.723-14.723c-8.119,0-14.725,6.605-14.725,14.723V142.398z"/>
<path fill="#222E63" d="M465.026,250.144H447.44v-27.53h17.587V250.144z M449.44,248.144h13.587v-23.53H449.44V248.144z"/>
<path fill="#222E63" d="M444.947,250.144h-17.592v-27.53h17.592V250.144z M429.356,248.144h13.592v-23.53h-13.592V248.144z"/>
<path fill="#222E63" d="M465.026,220.12H447.44v-25.428l1.239,0.305c0.272,0.067,0.542,0.148,0.811,0.229
	c0.184,0.055,0.366,0.11,0.552,0.16c4.771,1.285,9.312,3.216,13.499,5.739c0.129,0.078,0.264,0.153,0.398,0.228
	c0.21,0.117,0.419,0.235,0.623,0.363l0.465,0.294V220.12z M449.44,218.12h13.587v-14.986c-0.021-0.012-0.042-0.023-0.063-0.036
	c-0.152-0.085-0.305-0.17-0.453-0.259c-4.029-2.428-8.398-4.286-12.988-5.522c-0.027-0.008-0.055-0.015-0.082-0.022V218.12z"/>
<path fill="#222E63" d="M444.947,220.12h-17.592v-25.908l0.851-0.128c2.277-0.344,4.708-0.539,7.225-0.578
	c0.117,0,0.219-0.006,0.32-0.011c0.131-0.007,0.262-0.013,0.394-0.014c2.631,0,5.305,0.204,7.953,0.605l0.85,0.129V220.12z
	 M429.356,218.12h13.592v-22.178c-2.27-0.306-4.553-0.461-6.799-0.461c-0.096,0-0.194,0.006-0.293,0.011
	c-0.137,0.007-0.273,0.014-0.409,0.014c-2.102,0.033-4.15,0.179-6.091,0.435V218.12z"/>
<path fill="#222E63" d="M424.864,220.121h-17.591v-18.109l0.463-0.295c4.849-3.085,10.195-5.347,15.894-6.722l1.234-0.298V220.121z
	 M409.274,218.121h13.591v-20.868c-4.843,1.294-9.406,3.262-13.591,5.86V218.121z"/>
<path fill="#222E63" d="M424.864,250.144h-17.591v-27.53h17.591V250.144z M409.274,248.144h13.591v-23.53h-13.591V248.144z"/>
<path fill="#222E63" d="M332.992,250.144h-17.587v-27.53h17.587V250.144z M317.405,248.144h13.587v-23.53h-13.587V248.144z"/>
<path fill="#222E63" d="M312.913,250.144h-17.592v-27.53h17.592V250.144z M297.321,248.144h13.592v-23.53h-13.592V248.144z"/>
<path fill="#222E63" d="M332.992,220.12h-17.587v-25.427l1.238,0.304c0.278,0.068,0.551,0.15,0.823,0.232
	c0.179,0.054,0.357,0.108,0.538,0.157c4.769,1.284,9.312,3.215,13.499,5.739c0.125,0.075,0.258,0.149,0.391,0.223
	c0.213,0.119,0.426,0.238,0.633,0.369l0.465,0.294V220.12z M317.405,218.12h13.587v-14.986c-0.024-0.013-0.048-0.026-0.072-0.04
	c-0.148-0.083-0.298-0.167-0.444-0.253c-4.032-2.431-8.402-4.288-12.992-5.523c-0.026-0.007-0.052-0.014-0.078-0.021V218.12z"/>
<path fill="#222E63" d="M312.913,220.12h-17.591v-25.908l0.851-0.128c2.279-0.345,4.71-0.539,7.224-0.578
	c0.117,0,0.218-0.006,0.32-0.011c0.131-0.007,0.262-0.013,0.395-0.014c2.631,0,5.305,0.204,7.953,0.605l0.85,0.129V220.12z
	 M297.322,218.12h13.591v-22.178c-2.27-0.306-4.552-0.461-6.798-0.461c-0.096,0-0.195,0.006-0.294,0.011
	c-0.136,0.007-0.272,0.014-0.408,0.014c-2.1,0.033-4.148,0.179-6.09,0.436V218.12z"/>
<path fill="#222E63" d="M292.829,220.121h-17.591v-18.109l0.463-0.295c4.851-3.086,10.198-5.348,15.894-6.722l1.234-0.298V220.121z
	 M277.238,218.121h13.591v-20.868c-4.84,1.293-9.404,3.261-13.591,5.86V218.121z"/>
<path fill="#222E63" d="M292.829,250.144h-17.591v-27.53h17.591V250.144z M277.238,248.144h13.591v-23.53h-13.591V248.144z"/>
<path fill="#222E63" d="M204.3,359.043h-17.585v-27.53H204.3V359.043z M188.715,357.043H202.3v-23.53h-13.585V357.043z"/>
<path fill="#222E63" d="M184.223,359.043h-17.592v-27.53h17.592V359.043z M168.631,357.043h13.592v-23.53h-13.592V357.043z"/>
<path fill="#222E63" d="M204.299,329.021h-17.584V303.59l1.239,0.306c0.275,0.067,0.545,0.148,0.815,0.229
	c0.181,0.055,0.363,0.109,0.546,0.158c4.784,1.293,9.325,3.224,13.498,5.739c0.14,0.085,0.277,0.162,0.414,0.238
	c0.207,0.116,0.413,0.232,0.613,0.361l0.458,0.295V329.021z M188.715,327.021h13.584v-14.987c-0.017-0.009-0.033-0.019-0.05-0.027
	c-0.159-0.089-0.317-0.178-0.473-0.273c-4.009-2.416-8.378-4.273-12.982-5.518c-0.026-0.008-0.053-0.015-0.079-0.022V327.021z"/>
<path fill="#222E63" d="M184.223,329.021h-17.592v-25.911l0.852-0.128c2.314-0.346,4.744-0.539,7.222-0.574
	c0.098-0.001,0.194-0.007,0.29-0.012c0.143-0.008,0.286-0.016,0.429-0.016c2.605,0,5.28,0.203,7.949,0.604l0.851,0.128V329.021z
	 M168.631,327.021h13.592v-22.179c-2.287-0.307-4.57-0.462-6.8-0.462c-0.106,0-0.212,0.007-0.318,0.013
	c-0.124,0.007-0.249,0.013-0.374,0.015c-2.084,0.029-4.132,0.176-6.1,0.433V327.021z"/>
<path fill="#222E63" d="M164.139,329.021h-17.591v-18.106l0.463-0.295c4.846-3.083,10.193-5.346,15.892-6.725l1.235-0.299V329.021z
	 M148.548,327.021h13.591v-20.867c-4.844,1.297-9.408,3.265-13.591,5.862V327.021z"/>
<path fill="#222E63" d="M164.139,359.043h-17.591v-27.53h17.591V359.043z M148.548,357.043h13.591v-23.53h-13.591V357.043z"/>
<path fill="#222E63" d="M465.026,329.021H447.44V303.59l1.239,0.306c0.273,0.067,0.542,0.147,0.812,0.229
	c0.183,0.055,0.366,0.109,0.551,0.159c4.783,1.293,9.324,3.224,13.499,5.739c0.142,0.087,0.281,0.164,0.42,0.242
	c0.204,0.114,0.408,0.229,0.606,0.356l0.46,0.295V329.021z M449.44,327.021h13.587v-14.986c-0.015-0.008-0.029-0.016-0.043-0.024
	c-0.162-0.09-0.324-0.181-0.482-0.278c-4.009-2.416-8.378-4.273-12.98-5.517c-0.027-0.008-0.054-0.015-0.081-0.022V327.021z"/>
<path fill="#222E63" d="M444.947,329.021h-17.592v-25.911l0.853-0.128c2.313-0.346,4.744-0.539,7.224-0.574
	c0.097-0.001,0.191-0.007,0.286-0.012c0.144-0.008,0.287-0.016,0.431-0.016c2.605,0,5.279,0.203,7.947,0.604l0.852,0.129V329.021z
	 M429.356,327.021h13.592v-22.179c-2.286-0.307-4.569-0.462-6.799-0.462c-0.106,0-0.213,0.007-0.319,0.013
	c-0.124,0.007-0.247,0.013-0.37,0.015c-2.086,0.029-4.136,0.176-6.104,0.433V327.021z"/>
<path fill="#222E63" d="M424.864,329.021h-17.591v-18.106l0.463-0.295c4.843-3.082,10.189-5.345,15.893-6.725l1.235-0.299V329.021z
	 M409.274,327.021h13.591v-20.867c-4.847,1.298-9.411,3.266-13.591,5.862V327.021z"/>
<path fill="#222E63" d="M424.864,359.043h-17.591v-27.53h17.591V359.043z M409.274,357.043h13.591v-23.53h-13.591V357.043z"/>
<path fill="#222E63" d="M204.3,250.144h-17.585v-27.53H204.3V250.144z M188.715,248.144H202.3v-23.53h-13.585V248.144z"/>
<path fill="#222E63" d="M184.223,250.144h-17.592v-27.53h17.592V250.144z M168.631,248.144h13.592v-23.53h-13.592V248.144z"/>
<path fill="#222E63" d="M204.299,220.12h-17.584v-25.428l1.239,0.305c0.274,0.068,0.544,0.149,0.814,0.23
	c0.182,0.055,0.363,0.109,0.547,0.159c4.771,1.285,9.313,3.216,13.498,5.739c0.126,0.076,0.259,0.149,0.391,0.223
	c0.212,0.119,0.425,0.238,0.63,0.369l0.464,0.294V220.12z M188.715,218.12h13.584v-14.987c-0.024-0.014-0.047-0.027-0.071-0.04
	c-0.149-0.083-0.297-0.167-0.443-0.254c-4.029-2.428-8.398-4.286-12.99-5.522c-0.026-0.007-0.053-0.015-0.08-0.022V218.12z"/>
<path fill="#222E63" d="M184.223,220.12h-17.592v-25.908l0.851-0.128c2.277-0.344,4.707-0.539,7.222-0.578
	c0.119,0,0.222-0.006,0.324-0.011c0.131-0.007,0.261-0.013,0.392-0.014c2.631,0,5.305,0.204,7.954,0.605l0.85,0.129V220.12z
	 M168.631,218.12h13.592v-22.178c-2.271-0.306-4.554-0.461-6.8-0.461c-0.095,0-0.193,0.006-0.292,0.011
	c-0.137,0.007-0.274,0.014-0.413,0.014c-2.1,0.033-4.147,0.179-6.088,0.435V218.12z"/>
<path fill="#222E63" d="M164.139,220.121h-17.591v-18.109l0.463-0.295c4.852-3.086,10.199-5.348,15.893-6.722l1.234-0.298V220.121z
	 M148.548,218.121h13.591v-20.868c-4.839,1.293-9.403,3.261-13.591,5.86V218.121z"/>
<path fill="#222E63" d="M164.139,250.144h-17.591v-27.53h17.591V250.144z M148.548,248.144h13.591v-23.53h-13.591V248.144z"/>
<path fill="#222E63" d="M303.925,122.955h-12.57v-2.485c0-6.703,4.792-12.418,11.395-13.591l1.175-0.209V122.955z M293.355,120.955
	h8.57v-11.837c-5.031,1.429-8.57,6.026-8.57,11.352V120.955z"/>
<path fill="#222E63" d="M303.925,141.75h-12.57v-16.304h12.57V141.75z M293.355,139.75h8.57v-12.304h-8.57V139.75z"/>
<path fill="#222E63" d="M318.074,141.75h-11.6l-0.058-1v-15.304h12.569v15.392L318.074,141.75z M308.417,139.75h8.569v-12.304
	h-8.569V139.75z"/>
<path fill="#222E63" d="M318.985,122.954h-12.569v-16.287l1.176,0.21c4.39,0.785,8.153,3.659,10.067,7.689
	c0.881,1.851,1.327,3.837,1.326,5.902V122.954z M308.416,120.954h8.569v-0.485c0.001-1.766-0.38-3.462-1.133-5.043
	c-1.464-3.083-4.191-5.375-7.437-6.307V120.954z"/>
<rect x="284.299" y="151.522" fill="#FFFFFF" width="41.744" height="7.643"/>
<path fill="#222E63" d="M326.043,161.751h-41.745c-1.428,0-2.586-1.158-2.586-2.586v-7.643c0-1.428,1.158-2.586,2.586-2.586h41.745
	c1.428,0,2.586,1.158,2.586,2.586v7.643C328.629,160.593,327.472,161.751,326.043,161.751z M286.884,156.578h36.572v-2.47h-36.572
	V156.578z"/>
<path fill="#FFFFFF" d="M280.057,327.011v70.763h25.122V301.89C291.329,301.89,280.057,313.16,280.057,327.011z"/>
<path fill="#222E63" d="M305.179,400.361h-25.123c-1.428,0-2.586-1.158-2.586-2.586v-70.763c0-15.278,12.43-27.707,27.709-27.707
	c1.428,0,2.586,1.158,2.586,2.586v95.884C307.765,399.203,306.608,400.361,305.179,400.361z M282.643,395.188h19.95v-90.565
	c-11.213,1.287-19.95,10.836-19.95,22.388V395.188z"/>
<path fill="#FFFFFF" d="M330.301,327.011c0-13.851-11.269-25.121-25.122-25.121l0,0v95.884h25.122V327.011z"/>
<path fill="#222E63" d="M330.301,400.361h-25.122c-1.428,0-2.586-1.158-2.586-2.586V301.89c0-1.428,1.158-2.586,2.586-2.586
	c15.278,0,27.708,12.43,27.708,27.707v70.763C332.887,399.203,331.729,400.361,330.301,400.361z M307.765,395.188h19.949v-68.177
	c0-11.552-8.737-21.101-19.949-22.388V395.188z"/>
<path fill="#FFFFFF" d="M297.934,355.474c0,0.743-0.602,1.345-1.343,1.345l0,0c-0.743,0-1.346-0.602-1.346-1.345v-5.856
	c0-0.741,0.603-1.343,1.346-1.343l0,0c0.741,0,1.343,0.602,1.343,1.343V355.474z"/>
<path fill="#222E63" d="M296.591,359.405c-2.168,0-3.931-1.763-3.931-3.931v-5.856c0-2.167,1.763-3.93,3.931-3.93
	c2.166,0,3.93,1.763,3.93,3.93v5.856C300.52,357.642,298.757,359.405,296.591,359.405z"/>
<path fill="#FFFFFF" d="M315.084,355.474c0,0.743-0.603,1.345-1.347,1.345l0,0c-0.743,0-1.346-0.602-1.346-1.345v-5.856
	c0-0.741,0.603-1.343,1.346-1.343l0,0c0.744,0,1.347,0.602,1.347,1.343V355.474z"/>
<path fill="#222E63" d="M313.737,359.405c-2.168,0-3.932-1.763-3.932-3.931v-5.856c0-2.167,1.764-3.93,3.932-3.93
	c2.169,0,3.933,1.763,3.933,3.93v5.856C317.671,357.642,315.906,359.405,313.737,359.405z"/>
<rect x="119.465" y="401.443" fill="#FFFFFF" width="371.426" height="21.164"/>
<path fill="#222E63" d="M490.892,425.193H119.465c-1.428,0-2.586-1.158-2.586-2.586v-21.164c0-1.428,1.158-2.586,2.586-2.586
	h371.427c1.428,0,2.586,1.158,2.586,2.586v21.164C493.478,424.035,492.32,425.193,490.892,425.193z M122.051,420.021h366.254V404.03
	H122.051V420.021z"/>
<rect x="202.571" y="401.443" fill="#FFFFFF" width="72.036" height="21.164"/>
<path fill="#222E63" d="M274.606,425.193h-72.035c-1.428,0-2.586-1.158-2.586-2.586v-21.164c0-1.428,1.158-2.586,2.586-2.586h72.035
	c1.428,0,2.586,1.158,2.586,2.586v21.164C277.192,424.035,276.034,425.193,274.606,425.193z M205.157,420.021h66.863V404.03h-66.863
	L205.157,420.021L205.157,420.021z"/>
<rect x="345.18" y="401.443" fill="#FFFFFF" width="86.472" height="21.164"/>
<path fill="#222E63" d="M431.652,425.193h-86.471c-1.428,0-2.586-1.158-2.586-2.586v-21.164c0-1.428,1.158-2.586,2.586-2.586h86.471
	c1.428,0,2.586,1.158,2.586,2.586v21.164C434.238,424.035,433.081,425.193,431.652,425.193z M347.767,420.021h81.299V404.03h-81.299
	V420.021z"/>
<rect x="222.798" y="401.443" fill="#FFFFFF" width="30.038" height="21.164"/>
<path fill="#222E63" d="M252.837,425.193h-30.039c-1.428,0-2.586-1.158-2.586-2.586v-21.164c0-1.428,1.158-2.586,2.586-2.586h30.039
	c1.428,0,2.586,1.158,2.586,2.586v21.164C255.423,424.035,254.265,425.193,252.837,425.193z M225.384,420.021h24.866V404.03h-24.866
	V420.021z"/>
<rect x="354.743" y="401.443" fill="#FFFFFF" width="32.816" height="21.164"/>
<path fill="#222E63" d="M387.559,425.193h-32.815c-1.428,0-2.586-1.158-2.586-2.586v-21.164c0-1.428,1.158-2.586,2.586-2.586h32.815
	c1.428,0,2.586,1.158,2.586,2.586v21.164C390.145,424.035,388.987,425.193,387.559,425.193z M357.33,420.021h27.643V404.03H357.33
	V420.021z"/>
<rect x="268.64" y="401.445" fill="#FFFFFF" width="73.073" height="11.324"/>
<path fill="#222E63" d="M341.713,415.355H268.64c-1.428,0-2.586-1.158-2.586-2.586v-11.324c0-1.428,1.158-2.586,2.586-2.586h73.073
	c1.428,0,2.586,1.158,2.586,2.586v11.324C344.299,414.198,343.141,415.355,341.713,415.355z M271.226,410.183h67.901v-6.151h-67.901
	V410.183z"/>
<rect x="265.982" y="412.769" fill="#FFFFFF" width="78.392" height="11.326"/>
<path fill="#222E63" d="M344.374,426.682h-78.392c-1.428,0-2.586-1.158-2.586-2.586V412.77c0-1.428,1.158-2.586,2.586-2.586h78.392
	c1.428,0,2.586,1.158,2.586,2.586v11.326C346.96,425.524,345.802,426.682,344.374,426.682z M268.568,421.509h73.22v-6.154h-73.22
	V421.509z"/>
<rect x="137.32" y="279.766" fill="#222E63" width="18.542" height="6.106"/>
<rect x="159.25" y="279.766" fill="#222E63" width="18.543" height="6.106"/>
<rect x="148.283" y="288.838" fill="#222E63" width="18.544" height="6.103"/>
<rect x="170.217" y="288.838" fill="#222E63" width="18.543" height="6.103"/>
<rect x="462.89" y="381.53" width="18.543" height="6.106"/>
<rect x="429.995" y="390.433" width="18.543" height="6.106"/>
<rect x="461.44" y="276.716" fill="#222E63" width="18.545" height="6.102"/>
<rect x="450.475" y="285.782" fill="#222E63" width="18.544" height="6.106"/>
<rect x="461.44" y="294.687" fill="#222E63" width="18.545" height="6.106"/>
<rect x="356.915" y="280.528" fill="#222E63" width="18.543" height="6.106"/>
<rect x="272.448" y="175.596" fill="#222E63" width="18.548" height="6.104"/>
<rect x="335.357" y="126.509" fill="#222E63" width="18.543" height="6.106"/>
<rect x="237.925" y="273.612" fill="#222E63" width="18.543" height="6.106"/>
<rect x="156.291" y="384.583" fill="#FFFFFF" width="18.543" height="6.104"/>
<path fill="#222E63" d="M174.834,393.273H156.29c-1.428,0-2.586-1.158-2.586-2.586v-6.104c0-1.428,1.158-2.586,2.586-2.586h18.544
	c1.428,0,2.586,1.158,2.586,2.586v6.104C177.421,392.115,176.263,393.273,174.834,393.273z M158.877,388.1h13.371v-0.931h-13.371
	V388.1z"/>
<rect x="345.951" y="271.46" fill="#222E63" width="18.545" height="6.106"/>
<rect x="334.983" y="280.528" fill="#222E63" width="18.545" height="6.106"/>
<rect x="283.418" y="166.528" fill="#222E63" width="18.543" height="6.106"/>
<rect x="250.519" y="175.596" fill="#222E63" width="18.545" height="6.104"/>
<rect x="294.382" y="175.596" fill="#222E63" width="18.543" height="6.104"/>
<rect x="239.554" y="184.5" fill="#222E63" width="18.543" height="6.106"/>
<rect x="346.322" y="135.578" fill="#222E63" width="18.542" height="6.106"/>
<rect x="347.645" y="183.279" fill="#222E63" width="18.543" height="6.104"/>
<g>
	<path fill="#FFFFFF" d="M218.732,111.153c-1.957,0-3.577-1.427-3.896-3.296c3.653-1.237,6.292-4.689,6.292-8.757h-5.285
		c0,2.186-1.778,3.967-3.965,3.967c-2.175,0-3.946-1.769-3.959-3.943c3.519-1.076,6.15-4.196,6.504-7.97
		c3.866-1.109,6.705-4.667,6.705-8.883h-5.284c0,2.186-1.78,3.963-3.966,3.963c-2.182,0-3.96-1.778-3.96-3.963h-5.285
		c0,4.132,2.724,7.637,6.467,8.819c-0.373,1.8-1.971,3.158-3.88,3.158c-2.185,0-3.965-1.778-3.965-3.963h-5.283
		c0,2.186-1.776,3.963-3.96,3.963c-1.901,0-3.488-1.343-3.873-3.129c3.787-1.149,6.555-4.665,6.568-8.82
		c3.786-1.158,6.549-4.684,6.549-8.846h-5.281c0,2.188-1.778,3.963-3.962,3.963c-2.188,0-3.965-1.775-3.965-3.963h-5.283
		c0,4.199,2.816,7.748,6.655,8.873c-0.03,2.16-1.792,3.909-3.958,3.909c-2.187,0-3.966-1.778-3.966-3.963h-5.28
		c0,2.186-1.781,3.963-3.963,3.963c-2.188,0-3.966-1.778-3.966-3.963h-5.284c0,5.1,4.15,9.247,9.249,9.247
		c2.587,0,4.925-1.071,6.604-2.789c1.081,1.105,2.434,1.94,3.951,2.396c0.347,3.825,3.032,6.979,6.613,8.027
		c-0.029,2.161-1.792,3.915-3.958,3.915c-2.187,0-3.966-1.782-3.966-3.967h-5.282c0,4.242,2.869,7.814,6.765,8.902
		c-0.375,1.799-1.97,3.151-3.875,3.151c-2.187,0-3.965-1.775-3.965-3.963h-5.283c0,2.188-1.778,3.963-3.963,3.963
		c-2.187,0-3.965-1.775-3.965-3.963h-5.282c0,4.199,2.814,7.746,6.654,8.871c-0.028,2.16-1.79,3.912-3.958,3.912
		c-2.187,0-3.963-1.779-3.963-3.963h-5.283c0,5.098,4.147,9.244,9.247,9.244c5.091,0,9.231-4.132,9.245-9.219
		c1.501-0.458,2.839-1.29,3.91-2.385c1.096,1.121,2.474,1.962,4.019,2.413c0.029,5.074,4.164,9.191,9.247,9.191
		c5.097,0,9.244-4.145,9.244-9.244h-5.283c0,2.184-1.778,3.963-3.96,3.963c-2.18,0-3.95-1.766-3.963-3.939
		c3.57-1.091,6.221-4.289,6.514-8.139c3.698-1.203,6.383-4.674,6.394-8.77c1.5-0.458,2.837-1.289,3.907-2.384
		c1.097,1.121,2.476,1.962,4.021,2.413c0.024,4.219,2.884,7.766,6.763,8.849c-0.376,1.798-1.97,3.151-3.877,3.151
		c-2.187,0-3.965-1.775-3.965-3.963h-5.282c0,4.202,2.82,7.752,6.664,8.873c0.029,5.074,4.164,9.19,9.244,9.19
		c5.087,0,9.23-4.132,9.244-9.219c3.788-1.157,6.552-4.682,6.552-8.844h-5.283C222.694,109.378,220.917,111.153,218.732,111.153z
		 M212.182,119.972c-2.179,0-3.95-1.766-3.963-3.939c1.499-0.458,2.836-1.29,3.906-2.384c1.096,1.12,2.472,1.96,4.014,2.411
		C216.111,118.221,214.35,119.972,212.182,119.972z"/>
	<path fill="#222E63" d="M212.185,126.255c-5.373,0-9.811-4.18-10.214-9.458c-3.976-1.476-6.694-5.326-6.694-9.604v-1h7.282v1
		c0,1.634,1.33,2.963,2.965,2.963c1.093,0,2.079-0.609,2.591-1.531c-3.615-1.436-6.145-4.846-6.447-8.737
		c-1.11-0.412-2.144-1.016-3.05-1.781c-0.876,0.741-1.87,1.331-2.935,1.741c-0.283,3.92-2.78,7.326-6.441,8.777
		c-0.515,3.617-2.971,6.735-6.356,8.088c0.317,1.295,1.49,2.261,2.879,2.261c1.632,0,2.96-1.33,2.96-2.963v-1h7.283v1
		c0,5.648-4.596,10.244-10.244,10.244c-5.374,0-9.813-4.181-10.217-9.459c-1.11-0.412-2.144-1.016-3.049-1.781
		c-0.877,0.742-1.873,1.333-2.937,1.743c-0.385,5.299-4.827,9.497-10.218,9.497c-5.65,0-10.247-4.596-10.247-10.244v-1h7.283v1
		c0,1.634,1.329,2.963,2.963,2.963c1.371,0,2.536-0.951,2.865-2.228c-3.903-1.512-6.561-5.326-6.561-9.555v-1h7.282v1
		c0,1.634,1.33,2.963,2.965,2.963c1.634,0,2.963-1.329,2.963-2.963v-1h7.283v1c0,1.634,1.33,2.963,2.965,2.963
		c1.093,0,2.078-0.609,2.589-1.53c-3.863-1.532-6.479-5.307-6.479-9.522v-1h7.282v1c0,1.636,1.331,2.967,2.966,2.967
		c1.37,0,2.535-0.952,2.865-2.231c-3.383-1.312-5.868-4.38-6.435-7.964c-1.103-0.412-2.132-1.015-3.035-1.778
		c-1.848,1.57-4.16,2.424-6.605,2.424c-5.651,0-10.249-4.597-10.249-10.247v-1h7.284v1c0,1.634,1.331,2.963,2.966,2.963
		c1.634,0,2.963-1.329,2.963-2.963v-1h7.28v1c0,1.634,1.331,2.963,2.966,2.963c1.369,0,2.533-0.949,2.864-2.225
		c-3.903-1.513-6.562-5.327-6.562-9.557v-1h7.283v1c0,1.634,1.33,2.963,2.965,2.963c1.633,0,2.962-1.329,2.962-2.963v-1h7.281v1
		c0,4.224-2.67,8.059-6.576,9.567c-0.278,3.873-2.69,7.211-6.258,8.699c0.514,0.92,1.5,1.529,2.589,1.529
		c1.632,0,2.96-1.329,2.96-2.963v-1h7.283v1c0,1.634,1.33,2.963,2.965,2.963c1.108,0,2.104-0.624,2.611-1.564
		c-3.746-1.604-6.198-5.269-6.198-9.413v-1h7.285v1c0,1.634,1.328,2.963,2.96,2.963c1.635,0,2.966-1.329,2.966-2.963v-1h7.284v1
		c0,4.318-2.762,8.189-6.793,9.639c-0.569,3.575-2.969,6.561-6.332,7.894c0.316,1.296,1.488,2.264,2.875,2.264
		c1.635,0,2.965-1.331,2.965-2.967v-1h7.285v1c0,4.067-2.402,7.712-6.069,9.351c0.476,1.02,1.502,1.702,2.673,1.702
		c1.632,0,2.963-1.329,2.966-2.963l0.002-0.998h7.281v1c0,4.224-2.672,8.058-6.579,9.565
		C222.017,122.057,217.577,126.255,212.185,126.255z M197.339,108.192c0.4,3.222,2.707,5.987,5.882,6.913l0.716,0.208l0.004,0.746
		c0.026,4.519,3.724,8.196,8.244,8.196c4.533,0,8.231-3.688,8.244-8.222l0.002-0.738l0.706-0.216
		c3.118-0.953,5.384-3.706,5.782-6.888h-3.323c-0.467,2.258-2.472,3.961-4.863,3.961c-2.421,0-4.474-1.736-4.882-4.128l-0.144-0.841
		l0.809-0.274c3.037-1.028,5.172-3.694,5.552-6.81h-3.326c-0.464,2.261-2.469,3.967-4.864,3.967c-2.718,0-4.943-2.215-4.959-4.937
		l-0.004-0.745l0.712-0.217c3.211-0.982,5.488-3.772,5.801-7.107l0.064-0.68l0.656-0.188c3.197-0.917,5.518-3.685,5.919-6.921
		h-3.324c-0.464,2.259-2.469,3.963-4.865,3.963c-2.393,0-4.395-1.704-4.859-3.963h-3.327c0.383,3.188,2.581,5.878,5.709,6.865
		l0.861,0.272l-0.184,0.885c-0.475,2.292-2.519,3.955-4.859,3.955c-2.395,0-4.399-1.704-4.864-3.963h-3.485
		c-0.464,2.259-2.466,3.963-4.859,3.963c-2.321,0-4.361-1.648-4.851-3.918l-0.194-0.9l0.881-0.268
		c3.438-1.043,5.848-4.278,5.859-7.867l0.002-0.737l0.705-0.215c3.117-0.954,5.382-3.707,5.779-6.89h-3.32
		c-0.464,2.259-2.467,3.963-4.861,3.963c-2.395,0-4.399-1.704-4.864-3.963h-3.322c0.4,3.219,2.703,5.984,5.875,6.914l0.729,0.213
		l-0.011,0.76c-0.038,2.699-2.262,4.895-4.958,4.895c-2.396,0-4.4-1.704-4.865-3.963h-3.482c-0.464,2.259-2.468,3.963-4.862,3.963
		c-2.396,0-4.4-1.704-4.865-3.963h-3.325c0.495,4.078,3.979,7.247,8.188,7.247c2.229,0,4.32-0.884,5.889-2.488l0.714-0.731
		l0.715,0.731c0.978,0.999,2.196,1.738,3.524,2.138l0.647,0.194l0.061,0.673c0.303,3.337,2.673,6.214,5.898,7.157l0.729,0.213
		l-0.01,0.76c-0.037,2.703-2.261,4.901-4.958,4.901c-2.396,0-4.401-1.706-4.865-3.967h-3.322c0.402,3.261,2.745,6.038,5.973,6.938
		l0.901,0.252l-0.191,0.916c-0.477,2.287-2.518,3.947-4.854,3.947c-2.396,0-4.4-1.704-4.864-3.963h-3.485
		c-0.464,2.259-2.468,3.963-4.862,3.963c-2.396,0-4.4-1.704-4.864-3.963h-3.321c0.4,3.219,2.703,5.982,5.873,6.912l0.729,0.213
		l-0.01,0.759c-0.035,2.702-2.259,4.899-4.958,4.899c-2.394,0-4.398-1.704-4.862-3.963h-3.324c0.495,4.076,3.978,7.244,8.187,7.244
		c4.534,0,8.232-3.688,8.245-8.222l0.002-0.738l0.706-0.215c1.311-0.4,2.517-1.136,3.487-2.128l0.715-0.731l0.715,0.731
		c0.989,1.012,2.229,1.756,3.584,2.152l0.715,0.209l0.004,0.745c0.026,4.52,3.725,8.197,8.247,8.197
		c4.208,0,7.688-3.168,8.184-7.244h-3.324c-0.464,2.259-2.466,3.963-4.859,3.963c-2.72,0-4.946-2.213-4.963-4.933l-0.004-0.745
		l0.712-0.218c3.219-0.984,5.554-3.901,5.81-7.258l0.051-0.668l0.637-0.208c3.402-1.106,5.694-4.25,5.704-7.822l0.002-0.738
		l0.706-0.216c1.311-0.4,2.515-1.135,3.483-2.126l0.715-0.731l0.715,0.73c0.992,1.013,2.232,1.757,3.587,2.152l0.715,0.209
		l0.004,0.745c0.021,3.661,2.501,6.906,6.032,7.892l0.901,0.252l-0.191,0.916c-0.479,2.287-2.521,3.946-4.856,3.946
		c-2.396,0-4.4-1.704-4.864-3.963H197.339z M212.182,120.972c-2.72,0-4.947-2.213-4.963-4.933l-0.004-0.745l0.712-0.218
		c1.309-0.399,2.513-1.135,3.483-2.126l0.715-0.731l0.715,0.731c0.989,1.011,2.227,1.755,3.58,2.15l0.729,0.213l-0.01,0.759
		C217.104,118.774,214.88,120.972,212.182,120.972z M209.303,116.711c0.317,1.295,1.49,2.261,2.879,2.261
		c1.37,0,2.534-0.95,2.864-2.227c-1.061-0.411-2.05-0.997-2.92-1.732C211.28,115.728,210.324,116.303,209.303,116.711z"/>
</g>
<g>
	<path fill="#FFFFFF" d="M231.815,74.613c5.098,0,9.247-4.148,9.247-9.247h-5.283c0,2.183-1.778,3.963-3.963,3.963
		c-2.187,0-3.963-1.78-3.963-3.963h-5.283C222.568,70.465,226.716,74.613,231.815,74.613z"/>
	<path fill="#222E63" d="M231.815,75.613c-2.733,0-5.306-1.067-7.243-3.004s-3.003-4.51-3.002-7.243l0-1h7.283v1
		c0,1.634,1.329,2.963,2.963,2.963s2.963-1.33,2.963-2.963v-1h7.283v1C242.062,71.016,237.465,75.613,231.815,75.613z
		 M223.629,66.366c0.219,1.821,1.037,3.508,2.357,4.829c1.559,1.56,3.629,2.418,5.828,2.418c4.209,0,7.692-3.169,8.187-7.247h-3.324
		c-0.464,2.259-2.468,3.963-4.862,3.963s-4.398-1.704-4.862-3.963H223.629z"/>
</g>
<g>
	<path fill="#FFFFFF" d="M256.248,82.271c0,2.186-1.776,3.963-3.962,3.963c-2.188,0-3.965-1.778-3.965-3.963h-5.282
		c0,2.186-1.78,3.963-3.965,3.963s-3.961-1.778-3.961-3.963h-5.285c0,5.1,4.147,9.247,9.246,9.247c2.587,0,4.926-1.07,6.606-2.788
		c1.679,1.718,4.018,2.788,6.606,2.788c5.098,0,9.245-4.148,9.245-9.247H256.248z"/>
	<path fill="#222E63" d="M252.286,92.518c-2.447,0-4.759-0.854-6.606-2.422c-1.848,1.569-4.16,2.422-6.606,2.422
		c-5.649,0-10.246-4.597-10.246-10.247v-1h7.285v1c0,1.634,1.328,2.963,2.961,2.963c1.635,0,2.965-1.329,2.965-2.963v-1h7.282v1
		c0,1.634,1.33,2.963,2.965,2.963c1.633,0,2.962-1.329,2.962-2.963v-1h7.283v1C262.531,87.921,257.935,92.518,252.286,92.518z
		 M245.68,87.299l0.715,0.731c1.567,1.604,3.66,2.487,5.891,2.487c4.208,0,7.689-3.169,8.185-7.247h-3.324
		c-0.464,2.259-2.467,3.963-4.861,3.963c-2.396,0-4.4-1.704-4.864-3.963h-3.484c-0.464,2.259-2.469,3.963-4.864,3.963
		c-2.393,0-4.396-1.704-4.86-3.963h-3.326c0.495,4.078,3.977,7.247,8.186,7.247c2.23,0,4.323-0.883,5.891-2.487L245.68,87.299z"/>
</g>
<g>
	<path fill="#FFFFFF" d="M457.687,99.173h-5.283c0,2.184-1.779,3.966-3.965,3.966c-2.184,0-3.962-1.782-3.962-3.966h-5.284
		c0,5.1,4.15,9.249,9.246,9.249C453.541,108.422,457.687,104.273,457.687,99.173z"/>
	<path fill="#222E63" d="M448.44,109.422c-5.649,0-10.246-4.598-10.246-10.249v-1h7.283v1c0,1.635,1.329,2.966,2.963,2.966
		c1.635,0,2.965-1.331,2.965-2.966v-1h7.282v1C458.687,104.824,454.09,109.422,448.44,109.422z M440.254,100.173
		c0.494,4.079,3.977,7.249,8.186,7.249s7.691-3.17,8.187-7.249h-3.323c-0.464,2.261-2.468,3.966-4.863,3.966
		c-2.395,0-4.398-1.705-4.861-3.966H440.254z"/>
</g>
<g>
	<path fill="#FFFFFF" d="M428.872,116.509c5.098,0,9.25-4.148,9.25-9.247h-5.284c0,2.186-1.779,3.963-3.966,3.963
		c-2.182,0-3.961-1.778-3.961-3.963h-5.284C419.627,112.361,423.773,116.509,428.872,116.509z"/>
	<path fill="#222E63" d="M428.872,117.509c-5.649,0-10.245-4.597-10.245-10.247v-1h7.284v1c0,1.634,1.328,2.963,2.961,2.963
		c1.636,0,2.966-1.33,2.966-2.963v-1h7.284v1C439.122,112.912,434.525,117.509,428.872,117.509z M420.688,108.262
		c0.494,4.078,3.977,7.247,8.185,7.247c4.211,0,7.694-3.169,8.189-7.247h-3.325c-0.464,2.259-2.469,3.963-4.864,3.963
		c-2.394,0-4.396-1.704-4.859-3.963H420.688z"/>
</g>
<g>
	<path fill="#FFFFFF" d="M429.283,120.044c-2.187,0-3.965-1.779-3.965-3.963h-5.283c0,5.1,4.149,9.246,9.247,9.246
		c5.097,0,9.245-4.146,9.245-9.246h-5.283C433.245,118.265,431.468,120.044,429.283,120.044z"/>
	<path fill="#222E63" d="M429.282,126.327c-5.65,0-10.247-4.596-10.247-10.246v-1h7.283v1c0,1.634,1.33,2.963,2.965,2.963
		c0.789,0,1.532-0.309,2.093-0.869s0.868-1.304,0.868-2.093v-1h7.283v1C439.527,121.731,434.932,126.327,429.282,126.327z
		 M421.096,117.081c0.495,4.077,3.978,7.246,8.187,7.246c4.208,0,7.69-3.169,8.185-7.246h-3.323
		c-0.191,0.943-0.656,1.81-1.353,2.507c-0.938,0.938-2.185,1.456-3.508,1.456c-2.396,0-4.399-1.704-4.863-3.963H421.096z"/>
</g>
<g>
	<path fill="#FFFFFF" d="M472.876,116.081c0,2.184-1.779,3.963-3.962,3.963c-2.187,0-3.965-1.779-3.965-3.963h-5.283
		c0,2.184-1.78,3.963-3.965,3.963c-2.184,0-3.963-1.779-3.963-3.963h-5.284c0,5.1,4.146,9.246,9.247,9.246
		c2.588,0,4.926-1.07,6.606-2.787c1.68,1.717,4.018,2.787,6.606,2.787c5.097,0,9.245-4.146,9.245-9.246H472.876z"/>
	<path fill="#222E63" d="M468.913,126.327c-2.445,0-4.757-0.854-6.606-2.422c-1.848,1.568-4.159,2.422-6.605,2.422
		c-5.65,0-10.247-4.596-10.247-10.246v-1h7.284v1c0,1.634,1.329,2.963,2.963,2.963c1.635,0,2.965-1.329,2.965-2.963v-1h7.283v1
		c0,1.634,1.33,2.963,2.965,2.963c1.633,0,2.962-1.329,2.962-2.963v-1h7.282v1C479.158,121.731,474.563,126.327,468.913,126.327z
		 M462.307,121.11l0.715,0.73c1.569,1.604,3.662,2.487,5.892,2.487c4.208,0,7.69-3.169,8.185-7.246h-3.323
		c-0.464,2.259-2.467,3.963-4.86,3.963c-2.396,0-4.399-1.704-4.863-3.963h-3.486c-0.464,2.259-2.468,3.963-4.863,3.963
		c-2.395,0-4.397-1.704-4.861-3.963h-3.325c0.495,4.077,3.978,7.246,8.187,7.246c2.229,0,4.322-0.883,5.891-2.486L462.307,121.11z"
		/>
</g>
<path fill="#FFFFFF" d="M262.389,430.847c-0.535-0.438-1.028-0.927-1.472-1.456c-1.23,2.453-2.515,5.038-4.776,6.72
	c-1.409,1.049-4.055,2.809-5.907,2.151c-2.154-0.766-0.26-4.544,0.29-5.789c0.48-1.086,0.975-2.146,1.345-3.277
	c0.271-0.83,0.513-1.669,0.737-2.512c0.375-1.408-1.322-1.321-2.46-1.938c-2.011,7.658-5.072,15.276-9.855,21.641
	c-2.165,2.881-4.631,5.751-7.516,7.937c-2.999,2.273-7.288,3.742-7.147-1.492c0.107-3.987,0.024-7.988,0.189-11.971
	c0.021-2.079,0.033-4.159,0.033-6.238c0-1.041-0.003-2.083-0.009-3.124c-0.009-1.445,0.814-1.797,1.775-2.795
	c2.46-2.558,4.602-5.435,6.151-8.637c0.84-1.735,1.474-3.548,1.99-5.403c0.22-0.794,0.421-1.594,0.6-2.398
	c-0.797-0.66-1.541-1.385-2.225-2.162c-0.712,2.561-1.606,5.074-2.543,7.562c-0.698,1.852-1.778,4.607-3.82,5.367
	c-2.868,1.068-2.737-12.05-2.863-13.524c-1.099,0.425-0.716-1.238-1.79-1.04c-0.075,7.027-0.813,14.028-0.945,21.054
	c-0.06,3.227,0.327,6.464,0.214,9.679c-0.127,3.61-0.693,7.183-0.804,10.79c-0.078,2.533-0.418,6.069-2.489,7.868
	c-2.315,2.011-5.607,1.026-7.673-0.776c-2.431-2.12-4.285-5.059-6.126-7.678c-2.117-3.011-4.05-6.175-5.558-9.538
	c-1.118,0.95-3.285,1.239-2.602,2.809c0.798,1.836,1.777,3.644,2.84,5.34c1.422,2.27,2.591,5.833-1.527,4.916
	c-3.267-0.728-6.29-2.91-8.877-4.935c-1.656-1.296-3.237-2.684-4.811-4.079c-0.667-0.592-1.334-1.185-2.004-1.773
	c-0.755,0.401-1.56,0.734-2.372,1c3.565,5.477,10.127,9.245,15.97,11.861c2.809,1.257,5.967,2.296,9.085,1.926
	c1.385-0.165,2.818,2.221,3.797,3.23c1.255,1.292,2.379,2.71,3.397,4.194c3.765,5.488,6.479,12.105,7.179,18.752
	c0.748,7.062-0.964,16.788-7.065,21.288c-1.186,0.875-2.608,1.368-3.759,2.296c-1.212,0.977,0.963,1.84,1.89,2.035
	c3.069,0.646,5.718-1.08,8.688-1.29c2.867-0.203,6.049,1.594,8.806,1.012c3.344-0.707-0.309-3.025-1.064-4.772
	c-2.666-6.167-2.486-13.775-2.078-20.34c0.438-7.059,2.457-14.032,6.333-19.984c2.575-3.954,6.027-7.204,8.983-10.858
	c2.207-2.728,3.701-5.564,5.361-8.597c0.743-1.357,1.743-1.302,3.196-1.696c2.037-0.552,4.055-1.219,5.914-2.233
	c1.764-0.961,3.305-2.225,4.642-3.717c0.74-0.826,1.435-1.695,2.072-2.603C262.482,432.572,263.545,431.764,262.389,430.847
	C261.874,430.425,262.621,431.031,262.389,430.847z"/>
<path fill="#FFFFFF" stroke="#222E63" stroke-width="3" stroke-miterlimit="10" d="M212.285,511.457c-0.661,0-1.315-0.067-1.943-0.2
	c-0.849-0.179-3.662-0.941-4.216-3.247c-0.294-1.225,0.168-2.471,1.235-3.331c0.8-0.646,1.647-1.101,2.394-1.502
	c0.539-0.29,1.048-0.563,1.454-0.862c5.119-3.776,6.712-12.462,6.028-18.935c-0.621-5.896-3.016-12.132-6.74-17.561
	c-1.015-1.478-2.035-2.739-3.12-3.854c-0.324-0.335-0.632-0.714-0.956-1.116c-0.298-0.368-0.81-1.001-1.149-1.302
	c-0.377,0.031-0.761,0.047-1.146,0.047c-3.457,0-6.696-1.271-8.832-2.227c-8.301-3.715-13.888-7.906-17.081-12.811
	c-0.438-0.673-0.539-1.511-0.272-2.269c0.267-0.758,0.869-1.348,1.633-1.599c0.71-0.233,1.372-0.511,1.965-0.827
	c0.951-0.505,2.11-0.368,2.919,0.339c0.499,0.438,0.995,0.878,1.492,1.319l0.522,0.463c1.566,1.388,3.103,2.737,4.688,3.977
	c2.264,1.77,4.673,3.488,7.074,4.24c-0.122-0.248-0.271-0.521-0.454-0.81c-1.191-1.903-2.207-3.814-3.019-5.682
	c-0.655-1.508-0.739-3.667,2.579-5.397c0.254-0.133,0.603-0.314,0.721-0.415c0.62-0.526,1.453-0.73,2.245-0.551
	c0.794,0.18,1.456,0.722,1.789,1.464c1.296,2.888,3.034,5.867,5.314,9.109c0.288,0.409,0.575,0.826,0.866,1.246
	c1.491,2.158,3.032,4.389,4.845,5.971c0.887,0.774,2.013,1.255,2.939,1.255c0.534,0,0.96-0.153,1.338-0.481
	c0.964-0.838,1.502-2.855,1.6-5.996c0.06-1.918,0.241-3.817,0.416-5.654c0.169-1.775,0.329-3.451,0.39-5.147
	c0.056-1.589-0.02-3.191-0.098-4.887c-0.073-1.543-0.147-3.139-0.116-4.749c0.063-3.412,0.27-6.848,0.469-10.171
	c0.215-3.568,0.436-7.259,0.475-10.863c0.013-1.237,0.901-2.292,2.118-2.516c0.229-0.042,0.441-0.059,0.637-0.059
	c0.732,0,1.698,0.23,2.492,1.207c0.173,0.062,0.341,0.142,0.499,0.241c0.69,0.431,1.137,1.162,1.207,1.972
	c0.021,0.241,0.038,0.76,0.058,1.467c0.12,4.288,0.364,6.829,0.617,8.333c0.451-0.845,0.818-1.819,1.011-2.333
	c0.812-2.153,1.741-4.709,2.473-7.343c0.254-0.914,0.989-1.616,1.914-1.828s1.892,0.1,2.519,0.812
	c0.598,0.679,1.249,1.311,1.934,1.879c0.748,0.62,1.086,1.607,0.874,2.556c-0.19,0.85-0.402,1.7-0.632,2.526
	c-0.609,2.192-1.314,4.102-2.154,5.838c-1.566,3.238-3.791,6.368-6.615,9.303c-0.249,0.259-0.489,0.482-0.714,0.689
	c-0.108,0.1-0.246,0.227-0.334,0.317c0.003,1.088,0.006,2.105,0.005,3.123c0,2.086-0.012,4.174-0.033,6.262
	c-0.094,2.29-0.108,4.564-0.121,6.764c-0.01,1.751-0.022,3.503-0.068,5.251c-0.011,0.414,0.017,0.695,0.05,0.876
	c0.658-0.114,1.741-0.599,2.95-1.515c2.264-1.715,4.49-4.076,7.01-7.429c4.054-5.395,7.224-12.374,9.422-20.744
	c0.201-0.768,0.744-1.401,1.473-1.716c0.729-0.316,1.562-0.279,2.261,0.1c0.114,0.062,0.394,0.15,0.618,0.222
	c3.49,1.106,3.445,3.392,3.108,4.656c-0.256,0.963-0.511,1.83-0.778,2.647c-0.359,1.099-0.805,2.099-1.236,3.066l-0.341,0.766
	c-0.342,0.757-0.567,1.323-0.709,1.746c0.565-0.231,1.398-0.677,2.556-1.54c1.75-1.302,2.831-3.459,3.977-5.742
	c0.391-0.778,1.162-1.339,2.026-1.441c0.861-0.102,1.738,0.206,2.298,0.872c0.311,0.371,0.653,0.715,1.013,1.022
	c0.021,0.016,0.04,0.033,0.06,0.049l0.057,0.047c1.078,0.855,2.576,2.786,0.161,5.838c-0.114,0.144-0.234,0.293-0.344,0.45
	c-0.688,0.98-1.449,1.937-2.263,2.844c-1.579,1.76-3.372,3.194-5.33,4.261c-2.273,1.24-4.654,1.965-6.474,2.458
	c-0.315,0.085-0.611,0.153-0.891,0.216c-0.233,0.052-0.541,0.122-0.683,0.173c-0.01,0.016-0.02,0.034-0.03,0.052l-0.341,0.626
	c-1.583,2.898-3.077,5.636-5.277,8.356c-1.112,1.374-2.289,2.691-3.428,3.965c-1.987,2.223-3.865,4.323-5.399,6.678
	c-3.439,5.283-5.487,11.761-5.919,18.733c-0.418,6.734-0.481,13.714,1.87,19.153c0.094,0.196,0.533,0.713,0.795,1.023
	c1.005,1.186,2.38,2.81,1.692,4.818c-0.441,1.286-1.537,2.123-3.261,2.488c-0.543,0.115-1.122,0.173-1.722,0.173
	c-1.451,0-2.824-0.325-4.15-0.639c-1.217-0.288-2.333-0.563-3.287-0.496c-0.9,0.064-1.857,0.334-2.87,0.621
	C215.517,511.022,213.978,511.457,212.285,511.457z M220.027,504.835c1.473,0,2.857,0.328,4.195,0.644
	c0.453,0.107,0.896,0.212,1.32,0.298c-0.236-0.338-0.449-0.695-0.613-1.074c-1.988-4.6-2.536-9.85-2.519-15.163
	c-0.571,6.119-2.795,12.378-7.202,16.194c0.085-0.024,0.172-0.049,0.258-0.073c1.164-0.329,2.482-0.702,3.912-0.803
	C219.594,504.842,219.811,504.835,220.027,504.835z M213.505,461.163c0.423,0.55,0.841,1.125,1.256,1.73
	c4.203,6.126,6.909,13.209,7.62,19.944c0.077,0.726,0.13,1.469,0.157,2.226c0.031-0.63,0.067-1.26,0.106-1.886
	c0.488-7.862,2.821-15.205,6.747-21.235c1.053-1.617,2.232-3.11,3.446-4.538c-1.331,0.8-3.072,1.577-4.806,1.577
	c-1.374,0-2.57-0.482-3.458-1.394c-0.535-0.55-0.932-1.231-1.187-2.037c-0.492,1.605-1.292,3.127-2.599,4.262
	C218.844,461.498,216.138,461.973,213.505,461.163z M202.871,454.343c0.798,0.099,1.553,0.106,2.259,0.022
	c0.151-0.018,0.282-0.026,0.458-0.026c-0.539-0.742-1.058-1.493-1.571-2.236c-0.052-0.075-0.103-0.15-0.155-0.224
	c-0.037,0.612-0.188,1.213-0.499,1.774C203.223,453.904,203.058,454.135,202.871,454.343z M247.543,439.405
	c-0.096,0.194-0.191,0.385-0.288,0.577c0.173-0.043,0.338-0.08,0.492-0.115c0.06-0.013,0.12-0.027,0.182-0.041
	C247.79,439.695,247.662,439.554,247.543,439.405z M224.934,424.625c-0.053,1.065-0.099,2.132-0.133,3.194
	c0.16-0.16,0.316-0.304,0.46-0.436c0.154-0.142,0.321-0.294,0.491-0.471c0.402-0.418,0.79-0.84,1.164-1.265
	C226.119,425.54,225.469,425.187,224.934,424.625z"/>
<path fill="#FFFFFF" d="M255.163,374.653c-1.076-4.934-5.674-8.537-10.573-9.165c2.278-5.422-0.041-13.584-5.475-16.414
	c-4.603-2.397-12.395-1.078-14.145,4.428c-1.322-5.127-7.606-5.218-10.497-1.549c-2.159-5.249-11.453-5.604-13.272,0.148
	c-3.566-4.485-9.915-6.201-15.397-4.844c-5.596,1.385-10.891,6.721-10.568,12.83c-5.341-2.473-10.513,2.523-10.026,7.91
	c0.116,1.281-1.305,1.037-2.334,1.778c-0.902,0.65-1.598,1.566-1.989,2.606c-0.862,2.291-0.257,4.988,1.917,6.283
	c-3.185,4.175-3.447,10.997-2.135,15.894c1.381,5.152,5.266,9.327,10.32,11.044c0.34,4.192,4.099,6.738,7.911,7.56
	c2.19,0.472,4.499,0.468,6.684-0.029c0.977-0.222,1.932-0.546,2.833-0.984c0.871-0.424,1.869,1.862,2.58,2.634
	c3.516,3.822,8.983,5.105,13.982,4.09c2.797-0.568,5.449-1.936,7.63-3.763c0.935-0.784,1.768-2.469,2.811-1.824
	c1.232,0.762,2.839,1.107,4.267,0.804c1.235-0.261,2.385-0.876,3.337-1.698c0.387-0.334,0.74-0.702,1.057-1.104
	c0.757-0.96,0.781-0.301,1.791,0.105c2.708,1.087,5.798-0.165,7.736-2.145c0.882-0.897,1.416-2.076,1.58-3.317
	c0.129-0.976-0.4-1.404,0.7-1.518c0.66-0.069,1.305-0.25,1.904-0.536c2.693-1.285,4.22-4.189,3.813-7.125
	c4.367,1.95,9.892-0.664,10.906-5.387c0.278-1.297,0.265-2.657,0.029-3.959c-0.144-0.794-0.375-1.575-0.705-2.313
	c0.58-0.568,1.105-1.192,1.563-1.862C255.104,380.733,255.81,377.624,255.163,374.653
	C254.632,372.215,256.018,378.579,255.163,374.653z"/>
<path fill="#222E63" d="M201.661,421.793c-4.912,0-9.494-1.917-12.569-5.258c-0.359-0.391-0.654-0.844-0.966-1.325
	c-0.023-0.034-0.045-0.07-0.07-0.108c-0.612,0.22-1.247,0.405-1.899,0.553c-2.53,0.574-5.243,0.587-7.803,0.035
	c-4.976-1.073-8.595-4.207-9.655-8.204c-5.167-2.253-9.048-6.738-10.528-12.258c-1.272-4.751-1.256-11.242,1.305-16.128
	c-1.577-2.06-2.022-4.944-1.009-7.631c0.574-1.53,1.577-2.843,2.898-3.794c0.423-0.305,0.853-0.511,1.23-0.661
	c0.065-2.561,1.061-5.053,2.823-6.98c2.004-2.194,4.723-3.333,7.499-3.17c1.285-6.066,6.769-10.759,12.267-12.12
	c1.417-0.35,2.891-0.528,4.382-0.528c4.164,0,8.138,1.379,11.174,3.793c1.688-1.7,4.13-2.696,6.892-2.696
	c2.892,0,5.511,1.053,7.324,2.831c1.428-0.857,3.079-1.332,4.762-1.332c2.039,0,3.868,0.695,5.265,1.915
	c2.183-2.133,5.413-3.385,9.103-3.385c2.268,0,4.421,0.497,6.226,1.437c5.561,2.895,8.69,10.335,7.519,16.808
	c4.728,1.574,8.5,5.354,9.724,9.953l0.013-0.003l0.096,0.446c0.01,0.042,0.019,0.082,0.026,0.119l0,0l0,0l0,0
	c0,0,0.001,0.002,0.001,0.004c0.018,0.083,0.037,0.168,0.055,0.254l0.229,1.05l-0.042,0.009c0.032,0.269,0.047,0.538,0.036,0.798
	c0.142,2.941-0.706,5.94-2.436,8.471c-0.233,0.341-0.48,0.672-0.742,0.994c0.117,0.411,0.215,0.833,0.292,1.262
	c0.306,1.682,0.29,3.398-0.045,4.962c-1.005,4.683-5.353,8.082-10.34,8.082l0,0c-0.238,0-0.475-0.008-0.71-0.024
	c-0.656,2.687-2.474,5.001-5.083,6.246c-0.394,0.188-0.801,0.345-1.217,0.469c-0.303,1.672-1.088,3.216-2.237,4.383
	c-2.032,2.076-4.822,3.318-7.46,3.318c-0.967,0-1.904-0.161-2.792-0.478c-0.159,0.156-0.321,0.305-0.487,0.447
	c-1.322,1.142-2.876,1.927-4.489,2.269c-1.596,0.337-3.394,0.14-4.972-0.523c-0.282,0.322-0.6,0.676-0.981,0.995
	c-2.612,2.188-5.646,3.68-8.777,4.315C204.233,421.663,202.943,421.793,201.661,421.793z M188.637,409.511
	c1.952,0,3.035,1.664,3.825,2.879c0.142,0.219,0.358,0.551,0.444,0.65c2.091,2.272,5.284,3.58,8.755,3.58
	c0.937,0,1.881-0.095,2.803-0.282c2.256-0.458,4.559-1.599,6.484-3.212c0.111-0.092,0.322-0.334,0.491-0.529
	c0.709-0.814,1.781-2.043,3.51-2.043c0.637,0,1.269,0.183,1.83,0.53c0.707,0.436,1.657,0.624,2.372,0.474
	c0.761-0.162,1.516-0.55,2.181-1.125c0.262-0.226,0.504-0.478,0.721-0.752c0.286-0.362,1.164-1.476,2.667-1.476
	c0.936,0,1.593,0.446,1.909,0.66c0.117,0.08,0.163,0.109,0.207,0.127c1.452,0.582,3.507-0.106,4.923-1.554
	c0.464-0.471,0.769-1.125,0.865-1.846c0.004-0.067-0.009-0.128-0.013-0.18c-0.18-1.992,0.973-3.361,3.009-3.573
	c0.368-0.039,0.725-0.139,1.059-0.298c1.645-0.785,2.617-2.609,2.364-4.435c-0.13-0.931,0.256-1.859,1.008-2.423
	c0.752-0.565,1.751-0.677,2.608-0.294c0.633,0.283,1.32,0.426,2.039,0.426c2.523,0,4.795-1.717,5.283-3.995
	c0.195-0.908,0.2-1.93,0.013-2.954c-0.112-0.617-0.287-1.195-0.522-1.721c-0.441-0.988-0.219-2.147,0.554-2.903
	c0.461-0.45,0.876-0.945,1.236-1.472c1.338-1.958,1.843-4.33,1.386-6.509l-0.026-0.116c-0.812-3.593-4.329-6.576-8.361-7.093
	c-0.801-0.103-1.508-0.574-1.912-1.274c-0.403-0.7-0.456-1.548-0.144-2.293c1.689-4.022,0.044-10.865-4.285-13.118
	c-1.055-0.55-2.418-0.852-3.838-0.852c-2.713,0-5.821,1.165-6.648,3.769c-0.35,1.099-1.372,1.826-2.537,1.802
	c-1.152-0.032-2.144-0.823-2.432-1.94c-0.485-1.88-1.932-2.161-2.751-2.161c-1.218,0-2.449,0.601-3.212,1.567
	c-0.568,0.721-1.478,1.087-2.389,0.96c-0.91-0.127-1.685-0.728-2.034-1.578c-0.696-1.692-2.738-2.449-4.452-2.449
	c-0.752,0-3.261,0.173-3.963,2.393c-0.289,0.911-1.056,1.589-1.996,1.763c-0.94,0.173-1.899-0.185-2.494-0.933
	c-2.151-2.705-5.745-4.32-9.613-4.32c-1.073,0-2.128,0.127-3.139,0.377c-4.342,1.074-8.867,5.273-8.608,10.183
	c0.048,0.905-0.382,1.77-1.133,2.278c-0.752,0.509-1.715,0.585-2.536,0.205c-1.749-0.81-3.578-0.37-4.913,1.091
	c-1.044,1.144-1.587,2.729-1.45,4.24c0.171,1.899-0.815,3.223-2.932,3.935c-0.16,0.054-0.4,0.135-0.473,0.18
	c-0.477,0.343-0.86,0.847-1.073,1.412c-0.394,1.049-0.306,2.482,0.82,3.152c0.633,0.377,1.076,1.007,1.216,1.731
	s-0.036,1.474-0.483,2.06c-2.6,3.408-2.82,9.449-1.692,13.656c1.167,4.357,4.402,7.82,8.654,9.264
	c0.976,0.332,1.663,1.212,1.746,2.24c0.242,2.985,3.317,4.689,5.877,5.241c1.828,0.394,3.771,0.386,5.567-0.022
	c0.816-0.185,1.581-0.45,2.273-0.787C187.71,409.616,188.165,409.511,188.637,409.511z"/>
<path fill="#FFFFFF" d="M223.044,419.457c-0.489-4.306-3.963-7.779-8.21-8.487c-1.036-0.173-2.111-0.21-3.146-0.012
	c-0.146-1.196-0.741-2.316-1.629-3.127c-1.945-1.777-5.116-2.119-7.502-1.143c-0.012-4.431-3.379-8.388-7.406-9.903
	c-2.567-0.968-5.516-1.024-8.069,0.016c-1.392,0.567-2.64,1.433-3.765,2.42c-0.562,0.493-1.098,1.014-1.585,1.582
	c-1.205,1.405-0.799,1.235-2.494,0.586c-3.234-1.238-6.385,0.286-7.993,3.241c-0.365,0.671-0.642,1.389-0.84,2.126
	c-0.782-0.153-1.591-0.151-2.376-0.023c-1.639,0.266-3.392,1.077-4.368,2.467c-0.746,1.062-1.288,2.379-1.407,3.678
	c-0.087,0.948,0.387,1.015-0.575,1.465c-0.628,0.293-1.232,0.636-1.804,1.027c-2.444,1.668-4.247,4.241-4.611,7.215
	c-0.344,2.812,0.531,5.944,2.258,8.187c0.871,1.13,2.062,2.219,3.393,2.773c0.969,0.404,1.354-0.091,1.414,1.052
	c0.052,0.974,0.339,2.006,0.896,2.816c0.856,1.242,2.341,2.059,3.835,2.197c0.212,1.216,0.935,2.291,1.834,3.111
	c2.195,2.001,5.486,3.061,8.426,2.88c1.731-0.106,3.44-0.563,5.021-1.27c0.877-0.392,1.255-1.115,1.943-0.327
	c0.419,0.48,0.921,0.882,1.46,1.219c2.354,1.473,5.599,2.024,8.298,1.338c3.003-0.764,5.575-2.926,7.325-5.424
	c0.457-0.652,0.863-1.339,1.21-2.055c0.459-0.948,0.197-1.416,1.311-1.368c1.701,0.073,3.473-0.587,4.664-1.814
	c0.761-0.784,1.34-1.759,1.729-2.775c0.648-1.689,0.271-1.529,2.13-1.61c2.197-0.096,4.48-0.691,6.331-1.908
	C222.008,427.459,223.471,423.233,223.044,419.457C222.596,415.512,223.495,423.442,223.044,419.457z"/>
<path fill="#222E63" d="M191.611,449.438c-2.581,0-5.152-0.719-7.237-2.024c-0.355-0.222-0.689-0.46-0.999-0.713
	c-1.932,0.86-3.914,1.358-5.895,1.48c-3.726,0.23-7.681-1.138-10.327-3.551c-0.92-0.839-1.626-1.793-2.091-2.815
	c-1.604-0.532-3.019-1.565-3.964-2.936c-0.582-0.843-0.995-1.866-1.204-2.959c-1.593-0.671-3.161-1.938-4.419-3.57
	c-2.166-2.813-3.205-6.581-2.776-10.079c0.435-3.558,2.52-6.852,5.719-9.036c0.411-0.28,0.84-0.543,1.283-0.785
	c0.186-1.627,0.838-3.3,1.846-4.735c1.283-1.828,3.495-3.116,6.07-3.533c0.339-0.055,0.679-0.092,1.019-0.111
	c0.106-0.23,0.219-0.455,0.338-0.674c1.712-3.146,4.699-5.024,7.992-5.024c1.006,0,2.014,0.178,2.996,0.529
	c0.481-0.54,1.024-1.074,1.652-1.624c1.489-1.306,2.96-2.245,4.495-2.87c3.049-1.242,6.74-1.253,9.957-0.04
	c4.267,1.606,7.512,5.172,8.643,9.223c2.655-0.173,5.306,0.699,7.097,2.335c0.728,0.666,1.316,1.456,1.739,2.322
	c0.557,0.019,1.133,0.077,1.717,0.175c4.866,0.811,8.791,4.415,10.025,9.013c0.068,0.2,0.122,0.407,0.165,0.614l0.037-0.004
	l0.096,0.855c0.01,0.091,0.021,0.181,0.031,0.267c0,0.003,0,0.005,0,0.008c0.017,0.149,0.033,0.29,0.047,0.423l0.081,0.713
	l-0.016,0.002c0.021,0.344,0.017,0.63-0.029,0.889c-0.123,4.356-2.182,8.363-5.531,10.566c-2.62,1.723-5.487,2.219-7.484,2.324
	c-0.535,1.383-1.322,2.631-2.273,3.611c-1.418,1.461-3.446,2.394-5.535,2.572c-0.394,0.805-0.861,1.594-1.389,2.347
	c-2.312,3.301-5.439,5.59-8.805,6.446C193.709,449.313,192.676,449.438,191.611,449.438z M183.684,441.063
	c0.67,0,1.655,0.214,2.549,1.237c0.225,0.258,0.522,0.503,0.883,0.728c1.757,1.099,4.337,1.521,6.29,1.025
	c2.135-0.543,4.265-2.148,5.845-4.402c0.383-0.547,0.72-1.117,1-1.696c0.061-0.127,0.092-0.238,0.122-0.33
	c0.538-1.66,1.672-2.502,3.37-2.502c0.08,0,0.166,0.002,0.258,0.006l0.146,0.003c0.954,0,1.932-0.397,2.551-1.035
	c0.478-0.491,0.883-1.148,1.17-1.899c0.086-0.224,0.151-0.411,0.206-0.568c0.763-2.179,1.891-2.613,3.835-2.684l0.392-0.015
	c1.91-0.083,3.694-0.611,5.023-1.485c2.206-1.452,3.476-4.507,3.16-7.602l-0.023-0.202c-0.378-3.011-2.926-5.598-6.053-6.119
	c-0.831-0.139-1.589-0.147-2.232-0.023c-0.707,0.135-1.432-0.028-2.012-0.45c-0.579-0.422-0.956-1.066-1.043-1.777
	c-0.069-0.568-0.362-1.126-0.805-1.531c-0.698-0.637-1.767-1.002-2.934-1.002c-0.656,0-1.295,0.119-1.845,0.344
	c-0.796,0.326-1.702,0.234-2.418-0.245c-0.715-0.478-1.145-1.281-1.147-2.142c-0.009-3.505-2.89-6.421-5.731-7.49
	c-2.013-0.759-4.329-0.765-6.183-0.01c-0.993,0.405-1.986,1.049-3.036,1.969c-0.527,0.461-0.96,0.893-1.328,1.322l-0.31,0.368
	c-0.566,0.678-1.341,1.606-2.8,1.606c-0.685,0-1.205-0.218-1.707-0.428c-0.153-0.064-0.338-0.141-0.564-0.228
	c-1.86-0.712-3.751,0.139-4.797,2.062c-0.254,0.468-0.461,0.993-0.614,1.563c-0.354,1.311-1.66,2.127-2.995,1.865
	c-0.45-0.088-0.954-0.091-1.464-0.008c-1.153,0.187-2.198,0.736-2.664,1.4c-0.531,0.755-0.876,1.641-0.95,2.43
	c0.219,1.662-0.476,2.831-2.054,3.569c-0.507,0.237-0.991,0.512-1.443,0.82c-1.97,1.346-3.247,3.311-3.501,5.392
	c-0.259,2.116,0.424,4.587,1.74,6.295c0.713,0.926,1.566,1.642,2.339,1.964c0.056,0.016,0.101,0.018,0.14,0.023
	c1.746,0.249,2.763,1.413,2.861,3.279c0.03,0.571,0.197,1.126,0.444,1.484c0.401,0.582,1.181,1.02,1.942,1.09
	c1.163,0.107,2.109,0.98,2.31,2.13c0.095,0.542,0.461,1.127,1.029,1.646c1.618,1.475,4.175,2.354,6.524,2.21
	c1.368-0.084,2.756-0.438,4.125-1.05c0.105-0.047,0.189-0.113,0.269-0.165C181.978,441.526,182.685,441.063,183.684,441.063z"/>
<path fill="#FFFFFF" d="M285.234,408.978c-0.289-0.258-0.599-0.489-0.928-0.693c2.039-1.735,2.253-5.64-0.736-6.501
	c4.096-6.679,0.46-15.688-6.526-18.563c-5.309-2.185-15.366-2.534-17.615,4.243c-5.181-3.791-14.256,1.015-13.406,7.544
	c-8.436-1.707-16.352,6.94-13.95,15.086c1.282,4.348,4.564,8.504,8.814,10.257c-0.766,4.683,3.726,7.967,7.69,5.139
	c0.817,3.99,5.359,5.048,8.519,2.939c2.86,5.878,10.292,7.529,16.087,5.456c6.345-2.27,10.116-9.375,8.488-15.948
	C286.069,417.38,288.962,412.235,285.234,408.978C284.945,408.724,286.503,410.087,285.234,408.978z"/>
<path fill="#222E63" d="M268.192,437.327L268.192,437.327c-4.995,0-9.421-2.098-12.091-5.605c-0.801,0.236-1.634,0.357-2.477,0.357
	c-2.66,0-4.954-1.201-6.342-3.172c-2.632,0.657-5.447-0.25-7.214-2.329c-1.091-1.284-1.723-2.911-1.833-4.646
	c-4.013-2.256-7.245-6.365-8.642-11.107c-1.236-4.19-0.343-8.735,2.449-12.47c2.824-3.777,7.125-6.061,11.552-6.148
	c0.35-1.601,1.131-3.128,2.307-4.467c2.276-2.592,5.815-4.202,9.233-4.202c1.103,0,2.166,0.165,3.161,0.486
	c2.187-3.08,6.137-4.795,11.257-4.795c2.915,0,6.005,0.583,8.475,1.6c4.213,1.734,7.602,5.449,9.065,9.939
	c1.106,3.393,1.02,6.957-0.197,10.1c0.676,0.724,1.149,1.635,1.375,2.683c0.308,1.427,0.108,2.957-0.5,4.3
	c0.055,0.068,0.107,0.138,0.156,0.211c1.51,1.877,1.988,4.227,1.287,6.524c-0.693,2.274-2.429,4.155-4.629,5.17
	c0.613,7.132-3.673,14.109-10.532,16.562C272.188,436.988,270.216,437.327,268.192,437.327z M257.096,425.844
	c0.226,0,0.454,0.03,0.676,0.09c0.721,0.195,1.322,0.693,1.649,1.365c1.479,3.04,4.758,4.856,8.771,4.856l0,0
	c1.409,0,2.832-0.243,4.12-0.704c5.087-1.82,8.16-7.602,6.849-12.89c-0.177-0.717-0.04-1.475,0.377-2.084
	c0.417-0.609,1.076-1.011,1.808-1.103c1.518-0.192,2.619-1.299,2.922-2.293c0.245-0.803,0.005-1.507-0.735-2.153
	c-0.001-0.001-0.005-0.003-0.005-0.003c0.001-0.001-0.004,0.002-0.002-0.003c0-0.001-0.003-0.002-0.005-0.004l0,0
	c-0.008-0.007-0.015-0.014-0.023-0.021h-0.001c-0.172-0.152-0.359-0.291-0.555-0.412c-0.702-0.436-1.153-1.18-1.215-2.004
	c-0.062-0.824,0.273-1.627,0.902-2.163c0.433-0.369,0.702-1.135,0.586-1.673c-0.049-0.228-0.123-0.305-0.361-0.373
	c-0.776-0.223-1.403-0.797-1.695-1.55s-0.216-1.599,0.206-2.287c1.447-2.36,1.736-5.223,0.811-8.06
	c-1.001-3.068-3.286-5.595-6.116-6.759c-1.843-0.758-4.275-1.211-6.507-1.211c-2.384,0-6.551,0.504-7.67,3.877
	c-0.261,0.784-0.88,1.397-1.668,1.649c-0.785,0.252-1.647,0.112-2.314-0.376c-0.762-0.557-1.693-0.84-2.767-0.84
	c-1.945,0-4.044,0.959-5.347,2.443c-0.659,0.75-1.402,1.97-1.2,3.521c0.108,0.828-0.19,1.656-0.801,2.226
	c-0.61,0.569-1.456,0.809-2.276,0.643c-3.401-0.687-7.054,0.871-9.326,3.909c-1.807,2.416-2.401,5.299-1.631,7.91
	c1.138,3.859,4.011,7.233,7.32,8.598c1.111,0.458,1.76,1.622,1.566,2.809c-0.158,0.967,0.044,1.84,0.57,2.459
	c0.747,0.879,1.935,0.962,3.065,0.156c0.714-0.508,1.634-0.621,2.449-0.301c0.814,0.32,1.411,1.031,1.586,1.888
	c0.358,1.745,1.877,1.934,2.513,1.934c0.708,0,1.43-0.223,2.036-0.627C256.09,425.993,256.59,425.844,257.096,425.844z"/>
<path fill="#FFFFFF" d="M536.898,433.686c0.272-0.631,0.515-1.274,0.75-1.923c-0.209,0.091-0.435,0.17-0.696,0.241
	c-0.896,0.22-1.771,0.251-2.598,0.129c-2.994,4.549-5.803,9.175-9.379,13.288c-1.893,2.172-3.884,4.104-5.93,6.075
	c-1.436,1.183-5.52,4.496-7.346,2.616c-2.022-2.09,0.918-6.281,1.854-8.13c1.847-3.656,3.381-7.455,4.227-11.499
	c-0.805,0.065-1.599,0.062-2.374,0c-0.849-0.069-1.662-0.213-2.413-0.436c-0.585,1.854-1.203,3.687-1.944,5.468
	c-2.093,5.065-5.151,11.381-10.266,12.803c-0.381,0.1-0.768,0.188-1.169,0.235c-3.39,0.414-6.892-0.722-9.973-2.246
	c-2.455-1.218-2.807-3.207-2.973-6c-0.232-4.082-1.351-7.873-2.193-11.826c-0.128-0.026-0.265-0.044-0.385-0.088
	c-1.043-0.155-2.016-0.412-2.964-0.851c1.055,3.054,1.61,6.062,1.51,9.709c-0.017,0.744-0.118,1.34-0.261,1.829
	c-0.829,2.72-3.464,1.679-5.78,0.082c-4.082-2.833-7.865-6.432-11.418-10.059c-0.055,0.049-0.108,0.097-0.159,0.144
	c-0.756,0.653-1.689,0.984-2.548,1.393c3.951,4.753,8.591,8.852,13.45,12.199c4.029,2.777,8.525,4.719,12.342,7.908
	c4.045,3.382,6.698,8.312,8.334,13.662c1.043,3.404,2.017,7.355,2.207,10.958c0.261,4.932-1.106,9.676-3.839,13.476
	c-1.997,2.784-4.763,4.87-6.258,8.064c-0.538,1.152,3.822,0.252,4.178,0.23c2.596-0.135,5.179,0.279,7.738,0.693
	c1.741,0.292,3.514,0.379,5.103-0.21c1.114-0.321,2.209-0.873,3.353-1.391c0.194-0.084,0.388-0.184,0.583-0.263
	c2.324-1.005,4.813,0.078,7.126,0.602c0.954,0.222,1.885,0.556,2.851,0.704c0.334,0.049,3.13,0.066,1.796-1.014
	c-5.39-4.374-8.279-11.284-8.097-18.688c0.178-7.185,1.144-15.319,4.373-21.607C522.84,449.968,532.378,444.354,536.898,433.686z"/>
<path fill="#222E63" d="M503.047,503.557c-0.805,0-1.68-0.081-2.673-0.247c-2.429-0.393-4.948-0.802-7.412-0.675
	c0.002,0.002-0.108,0.021-0.254,0.045c-0.675,0.109-1.933,0.312-2.934,0.312c-0.473,0-1.729,0-2.341-0.962
	c-0.333-0.523-0.364-1.164-0.087-1.758c1.022-2.184,2.537-3.849,4.002-5.459c0.867-0.954,1.686-1.854,2.396-2.845
	c2.536-3.526,3.8-7.973,3.56-12.522c-0.151-2.887-0.873-6.452-2.144-10.598c-1.737-5.686-4.383-10.042-7.861-12.951
	c-2.181-1.822-4.576-3.209-7.112-4.677c-1.695-0.98-3.448-1.995-5.119-3.146c-5.248-3.615-9.876-7.812-13.752-12.476l-1.233-1.483
	l1.742-0.83c0.197-0.094,0.398-0.184,0.601-0.274c0.61-0.273,1.187-0.531,1.611-0.898l1.199-1.093l1.012,1.033
	c3.182,3.248,7,6.961,11.202,9.877c1.74,1.2,2.624,1.329,2.923,1.329c0.195,0,0.379,0,0.567-0.616
	c0.117-0.405,0.184-0.877,0.195-1.425c0.09-3.238-0.351-6.068-1.428-9.187l-1.149-3.329l3.197,1.479
	c0.76,0.352,1.571,0.583,2.554,0.729l1.427,0.292l0.205,0.967c0.207,0.972,0.432,1.934,0.654,2.893
	c0.683,2.932,1.388,5.963,1.57,9.161c0.166,2.797,0.515,3.935,2.142,4.741c3.459,1.712,6.527,2.42,9.125,2.101
	c0.278-0.032,0.567-0.091,0.972-0.196c4.335-1.206,7.227-7.007,9.258-11.926c0.778-1.867,1.397-3.75,1.9-5.346l0.443-1.406
	l1.414,0.419c0.641,0.19,1.35,0.318,2.108,0.38c0.69,0.056,1.406,0.058,2.133,0l1.998-0.16l-0.411,1.963
	c-0.78,3.727-2.205,7.608-4.356,11.867c-0.152,0.302-0.354,0.661-0.58,1.062c-0.801,1.423-2.468,4.384-1.534,5.349
	c0.038,0.039,0.104,0.108,0.348,0.108c0.689,0,2.104-0.488,4.922-2.803c2.196-2.116,4.021-3.902,5.797-5.939
	c2.879-3.312,5.216-6.912,7.689-10.724c0.521-0.802,1.041-1.604,1.567-2.403l0.525-0.8l0.946,0.14
	c0.664,0.101,1.35,0.064,2.022-0.102c0.146-0.04,0.307-0.096,0.455-0.16l3.189-1.386l-1.181,3.271
	c-0.245,0.679-0.499,1.35-0.784,2.009c-2.508,5.919-6.5,10.339-10.36,14.612c-3.378,3.739-6.568,7.271-8.869,11.755
	c-2.572,5.01-3.988,12.062-4.208,20.96c-0.174,7.081,2.575,13.455,7.542,17.485c1.13,0.915,0.945,1.88,0.813,2.252
	c-0.51,1.439-2.485,1.444-3.145,1.444c-0.002,0-0.004,0-0.006,0c-0.298,0-0.528-0.02-0.626-0.034
	c-0.696-0.106-1.339-0.285-1.96-0.459c-0.335-0.094-0.67-0.188-1.009-0.267c-0.475-0.107-0.965-0.24-1.46-0.374
	c-1.781-0.482-3.479-0.854-4.73-0.312c-0.122,0.05-0.211,0.092-0.3,0.134l-0.897,0.411c-0.921,0.426-1.873,0.866-2.866,1.158
	C505.244,503.39,504.215,503.557,503.047,503.557z M493.906,499.61c2.39,0,4.711,0.376,6.955,0.739
	c1.924,0.32,3.238,0.272,4.342-0.136l0.105-0.035c0.793-0.229,1.618-0.61,2.492-1.014l0.887-0.407
	c0.136-0.063,0.273-0.127,0.41-0.183c0.802-0.347,1.684-0.521,2.664-0.521c1.403,0,2.729,0.359,4.011,0.706
	c0.453,0.123,0.903,0.245,1.347,0.346c0.389,0.091,0.767,0.195,1.144,0.301c0.027,0.008,0.054,0.015,0.081,0.022
	c-4.341-4.602-6.677-10.961-6.507-17.896c0.235-9.485,1.72-16.765,4.539-22.256c2.375-4.628,5.661-8.351,8.885-11.923
	c-1.598,1.756-3.247,3.365-5.175,5.222l-0.087,0.078c-1.991,1.64-4.572,3.522-6.873,3.523c-0.989,0-1.855-0.353-2.503-1.021
	c-2.491-2.575-0.26-6.54,1.074-8.908c0.201-0.357,0.382-0.677,0.517-0.944c1.702-3.368,2.887-6.367,3.662-9.29
	c-0.197-0.009-0.394-0.021-0.589-0.036c-0.44-0.036-0.87-0.09-1.287-0.162c-0.432,1.312-0.957,2.812-1.566,4.274
	c-2.433,5.889-5.673,12.121-11.248,13.673c-0.387,0.101-0.87,0.217-1.396,0.279c-0.521,0.063-1.065,0.096-1.614,0.096
	c-2.807,0-5.816-0.813-9.199-2.487c-3.211-1.593-3.632-4.341-3.805-7.256c-0.146-2.575-0.659-5.021-1.243-7.56
	c0.185,1.443,0.25,2.908,0.207,4.456c-0.018,0.806-0.122,1.53-0.319,2.208c-0.537,1.76-1.789,2.759-3.442,2.759
	c-1.297,0.001-2.812-0.608-4.63-1.861c-4.012-2.784-7.639-6.208-10.729-9.322c-0.044,0.025-0.087,0.05-0.13,0.074
	c3.431,3.868,7.422,7.379,11.886,10.454c1.574,1.085,3.274,2.069,4.919,3.021c2.535,1.467,5.155,2.984,7.534,4.972
	c3.933,3.289,6.896,8.125,8.807,14.375c1.36,4.44,2.104,8.143,2.271,11.317c0.276,5.229-1.187,10.354-4.119,14.431
	c-0.811,1.13-1.728,2.138-2.614,3.113c-0.924,1.016-1.814,1.994-2.55,3.064c0.461-0.058,0.904-0.129,1.211-0.179
	c0.285-0.046,0.487-0.073,0.561-0.078C493.173,499.62,493.54,499.61,493.906,499.61z M535.119,433.701
	c-0.358,0.548-0.714,1.096-1.069,1.645c-2.421,3.73-4.925,7.588-7.943,11.06c-0.178,0.204-0.355,0.405-0.533,0.604
	c0.038-0.042,0.076-0.084,0.114-0.127c3.721-4.119,7.243-8.018,9.565-13.179C535.208,433.703,535.164,433.702,535.119,433.701z"/>
<path fill="#FFFFFF" d="M570.176,383.833c-0.143-5.013-0.636-10.099-2.098-14.917c-0.351-1.157-0.762-2.297-1.251-3.404
	c-0.655-1.484-0.127-1.947,0.315-3.465c0.835-2.866,1.234-5.855,1.23-8.839c-0.015-10.562-5.163-20.744-14.961-25.347
	c-2.178-1.023-4.506-1.734-6.89-2.071c-1.171-0.165-2.355-0.241-3.538-0.218c-1.851,0.035-1.438-0.936-2.014-2.533
	c-1.588-4.404-3.897-8.498-6.978-12.024c-6.224-7.124-15.02-11.852-24.018-14.471c-16.633-4.841-34.873,2.116-44.103,16.887
	c-1.131,1.811-2.107,3.719-2.906,5.698c-2.603-0.249-5.243-0.153-7.81,0.362c-5.142,1.03-9.762,3.791-13.651,7.24
	c-8.036,7.127-13.103,16.791-14.04,27.502c-0.829,9.474,0.317,19.714,3.854,28.575c0.762,1.91,2.168,3.666,1.957,5.707
	c-0.256,2.48-0.064,4.968,0.577,7.378c1.148,4.31,3.766,7.882,6.812,11.059c6.384,6.661,15.09,10.8,24.268,11.648
	c4.948,0.457,9.891-0.319,14.518-2.114c2.404-0.932,4.707-2.121,6.871-3.522c1.558-1.009,1.293-0.501,2.547,0.75
	c0.934,0.932,1.888,1.844,2.862,2.733c14.786,13.501,34.246,20.99,53.298,11.763C562.24,419.876,570.713,402.463,570.176,383.833
	C569.991,377.353,570.605,398.718,570.176,383.833z"/>
<path fill="#222E63" d="M527.573,434.879L527.573,434.879c-16.111,0-29.332-8.984-37.586-16.521
	c-0.99-0.904-1.976-1.845-2.932-2.798c-2.138,1.327-4.379,2.449-6.67,3.338c-5.117,1.984-10.468,2.762-15.691,2.277
	c-9.893-0.913-19.09-5.329-25.898-12.434c-3.965-4.136-6.331-8.007-7.444-12.182c-0.721-2.711-0.94-5.507-0.65-8.31
	c0.07-0.688-0.388-1.588-0.918-2.63c-0.297-0.584-0.604-1.188-0.869-1.853c-3.509-8.786-4.939-19.355-4.03-29.758
	c0.979-11.183,6.271-21.557,14.902-29.211c4.701-4.17,9.701-6.808,14.858-7.841c2.135-0.428,4.372-0.606,6.669-0.524
	c0.692-1.5,1.484-2.964,2.362-4.371c7.567-12.107,21.193-19.629,35.561-19.629c3.889,0,7.744,0.548,11.458,1.629
	c7.29,2.122,17.588,6.491,25.243,15.253c3.197,3.658,5.708,7.981,7.464,12.849c0.107,0.297,0.188,0.574,0.253,0.822
	c1.07,0.012,2.154,0.094,3.229,0.246c2.611,0.369,5.177,1.14,7.627,2.291c10.129,4.758,16.431,15.366,16.448,27.684
	c0.005,3.294-0.444,6.513-1.333,9.566c-0.121,0.413-0.245,0.76-0.358,1.07c-0.055,0.15-0.119,0.328-0.15,0.434
	c0.013,0.04,0.036,0.103,0.076,0.193c0.51,1.155,0.954,2.364,1.359,3.696c1.238,4.083,1.932,8.668,2.164,14.349h0.009l0.024,0.851
	c0.114,1.298,0.137,2.896,0.121,4.216c0.031,1.061,0.044,1.515,0.045,1.559l-0.086,0.003c-0.024,0.558-0.054,0.931-0.08,1
	c-0.047,0.123-0.102,0.24-0.165,0.352c-1.482,17.912-11.053,32.599-26.429,40.045C540.21,433.418,533.957,434.879,527.573,434.879z
	 M487.465,409.842c1.478,0,2.293,0.967,2.731,1.487c0.128,0.152,0.283,0.339,0.499,0.555c0.906,0.904,1.841,1.797,2.779,2.654
	c7.578,6.92,19.646,15.168,34.098,15.168c5.598,0,11.092-1.286,16.329-3.822c15.376-7.446,24.232-23.138,23.689-41.974v-0.003
	c0-0.002,0-0.004,0-0.007c-0.166-5.789-0.796-10.311-1.987-14.233c-0.343-1.13-0.718-2.148-1.142-3.111
	c-0.923-2.09-0.443-3.416-0.056-4.481c0.079-0.218,0.169-0.462,0.254-0.752c0.752-2.58,1.131-5.308,1.127-8.111
	c-0.014-10.296-5.177-19.113-13.474-23.011c-1.983-0.931-4.053-1.554-6.153-1.851c-0.922-0.13-1.852-0.197-2.764-0.197l-0.362,0.004
	c-0.016,0-0.128,0.001-0.145,0.001c-3.358,0-3.927-2.514-4.14-3.461c-0.062-0.271-0.119-0.527-0.211-0.782
	c-1.536-4.26-3.72-8.028-6.493-11.2c-6.832-7.82-16.165-11.761-22.793-13.69c-3.245-0.944-6.613-1.423-10.013-1.423
	c-12.6,0-24.546,6.59-31.175,17.197c-1.054,1.688-1.963,3.47-2.702,5.297c-0.428,1.061-1.498,1.716-2.644,1.605
	c-2.432-0.232-4.829-0.123-7.056,0.323c-4.248,0.851-8.434,3.085-12.442,6.639c-7.637,6.773-12.317,15.933-13.18,25.792
	c-0.841,9.613,0.465,19.34,3.68,27.391c0.178,0.447,0.42,0.922,0.675,1.424c0.748,1.47,1.679,3.3,1.453,5.506
	c-0.225,2.178-0.056,4.347,0.503,6.449c0.878,3.296,2.842,6.453,6.179,9.934c5.947,6.206,13.988,10.063,22.639,10.862
	c4.435,0.409,8.976-0.255,13.346-1.95c2.203-0.854,4.356-1.959,6.399-3.282C485.659,410.312,486.469,409.842,487.465,409.842z"/>
<path fill="#FFFFFF" d="M564.424,369.415c-3.79-14.621-16.854-28.29-32.905-22.942c-0.844,0.281-1.685,0.783-2.552,0.975
	c-0.279,0.062-2.177-4.124-2.496-4.64c-2.652-4.3-6.547-7.731-11.1-9.905c-7.915-3.779-17.639-3.864-25.757-0.65
	c-8.471,3.354-15.835,10.078-18.427,18.976c-1.518,5.213-1.933,10.749-1.392,16.144c-4.281,3.251-7.277,7.943-8.545,13.154
	c-2.232,9.172-0.319,20.745,7.342,26.935c5.94,4.799,14.446,6.092,21.577,3.405c1.483-0.559,3.395,2.769,4.583,3.916
	c1.838,1.773,3.877,3.337,6.073,4.642c4.047,2.405,8.596,3.896,13.267,4.441c9.089,1.061,18.381-1.581,25.444-7.446
	c3.539-2.939,6.423-6.688,8.085-10.995c4.964-0.676,9.505-3.135,12.693-7.017C566.805,390.504,566.872,378.856,564.424,369.415
	C563.271,364.966,567.291,380.473,564.424,369.415z"/>
<path fill="#222E63" d="M518.044,426.681L518.044,426.681c-1.417,0-2.846-0.083-4.249-0.247c-5.076-0.592-10.017-2.248-14.289-4.786
	c-2.349-1.396-4.552-3.079-6.547-5.004c-0.45-0.434-0.888-0.986-1.352-1.569c-0.333-0.419-0.883-1.111-1.289-1.515
	c-2.498,0.845-5.135,1.272-7.85,1.272c-5.719,0-11.224-1.903-15.5-5.359c-8.903-7.194-10.548-20.03-8.229-29.559
	c1.305-5.368,4.254-10.178,8.363-13.691c-0.378-5.395,0.17-10.801,1.602-15.717c2.63-9.029,10.09-16.751,19.958-20.657
	c4.108-1.627,8.675-2.486,13.206-2.486c5.169,0,10.223,1.109,14.617,3.207c5.078,2.425,9.292,6.187,12.187,10.881
	c0.161,0.261,0.362,0.671,0.802,1.572c0.155,0.317,0.378,0.775,0.605,1.229c0.207-0.085,0.414-0.164,0.621-0.233
	c2.622-0.873,5.275-1.316,7.885-1.316c10.219,0,23.272,7.9,28.114,25.222c0.002,0.007,0.005,0.014,0.007,0.021l0.007-0.002
	l0.058,0.222c0.002,0.006,0.004,0.012,0.005,0.018l1.205,4.648c0.108,0.42,0.107,0.842,0.014,1.237
	c1.042,7.124,1.042,17.791-5.68,25.978c-3.254,3.963-7.778,6.657-12.857,7.687c-1.808,3.998-4.644,7.664-8.268,10.674
	C534.767,423.743,526.546,426.681,518.044,426.681z M490.519,408.218c2.248,0,3.784,1.934,5.138,3.64
	c0.323,0.406,0.689,0.867,0.893,1.064c1.708,1.648,3.592,3.088,5.598,4.28c3.652,2.171,7.886,3.587,12.246,4.095
	c1.205,0.141,2.432,0.212,3.648,0.212c7.299,0,14.345-2.514,19.842-7.079c3.36-2.79,5.893-6.227,7.324-9.937
	c0.34-0.879,1.13-1.504,2.064-1.632c4.385-0.597,8.306-2.762,11.044-6.096c4.993-6.081,6.347-16.033,3.623-26.622l-0.02-0.08
	l1.321-0.343l-1.321,0.343l-0.018-0.066c-2.873-10.993-11.805-22.122-23.316-22.122c-2.054,0-4.157,0.354-6.251,1.051
	c-0.271,0.09-0.538,0.213-0.81,0.332c-0.58,0.256-1.238,0.545-2.001,0.714c-0.183,0.04-0.375,0.061-0.562,0.062c0,0-0.004,0-0.006,0
	c-1.817,0-2.402-1.197-4.132-4.744c-0.258-0.529-0.471-0.972-0.576-1.158c-2.352-3.813-5.814-6.9-9.993-8.896
	c-3.702-1.768-7.986-2.702-12.388-2.702c-3.886,0-7.795,0.734-11.303,2.123c-8.392,3.323-14.709,9.788-16.895,17.295
	c-1.374,4.714-1.824,9.958-1.303,15.163c0.09,0.896-0.292,1.773-1.009,2.317c-3.754,2.851-6.452,7.008-7.595,11.705
	c-1.87,7.686-0.649,18.573,6.454,24.313c3.36,2.715,7.71,4.21,12.25,4.21c2.369,0,4.654-0.408,6.791-1.213
	C489.663,408.295,490.087,408.218,490.519,408.218z"/>
<path fill="#FFFFFF" d="M531.081,391.658c-1.406-0.622-2.816-1.145-4.237-1.575c-5.753-1.741-11.635-1.894-17.611-0.492
	c-4.715,1.105-9.103,3.539-13.23,6.454c-7.738-10.223-17.87-18.623-29.714-20.311c-13.929-1.998-25.659,6.753-30.763,21.365
	c-2.099,6-2.45,12.416-1.255,18.375c1.547,7.694,5.688,14.61,12.035,18.831c11.189,7.448,25.717,4.414,37.849,0.439
	c8.166,5.111,17.119,8.591,26.28,9.827c13.54,1.841,31.914-1.739,38.364-17.374C555.138,411.834,542.884,396.915,531.081,391.658z"
	/>
<path fill="#222E63" d="M517.022,447.598L517.022,447.598c-2.337,0-4.67-0.156-6.936-0.464c-8.949-1.208-17.781-4.423-26.271-9.562
	c-5.528,1.764-13.325,3.876-21.067,3.876c-6.887,0-12.901-1.679-17.876-4.99c-6.714-4.465-11.381-11.737-13.136-20.474
	c-1.325-6.604-0.859-13.429,1.35-19.738c5.035-14.42,16.261-23.379,29.296-23.379c1.408,0,2.845,0.104,4.274,0.309
	c13.109,1.868,23.287,11.17,29.896,19.372c4.3-2.803,8.188-4.558,12.091-5.473c6.41-1.504,12.811-1.323,18.95,0.535
	c1.522,0.461,3.048,1.028,4.535,1.686c11.964,5.329,26.291,21.371,19.061,38.89C546.174,440.339,533.4,447.598,517.022,447.598z
	 M484.154,432.157c0.48,0,0.956,0.134,1.372,0.394c8.062,5.045,16.794,8.315,25.254,9.457c2.038,0.277,4.137,0.417,6.24,0.417
	c5.325,0,23.181-1.169,29.387-16.215c3.5-8.481,0.715-24.577-16.378-32.19c-1.289-0.57-2.615-1.063-3.935-1.463
	c-5.273-1.596-10.745-1.747-16.27-0.45c-3.843,0.901-7.761,2.822-12.33,6.049c-1.138,0.804-2.711,0.561-3.554-0.552
	c-5.929-7.833-15.603-17.542-28.017-19.311c-1.188-0.171-2.379-0.257-3.542-0.257c-10.932,0-20.06,7.444-24.414,19.914
	c-1.902,5.436-2.304,11.319-1.161,17.013c1.483,7.382,5.365,13.486,10.93,17.186c4.17,2.775,9.079,4.124,15.01,4.124
	c7.553,0,15.376-2.276,20.602-3.989C483.612,432.2,483.884,432.157,484.154,432.157z"/>
<path fill="#FFFFFF" d="M401.756,478.311c4.254-9.862-4.23-18.882-13.979-19.408c-8.455-0.456-17.107,5.094-19.332,13.565
	c-5.61-2.677-13.478,1.337-12.618,8.047c0.144,1.12-1.935,1.844-2.824,2.659c-1.055,0.967-1.944,2.113-2.627,3.37
	c-1.362,2.505-1.901,5.483-1.236,8.278c0.97,4.082,4.26,6.726,8.411,6.98c1.426,0.088,2.867-0.066,4.256-0.39
	c1.355-0.316,0.875,0.24,1.409,1.321c0.36,0.729,0.839,1.405,1.426,1.969c2.368,2.277,5.684,1.417,7.668-0.908
	c3.452,4.386,8.674,4.317,13.415,2.02c2.072-1.004,3.954-2.481,5.274-4.38c2.152,0.836,4.527,0.373,6.548-0.603
	C405.276,497.094,410.891,483.875,401.756,478.311C403.284,474.769,406.339,481.103,401.756,478.311z"/>
<path fill="#222E63" d="M379.589,509.95c-2.828,0-5.358-0.899-7.437-2.623c-1.321,0.838-2.805,1.294-4.302,1.294
	c-1.873,0-3.602-0.711-5.001-2.056c-0.707-0.678-1.307-1.476-1.791-2.373c-1.251,0.199-2.466,0.265-3.668,0.19
	c-5.323-0.325-9.549-3.843-10.767-8.962c-0.788-3.315-0.263-6.906,1.48-10.112c0.828-1.523,1.888-2.883,3.151-4.041
	c0.463-0.424,0.983-0.746,1.486-1.058c0.132-0.082,0.295-0.183,0.445-0.28c-0.101-2.556,0.76-4.991,2.472-6.936
	c2.176-2.473,5.537-3.95,8.99-3.95c0.741,0,1.465,0.066,2.17,0.198c3.218-7.64,11.215-12.951,19.987-12.951
	c0.37,0,0.742,0.01,1.111,0.03c6.26,0.337,12.097,3.691,15.234,8.751c1.998,3.225,2.714,6.824,2.12,10.423
	c0.921,0.773,1.494,1.943,1.494,3.036c0,0.263-0.03,0.516-0.087,0.757c1.696,2.241,2.522,5.012,2.371,8.114
	c-0.304,6.271-4.765,13.045-10.375,15.757c-1.754,0.848-3.579,1.295-5.28,1.295l0,0c-0.481,0-0.953-0.035-1.415-0.104
	c-1.383,1.53-3.126,2.823-5.124,3.791C384.373,509.341,381.93,509.95,379.589,509.95z M372.309,501.207c0.017,0,0.034,0,0.051,0
	c0.775,0.016,1.502,0.377,1.981,0.986c1.369,1.739,3.086,2.584,5.248,2.584c1.531,0,3.264-0.446,5.008-1.291
	c1.8-0.872,3.28-2.092,4.278-3.528c0.681-0.981,1.945-1.368,3.059-0.935c1.225,0.476,2.833,0.278,4.487-0.521
	c3.968-1.918,7.245-6.903,7.461-11.35c0.141-2.91-1.025-5.14-3.466-6.628c-0.002-0.001-0.003-0.002-0.005-0.003
	c-0.481-0.293-0.835-0.721-1.04-1.208c0-0.001-0.001-0.001-0.001-0.003c-0.001-0.001-0.001-0.002-0.002-0.003
	c0,0-0.001-0.002-0.001-0.003v-0.001c-0.002-0.003-0.003-0.006-0.004-0.009h-0.001c0-0.002-0.001-0.004-0.002-0.006v-0.001
	c-0.254-0.623-0.263-1.341,0.021-1.999c1.781-4.13,0.641-7.441-0.629-9.491c-2.225-3.589-6.588-6.066-11.115-6.31
	c-7.592-0.412-14.879,4.739-16.692,11.639c-0.196,0.745-0.714,1.365-1.413,1.689c-0.697,0.324-1.506,0.32-2.201-0.012
	c-0.815-0.389-1.719-0.586-2.684-0.586c-1.96,0-3.917,0.841-5.107,2.194c-0.945,1.074-1.331,2.344-1.147,3.776
	c0.307,2.415-1.796,3.719-2.927,4.42c-0.242,0.15-0.607,0.376-0.716,0.475c-0.84,0.77-1.548,1.678-2.102,2.698
	c-1.116,2.054-1.479,4.403-0.992,6.445c0.699,2.94,2.961,4.808,6.052,4.997c1.139,0.069,2.293-0.043,3.511-0.327
	c0.455-0.106,0.829-0.156,1.177-0.156c0.726,0,2.476,0.249,3.045,2.55c0.04,0.157,0.058,0.229,0.093,0.3
	c0.237,0.48,0.549,0.912,0.9,1.249c0.428,0.413,0.892,0.613,1.417,0.613c0.834,0,1.79-0.512,2.493-1.335
	C370.834,501.538,371.553,501.207,372.309,501.207z"/>
<rect x="38.618" y="447.935" fill="#FFFFFF" width="526.388" height="12.235"/>
<path fill="#222E63" d="M565.006,462.757H38.618c-1.428,0-2.586-1.158-2.586-2.586v-12.235c0-1.428,1.158-2.586,2.586-2.586h526.388
	c1.428,0,2.586,1.158,2.586,2.586v12.235C567.592,461.599,566.434,462.757,565.006,462.757z M41.204,457.585H562.42v-7.063H41.204
	V457.585z"/>
<polygon fill="#FFFFFF" points="54.404,434.207 46.511,428.03 38.618,434.207 38.618,503.846 54.404,503.846 "/>
<polygon fill="#FFFFFF" points="84.457,434.207 76.564,428.03 68.671,434.207 68.671,503.846 84.457,503.846 "/>
<polygon fill="#FFFFFF" points="114.509,434.207 106.616,428.03 98.722,434.207 98.722,503.846 114.509,503.846 "/>
<polygon fill="#FFFFFF" points="144.562,434.207 136.668,428.03 128.774,434.207 128.774,503.846 144.562,503.846 "/>
<polygon fill="#FFFFFF" points="174.613,434.207 166.72,428.03 158.827,434.207 158.827,503.846 174.613,503.846 "/>
<polygon fill="#FFFFFF" points="204.665,434.207 196.772,428.03 188.879,434.207 188.879,503.846 204.665,503.846 "/>
<polygon fill="#FFFFFF" points="234.719,434.207 226.823,428.03 218.93,434.207 218.93,503.846 234.719,503.846 "/>
<polygon fill="#FFFFFF" points="264.77,434.207 256.877,428.03 248.984,434.207 248.984,503.846 264.77,503.846 "/>
<polygon fill="#FFFFFF" points="294.822,434.207 286.928,428.03 279.035,434.207 279.035,503.846 294.822,503.846 "/>
<polygon fill="#FFFFFF" points="324.874,434.207 316.98,428.03 309.087,434.207 309.087,503.846 324.874,503.846 "/>
<polygon fill="#FFFFFF" points="354.927,434.207 347.031,428.03 339.138,434.207 339.138,503.846 354.927,503.846 "/>
<polygon fill="#FFFFFF" points="385.255,434.207 377.361,428.03 369.468,434.207 369.468,503.846 385.255,503.846 "/>
<polygon fill="#FFFFFF" points="415.585,434.207 407.69,428.03 399.797,434.207 399.797,503.846 415.585,503.846 "/>
<polygon fill="#FFFFFF" points="445.914,434.207 438.02,428.03 430.127,434.207 430.127,503.846 445.914,503.846 "/>
<polygon fill="#FFFFFF" points="476.244,434.207 468.349,428.03 460.455,434.207 460.455,503.846 476.244,503.846 "/>
<polygon fill="#FFFFFF" points="506.573,434.207 498.678,428.03 490.785,434.207 490.785,503.846 506.573,503.846 "/>
<polygon fill="#FFFFFF" points="536.902,434.207 529.007,428.03 521.114,434.207 521.114,503.846 536.902,503.846 "/>
<polygon fill="#FFFFFF" points="567.231,434.207 559.337,428.03 551.443,434.207 551.443,503.846 567.231,503.846 "/>
<g>
	<path fill="#222E63" d="M55.998,432.17l-7.893-6.178c-0.937-0.733-2.252-0.733-3.188,0l-7.893,6.178
		c-0.626,0.491-0.992,1.242-0.992,2.037v69.639c0,1.428,1.158,2.586,2.586,2.586h15.786c1.429,0,2.587-1.158,2.586-2.586v-69.639
		C56.99,433.411,56.624,432.66,55.998,432.17z M51.818,501.26H41.204v-65.792l5.307-4.153l5.307,4.153
		C51.818,435.468,51.818,501.26,51.818,501.26z"/>
	<path fill="#222E63" d="M86.051,432.17l-7.893-6.178c-0.937-0.733-2.252-0.733-3.188,0l-7.894,6.178
		c-0.626,0.491-0.992,1.242-0.992,2.037v69.639c0,1.428,1.158,2.586,2.586,2.586h15.787c1.429,0,2.586-1.158,2.586-2.586v-69.639
		C87.043,433.411,86.677,432.66,86.051,432.17z M81.871,501.26H71.256v-65.792l5.308-4.153l5.307,4.153
		C81.871,435.468,81.871,501.26,81.871,501.26z"/>
	<path fill="#222E63" d="M116.103,432.17l-7.894-6.178c-0.937-0.733-2.252-0.733-3.188,0l-7.893,6.178
		c-0.626,0.491-0.992,1.242-0.992,2.037v69.639c0,1.428,1.158,2.586,2.586,2.586h15.787c1.429,0,2.586-1.158,2.586-2.586v-69.639
		C117.095,433.411,116.729,432.66,116.103,432.17z M111.923,501.26h-10.615v-65.792l5.307-4.153l5.308,4.153V501.26z"/>
	<path fill="#222E63" d="M146.156,432.17l-7.894-6.178c-0.937-0.733-2.252-0.733-3.188,0l-7.894,6.178
		c-0.626,0.491-0.992,1.242-0.992,2.037v69.639c0,1.428,1.158,2.586,2.586,2.586h15.788c1.428,0,2.586-1.158,2.586-2.586v-69.639
		C147.148,433.411,146.782,432.66,146.156,432.17z M141.975,501.26H131.36h-0.001v-65.792l5.308-4.154l5.308,4.154L141.975,501.26
		L141.975,501.26z"/>
	<path fill="#222E63" d="M176.207,432.171l-7.894-6.178c-0.937-0.733-2.252-0.733-3.188,0l-7.892,6.178
		c-0.626,0.49-0.992,1.241-0.992,2.036v69.639c0,1.428,1.158,2.586,2.586,2.586h15.786c1.429,0,2.586-1.158,2.586-2.585v-69.639
		C177.199,433.412,176.833,432.661,176.207,432.171z M172.027,501.26h-10.614v-65.792l5.306-4.153l5.308,4.153V501.26z"/>
	<path fill="#222E63" d="M206.259,432.17l-7.893-6.178c-0.937-0.733-2.252-0.733-3.188,0l-7.894,6.178
		c-0.626,0.491-0.992,1.242-0.992,2.037v69.639c0,1.428,1.158,2.586,2.586,2.586h15.787c1.429,0,2.586-1.158,2.586-2.586v-69.639
		C207.251,433.411,206.885,432.66,206.259,432.17z M202.079,501.26h-10.615v-65.792l5.308-4.153l5.307,4.153V501.26z"/>
	<path fill="#222E63" d="M236.313,432.17l-7.896-6.178c-0.937-0.733-2.252-0.733-3.188,0l-7.893,6.178
		c-0.626,0.491-0.992,1.242-0.992,2.037v69.639c0,1.428,1.158,2.586,2.586,2.586h15.789c1.428,0,2.586-1.158,2.586-2.586v-69.639
		C237.305,433.411,236.939,432.66,236.313,432.17z M232.132,501.26h-10.616h-0.001v-65.792l5.307-4.154l5.31,4.154V501.26z"/>
	<path fill="#222E63" d="M266.363,432.17l-7.892-6.178c-0.937-0.733-2.252-0.733-3.188,0l-7.893,6.178
		c-0.626,0.491-0.992,1.242-0.992,2.037v69.639c0,1.428,1.158,2.586,2.586,2.586h15.785c1.428,0,2.586-1.158,2.586-2.587v-69.639
		C267.355,433.411,266.989,432.66,266.363,432.17z M262.183,501.26H251.57v-65.792l5.307-4.153l5.306,4.153V501.26z"/>
	<path fill="#222E63" d="M296.416,432.17l-7.894-6.178c-0.937-0.733-2.252-0.733-3.188,0l-7.893,6.178
		c-0.626,0.491-0.992,1.242-0.992,2.037v69.639c0,1.428,1.158,2.586,2.586,2.586h15.787c1.428,0,2.586-1.158,2.586-2.586v-69.639
		C297.408,433.411,297.042,432.66,296.416,432.17z M292.236,501.26h-10.615l0,0v-65.792l5.307-4.153l5.308,4.153L292.236,501.26
		L292.236,501.26z"/>
	<path fill="#222E63" d="M326.468,432.17l-7.894-6.178c-0.937-0.733-2.252-0.733-3.188,0l-7.893,6.178
		c-0.626,0.491-0.992,1.242-0.992,2.037v69.639c0,1.428,1.158,2.586,2.586,2.586h15.787c1.428,0,2.586-1.158,2.586-2.586v-69.639
		C327.46,433.411,327.094,432.66,326.468,432.17z M322.288,501.26h-10.615l0,0v-65.792l5.307-4.153l5.308,4.153L322.288,501.26
		L322.288,501.26z"/>
	<path fill="#222E63" d="M356.521,432.17l-7.896-6.178c-0.937-0.733-2.252-0.733-3.188,0l-7.893,6.178
		c-0.626,0.491-0.992,1.242-0.992,2.037v69.639c0,1.428,1.158,2.586,2.586,2.586h15.789c1.428,0,2.586-1.158,2.586-2.586v-69.639
		C357.513,433.411,357.147,432.66,356.521,432.17z M352.34,501.26h-10.616h-0.001v-65.792l5.307-4.154l5.31,4.154V501.26z"/>
	<path fill="#222E63" d="M386.849,432.17l-7.894-6.178c-0.937-0.733-2.252-0.733-3.188,0l-7.893,6.178
		c-0.626,0.491-0.992,1.242-0.992,2.037v69.639c0,1.428,1.158,2.586,2.586,2.586h15.787c1.428,0,2.586-1.158,2.586-2.586v-69.639
		C387.841,433.411,387.475,432.66,386.849,432.17z M382.669,501.26h-10.615l0,0v-65.792l5.307-4.153l5.308,4.153L382.669,501.26
		L382.669,501.26z"/>
	<path fill="#222E63" d="M417.179,432.17l-7.895-6.178c-0.937-0.732-2.252-0.733-3.188,0l-7.893,6.178
		c-0.626,0.491-0.992,1.242-0.992,2.037v69.639c0,1.428,1.158,2.586,2.586,2.586h15.788c1.429,0,2.586-1.158,2.586-2.586v-69.639
		C418.171,433.411,417.805,432.66,417.179,432.17z M412.998,501.26h-10.615h-0.001v-65.792l5.307-4.154l5.309,4.154V501.26z"/>
	<path fill="#222E63" d="M447.508,432.17l-7.894-6.178c-0.937-0.733-2.252-0.733-3.188,0l-7.893,6.178
		c-0.626,0.491-0.992,1.242-0.992,2.037v69.639c0,1.428,1.158,2.586,2.586,2.586h15.787c1.429,0,2.587-1.158,2.586-2.586v-69.639
		C448.5,433.411,448.134,432.66,447.508,432.17z M443.329,501.26h-10.615v-65.792l5.307-4.153l5.308,4.153L443.329,501.26
		L443.329,501.26z"/>
	<path fill="#222E63" d="M477.838,432.17l-7.896-6.178c-0.937-0.733-2.252-0.733-3.188,0l-7.893,6.178
		c-0.626,0.491-0.992,1.242-0.992,2.037v69.639c0,1.428,1.158,2.586,2.586,2.586h15.789c1.429,0,2.587-1.158,2.586-2.586v-69.639
		C478.83,433.411,478.464,432.66,477.838,432.17z M473.658,501.26h-10.616h-0.001v-65.792l5.307-4.154l5.31,4.154V501.26z"/>
	<path fill="#222E63" d="M508.168,432.17l-7.896-6.178c-0.937-0.733-2.252-0.733-3.188,0l-7.893,6.178
		c-0.626,0.491-0.992,1.242-0.992,2.037v69.639c0,1.428,1.158,2.586,2.586,2.586h15.789c1.428,0,2.586-1.158,2.586-2.586v-69.639
		C509.16,433.411,508.794,432.66,508.168,432.17z M503.987,501.26h-10.616h-0.001v-65.792l5.307-4.154l5.31,4.154V501.26z"/>
	<path fill="#222E63" d="M538.497,432.17l-7.896-6.178c-0.937-0.733-2.252-0.733-3.188,0l-7.893,6.178
		c-0.626,0.491-0.992,1.242-0.992,2.037v69.639c0,1.428,1.158,2.586,2.586,2.586h15.789c1.428,0,2.586-1.158,2.586-2.586v-69.639
		C539.489,433.411,539.123,432.66,538.497,432.17z M534.316,501.26H523.7h-0.001v-65.792l5.307-4.154l5.31,4.154L534.316,501.26
		L534.316,501.26z"/>
	<path fill="#222E63" d="M568.825,432.17l-7.894-6.178c-0.937-0.733-2.251-0.733-3.188,0l-7.894,6.178
		c-0.626,0.491-0.992,1.242-0.992,2.037v69.639c0,1.428,1.158,2.586,2.586,2.586h15.788c1.428,0,2.586-1.158,2.586-2.586v-69.639
		C569.817,433.411,569.451,432.66,568.825,432.17z M564.644,501.26h-10.615h-0.001v-65.792l5.308-4.154l5.308,4.154V501.26z"/>
</g>
<rect x="19.161" y="501.988" fill="#FFFFFF" width="564.827" height="30.23"/>
<path fill="#222E63" d="M583.988,534.804H19.161c-1.428,0-2.586-1.158-2.586-2.586v-30.23c0-1.428,1.158-2.586,2.586-2.586h564.828
	c1.428,0,2.586,1.158,2.586,2.586v30.23C586.575,533.646,585.417,534.804,583.988,534.804z M21.747,529.632h559.655v-25.057H21.747
	V529.632z"/>
</svg>
