<?xml version="1.0" encoding="utf-8"?>
<!-- Generator: Adobe Illustrator 17.0.0, SVG Export Plug-In . SVG Version: 6.00 Build 0)  -->
<!DOCTYPE svg PUBLIC "-//W3C//DTD SVG 1.1//EN" "http://www.w3.org/Graphics/SVG/1.1/DTD/svg11.dtd">
<svg version="1.1" id="图层_1" xmlns="http://www.w3.org/2000/svg" xmlns:xlink="http://www.w3.org/1999/xlink" x="0px" y="0px"
	 width="613.34px" height="552.34px" viewBox="-3.719 -33.139 613.34 552.34" enable-background="new -3.719 -33.139 613.34 552.34"
	 xml:space="preserve">
<rect x="-1.05" y="-30.469" fill="#FFFFFF" width="608" height="547"/>
<path fill="#222E63" d="M606.951,519.201h-608c-1.475,0-2.67-1.195-2.67-2.67v-547c0-1.475,1.195-2.67,2.67-2.67h608
	c1.475,0,2.67,1.195,2.67,2.67v547C609.62,518.006,608.425,519.201,606.951,519.201z M1.62,513.861h602.66V-27.8H1.62V513.861z"/>
<rect x="15.45" y="-15.625" fill="#FFFFFF" width="575" height="517.311"/>
<path fill="#222E63" d="M590.451,504.356h-575c-1.475,0-2.67-1.195-2.67-2.67V-15.625c0-1.475,1.195-2.67,2.67-2.67h575
	c1.475,0,2.67,1.195,2.67,2.67v517.311C593.12,503.161,591.925,504.356,590.451,504.356z M18.12,499.016h569.66V-12.955H18.12
	V499.016z"/>
<rect x="212.613" y="39.573" fill="#FFFFFF" width="178.279" height="456.824"/>
<rect x="202.105" y="29.569" fill="#FFFFFF" width="195.302" height="28.045"/>
<g>
	<rect x="233.645" y="212.958" fill="#222E63" width="37.175" height="37.173"/>
	<rect x="284.98" y="212.958" fill="#222E63" width="37.18" height="37.173"/>
	<rect x="333.663" y="212.958" fill="#222E63" width="37.17" height="37.173"/>
	<rect x="233.645" y="260.754" fill="#222E63" width="37.175" height="37.171"/>
	<rect x="284.98" y="260.754" fill="#222E63" width="37.18" height="37.171"/>
	<rect x="333.663" y="260.754" fill="#222E63" width="37.17" height="37.171"/>
	<rect x="233.645" y="308.546" fill="#222E63" width="37.175" height="37.177"/>
	<rect x="284.98" y="308.546" fill="#222E63" width="37.18" height="37.177"/>
	<rect x="333.663" y="308.546" fill="#222E63" width="37.17" height="37.177"/>
	<rect x="233.645" y="356.343" fill="#222E63" width="37.175" height="37.174"/>
	<rect x="284.98" y="356.343" fill="#222E63" width="37.18" height="37.174"/>
	<rect x="333.663" y="356.343" fill="#222E63" width="37.17" height="37.174"/>
	<rect x="233.645" y="404.136" fill="#222E63" width="37.175" height="37.174"/>
	<rect x="284.98" y="404.136" fill="#222E63" width="37.18" height="37.174"/>
	<rect x="333.663" y="404.136" fill="#222E63" width="37.17" height="37.174"/>
	<rect x="233.645" y="66.17" fill="#222E63" width="37.175" height="37.175"/>
	<rect x="284.98" y="66.17" fill="#222E63" width="37.18" height="37.175"/>
	<rect x="333.663" y="66.17" fill="#222E63" width="37.17" height="37.175"/>
	<rect x="233.645" y="113.965" fill="#222E63" width="37.175" height="37.176"/>
	<rect x="284.98" y="113.965" fill="#222E63" width="37.18" height="37.176"/>
	<rect x="333.663" y="113.965" fill="#222E63" width="37.17" height="37.176"/>
	<rect x="233.645" y="161.761" fill="#222E63" width="37.175" height="37.174"/>
	<rect x="284.98" y="161.761" fill="#222E63" width="37.18" height="37.174"/>
	<rect x="333.663" y="161.761" fill="#222E63" width="37.17" height="37.174"/>
</g>
<rect x="212.66" y="473.358" fill="#FFFFFF" width="178.279" height="23.034"/>
<path fill="#222E63" d="M397.406,27.028H202.105c-1.403,0-2.541,1.138-2.541,2.541v28.045c0,1.403,1.138,2.541,2.541,2.541h7.967
	v436.243c0,1.403,1.138,2.541,2.541,2.541h178.278c0.177,0,0.349-0.018,0.515-0.053c1.179-0.22,2.072-1.251,2.072-2.494v-23.034
	c0-0.158-0.019-0.31-0.046-0.46V60.154h3.974c1.403,0,2.541-1.138,2.541-2.541V29.569C399.947,28.165,398.81,27.028,397.406,27.028z
	 M388.351,493.851H215.2v-17.952h173.15v17.952H388.351z M388.351,470.817H215.154V60.154h173.197V470.817z M394.866,55.073h-190.22
	V32.11h190.22V55.073z"/>
<rect x="339.091" y="95.383" fill="#FFFFFF" width="180.273" height="401.014"/>
<rect x="339.091" y="462.073" fill="#FFFFFF" width="180.273" height="34.324"/>
<rect x="377.721" y="139.529" fill="#FFFFFF" width="103.011" height="25.398"/>
<rect x="377.721" y="185.387" fill="#FFFFFF" width="103.011" height="25.396"/>
<rect x="377.721" y="231.243" fill="#FFFFFF" width="103.011" height="25.398"/>
<rect x="377.721" y="277.1" fill="#FFFFFF" width="103.011" height="25.398"/>
<rect x="377.721" y="322.956" fill="#FFFFFF" width="103.011" height="25.398"/>
<rect x="377.721" y="368.814" fill="#FFFFFF" width="103.011" height="25.397"/>
<g>
	<path fill="#222E63" d="M480.732,136.988h-103.01c-1.403,0-2.541,1.138-2.541,2.541v25.398c0,1.403,1.138,2.541,2.541,2.541
		h103.011c1.403,0,2.541-1.138,2.541-2.541v-25.398C483.273,138.126,482.136,136.988,480.732,136.988z M478.192,162.387h-97.929
		V142.07h97.929L478.192,162.387L478.192,162.387z"/>
	<path fill="#222E63" d="M480.732,182.846h-103.01c-1.403,0-2.541,1.138-2.541,2.541v25.396c0,1.403,1.138,2.541,2.541,2.541
		h103.011c1.403,0,2.541-1.138,2.541-2.541v-25.396C483.273,183.984,482.136,182.846,480.732,182.846z M478.192,208.242h-97.929
		v-20.314h97.929L478.192,208.242L478.192,208.242z"/>
	<path fill="#222E63" d="M480.732,228.702h-103.01c-1.403,0-2.541,1.138-2.541,2.541v25.398c0,1.403,1.138,2.541,2.541,2.541
		h103.011c1.403,0,2.541-1.138,2.541-2.541v-25.398C483.273,229.839,482.136,228.702,480.732,228.702z M478.192,254.1h-97.929
		v-20.316h97.929L478.192,254.1L478.192,254.1z"/>
	<path fill="#222E63" d="M480.732,274.559h-103.01c-1.403,0-2.541,1.138-2.541,2.541v25.398c0,1.403,1.138,2.541,2.541,2.541
		h103.011c1.403,0,2.541-1.137,2.541-2.541V277.1C483.273,275.697,482.136,274.559,480.732,274.559z M478.192,299.958h-97.929
		v-20.317h97.929L478.192,299.958L478.192,299.958z"/>
	<path fill="#222E63" d="M480.732,320.415h-103.01c-1.403,0-2.541,1.138-2.541,2.541v25.398c0,1.403,1.138,2.541,2.541,2.541
		h103.011c1.403,0,2.541-1.137,2.541-2.541v-25.398C483.273,321.552,482.136,320.415,480.732,320.415z M478.192,345.813h-97.929
		v-20.316h97.929L478.192,345.813L478.192,345.813z"/>
	<path fill="#222E63" d="M480.732,366.273h-103.01c-1.403,0-2.541,1.138-2.541,2.541v25.397c0,1.403,1.138,2.541,2.541,2.541
		h103.011c1.403,0,2.541-1.138,2.541-2.541v-25.397C483.273,367.41,482.136,366.273,480.732,366.273z M478.192,391.67h-97.929
		v-20.315h97.929L478.192,391.67L478.192,391.67z"/>
</g>
<rect x="87.963" y="177.902" fill="#FFFFFF" width="178.279" height="318.495"/>
<rect x="78.952" y="169.89" fill="#FFFFFF" width="195.302" height="28.042"/>
<rect x="331.747" y="85.037" fill="#FFFFFF" width="195.302" height="28.042"/>
<g>
	<rect x="109.995" y="212.958" fill="#222E63" width="37.175" height="37.173"/>
	<rect x="161.335" y="212.958" fill="#222E63" width="37.175" height="37.173"/>
	<rect x="210.013" y="212.958" fill="#222E63" width="37.175" height="37.173"/>
	<rect x="109.995" y="260.751" fill="#222E63" width="37.175" height="37.174"/>
	<rect x="161.335" y="260.751" fill="#222E63" width="37.175" height="37.174"/>
	<rect x="210.013" y="260.751" fill="#222E63" width="37.175" height="37.174"/>
	<rect x="109.995" y="308.546" fill="#222E63" width="37.175" height="37.174"/>
	<rect x="161.335" y="308.546" fill="#222E63" width="37.175" height="37.174"/>
	<rect x="210.013" y="308.546" fill="#222E63" width="37.175" height="37.174"/>
	<rect x="109.995" y="356.343" fill="#222E63" width="37.175" height="37.174"/>
	<rect x="161.335" y="356.343" fill="#222E63" width="37.175" height="37.174"/>
	<rect x="210.013" y="356.343" fill="#222E63" width="37.175" height="37.174"/>
	<rect x="109.995" y="404.136" fill="#222E63" width="37.175" height="37.174"/>
	<rect x="161.335" y="404.136" fill="#222E63" width="37.175" height="37.174"/>
	<rect x="210.013" y="404.136" fill="#222E63" width="37.175" height="37.174"/>
</g>
<rect x="87.963" y="473.363" fill="#FFFFFF" width="178.279" height="23.034"/>
<path fill="#222E63" d="M527.049,82.496H331.747c-1.403,0-2.541,1.138-2.541,2.541v28.042c0,1.403,1.138,2.541,2.541,2.541h4.803
	v380.778c0,0.296,0.061,0.577,0.154,0.841c0.348,0.988,1.28,1.7,2.387,1.7l0,0h180.273l0,0c1.403,0,2.541-1.138,2.541-2.541V115.619
	h5.145c1.403,0,2.541-1.138,2.541-2.541V85.037C529.59,83.633,528.452,82.496,527.049,82.496z M516.822,459.532H341.631V115.619
	h175.191V459.532z M516.822,464.614v29.242H341.631v-29.242H516.822z M524.508,110.538H334.287v-22.96h190.221V110.538z"/>
<path fill="#222E63" d="M274.254,167.349H78.952c-1.403,0-2.541,1.138-2.541,2.541v28.042c0,1.403,1.138,2.541,2.541,2.541h6.47
	v272.889c0,0.001,0,0.001,0,0.002v23.034c0,0.957,0.536,1.781,1.317,2.214c0.364,0.202,0.777,0.327,1.223,0.327l0,0h178.279l0,0
	c1.403,0,2.541-1.138,2.541-2.541V200.473h5.471c1.403,0,2.541-1.138,2.541-2.541V169.89
	C276.794,168.487,275.657,167.349,274.254,167.349z M263.701,470.823H90.504v-270.35h173.197V470.823z M263.701,475.904v17.952
	H90.504v-17.952H263.701z M271.713,195.391H81.493v-22.96h190.22V195.391z"/>
</svg>
