<?xml version="1.0" encoding="utf-8"?>
<!-- Generator: Adobe Illustrator 17.0.0, SVG Export Plug-In . SVG Version: 6.00 Build 0)  -->
<!DOCTYPE svg PUBLIC "-//W3C//DTD SVG 1.1//EN" "http://www.w3.org/Graphics/SVG/1.1/DTD/svg11.dtd">
<svg version="1.1" id="图层_1" xmlns="http://www.w3.org/2000/svg" xmlns:xlink="http://www.w3.org/1999/xlink" x="0px" y="0px"
	 width="613.34px" height="552.34px" viewBox="-10.34 6.943 613.34 552.34" enable-background="new -10.34 6.943 613.34 552.34"
	 xml:space="preserve">
<g>
	<rect x="-7.67" y="9.613" fill="#FFFFFF" width="608" height="547"/>
	<path fill="#222E63" d="M600.33,559.283h-608c-1.475,0-2.67-1.195-2.67-2.67v-547c0-1.475,1.195-2.67,2.67-2.67h608
		c1.475,0,2.67,1.195,2.67,2.67v547C603,558.088,601.805,559.283,600.33,559.283z M-5,553.943h602.66V12.283H-5V553.943z"/>
</g>
<g>
	<rect x="8.83" y="24.457" fill="#FFFFFF" width="575" height="517.311"/>
	<path fill="#222E63" d="M583.83,544.438h-575c-1.475,0-2.67-1.195-2.67-2.67V24.458c0-1.475,1.195-2.67,2.67-2.67h575
		c1.475,0,2.67,1.195,2.67,2.67v517.311C586.5,543.243,585.305,544.438,583.83,544.438z M11.5,539.099h569.66V27.127H11.5V539.099z"
		/>
</g>
<rect x="15.799" y="445.459" fill="#FFFFFF" width="560.289" height="93.434"/>
<path fill="#FFFFFF" d="M19.082,525.444c5.053,4.897,11.937,7.917,19.53,7.917s14.477-3.02,19.53-7.917
	c5.053,4.897,11.937,7.917,19.53,7.917s14.477-3.02,19.53-7.917c5.053,4.897,11.937,7.917,19.53,7.917s14.477-3.02,19.53-7.917
	c5.053,4.897,11.937,7.917,19.53,7.917s14.477-3.02,19.53-7.917c5.053,4.897,11.937,7.917,19.53,7.917s14.477-3.02,19.53-7.917
	c5.053,4.897,11.937,7.917,19.53,7.917s14.477-3.02,19.53-7.917c5.053,4.897,11.937,7.917,19.53,7.917s14.477-3.02,19.53-7.917
	c5.053,4.897,11.937,7.917,19.53,7.917s14.477-3.02,19.53-7.917c5.053,4.897,11.937,7.917,19.53,7.917s14.477-3.02,19.53-7.917
	c5.053,4.897,11.937,7.917,19.53,7.917s14.477-3.02,19.53-7.917c5.053,4.897,11.937,7.917,19.53,7.917s14.477-3.02,19.53-7.917
	c5.053,4.897,11.937,7.917,19.53,7.917s14.477-3.02,19.53-7.917c5.053,4.897,11.937,7.917,19.53,7.917
	c7.593,0,14.477-3.02,19.53-7.917c5.053,4.897,11.937,7.917,19.53,7.917s14.477-3.02,19.53-7.917
	c3.103,3.007,6.897,5.302,11.12,6.628v-28.073c-4.223-1.327-8.018-3.622-11.12-6.628c-5.053,4.897-11.938,7.917-19.53,7.917
	c-7.593,0-14.477-3.02-19.53-7.917c-5.053,4.897-11.938,7.917-19.53,7.917s-14.477-3.02-19.53-7.917
	c-5.053,4.897-11.937,7.917-19.53,7.917s-14.477-3.02-19.53-7.917c-5.053,4.897-11.937,7.917-19.53,7.917s-14.477-3.02-19.53-7.917
	c-5.053,4.897-11.937,7.917-19.53,7.917s-14.477-3.02-19.53-7.917c-5.053,4.897-11.937,7.917-19.53,7.917s-14.477-3.02-19.53-7.917
	c-5.053,4.897-11.937,7.917-19.53,7.917s-14.477-3.02-19.53-7.917c-5.053,4.897-11.937,7.917-19.53,7.917s-14.477-3.02-19.53-7.917
	c-5.053,4.897-11.937,7.917-19.53,7.917s-14.477-3.02-19.53-7.917c-5.053,4.897-11.937,7.917-19.53,7.917s-14.477-3.02-19.53-7.917
	c-5.053,4.897-11.937,7.917-19.53,7.917s-14.477-3.02-19.53-7.917c-5.053,4.897-11.937,7.917-19.53,7.917s-14.477-3.02-19.53-7.917
	c-5.053,4.897-11.937,7.917-19.53,7.917s-14.477-3.02-19.53-7.917c-5.053,4.897-11.937,7.917-19.53,7.917s-14.477-3.02-19.53-7.917
	c-1.021,0.99-2.121,1.899-3.283,2.726v28.073C16.961,527.343,18.06,526.434,19.082,525.444z"/>
<path fill="#222E63" d="M546.402,524.265c-7.189,0-14.035-1.889-19.53-5.355c-5.496,3.466-12.341,5.355-19.53,5.355
	s-14.035-1.889-19.531-5.355c-5.495,3.466-12.341,5.355-19.53,5.355c-7.188,0-14.034-1.889-19.53-5.355
	c-5.496,3.466-12.341,5.355-19.53,5.355c-7.188,0-14.034-1.889-19.53-5.355c-5.496,3.466-12.342,5.355-19.53,5.355
	c-7.189,0-14.035-1.889-19.53-5.355c-5.496,3.466-12.342,5.355-19.53,5.355c-7.189,0-14.035-1.889-19.53-5.355
	c-5.496,3.466-12.342,5.355-19.531,5.355s-14.035-1.889-19.53-5.355c-5.496,3.466-12.341,5.355-19.53,5.355
	s-14.035-1.889-19.531-5.355c-5.496,3.466-12.341,5.355-19.53,5.355s-14.035-1.889-19.53-5.355
	c-5.496,3.466-12.341,5.355-19.53,5.355s-14.035-1.889-19.531-5.355c-5.496,3.466-12.341,5.355-19.53,5.355
	s-14.035-1.889-19.53-5.355c-5.496,3.466-12.341,5.355-19.53,5.355s-14.035-1.889-19.53-5.355
	c-5.496,3.466-12.341,5.355-19.531,5.355c-7.189,0-14.034-1.889-19.53-5.355c-5.496,3.466-12.341,5.355-19.53,5.355
	c-7.191,0-14.038-1.89-19.534-5.357c-0.558,0.35-1.136,0.688-1.73,1.011c-0.813,0.443-1.883,0.502-2.772,0.151
	c-0.889-0.35-1.447-1.05-1.447-1.813v-21.453c0-0.66,0.418-1.279,1.121-1.662c1.068-0.581,2.068-1.215,2.973-1.886
	c1.036-0.766,2.681-0.767,3.716,0c4.767,3.53,11.043,5.475,17.672,5.475s12.905-1.944,17.672-5.475c1.036-0.767,2.681-0.767,3.716,0
	c4.768,3.53,11.043,5.475,17.672,5.475s12.905-1.944,17.673-5.475c1.036-0.767,2.681-0.766,3.716,0
	c4.767,3.53,11.043,5.475,17.672,5.475s12.905-1.944,17.672-5.475c1.035-0.767,2.681-0.767,3.716,0
	c4.767,3.53,11.043,5.475,17.672,5.475s12.905-1.944,17.672-5.475c1.035-0.767,2.681-0.767,3.716,0
	c4.768,3.53,11.044,5.475,17.673,5.475s12.905-1.944,17.672-5.475c1.035-0.766,2.68-0.767,3.716,0
	c4.767,3.53,11.043,5.475,17.672,5.475s12.905-1.944,17.672-5.475c1.036-0.767,2.681-0.767,3.716,0
	c4.768,3.53,11.044,5.475,17.673,5.475s12.905-1.944,17.672-5.475c1.036-0.767,2.681-0.766,3.716,0
	c4.767,3.53,11.043,5.475,17.672,5.475s12.906-1.944,17.672-5.475c1.037-0.767,2.682-0.767,3.717,0
	c4.767,3.53,11.042,5.475,17.672,5.475c6.629,0,12.905-1.944,17.672-5.475c1.037-0.767,2.682-0.767,3.717,0
	c4.767,3.53,11.042,5.475,17.672,5.475c6.629,0,12.905-1.944,17.672-5.475c1.037-0.767,2.68-0.767,3.717,0
	c4.767,3.53,11.043,5.475,17.672,5.475s12.905-1.944,17.672-5.475c1.037-0.767,2.68-0.767,3.717,0
	c4.767,3.53,11.043,5.475,17.672,5.475c6.63,0,12.905-1.944,17.672-5.475c1.035-0.767,2.68-0.767,3.717,0
	c4.767,3.53,11.044,5.475,17.673,5.475c6.629,0,12.905-1.944,17.672-5.475c1.037-0.767,2.682-0.767,3.717,0
	c4.767,3.53,11.042,5.475,17.672,5.475c6.629,0,12.905-1.944,17.672-5.475c1.037-0.767,2.68-0.767,3.717,0
	c2.833,2.099,6.312,3.684,10.062,4.584c1.112,0.267,1.869,1.055,1.869,1.946v21.453c0,0.65-0.405,1.26-1.09,1.645
	c-0.687,0.384-1.568,0.496-2.381,0.302c-3.748-0.9-7.272-2.365-10.317-4.278C560.438,522.376,553.592,524.265,546.402,524.265z
	 M526.872,514.134c0.67,0,1.341,0.192,1.858,0.575c4.767,3.53,11.042,5.475,17.672,5.475c6.629,0,12.905-1.944,17.672-5.475
	c1.037-0.767,2.68-0.767,3.717,0c1.936,1.434,4.173,2.628,6.592,3.528v-17.005c-3.05-0.904-5.915-2.185-8.448-3.777
	c-5.496,3.467-12.342,5.356-19.532,5.356c-7.189,0-14.035-1.889-19.53-5.355c-5.496,3.466-12.341,5.355-19.53,5.355
	s-14.035-1.889-19.531-5.355c-5.495,3.466-12.341,5.355-19.53,5.355c-7.188,0-14.034-1.889-19.53-5.355
	c-5.496,3.466-12.341,5.355-19.53,5.355c-7.188,0-14.034-1.889-19.53-5.355c-5.496,3.466-12.342,5.355-19.53,5.355
	c-7.189,0-14.035-1.889-19.53-5.355c-5.496,3.466-12.342,5.355-19.53,5.355c-7.189,0-14.035-1.889-19.53-5.355
	c-5.496,3.466-12.342,5.355-19.531,5.355s-14.035-1.889-19.53-5.355c-5.496,3.466-12.341,5.355-19.53,5.355
	s-14.035-1.889-19.531-5.355c-5.496,3.466-12.341,5.355-19.53,5.355s-14.035-1.889-19.53-5.355
	c-5.496,3.466-12.341,5.355-19.53,5.355s-14.035-1.889-19.531-5.355c-5.496,3.466-12.341,5.355-19.53,5.355
	s-14.035-1.889-19.53-5.355c-5.496,3.466-12.341,5.355-19.53,5.355s-14.035-1.889-19.53-5.355
	c-5.496,3.466-12.341,5.355-19.531,5.355c-7.189,0-14.034-1.889-19.53-5.355c-5.496,3.466-12.341,5.355-19.53,5.355
	c-7.191,0-14.038-1.89-19.534-5.357c-0.201,0.126-0.404,0.25-0.609,0.373v16.361c0.856-0.154,1.794,0.02,2.471,0.521
	c4.767,3.531,11.043,5.475,17.672,5.475s12.905-1.944,17.672-5.475c1.036-0.767,2.681-0.766,3.716,0
	c4.768,3.531,11.043,5.475,17.672,5.475s12.905-1.944,17.673-5.475c1.036-0.767,2.681-0.766,3.716,0
	c4.767,3.531,11.043,5.475,17.672,5.475s12.905-1.944,17.672-5.475c1.035-0.767,2.681-0.767,3.716,0
	c4.767,3.531,11.043,5.475,17.672,5.475s12.905-1.944,17.672-5.475c1.035-0.767,2.681-0.766,3.716,0
	c4.768,3.531,11.044,5.475,17.673,5.475s12.905-1.944,17.672-5.475c1.035-0.766,2.68-0.767,3.716,0
	c4.767,3.531,11.043,5.475,17.672,5.475s12.905-1.944,17.672-5.475c1.036-0.767,2.681-0.766,3.716,0
	c4.768,3.531,11.044,5.475,17.673,5.475s12.905-1.944,17.672-5.475c1.036-0.767,2.681-0.766,3.716,0
	c4.767,3.531,11.043,5.475,17.672,5.475s12.906-1.944,17.672-5.475c1.037-0.767,2.682-0.767,3.717,0
	c4.767,3.53,11.042,5.475,17.672,5.475c6.629,0,12.905-1.944,17.672-5.475c1.037-0.767,2.682-0.767,3.717,0
	c4.767,3.53,11.042,5.475,17.672,5.475c6.629,0,12.905-1.944,17.672-5.475c1.037-0.767,2.68-0.767,3.717,0
	c4.767,3.531,11.043,5.475,17.672,5.475s12.905-1.944,17.672-5.475c1.037-0.767,2.68-0.767,3.717,0
	c4.767,3.531,11.043,5.475,17.672,5.475c6.63,0,12.905-1.944,17.672-5.475c1.035-0.767,2.68-0.767,3.717,0
	c4.767,3.531,11.044,5.475,17.673,5.475s12.905-1.944,17.672-5.475C525.532,514.326,526.202,514.134,526.872,514.134z"/>
<path fill="#FFFFFF" d="M19.082,487.191c5.053,4.897,11.937,7.917,19.53,7.917s14.477-3.02,19.53-7.917
	c5.053,4.897,11.937,7.917,19.53,7.917s14.477-3.02,19.53-7.917c5.053,4.897,11.937,7.917,19.53,7.917s14.477-3.02,19.53-7.917
	c5.053,4.897,11.937,7.917,19.53,7.917s14.477-3.02,19.53-7.917c5.053,4.897,11.937,7.917,19.53,7.917s14.477-3.02,19.53-7.917
	c5.053,4.897,11.937,7.917,19.53,7.917s14.477-3.02,19.53-7.917c5.053,4.897,11.937,7.917,19.53,7.917s14.477-3.02,19.53-7.917
	c5.053,4.897,11.937,7.917,19.53,7.917s14.477-3.02,19.53-7.917c5.053,4.897,11.937,7.917,19.53,7.917s14.477-3.02,19.53-7.917
	c5.053,4.897,11.937,7.917,19.53,7.917s14.477-3.02,19.53-7.917c5.053,4.897,11.937,7.917,19.53,7.917s14.477-3.02,19.53-7.917
	c5.053,4.897,11.937,7.917,19.53,7.917s14.477-3.02,19.53-7.917c5.053,4.897,11.937,7.917,19.53,7.917
	c7.593,0,14.477-3.02,19.53-7.917c5.053,4.897,11.937,7.917,19.53,7.917s14.477-3.02,19.53-7.917
	c3.103,3.007,6.897,5.301,11.12,6.628v-28.073c-4.223-1.327-8.018-3.621-11.12-6.628c-5.053,4.897-11.938,7.917-19.53,7.917
	c-7.593,0-14.477-3.02-19.53-7.917c-5.053,4.897-11.938,7.917-19.53,7.917s-14.477-3.02-19.53-7.917
	c-5.053,4.897-11.937,7.917-19.53,7.917s-14.477-3.02-19.53-7.917c-5.053,4.897-11.937,7.917-19.53,7.917s-14.477-3.02-19.53-7.917
	c-5.053,4.897-11.937,7.917-19.53,7.917s-14.477-3.02-19.53-7.917c-5.053,4.897-11.937,7.917-19.53,7.917s-14.477-3.02-19.53-7.917
	c-5.053,4.897-11.937,7.917-19.53,7.917s-14.477-3.02-19.53-7.917c-5.053,4.897-11.937,7.917-19.53,7.917s-14.477-3.02-19.53-7.917
	c-5.053,4.897-11.937,7.917-19.53,7.917s-14.477-3.02-19.53-7.917c-5.053,4.897-11.937,7.917-19.53,7.917s-14.477-3.02-19.53-7.917
	c-5.053,4.897-11.937,7.917-19.53,7.917s-14.477-3.02-19.53-7.917c-5.053,4.897-11.937,7.917-19.53,7.917s-14.477-3.02-19.53-7.917
	c-5.053,4.897-11.937,7.917-19.53,7.917s-14.477-3.02-19.53-7.917c-5.053,4.897-11.937,7.917-19.53,7.917s-14.477-3.02-19.53-7.917
	c-1.021,0.99-2.121,1.899-3.283,2.726v28.073C16.961,489.089,18.06,488.181,19.082,487.191z"/>
<path fill="#222E63" d="M578.758,468.992v-23.533c0-1.475-1.195-2.67-2.67-2.67H15.799c-1.475,0-2.67,1.195-2.67,2.67v22.112v21.453
	v49.869c0,1.475,1.195,2.67,2.67,2.67h560.289c1.475,0,2.67-1.195,2.67-2.67v-45.332c0.602-0.386,0.964-0.95,0.964-1.555v-21.453
	C579.722,469.935,579.353,469.371,578.758,468.992z M18.469,468.594c0.205-0.123,0.408-0.247,0.609-0.373
	c5.496,3.467,12.343,5.357,19.533,5.357c7.189,0,14.035-1.889,19.53-5.355c5.496,3.466,12.342,5.355,19.53,5.355
	c7.189,0,14.035-1.889,19.531-5.355c5.495,3.466,12.341,5.355,19.53,5.355s14.034-1.889,19.53-5.354
	c5.495,3.466,12.341,5.354,19.53,5.354s14.034-1.889,19.53-5.355c5.496,3.466,12.342,5.355,19.53,5.355
	c7.189,0,14.034-1.889,19.53-5.355c5.496,3.466,12.341,5.355,19.53,5.355s14.035-1.889,19.53-5.355
	c5.496,3.466,12.342,5.355,19.531,5.355c7.188,0,14.034-1.889,19.53-5.355c5.495,3.466,12.341,5.355,19.53,5.355
	c7.188,0,14.034-1.889,19.53-5.354c5.495,3.466,12.341,5.354,19.53,5.354c7.188,0,14.034-1.889,19.53-5.354
	c5.495,3.466,12.341,5.354,19.53,5.354c7.188,0,14.034-1.889,19.53-5.355c5.496,3.466,12.342,5.355,19.53,5.355
	s14.034-1.889,19.53-5.355c5.496,3.466,12.342,5.355,19.53,5.355c7.189,0,14.035-1.889,19.53-5.354
	c5.496,3.466,12.342,5.354,19.531,5.354c7.188,0,14.034-1.889,19.53-5.354c5.495,3.466,12.341,5.354,19.53,5.354
	s14.036-1.889,19.532-5.356c2.262,1.421,4.798,2.578,7.484,3.456v16.93c-2.046-0.846-3.955-1.893-5.628-3.132
	c-1.037-0.767-2.68-0.767-3.717,0c-4.767,3.53-11.043,5.475-17.672,5.475c-6.63,0-12.905-1.944-17.672-5.475
	c-0.518-0.383-1.188-0.575-1.858-0.575s-1.34,0.192-1.857,0.575c-4.768,3.53-11.044,5.475-17.673,5.475s-12.906-1.944-17.673-5.475
	c-1.037-0.767-2.682-0.767-3.717,0c-4.767,3.53-11.042,5.475-17.672,5.475c-6.629,0-12.905-1.944-17.672-5.475
	c-1.037-0.767-2.68-0.767-3.717,0c-4.767,3.53-11.043,5.475-17.672,5.475s-12.905-1.944-17.672-5.475
	c-1.037-0.767-2.681-0.767-3.716,0c-4.769,3.53-11.044,5.475-17.673,5.475c-6.63,0-12.905-1.944-17.672-5.475
	c-1.035-0.767-2.681-0.767-3.716,0c-4.769,3.53-11.044,5.475-17.673,5.475c-6.63,0-12.905-1.944-17.672-5.475
	c-1.035-0.767-2.681-0.767-3.716,0c-4.769,3.53-11.045,5.475-17.673,5.475c-6.629,0-12.905-1.944-17.673-5.475
	c-1.034-0.766-2.68-0.767-3.716,0c-4.768,3.53-11.044,5.475-17.672,5.475c-6.629,0-12.905-1.944-17.673-5.475
	c-1.035-0.767-2.681-0.767-3.716,0c-4.768,3.53-11.044,5.475-17.673,5.475s-12.905-1.944-17.672-5.475
	c-1.035-0.766-2.681-0.767-3.716,0c-4.768,3.53-11.044,5.475-17.673,5.475s-12.905-1.944-17.673-5.475
	c-1.035-0.767-2.681-0.767-3.716,0c-4.767,3.53-11.043,5.475-17.672,5.475s-12.905-1.944-17.673-5.475
	c-1.035-0.767-2.681-0.767-3.716,0c-4.767,3.53-11.043,5.475-17.672,5.475s-12.905-1.944-17.673-5.475
	c-1.034-0.766-2.68-0.767-3.716,0c-4.768,3.53-11.044,5.475-17.673,5.475c-6.628,0-12.904-1.944-17.672-5.475
	c-1.035-0.767-2.681-0.767-3.716,0c-4.768,3.53-11.044,5.475-17.673,5.475s-12.905-1.944-17.672-5.475
	c-0.677-0.501-1.614-0.675-2.471-0.521v-16.361H18.469z M573.418,448.129v19.036c-2.048-0.846-3.953-1.902-5.628-3.142
	c-1.037-0.767-2.68-0.767-3.717,0c-4.767,3.531-11.043,5.475-17.672,5.475c-6.63,0-12.905-1.944-17.672-5.475
	c-1.035-0.767-2.681-0.767-3.716,0c-4.768,3.531-11.044,5.475-17.673,5.475s-12.906-1.944-17.673-5.475
	c-1.037-0.767-2.682-0.767-3.717,0c-4.767,3.531-11.042,5.475-17.672,5.475c-6.629,0-12.905-1.944-17.672-5.475
	c-1.037-0.767-2.68-0.767-3.717,0c-4.767,3.531-11.043,5.475-17.672,5.475s-12.905-1.944-17.672-5.475
	c-1.037-0.767-2.681-0.767-3.716,0c-4.769,3.531-11.044,5.475-17.673,5.475c-6.63,0-12.905-1.944-17.672-5.475
	c-1.035-0.767-2.681-0.767-3.716,0c-4.769,3.531-11.044,5.475-17.673,5.475c-6.63,0-12.905-1.944-17.672-5.475
	c-1.035-0.767-2.681-0.767-3.716,0c-4.769,3.531-11.045,5.475-17.673,5.475c-6.629,0-12.905-1.944-17.673-5.475
	c-1.034-0.766-2.68-0.767-3.716,0c-4.768,3.531-11.044,5.475-17.672,5.475c-6.629,0-12.905-1.944-17.673-5.475
	c-1.035-0.767-2.681-0.767-3.716,0c-4.768,3.531-11.044,5.475-17.673,5.475s-12.905-1.944-17.672-5.475
	c-1.035-0.766-2.681-0.767-3.716,0c-4.768,3.531-11.044,5.475-17.673,5.475s-12.905-1.944-17.673-5.475
	c-1.035-0.767-2.681-0.767-3.716,0c-4.767,3.531-11.043,5.475-17.672,5.475s-12.905-1.944-17.673-5.475
	c-1.035-0.767-2.681-0.767-3.716,0c-4.767,3.531-11.043,5.475-17.672,5.475s-12.905-1.944-17.673-5.475
	c-1.034-0.766-2.68-0.767-3.716,0c-4.768,3.531-11.044,5.475-17.673,5.475c-6.628,0-12.904-1.944-17.672-5.475
	c-1.035-0.767-2.681-0.767-3.716,0c-4.768,3.531-11.044,5.475-17.673,5.475s-12.905-1.944-17.672-5.475
	c-0.677-0.501-1.613-0.668-2.471-0.514v-15.38H573.418z M18.469,536.223V490.03c0.201-0.12,0.412-0.233,0.608-0.356
	c5.497,3.467,12.344,5.357,19.534,5.357c7.189,0,14.035-1.889,19.53-5.355c5.496,3.466,12.342,5.355,19.53,5.355
	c7.189,0,14.035-1.889,19.531-5.355c5.495,3.466,12.341,5.355,19.53,5.355s14.034-1.889,19.53-5.354
	c5.495,3.466,12.341,5.354,19.53,5.354s14.034-1.889,19.53-5.355c5.496,3.466,12.342,5.355,19.53,5.355
	c7.189,0,14.034-1.889,19.53-5.355c5.496,3.466,12.341,5.355,19.53,5.355s14.035-1.889,19.53-5.355
	c5.496,3.466,12.342,5.355,19.531,5.355c7.188,0,14.034-1.889,19.53-5.355c5.495,3.466,12.341,5.355,19.53,5.355
	c7.188,0,14.034-1.889,19.53-5.354c5.495,3.466,12.341,5.354,19.53,5.354c7.188,0,14.034-1.889,19.53-5.354
	c5.495,3.466,12.341,5.354,19.53,5.354c7.188,0,14.034-1.889,19.53-5.355c5.496,3.466,12.342,5.355,19.53,5.355
	s14.034-1.889,19.53-5.355c5.496,3.466,12.342,5.355,19.53,5.355c7.189,0,14.035-1.889,19.53-5.354
	c5.496,3.466,12.342,5.354,19.531,5.354c7.188,0,14.034-1.889,19.53-5.354c5.495,3.466,12.341,5.354,19.53,5.354
	s14.036-1.889,19.532-5.356c2.265,1.422,4.795,2.594,7.484,3.473v43.074L18.469,536.223L18.469,536.223z"/>
<rect x="185.629" y="234.655" fill="#FFFFFF" width="17.134" height="5.638"/>
<path fill="#222E63" d="M202.763,242.963h-17.134c-1.475,0-2.67-1.195-2.67-2.67v-5.638c0-1.475,1.195-2.67,2.67-2.67h17.134
	c1.475,0,2.67,1.195,2.67,2.67v5.638C205.433,241.767,204.237,242.963,202.763,242.963z M188.299,237.623h11.794v-0.298h-11.794
	V237.623z"/>
<rect x="175.499" y="243.031" fill="#FFFFFF" width="17.133" height="5.641"/>
<path fill="#222E63" d="M192.632,251.342H175.5c-1.475,0-2.67-1.195-2.67-2.67v-5.641c0-1.475,1.195-2.67,2.67-2.67h17.132
	c1.475,0,2.67,1.195,2.67,2.67v5.641C195.301,250.147,194.106,251.342,192.632,251.342z M178.169,246.002h11.792v-0.301h-11.792
	V246.002z"/>
<rect x="185.629" y="251.258" fill="#FFFFFF" width="17.134" height="5.641"/>
<path fill="#222E63" d="M202.763,259.569h-17.134c-1.475,0-2.67-1.195-2.67-2.67v-5.641c0-1.475,1.195-2.67,2.67-2.67h17.134
	c1.475,0,2.67,1.195,2.67,2.67v5.641C205.433,258.374,204.237,259.569,202.763,259.569z M188.299,254.23h11.794v-0.302h-11.794
	V254.23z"/>
<path fill="#FFFFFF" d="M214.788,364.817c-0.443-3.142-2.078-6.137-4.809-7.845c-0.528-0.33-1.088-0.607-1.672-0.824
	c-0.942-0.351-0.375-1.002-0.257-1.902c0.168-1.29,0.157-2.624-0.163-3.891c-1.708-6.768-11.388-5.486-13.698,0.21
	c-10.266-7.073-30.118,0.468-29.87,14.218c-4.193-1.356-9.704,2.952-8.938,7.427c-10.439-0.581-21.012,10.694-13.707,20.524
	c-14.242,4.313-14.098,25.725-2.301,32.681c1.634,0.964,3.518,1.397,5.402,1.448c0.938,0.025,1.403-0.275,2.051,0.446
	c0.57,0.634,1.207,1.207,1.895,1.711c2.418,1.773,5.438,2.69,8.43,2.636c7.23-0.132,12.263-6.247,14.272-12.711
	c4.893,1.962,10.241-1.761,10.746-6.786c4.91,0.971,9.808-2.011,13.291-5.18c4.069-3.701,6.827-8.497,7.31-14.043
	c0.046-0.523,0.07-1.047,0.072-1.572c0.004-1.131,0.304-0.852,1.173-1.424c1.209-0.797,2.232-1.865,3.129-2.994
	c1.645-2.07,2.9-4.377,3.122-7.054c0.103-1.234-0.455-2.694,0.433-3.548c1.075-1.034,1.971-2.252,2.656-3.576
	C214.611,370.342,215.171,367.533,214.788,364.817C214.145,360.262,215.413,369.25,214.788,364.817z"/>
<path fill="#222E63" d="M156.899,434.328c-3.516,0-6.98-1.12-9.755-3.155c-0.681-0.499-1.318-1.052-1.898-1.648
	c-0.112,0.005-0.229,0.008-0.353,0.008l-0.188-0.002c-2.507-0.068-4.756-0.679-6.687-1.817c-6.909-4.074-10.838-12.75-9.778-21.59
	c0.797-6.649,4.301-11.936,9.581-14.691c-1.725-3.82-1.646-8.014,0.303-11.892c2.707-5.383,8.583-9.286,14.709-9.929
	c0.311-1.386,0.99-2.729,2.013-3.942c1.795-2.128,4.422-3.527,7.012-3.772c0.56-3.466,2.235-6.683,4.933-9.43
	c4.406-4.486,11.266-7.273,17.903-7.273c3.137,0,6.06,0.615,8.594,1.794c2.019-2.376,5.188-3.889,8.496-3.889
	c4.334,0,7.666,2.53,8.693,6.603c0.356,1.412,0.442,2.965,0.254,4.62c0.225,0.121,0.447,0.25,0.664,0.386
	c2.652,1.659,4.605,4.327,5.553,7.509c0.148,0.273,0.251,0.577,0.298,0.902l0.354,2.508c0,0.003,0.001,0.006,0.001,0.01l0.01,0.072
	l0,0c0.007,0.052,0.014,0.111,0.017,0.139c0.024,0.279,0.005,0.551-0.052,0.811c-0.023,2.495-0.657,5.037-1.848,7.338
	c-0.764,1.476-1.727,2.808-2.867,3.967c0.007,0.159,0.023,0.356,0.035,0.507c0.039,0.486,0.083,1.037,0.033,1.644
	c-0.24,2.892-1.448,5.67-3.692,8.494c-1.22,1.536-2.444,2.699-3.74,3.555c-0.014,0.337-0.035,0.674-0.064,1.007
	c-0.517,5.933-3.343,11.391-8.173,15.784c-3.014,2.741-7.711,6.005-13.025,6.06c-1.52,4.156-5.533,7.133-10.067,7.133
	c-0.355,0-0.708-0.019-1.059-0.056c-2.553,5.988-7.881,12.088-15.906,12.234L156.899,434.328z M145.797,424.151
	c1.184,0,2.198,0.462,3.017,1.373c0.44,0.49,0.94,0.941,1.487,1.343c1.866,1.368,4.209,2.121,6.599,2.121l0.204-0.002
	c6.239-0.114,10.24-5.907,11.771-10.834c0.221-0.712,0.73-1.299,1.403-1.619c0.673-0.32,1.448-0.345,2.141-0.067
	c0.564,0.226,1.153,0.341,1.748,0.341c2.631,0,5.08-2.251,5.348-4.916c0.075-0.749,0.462-1.43,1.067-1.878
	c0.604-0.447,1.369-0.619,2.107-0.474c0.456,0.09,0.929,0.136,1.408,0.136c3.857,0,7.651-2.927,9.569-4.672
	c3.819-3.473,6.048-7.726,6.447-12.299c0.04-0.45,0.06-0.9,0.062-1.35c0.006-1.729,0.655-2.809,2.104-3.5
	c0.072-0.034,0.162-0.073,0.269-0.143c0.821-0.541,1.641-1.334,2.508-2.425c1.588-2,2.399-3.783,2.552-5.615
	c0.014-0.17-0.011-0.476-0.034-0.771c-0.091-1.129-0.244-3.018,1.277-4.48c0.854-0.821,1.572-1.79,2.135-2.878
	c1.041-2.011,1.453-4.263,1.161-6.344l-0.002-0.017c-0.367-2.585-1.671-4.752-3.58-5.945c-0.377-0.236-0.777-0.433-1.186-0.585
	c-0.706-0.262-2.937-1.36-2.048-4.469c0.025-0.087,0.059-0.179,0.073-0.281c0.142-1.085,0.107-2.058-0.104-2.892
	c-0.536-2.124-2.208-2.57-3.516-2.57c-1.914,0-4.286,1.075-5.119,3.129c-0.304,0.75-0.932,1.322-1.708,1.554
	c-0.776,0.233-1.614,0.101-2.281-0.359c-2.117-1.458-4.877-2.229-7.982-2.229c-5.255,0-10.655,2.175-14.093,5.675
	c-1.687,1.717-3.682,4.59-3.611,8.525c0.016,0.862-0.386,1.679-1.079,2.193c-0.692,0.514-1.591,0.661-2.412,0.396
	c-1.346-0.433-3.38,0.377-4.571,1.79c-0.424,0.503-1.107,1.516-0.914,2.646c0.137,0.801-0.099,1.621-0.64,2.228
	c-0.541,0.606-1.324,0.93-2.141,0.888c-4.937-0.274-10.185,2.779-12.339,7.063c-1.089,2.166-1.812,5.521,0.923,9.202
	c0.519,0.698,0.665,1.604,0.393,2.429c-0.272,0.825-0.93,1.467-1.761,1.719c-7.054,2.136-8.579,8.733-8.908,11.471
	c-0.799,6.663,2.157,13.388,7.188,16.355c1.125,0.664,2.549,1.037,4.118,1.079c0.157,0.001,0.277-0.009,0.379-0.016
	C145.43,424.162,145.618,424.151,145.797,424.151z"/>
<rect x="170.698" y="214.901" fill="#FFFFFF" width="171.267" height="199.009"/>
<path fill="#222E63" d="M341.965,416.581H170.698c-1.475,0-2.67-1.195-2.67-2.67v-199.01c0-1.475,1.195-2.67,2.67-2.67h171.267
	c1.475,0,2.67,1.195,2.67,2.67v199.01C344.634,415.385,343.439,416.581,341.965,416.581z M173.368,411.241h165.927v-193.67H173.368
	V411.241z"/>
<rect x="162.104" y="194.483" fill="#FFFFFF" width="178.74" height="21.541"/>
<path fill="#222E63" d="M340.844,218.693h-178.74c-1.475,0-2.67-1.195-2.67-2.67v-21.541c0-1.475,1.195-2.67,2.67-2.67h178.74
	c1.475,0,2.67,1.195,2.67,2.67v21.541C343.514,217.498,342.319,218.693,340.844,218.693z M164.774,213.354h173.4v-16.201h-173.4
	L164.774,213.354L164.774,213.354z"/>
<polygon fill="#FFFFFF" points="382.143,102.485 219.764,102.485 152.071,200.678 382.143,200.678 "/>
<path fill="#222E63" d="M382.143,203.348H152.071c-0.992,0-1.902-0.55-2.364-1.428c-0.461-0.878-0.397-1.94,0.166-2.757
	l67.693-98.193c0.499-0.723,1.32-1.155,2.198-1.155h162.379c1.475,0,2.67,1.195,2.67,2.67v98.193
	C384.813,202.152,383.618,203.348,382.143,203.348z M157.154,198.008h222.319v-92.853H221.166L157.154,198.008z"/>
<polygon fill="#FFFFFF" points="457.554,172.825 383.722,32.822 309.89,172.825 "/>
<path fill="#222E63" d="M457.554,175.495H309.89c-0.936,0-1.803-0.49-2.286-1.291s-0.512-1.797-0.076-2.624L381.36,31.576
	c0.462-0.876,1.371-1.425,2.361-1.425s1.899,0.548,2.361,1.425l73.833,140.003c0.437,0.827,0.408,1.823-0.075,2.624
	C459.357,175.005,458.49,175.495,457.554,175.495z M314.317,170.155h138.811l-69.406-131.61L314.317,170.155z"/>
<polygon fill="#FFFFFF" points="425.127,132.618 384.049,54.739 342.972,132.618 327.705,161.575 327.705,413.911 440.411,413.911 
	440.411,161.611 "/>
<path fill="#222E63" d="M440.411,416.581H327.706c-1.475,0-2.67-1.195-2.67-2.67V161.575c0-0.434,0.105-0.861,0.309-1.245
	l56.344-106.836c0.462-0.876,1.371-1.424,2.361-1.424s1.899,0.548,2.361,1.424l56.361,106.873c0.203,0.384,0.309,0.811,0.309,1.245
	v252.3C443.081,415.385,441.885,416.581,440.411,416.581z M330.376,411.241h107.365V162.272L384.05,60.462l-53.674,101.773
	L330.376,411.241L330.376,411.241z"/>
<rect x="367.73" y="146.241" fill="#FFFFFF" width="31.986" height="38.607"/>
<path fill="#222E63" d="M399.715,187.518H367.73c-1.475,0-2.67-1.195-2.67-2.67v-38.607c0-1.475,1.195-2.67,2.67-2.67h31.985
	c1.475,0,2.67,1.195,2.67,2.67v38.607C402.385,186.323,401.19,187.518,399.715,187.518z M370.4,182.178h26.646v-33.267H370.4
	V182.178z"/>
<polygon fill="#222E63" points="371.883,167.483 371.883,174.949 371.883,180.699 373.882,180.699 381.646,180.699 381.646,172.933 
	381.646,167.483 379.347,167.483 "/>
<polygon fill="#222E63" points="371.883,160.834 371.883,163.332 381.646,163.332 381.646,151.072 381.646,150.116 371.883,150.116 
	"/>
<polygon fill="#222E63" points="385.799,150.116 385.799,161.035 385.799,163.332 391.248,163.332 395.564,163.332 395.564,159.016 
	395.564,151.266 395.564,150.116 "/>
<polygon fill="#222E63" points="385.799,167.483 385.799,168.784 385.799,180.699 395.564,180.699 395.564,167.483 387.099,167.483 
	"/>
<polygon fill="#FFFFFF" points="309.869,285.165 309.869,233.067 309.869,230.993 250.051,230.993 250.051,233.067 250.051,285.165 
	250.051,287.239 309.869,287.239 "/>
<path fill="#222E63" d="M309.869,289.909h-59.818c-1.475,0-2.67-1.195-2.67-2.67v-56.246c0-1.475,1.195-2.67,2.67-2.67h59.818
	c1.475,0,2.67,1.195,2.67,2.67v56.246C312.539,288.714,311.344,289.909,309.869,289.909z M252.721,284.569h54.478v-50.906h-54.478
	L252.721,284.569L252.721,284.569z"/>
<polygon fill="#222E63" points="272.759,235.145 272.759,246.488 272.759,258.73 278.786,258.73 279.961,258.73 287.165,258.73 
	287.165,250.351 287.165,235.145 284.106,235.145 "/>
<polygon fill="#222E63" points="254.204,250.654 254.204,258.73 260.52,258.73 268.607,258.73 268.607,250.64 268.607,236.25 
	268.607,235.145 254.204,235.145 "/>
<polygon fill="#222E63" points="279.961,262.881 274.635,262.881 272.759,262.881 272.759,264.758 272.759,274.445 272.759,283.088 
	287.165,283.088 287.165,262.881 284.321,262.881 "/>
<rect x="291.315" y="262.881" fill="#222E63" width="14.405" height="20.206"/>
<polygon fill="#222E63" points="302.37,235.145 291.315,235.145 291.315,246.199 291.315,255.887 291.315,258.73 305.72,258.73 
	305.72,241.482 305.72,235.145 "/>
<polygon fill="#222E63" points="254.204,262.881 254.204,265.045 254.204,283.088 254.423,283.088 264.111,283.088 268.607,283.088 
	268.607,278.597 268.607,268.91 268.607,262.881 256.368,262.881 "/>
<rect x="189.299" y="230.993" fill="#FFFFFF" width="31.984" height="56.246"/>
<path fill="#222E63" d="M221.283,289.909h-31.984c-1.475,0-2.67-1.195-2.67-2.67v-56.246c0-1.475,1.195-2.67,2.67-2.67h31.984
	c1.475,0,2.67,1.195,2.67,2.67v56.246C223.953,288.714,222.757,289.909,221.283,289.909z M191.969,284.569h26.644v-50.906h-26.644
	V284.569z"/>
<polygon fill="#222E63" points="213.978,235.145 207.367,235.145 207.367,241.755 207.367,252.27 207.367,257.042 213.39,257.042 
	217.132,257.042 217.132,253.3 217.132,242.507 217.132,235.145 "/>
<polygon fill="#222E63" points="193.451,235.145 193.451,239.897 193.451,255.672 193.451,257.042 202.596,257.042 203.216,257.042 
	203.216,256.424 203.216,245.907 203.216,235.145 198.204,235.145 "/>
<polygon fill="#222E63" points="193.451,261.191 193.451,266.186 193.451,276.979 193.451,283.088 203.216,283.088 203.216,267.216 
	203.216,261.191 198.446,261.191 "/>
<polygon fill="#222E63" points="207.367,261.191 207.367,263.065 207.367,283.088 217.132,283.088 217.132,261.191 209.24,261.191 
	"/>
<rect x="186.007" y="290.697" fill="#222E63" width="38.568" height="7.062"/>
<rect x="367.73" y="230.993" fill="#FFFFFF" width="31.986" height="56.246"/>
<path fill="#222E63" d="M399.715,289.909H367.73c-1.475,0-2.67-1.195-2.67-2.67v-56.246c0-1.475,1.195-2.67,2.67-2.67h31.985
	c1.475,0,2.67,1.195,2.67,2.67v56.246C402.385,288.714,401.19,289.909,399.715,289.909z M370.4,284.569h26.646v-50.906H370.4
	V284.569z"/>
<polygon fill="#FFFFFF" points="392.409,235.145 385.799,235.145 385.799,241.755 385.799,252.27 385.799,257.042 391.822,257.042 
	395.564,257.042 395.564,253.3 395.564,242.507 395.564,235.145 "/>
<polygon fill="#FFFFFF" points="371.883,235.145 371.883,239.897 371.883,255.672 371.883,257.042 381.028,257.042 381.646,257.042 
	381.646,256.424 381.646,245.907 381.646,235.145 376.634,235.145 "/>
<polygon fill="#FFFFFF" points="371.883,261.191 371.883,266.186 371.883,276.979 371.883,283.088 381.646,283.088 381.646,267.216 
	381.646,261.191 376.878,261.191 "/>
<polygon fill="#FFFFFF" points="385.799,261.191 385.799,263.065 385.799,283.088 395.564,283.088 395.564,261.191 387.668,261.191 
	"/>
<rect x="189.299" y="329.406" fill="#FFFFFF" width="31.984" height="56.251"/>
<path fill="#222E63" d="M221.283,388.326h-31.984c-1.475,0-2.67-1.195-2.67-2.67v-56.251c0-1.475,1.195-2.67,2.67-2.67h31.984
	c1.475,0,2.67,1.195,2.67,2.67v56.251C223.953,387.131,222.757,388.326,221.283,388.326z M191.969,382.986h26.644v-50.911h-26.644
	V382.986z"/>
<polygon fill="#222E63" points="213.978,333.557 207.367,333.557 207.367,340.166 207.367,350.685 207.367,355.455 213.39,355.455 
	217.132,355.455 217.132,351.713 217.132,340.917 217.132,333.557 "/>
<polygon fill="#222E63" points="193.451,333.557 193.451,338.307 193.451,354.085 193.451,355.455 202.596,355.455 203.216,355.455 
	203.216,354.835 203.216,344.317 203.216,333.557 198.204,333.557 "/>
<polygon fill="#222E63" points="193.451,359.603 193.451,364.602 193.451,375.392 193.451,381.501 203.216,381.501 203.216,365.627 
	203.216,359.603 198.446,359.603 "/>
<polygon fill="#222E63" points="207.367,359.603 207.367,361.474 207.367,381.501 217.132,381.501 217.132,359.603 209.24,359.603 
	"/>
<rect x="186.007" y="389.97" fill="#222E63" width="38.568" height="7.063"/>
<polygon fill="#FFFFFF" points="287.501,327.757 258.597,327.757 258.597,412.788 287.501,412.788 301.535,412.788 301.535,327.757 
	"/>
<path fill="#222E63" d="M301.534,415.458h-42.937c-1.475,0-2.67-1.195-2.67-2.67v-85.031c0-1.475,1.195-2.67,2.67-2.67h42.937
	c1.475,0,2.67,1.195,2.67,2.67v85.031C304.204,414.263,303.009,415.458,301.534,415.458z M261.267,410.119h37.597v-79.691h-37.597
	L261.267,410.119L261.267,410.119z"/>
<rect x="367.73" y="329.406" fill="#FFFFFF" width="31.986" height="56.251"/>
<path fill="#222E63" d="M399.715,388.326H367.73c-1.475,0-2.67-1.195-2.67-2.67v-56.251c0-1.475,1.195-2.67,2.67-2.67h31.985
	c1.475,0,2.67,1.195,2.67,2.67v56.251C402.385,387.131,401.19,388.326,399.715,388.326z M370.4,382.986h26.646v-50.911H370.4
	V382.986z"/>
<polygon fill="#FFFFFF" points="392.409,333.557 385.799,333.557 385.799,340.166 385.799,350.685 385.799,355.455 391.822,355.455 
	395.564,355.455 395.564,351.713 395.564,340.917 395.564,333.557 "/>
<polygon fill="#FFFFFF" points="371.883,333.557 371.883,338.307 371.883,354.085 371.883,355.455 381.028,355.455 381.646,355.455 
	381.646,354.835 381.646,344.317 381.646,333.557 376.634,333.557 "/>
<polygon fill="#FFFFFF" points="371.883,359.603 371.883,364.602 371.883,375.392 371.883,381.501 381.646,381.501 381.646,365.627 
	381.646,359.603 376.878,359.603 "/>
<polygon fill="#FFFFFF" points="385.799,359.603 385.799,361.474 385.799,381.501 395.564,381.501 395.564,359.603 387.668,359.603 
	"/>
<rect x="364.44" y="189.05" fill="#222E63" width="38.564" height="7.061"/>
<rect x="246.825" y="291.559" fill="#222E63" width="66.273" height="7.062"/>
<rect x="364.44" y="291.559" fill="#222E63" width="38.564" height="7.062"/>
<rect x="364.775" y="390.723" fill="#222E63" width="38.565" height="7.063"/>
<path fill="#FFFFFF" d="M264.892,368.962c0,0.688-0.559,1.242-1.243,1.242l0,0c-0.686,0-1.242-0.554-1.242-1.242v-5.41
	c0-0.682,0.557-1.241,1.242-1.241l0,0c0.685,0,1.243,0.559,1.243,1.241V368.962z"/>
<path fill="#222E63" d="M263.648,372.875c-2.157,0-3.912-1.755-3.912-3.912v-5.41c0-2.156,1.755-3.911,3.912-3.911
	c2.158,0,3.914,1.755,3.914,3.911v5.41C267.562,371.12,265.806,372.875,263.648,372.875z"/>
<rect x="166.594" y="412.788" fill="#FFFFFF" width="174.25" height="19.911"/>
<path fill="#222E63" d="M340.844,435.37h-174.25c-1.475,0-2.67-1.195-2.67-2.67v-19.911c0-1.475,1.195-2.67,2.67-2.67h174.25
	c1.475,0,2.67,1.195,2.67,2.67V432.7C343.514,434.174,342.319,435.37,340.844,435.37z M169.264,430.03h168.911v-14.572H169.264
	V430.03z"/>
<rect x="325.639" y="412.788" fill="#FFFFFF" width="118.25" height="19.911"/>
<path fill="#222E63" d="M443.889,435.37h-118.25c-1.475,0-2.67-1.195-2.67-2.67v-19.911c0-1.475,1.195-2.67,2.67-2.67h118.25
	c1.475,0,2.67,1.195,2.67,2.67V432.7C446.559,434.174,445.364,435.37,443.889,435.37z M328.309,430.03h112.91v-14.572h-112.91
	V430.03z"/>
<rect x="236.67" y="320.205" fill="#FFFFFF" width="86.786" height="5.91"/>
<path fill="#222E63" d="M323.456,328.785H236.67c-1.475,0-2.67-1.195-2.67-2.67v-5.909c0-1.475,1.195-2.67,2.67-2.67h86.786
	c1.475,0,2.67,1.195,2.67,2.67v5.909C326.126,327.589,324.93,328.785,323.456,328.785z M239.34,323.445h81.446v-0.57H239.34V323.445
	z"/>
<polygon fill="#FFFFFF" points="310.308,303.05 249.818,303.05 232.624,317.053 327.504,317.053 "/>
<path fill="#222E63" d="M327.504,319.723h-94.88c-1.129,0-2.137-0.711-2.516-1.775c-0.378-1.064-0.046-2.252,0.83-2.965
	l17.194-14.003c0.477-0.388,1.072-0.6,1.686-0.6h60.49c0.614,0,1.209,0.212,1.686,0.6l17.195,14.003
	c0.876,0.713,1.208,1.901,0.83,2.965C329.64,319.012,328.633,319.723,327.504,319.723z M240.13,314.383h79.867l-10.639-8.663h-58.59
	L240.13,314.383z"/>
<rect x="246.036" y="412.788" fill="#FFFFFF" width="65.501" height="10.563"/>
<path fill="#222E63" d="M311.537,426.021h-65.501c-1.475,0-2.67-1.195-2.67-2.67v-10.563c0-1.475,1.195-2.67,2.67-2.67h65.501
	c1.475,0,2.67,1.195,2.67,2.67v10.563C314.207,424.826,313.012,426.021,311.537,426.021z M248.706,420.681h60.161v-5.223h-60.161
	L248.706,420.681L248.706,420.681z"/>
<rect x="243.652" y="423.351" fill="#FFFFFF" width="70.271" height="10.555"/>
<path fill="#222E63" d="M313.923,436.576h-70.271c-1.475,0-2.67-1.195-2.67-2.67v-10.555c0-1.475,1.195-2.67,2.67-2.67h70.271
	c1.475,0,2.67,1.195,2.67,2.67v10.555C316.593,435.381,315.398,436.576,313.923,436.576z M246.322,431.236h64.931v-5.215h-64.931
	L246.322,431.236L246.322,431.236z"/>
<polygon fill="#FFFFFF" points="273.859,71.714 233.58,71.714 225.396,82.796 282.042,82.796 "/>
<path fill="#222E63" d="M282.042,85.466h-56.646c-1.008,0-1.93-0.567-2.384-1.467c-0.454-0.9-0.362-1.978,0.236-2.789l8.185-11.082
	c0.503-0.681,1.3-1.084,2.147-1.084h40.279c0.847,0,1.645,0.402,2.148,1.084l8.183,11.082c0.599,0.811,0.689,1.889,0.235,2.789
	C283.972,84.899,283.05,85.466,282.042,85.466z M230.687,80.126h46.065l-4.24-5.742h-37.584L230.687,80.126z"/>
<polygon fill="#FFFFFF" points="230.411,86.627 230.411,93.026 230.411,124.048 268.79,124.048 277.028,124.048 277.028,86.627 "/>
<path fill="#222E63" d="M277.028,126.718H230.41c-1.475,0-2.67-1.195-2.67-2.67V86.627c0-1.475,1.195-2.67,2.67-2.67h46.618
	c1.475,0,2.67,1.195,2.67,2.67v37.421C279.698,125.523,278.503,126.718,277.028,126.718z M233.081,121.378h41.278V89.297h-41.278
	L233.081,121.378L233.081,121.378z"/>
<rect x="393.079" y="299.857" fill="#222E63" width="17.133" height="5.641"/>
<rect x="362.685" y="308.236" fill="#222E63" width="17.131" height="5.641"/>
<rect x="382.946" y="308.236" fill="#222E63" width="17.134" height="5.641"/>
<rect x="403.208" y="308.236" fill="#222E63" width="17.133" height="5.641"/>
<rect x="352.555" y="316.463" fill="#222E63" width="17.132" height="5.641"/>
<rect x="382.115" y="124.466" fill="#222E63" width="17.133" height="5.641"/>
<rect x="351.723" y="132.694" fill="#222E63" width="17.132" height="5.641"/>
<rect x="346.882" y="198.391" fill="#222E63" width="17.133" height="5.641"/>
<rect x="336.752" y="206.771" fill="#222E63" width="17.131" height="5.641"/>
<rect x="346.882" y="214.999" fill="#222E63" width="17.133" height="5.641"/>
<rect x="174.682" y="303.972" fill="#222E63" width="17.133" height="5.639"/>
<rect x="194.945" y="303.972" fill="#222E63" width="17.132" height="5.639"/>
<rect x="184.812" y="312.348" fill="#222E63" width="17.134" height="5.641"/>
<rect x="205.075" y="312.348" fill="#222E63" width="17.133" height="5.641"/>
<rect x="221.845" y="394.996" fill="#222E63" width="17.132" height="5.641"/>
<rect x="211.713" y="403.373" fill="#222E63" width="17.134" height="5.641"/>
<rect x="231.975" y="403.373" fill="#222E63" width="17.131" height="5.641"/>
<rect x="333.482" y="390.571" fill="#222E63" width="17.133" height="5.641"/>
<rect x="343.612" y="398.949" fill="#222E63" width="17.133" height="5.641"/>
<path fill="#222E63" d="M220.3,152.4c-4.71,0-8.541-3.832-8.541-8.544h4.88c0,2.022,1.641,3.662,3.662,3.662s3.663-1.64,3.663-3.662
	h4.88C228.843,148.568,225.011,152.4,220.3,152.4z"/>
<path fill="#222E63" d="M256.915,152.4c-4.712,0-8.541-3.832-8.541-8.544h4.879c0,2.022,1.644,3.662,3.662,3.662
	s3.662-1.64,3.662-3.662h4.88C265.456,148.568,261.626,152.4,256.915,152.4z"/>
<path fill="#222E63" d="M202.044,160.551c-4.71,0-8.544-3.834-8.544-8.546h4.881c0,2.016,1.642,3.662,3.663,3.662
	c2.018,0,3.663-1.646,3.663-3.662h4.878C210.586,156.716,206.755,160.551,202.044,160.551z"/>
<path fill="#222E63" d="M214.249,160.551c-4.71,0-8.541-3.834-8.541-8.546h4.878c0,2.016,1.645,3.662,3.663,3.662
	c2.02,0,3.663-1.646,3.663-3.662h4.881C222.792,156.716,218.959,160.551,214.249,160.551z"/>
<path fill="#222E63" d="M238.657,160.551c-4.71,0-8.541-3.834-8.541-8.546h4.881c0,2.016,1.642,3.662,3.66,3.662
	c2.02,0,3.663-1.646,3.663-3.662h4.882C247.202,156.716,243.368,160.551,238.657,160.551z"/>
<path fill="#222E63" d="M250.863,160.551c-4.71,0-8.544-3.834-8.544-8.546h4.882c0,2.016,1.641,3.662,3.662,3.662
	c2.018,0,3.66-1.646,3.66-3.662h4.881C259.405,156.716,255.574,160.551,250.863,160.551z"/>
<path fill="#222E63" d="M220.3,167.951c-4.71,0-8.541-3.831-8.541-8.542h4.88c0,2.019,1.641,3.659,3.662,3.659
	s3.661-1.64,3.661-3.659h4.882C228.843,164.12,225.011,167.951,220.3,167.951z"/>
<path fill="#222E63" d="M232.505,167.951c-4.71,0-8.544-3.831-8.544-8.542h4.882c0,2.019,1.644,3.659,3.662,3.659
	s3.663-1.64,3.663-3.659h4.881C241.048,164.12,237.215,167.951,232.505,167.951z"/>
<path fill="#222E63" d="M269.119,167.951c-4.71,0-8.542-3.831-8.542-8.542h4.88c0,2.019,1.642,3.659,3.663,3.659
	c2.019,0,3.66-1.64,3.66-3.659h4.881C277.661,164.12,273.83,167.951,269.119,167.951z"/>
<path fill="#222E63" d="M214.249,176.099c-4.71,0-8.544-3.834-8.544-8.546h4.881c0,2.019,1.645,3.662,3.663,3.662
	c2.018,0,3.663-1.642,3.663-3.662h4.881C222.792,172.265,218.959,176.099,214.249,176.099z"/>
<path fill="#222E63" d="M238.657,176.099c-4.71,0-8.541-3.834-8.541-8.546h4.881c0,2.019,1.642,3.662,3.66,3.662
	c2.02,0,3.662-1.642,3.662-3.662h4.883C247.202,172.265,243.368,176.099,238.657,176.099z"/>
<path fill="#222E63" d="M263.067,176.099c-4.71,0-8.544-3.834-8.544-8.546h4.881c0,2.019,1.642,3.662,3.663,3.662
	c2.018,0,3.663-1.642,3.663-3.662h4.878C271.609,172.265,267.778,176.099,263.067,176.099z"/>
<path fill="#222E63" d="M196.17,183.567c-4.71,0-8.544-3.829-8.544-8.538h4.882c0,2.016,1.641,3.656,3.662,3.656
	c2.018,0,3.66-1.64,3.66-3.656h4.881C204.711,179.739,200.88,183.567,196.17,183.567z"/>
<path fill="#222E63" d="M208.374,183.567c-4.71,0-8.544-3.829-8.544-8.538h4.881c0,2.016,1.645,3.656,3.663,3.656
	c2.018,0,3.662-1.64,3.662-3.656h4.882C216.918,179.739,213.084,183.567,208.374,183.567z"/>
<path fill="#222E63" d="M232.783,183.567c-4.71,0-8.542-3.829-8.542-8.538h4.881c0,2.016,1.642,3.656,3.662,3.656
	c2.019,0,3.662-1.64,3.662-3.656h4.881C241.326,179.739,237.495,183.567,232.783,183.567z"/>
<path fill="#222E63" d="M244.987,183.567c-4.709,0-8.542-3.829-8.542-8.538h4.881c0,2.016,1.642,3.656,3.662,3.656
	s3.662-1.64,3.662-3.656h4.881C253.53,179.739,249.697,183.567,244.987,183.567z"/>
<path fill="#222E63" d="M287.638,176.099c-4.712,0-8.545-3.834-8.545-8.546h4.883c0,2.019,1.642,3.662,3.662,3.662
	c2.017,0,3.66-1.642,3.66-3.662h4.882C296.18,172.265,292.348,176.099,287.638,176.099z"/>
<path fill="#222E63" d="M269.558,183.567c-4.71,0-8.541-3.829-8.541-8.538h4.881c0,2.016,1.642,3.656,3.661,3.656
	s3.662-1.64,3.662-3.656h4.879C278.099,179.739,274.268,183.567,269.558,183.567z"/>
<path fill="#222E63" d="M190.118,191.718c-4.71,0-8.544-3.834-8.544-8.544h4.881c0,2.016,1.645,3.662,3.663,3.662
	c2.018,0,3.661-1.646,3.661-3.662h4.883C198.662,187.884,194.828,191.718,190.118,191.718z"/>
<path fill="#222E63" d="M214.526,191.718c-4.71,0-8.542-3.834-8.542-8.544h4.882c0,2.016,1.642,3.662,3.66,3.662
	c2.02,0,3.662-1.646,3.662-3.662h4.882C223.07,187.884,219.237,191.718,214.526,191.718z"/>
<path fill="#222E63" d="M238.936,191.718c-4.71,0-8.542-3.834-8.542-8.544h4.882c0,2.016,1.641,3.662,3.66,3.662
	s3.663-1.646,3.663-3.662h4.88C247.478,187.884,243.647,191.718,238.936,191.718z"/>
<path fill="#222E63" d="M269.938,191.718c-4.713,0-8.544-3.834-8.544-8.544h4.881c0,2.016,1.641,3.662,3.663,3.662
	c2.016,0,3.661-1.646,3.661-3.662h4.879C278.478,187.884,274.649,191.718,269.938,191.718z"/>
<path fill="#222E63" d="M294.346,191.718c-4.71,0-8.544-3.834-8.544-8.544h4.883c0,2.016,1.641,3.662,3.66,3.662
	c2.018,0,3.661-1.646,3.661-3.662h4.882C302.889,187.884,299.056,191.718,294.346,191.718z"/>
<path fill="#222E63" d="M306.551,191.718c-4.71,0-8.544-3.834-8.544-8.544h4.882c0,2.016,1.642,3.662,3.662,3.662
	c2.018,0,3.661-1.646,3.661-3.662h4.882C315.093,187.884,311.261,191.718,306.551,191.718z"/>
<path fill="#222E63" d="M294.339,118.718c-4.708,0-8.541-3.831-8.541-8.545h4.881c0,2.022,1.642,3.664,3.66,3.664
	c2.021,0,3.664-1.642,3.664-3.664h4.88C302.883,114.887,299.052,118.718,294.339,118.718z"/>
<path fill="#222E63" d="M301.049,134.337c-4.71,0-8.542-3.831-8.542-8.542h4.882c0,2.018,1.642,3.662,3.66,3.662
	c2.019,0,3.662-1.644,3.662-3.662h4.882C309.593,130.506,305.76,134.337,301.049,134.337z"/>
<path fill="#222E63" d="M313.253,134.337c-4.709,0-8.542-3.831-8.542-8.542h4.882c0,2.018,1.642,3.662,3.66,3.662
	c2.019,0,3.663-1.644,3.663-3.662h4.881C321.797,130.506,317.964,134.337,313.253,134.337z"/>
<path fill="#FFFFFF" d="M482.422,478.871c0,7.272-5.893,13.168-13.163,13.168H144.357c-7.271,0-13.164-5.896-13.164-13.168l0,0
	c0-7.271,5.893-13.163,13.164-13.163h324.902C476.529,465.708,482.422,471.6,482.422,478.871L482.422,478.871z"/>
<path fill="#222E63" d="M469.259,494.708H144.357c-8.731,0-15.834-7.105-15.834-15.837c0-8.73,7.103-15.833,15.834-15.833H469.26
	c8.729,0,15.832,7.103,15.832,15.833C485.091,487.603,477.989,494.708,469.259,494.708z M144.357,468.378
	c-5.787,0-10.494,4.707-10.494,10.493c0,5.788,4.708,10.498,10.494,10.498H469.26c5.785,0,10.492-4.709,10.492-10.498
	c0-5.786-4.707-10.493-10.492-10.493H144.357z"/>
<path fill="#FFFFFF" d="M482.422,445.865c0,7.271-5.893,13.165-13.163,13.165H144.357c-7.271,0-13.164-5.894-13.164-13.165l0,0
	c0-7.27,5.893-13.165,13.164-13.165h324.902C476.529,432.7,482.422,438.595,482.422,445.865L482.422,445.865z"/>
<path fill="#222E63" d="M469.259,461.7H144.357c-8.731,0-15.834-7.104-15.834-15.835s7.103-15.835,15.834-15.835H469.26
	c8.729,0,15.832,7.104,15.832,15.835S477.989,461.7,469.259,461.7z M144.357,435.37c-5.787,0-10.494,4.708-10.494,10.495
	s4.708,10.495,10.494,10.495H469.26c5.785,0,10.492-4.708,10.492-10.495s-4.707-10.495-10.492-10.495H144.357z"/>
<path fill="#FFFFFF" d="M506.403,463.339c0,7.272-5.893,13.168-13.163,13.168H130.121c-7.271,0-13.164-5.896-13.164-13.168l0,0
	c0-7.271,5.893-13.163,13.164-13.163H493.24C500.51,450.176,506.403,456.068,506.403,463.339L506.403,463.339z"/>
<path fill="#222E63" d="M493.24,479.176H130.121c-8.731,0-15.834-7.105-15.834-15.838c0-8.73,7.104-15.833,15.834-15.833H493.24
	c8.73,0,15.833,7.103,15.833,15.833C509.073,472.072,501.97,479.176,493.24,479.176z M130.121,452.846
	c-5.787,0-10.495,4.707-10.495,10.493c0,5.789,4.708,10.498,10.495,10.498H493.24c5.786,0,10.493-4.709,10.493-10.498
	c0-5.786-4.707-10.493-10.493-10.493H130.121z"/>
<path fill="#222E63" d="M485.07,380.554c-2.191,3.591-4.983,6.824-8.237,9.492c-3.274,2.683-7.069,4.307-10.644,6.506
	c2.768-4.586,4.776-9.584,6.503-14.641c-0.563,0.091-1.128,0.101-1.695,0.03c-0.218,0.527-0.442,1.053-0.67,1.576
	c-0.455,1.043-0.93,2.077-1.426,3.101c-0.992,2.047-2.068,4.053-3.234,6.006c-2.586,4.332-5.879,8.213-8.252,12.674
	c0.552-10.904,1.593-21.626,1.379-32.564c-0.111-5.7-0.144-11.413,0.355-17.097c0.235-2.678,0.504-5.353,0.761-8.029
	c0.115-1.193,0.233-2.386,0.359-3.578c0.063-0.596,0.129-1.193,0.197-1.788c-0.686-0.147-1.36-0.383-1.982-0.709
	c-1.584,9.668-2.72,19.117-2.524,28.931c-2.045-3.471-4.773-6.463-6.715-10.007c-2.01-3.668-3.461-7.619-4.567-11.646
	c-1.35,1.009-1.444,0.623-0.96,2.44c0.38,1.427,0.819,2.837,1.298,4.234c0.845,2.461,1.758,4.929,2.847,7.294
	c2.098,4.557,5.464,8.394,7.428,13.016c1.903,4.48,0.237,10.514-0.205,15.195c-0.499,5.289-1.074,10.577-1.345,15.885
	c-2.202-5.986-5.786-11.324-8.659-16.986c-3.01-5.946-4.917-12.366-6.205-18.888c-0.62,1.189-1.865,2.008-1.547,3.333
	c0.41,1.708,0.865,3.406,1.372,5.089c0.878,2.918,1.931,5.77,3.131,8.57c-1.729-1.969-3.53-3.879-5.185-5.912
	c-0.921-1.134-1.83-2.277-2.727-3.43c-0.36-0.462-0.718-0.926-1.074-1.392c-0.79-1.032-0.958-0.501-2.124-0.332
	c3.905,5.625,7.881,11.326,12.22,16.625c4.204,5.133,6.952,10.095,8.073,16.73c1.182,6.999,1.716,13.895-0.629,20.699
	c-0.308,0.893-3.104,7.721-2.679,7.847c1.648,0.489,4.024,0.826,5.721,0.498c1.224-0.147,2.397-0.352,3.632-0.443
	c1.327-0.097,2.127-0.042,1.643-1.417c-1.05-2.985-2.009-6.023-2.396-9.174c-0.419-3.414-0.074-6.83,0.534-10.2
	c0.579-3.211,1.11-6.712,2.458-9.704c1.328-2.947,3-6.046,5.507-8.149c2.538-2.129,5.582-3.598,8.387-5.331
	c5.54-3.422,10.13-8.024,13.046-13.893C485.832,380.908,485.442,380.755,485.07,380.554
	C482.065,385.48,485.523,380.789,485.07,380.554z"/>
<path fill="#FFFFFF" d="M130.488,441.613c3.93-9.111-3.908-17.445-12.915-17.931c-7.812-0.421-15.805,4.707-17.861,12.532
	c-5.183-2.473-12.452,1.236-11.658,7.434c0.133,1.035-1.788,1.704-2.609,2.457c-0.974,0.893-1.796,1.952-2.427,3.114
	c-1.258,2.315-1.756,5.065-1.142,7.648c0.897,3.771,3.936,6.214,7.771,6.448c1.317,0.082,2.649-0.061,3.932-0.36
	c1.252-0.292,0.809,0.222,1.302,1.22c0.333,0.673,0.775,1.298,1.317,1.819c2.188,2.103,5.251,1.309,7.085-0.839
	c3.189,4.052,8.013,3.988,12.394,1.866c1.914-0.927,3.653-2.292,4.873-4.047c1.989,0.772,4.183,0.345,6.05-0.557
	C133.74,458.966,138.927,446.754,130.488,441.613C131.899,438.341,134.722,444.192,130.488,441.613z"/>
<path fill="#222E63" d="M110.008,471.124c-2.612,0-4.954-0.808-6.894-2.36c-1.221,0.735-2.58,1.133-3.952,1.133
	c-1.805,0-3.47-0.684-4.816-1.978c-0.628-0.604-1.168-1.304-1.61-2.088c-1.108,0.164-2.186,0.215-3.256,0.149
	c-5.044-0.308-9.05-3.643-10.204-8.496c-0.744-3.13-0.249-6.519,1.395-9.541c0.779-1.434,1.778-2.715,2.968-3.806
	c0.447-0.409,0.961-0.728,1.415-1.01c0.082-0.051,0.177-0.11,0.273-0.17c-0.055-2.376,0.764-4.633,2.358-6.444
	c2.063-2.344,5.247-3.744,8.517-3.744c0.625,0,1.237,0.05,1.835,0.149c3.072-7.049,10.499-11.931,18.636-11.931
	c0.347,0,0.695,0.01,1.042,0.028c5.874,0.317,11.352,3.465,14.296,8.217c1.853,2.989,2.536,6.317,2.026,9.651
	c0.849,0.768,1.355,1.884,1.355,2.932c0,0.218-0.021,0.429-0.059,0.632c1.555,2.103,2.31,4.688,2.169,7.578
	c-0.286,5.888-4.475,12.25-9.744,14.796c-1.658,0.801-3.387,1.225-5,1.225l0,0c-0.407,0-0.807-0.026-1.2-0.078
	c-1.286,1.392-2.89,2.57-4.72,3.457C114.512,470.553,112.214,471.124,110.008,471.124z M103.282,462.486c0.018,0,0.035,0,0.053,0
	c0.8,0.016,1.55,0.39,2.045,1.018c1.208,1.534,2.721,2.28,4.628,2.28c1.373,0,2.93-0.403,4.503-1.165
	c1.621-0.785,2.95-1.88,3.845-3.167c0.704-1.012,2.008-1.412,3.159-0.965c1.057,0.41,2.466,0.231,3.921-0.472
	c3.582-1.731,6.54-6.232,6.734-10.247c0.125-2.58-0.909-4.556-3.072-5.874c-0.187-0.114-0.354-0.247-0.502-0.395
	c0.001,0-0.001-0.001-0.002-0.002c-0.001,0-0.002-0.001-0.002-0.002c0,0-0.001-0.001-0.002-0.002c0,0-0.001-0.001-0.002-0.002
	c0,0-0.001-0.001-0.002-0.003l0,0c-0.001-0.002-0.003-0.003-0.005-0.005l0,0c-0.343-0.35-0.578-0.783-0.689-1.249l0,0
	c0-0.001,0-0.002,0-0.003c0,0-0.001-0.002-0.001-0.003c0.002,0,0-0.002-0.001-0.004l0,0c-0.001-0.001-0.001-0.003-0.001-0.004
	s-0.001-0.002-0.001-0.004c0-0.001-0.002-0.002,0-0.003c-0.001-0.002-0.002-0.003-0.001-0.004c0-0.001-0.002-0.002-0.001-0.004
	c0-0.001,0-0.003-0.001-0.004c0-0.001-0.002-0.002,0-0.004c-0.001-0.001-0.001-0.002-0.001-0.004c0-0.002,0-0.003-0.001-0.004
	c0-0.001,0-0.002,0-0.004c-0.004-0.001-0.001-0.003-0.001-0.004c0,0,0-0.002-0.001-0.004v-0.001
	c-0.114-0.528-0.069-1.093,0.158-1.62c1.598-3.705,0.576-6.673-0.563-8.51c-2.008-3.24-5.951-5.477-10.045-5.698
	c-6.879-0.376-13.493,4.293-15.135,10.545c-0.202,0.77-0.737,1.409-1.458,1.743c-0.722,0.335-1.555,0.33-2.273-0.012
	c-0.715-0.341-1.509-0.514-2.359-0.514c-1.732,0-3.459,0.74-4.508,1.932c-0.817,0.929-1.151,2.028-0.993,3.268
	c0.31,2.409-1.735,3.677-2.833,4.357c-0.21,0.13-0.527,0.327-0.624,0.41c-0.75,0.688-1.384,1.502-1.881,2.417
	c-0.999,1.838-1.324,3.936-0.891,5.757c0.615,2.589,2.61,4.234,5.336,4.401c1.027,0.063,2.064-0.04,3.163-0.295
	c0.442-0.103,0.808-0.151,1.151-0.151c0.737,0,2.512,0.25,3.086,2.568c0.032,0.13,0.046,0.183,0.064,0.22
	c0.205,0.415,0.473,0.788,0.774,1.078c0.345,0.332,0.7,0.487,1.115,0.487c0.691,0,1.491-0.435,2.089-1.135
	C101.759,462.828,102.502,462.486,103.282,462.486z"/>
<path fill="#FFFFFF" d="M539.962,100.436c-1.014-0.302-2.039-0.509-3.094-0.598c4.268-9.183-4.237-19.232-13.264-20.383
	c-7.349-0.937-16.404,2.809-16.814,11.188c-5.608-0.971-13.706,6.074-10.082,11.879c-10.656,2.442-14.79,18.249-4.399,23.761
	c4.624,2.453,11.158,2.421,15.861,0.161c4.597,3.722,12.223,2.27,14.386-3.453c7.185,4.549,18.668,5.26,24.924-1.428
	C554.16,114.42,548.277,102.915,539.962,100.436C539.438,100.28,546.367,102.346,539.962,100.436z"/>
<path fill="#222E63" d="M514.117,131.166c-2.231,0-4.397-0.593-6.251-1.691c-2.308,0.87-4.883,1.326-7.54,1.326
	c-3.4,0-6.604-0.747-9.268-2.16c-5.392-2.86-8.116-8.317-7.287-14.598c0.778-5.904,4.459-10.88,9.496-13.163
	c-0.343-1.98,0.033-4.075,1.131-6.053c2.021-3.646,6.117-6.386,10.082-6.869c1.765-7.44,9.457-11.314,16.877-11.314
	c0.872,0,1.741,0.055,2.585,0.162c5.902,0.752,11.646,4.736,14.635,10.148c1.939,3.512,2.54,7.256,1.783,10.818
	c0.109,0.031,0.221,0.062,0.331,0.095l0,0l0,0c0.006,0.001,0.011,0.003,0.016,0.005c0.006,0.001,0.012,0.003,0.017,0.005h0.002
	l2.729,0.814l-0.021,0.071c0.865,0.352,1.45,0.734,1.744,1.282c3.496,2.399,6.225,6.122,7.331,10.242
	c1.301,4.843,0.179,9.617-3.078,13.1c-3.485,3.726-8.635,5.778-14.501,5.778h-0.001c-3.877,0-7.877-0.917-11.338-2.563
	C521.465,129.442,518.001,131.166,514.117,131.166z M508.171,123.774c0.601,0,1.195,0.202,1.681,0.595
	c1.16,0.94,2.675,1.458,4.266,1.458c2.082,0,4.887-0.99,5.94-3.779c0.284-0.751,0.891-1.334,1.651-1.589
	c0.764-0.254,1.598-0.153,2.274,0.276c3.103,1.964,7.092,3.09,10.945,3.09h0.001c4.372,0,8.137-1.451,10.601-4.086
	c2.562-2.738,2.404-5.899,1.821-8.068c-1.067-3.978-4.402-7.54-8.109-8.664c-0.006-0.001-0.01-0.003-0.016-0.005l-0.026-0.008
	c-0.007-0.002-0.014-0.004-0.021-0.006l0,0l0,0l-0.003-0.001l0,0c-0.876-0.259-1.705-0.419-2.533-0.49
	c-0.869-0.074-1.646-0.567-2.084-1.321s-0.479-1.674-0.111-2.465c1.708-3.675,0.646-7.019-0.546-9.177
	c-2.158-3.909-6.433-6.896-10.636-7.432c-0.62-0.079-1.263-0.119-1.909-0.119c-4.61,0-11.585,2.341-11.9,8.79
	c-0.038,0.764-0.401,1.475-0.998,1.953c-0.598,0.478-1.366,0.677-2.125,0.547c-0.196-0.034-0.407-0.051-0.627-0.051
	c-2.378,0-5.356,1.882-6.64,4.195c-1.128,2.035-0.351,3.281-0.095,3.691c0.457,0.732,0.532,1.641,0.201,2.438
	c-0.331,0.797-1.028,1.385-1.869,1.578c-4.938,1.132-7.733,5.779-8.24,9.617c-0.252,1.91-0.318,6.629,4.496,9.182
	c1.868,0.991,4.271,1.537,6.766,1.537c2.402,0,4.778-0.505,6.688-1.423C507.382,123.86,507.777,123.774,508.171,123.774z"/>
<path fill="#FFFFFF" d="M59.598,137.095c-8.621-1.965-15.145,10.97-9.319,17.159c-11.826,4.318-13.984,20.335-8.449,30.289
	c4.821,8.659,16.917,14.497,26.105,8.986c0.158,5.539,6.572,7.836,10.356,3.82c2.665,5.573,8.996,8.196,14.912,7.159
	c5.962-1.044,10.583-6.185,12.063-11.899c8.66,4.962,21.761,1.778,29.262-3.931c8.635-6.572,12.192-18.351,9.519-28.751
	c-2.387-9.29-10.066-17.662-19.849-19.028c-2.309-0.322-4.672-0.242-6.954,0.237c-1.126,0.236-2.306,1.031-3.212,0.283
	c-0.938-0.774-1.955-1.451-3.027-2.025c-4.848-2.595-10.874-3.173-16.126-1.552c-1.681-7.429-7.401-14.176-15.267-15.102
	c-9.312-1.096-16.875,6.132-17.357,15.328C61.409,137.65,60.52,137.305,59.598,137.095
	C55.476,136.156,60.459,137.291,59.598,137.095z"/>
<path fill="#222E63" d="M90.64,207.4c-5.345,0-10.13-2.321-13.114-6.217c-1.17,0.566-2.445,0.865-3.759,0.865
	c-3.392,0-6.236-1.883-7.614-4.734c-1.926,0.688-3.968,1.035-6.104,1.035c-8.001,0-16.453-5.143-20.553-12.507
	c-3.61-6.492-4.246-15.239-1.622-22.283c1.701-4.565,4.665-8.168,8.504-10.412c-1.4-3.125-1.35-6.965,0.255-10.681
	c2.013-4.66,5.961-7.786,10.241-8.196c0.328-0.143,0.689-0.222,1.067-0.222c0.21,0,0.273,0,0.598,0.07v-0.002l0.384,0.088
	c0.062,0.014,0.13,0.03,0.205,0.046l0.948,0.216c1.945-8.364,9.156-14.506,17.673-14.506c0.719,0,1.45,0.043,2.174,0.128
	c7.595,0.894,14.09,6.615,16.819,14.557c1.388-0.251,2.812-0.378,4.256-0.378c3.979,0,7.875,0.959,11.265,2.773
	c1.048,0.561,2.044,1.206,2.968,1.92c0.079-0.027,0.16-0.055,0.23-0.078c0.361-0.123,0.77-0.262,1.234-0.359
	c2.572-0.54,5.268-0.632,7.871-0.268c10.179,1.421,19.252,10.06,22.065,21.008c3.029,11.785-1.186,24.46-10.488,31.54
	c-5.62,4.277-13.558,6.934-20.716,6.934c-3.146,0-6.032-0.491-8.617-1.462c-2.483,5.655-7.473,9.869-13.148,10.863
	C92.671,207.312,91.653,207.4,90.64,207.4z M78.291,194.679c0.137,0,0.274,0.01,0.412,0.032c0.87,0.136,1.617,0.692,1.997,1.486
	c1.729,3.616,5.538,5.863,9.94,5.863c0.705,0,1.413-0.061,2.103-0.182c4.542-0.795,8.629-4.882,9.94-9.939
	c0.209-0.806,0.782-1.468,1.549-1.791c0.767-0.323,1.641-0.27,2.363,0.144c2.437,1.396,5.41,2.104,8.835,2.104
	c5.956,0,12.818-2.294,17.482-5.844c7.497-5.706,11.013-16.382,8.55-25.962c-2.289-8.908-9.54-15.918-17.632-17.048
	c-1.996-0.279-4.065-0.208-6.036,0.205c-0.203,0.043-0.407,0.119-0.611,0.189c-0.609,0.207-1.367,0.465-2.249,0.465
	c-0.968,0-1.868-0.32-2.6-0.925c-0.788-0.65-1.659-1.233-2.588-1.73c-2.618-1.401-5.642-2.142-8.745-2.142
	c-1.848,0-3.642,0.265-5.333,0.787c-0.712,0.219-1.481,0.133-2.125-0.24c-0.644-0.372-1.103-0.997-1.267-1.722
	c-1.332-5.887-5.86-12.203-12.975-13.04c-0.518-0.061-1.04-0.092-1.55-0.092c-6.927,0-12.442,5.549-12.829,12.908
	c-0.047,0.896-0.541,1.709-1.315,2.163c-0.775,0.454-1.727,0.488-2.53,0.092c-0.735-0.362-1.407-0.611-2.051-0.76
	c-0.424-0.095-0.812-0.139-1.19-0.139c-3.048,0-5.298,2.704-6.299,5.02c-1.018,2.356-1.372,5.653,0.686,7.84
	c0.615,0.654,0.861,1.573,0.654,2.446c-0.207,0.874-0.839,1.584-1.682,1.892c-4.868,1.777-7.208,5.691-8.315,8.662
	c-2.102,5.643-1.598,12.638,1.285,17.823c3.149,5.657,9.831,9.763,15.886,9.763c2.363,0,4.554-0.595,6.512-1.769
	c0.812-0.488,1.824-0.508,2.656-0.052s1.359,1.318,1.386,2.266c0.061,2.136,1.637,3.254,3.163,3.254c0.666,0,1.654-0.207,2.581-1.19
	C76.856,194.978,77.561,194.679,78.291,194.679z"/>
<polygon fill="#222E63" points="391.633,235.145 385.022,235.145 385.022,241.755 385.022,252.27 385.022,257.042 391.045,257.042 
	394.787,257.042 394.787,253.3 394.787,242.507 394.787,235.145 "/>
<polygon fill="#222E63" points="371.105,235.145 371.105,239.897 371.105,255.672 371.105,257.042 380.251,257.042 380.87,257.042 
	380.87,256.424 380.87,245.907 380.87,235.145 375.859,235.145 "/>
<polygon fill="#222E63" points="371.105,261.191 371.105,266.186 371.105,276.979 371.105,283.088 380.87,283.088 380.87,267.216 
	380.87,261.191 376.1,261.191 "/>
<polygon fill="#222E63" points="385.022,261.191 385.022,263.065 385.022,283.088 394.787,283.088 394.787,261.191 386.894,261.191 
	"/>
<polygon fill="#222E63" points="371.105,333.557 371.105,338.307 371.105,354.085 371.105,355.455 380.251,355.455 380.87,355.455 
	380.87,354.835 380.87,344.317 380.87,333.557 375.859,333.557 "/>
<polygon fill="#222E63" points="371.105,359.603 371.105,364.602 371.105,375.392 371.105,381.501 380.87,381.501 380.87,365.627 
	380.87,359.603 376.1,359.603 "/>
<polygon fill="#222E63" points="385.022,359.603 385.022,361.474 385.022,381.501 394.787,381.501 394.787,359.603 386.894,359.603 
	"/>
<polygon fill="#222E63" points="391.633,333.557 385.022,333.557 385.022,340.166 385.022,350.685 385.022,355.455 391.045,355.455 
	394.787,355.455 394.787,351.713 394.787,340.917 394.787,333.557 "/>
<path fill="#FFFFFF" d="M482.511,318.446c7.486-4.707,2.953-18.466-5.543-18.723c5.309-11.415-4.491-24.267-15.444-27.392
	c-9.532-2.714-22.213,1.711-24.813,12.105c-4.028-3.805-10.188-0.894-10.024,4.622c-5.825-2.056-12.156,0.566-15.607,5.483
	c-3.477,4.954-3.109,11.857-0.117,16.944c-9.632,2.615-16.645,14.13-17.911,23.471c-1.458,10.753,4.355,21.597,13.599,27.061
	c8.257,4.881,19.607,5.371,27.49-0.58c1.861-1.405,3.475-3.132,4.749-5.084c0.629-0.963,0.901-2.36,2.071-2.472
	c1.211-0.116,2.409-0.357,3.573-0.709c5.263-1.593,9.933-5.445,12.5-10.305c6.442,4.065,15.258,4.791,21.474-0.116
	c7.359-5.809,7.596-16.268,1.435-23.112C480.837,319.335,481.71,318.95,482.511,318.446
	C486.09,316.196,481.763,318.916,482.511,318.446z"/>
<path fill="#222E63" d="M420.475,368.459c-5.271,0-10.663-1.472-15.183-4.144c-10.476-6.192-16.458-18.135-14.886-29.719
	c1.27-9.365,7.775-20.431,16.875-24.603c-2.246-5.755-1.699-12.268,1.612-16.986c3.171-4.518,8.409-7.324,13.669-7.324
	c0.656,0,1.309,0.042,1.954,0.126c0.412-1.189,1.073-2.271,1.956-3.181c2.25-2.318,5.792-3.169,8.815-2.124
	c3.75-7.961,12.818-11.625,20.455-11.625c2.26,0,4.451,0.298,6.512,0.884c7.143,2.038,13.777,7.772,16.902,14.609
	c2.024,4.427,2.478,9.069,1.352,13.367c4.106,1.561,6.87,5.528,7.928,9.417c1.17,4.302,0.376,8.458-2.011,11.357
	c-0.436,1.059-1.527,1.765-2.371,2.171c2.181,3.514,3.209,7.617,2.864,11.668c-0.421,4.948-2.82,9.385-6.757,12.492
	c-3.315,2.617-7.438,4-11.923,4l0,0c-3.469,0-7.03-0.844-10.262-2.408c-3.031,4.367-7.61,7.756-12.671,9.288
	c-1.137,0.344-2.296,0.593-3.455,0.74c-0.038,0.076-0.076,0.154-0.108,0.219c-0.168,0.342-0.359,0.729-0.618,1.125
	c-1.449,2.22-3.258,4.156-5.376,5.756C431.511,366.767,426.229,368.459,420.475,368.459z M422.563,291.022
	c-3.548,0-7.111,1.936-9.298,5.052c-2.649,3.774-2.649,9.554-0.001,14.056c0.423,0.718,0.485,1.591,0.172,2.361
	c-0.314,0.771-0.97,1.351-1.773,1.569c-8.39,2.278-14.819,12.805-15.965,21.253c-1.267,9.335,3.796,19.371,12.312,24.404
	c3.71,2.193,8.137,3.401,12.466,3.401c4.583,0,8.753-1.319,12.058-3.813c1.624-1.226,3.011-2.711,4.122-4.413
	c0.113-0.174,0.203-0.372,0.298-0.565c0.461-0.935,1.419-2.881,3.755-3.104c1.018-0.097,2.045-0.302,3.053-0.606
	c4.592-1.39,8.671-4.753,10.913-8.997c0.347-0.658,0.953-1.141,1.672-1.333c0.718-0.192,1.483-0.075,2.113,0.322
	c2.962,1.869,6.436,2.898,9.781,2.898c3.271,0,6.25-0.986,8.614-2.852c2.766-2.183,4.45-5.292,4.745-8.753
	c0.317-3.735-1.01-7.554-3.641-10.476c-0.601-0.667-0.825-1.592-0.599-2.46c0.227-0.868,0.874-1.565,1.724-1.854
	c0.785-0.267,1.44-0.569,2.005-0.924c2.689-1.691,2.897-5.049,2.196-7.629c-0.789-2.9-3.128-6.067-6.398-6.166
	c-0.896-0.027-1.72-0.503-2.191-1.267s-0.527-1.714-0.148-2.527c2.186-4.699,1.073-9.122-0.245-12.005
	c-2.503-5.476-7.807-10.066-13.51-11.694c-1.584-0.451-3.282-0.68-5.048-0.68c-6.61,0-14.575,3.4-16.443,10.865
	c-0.229,0.92-0.931,1.649-1.841,1.915c-0.911,0.266-1.893,0.029-2.583-0.622c-0.689-0.652-1.491-0.996-2.32-0.996
	c-0.835,0-1.655,0.352-2.251,0.966c-0.455,0.469-0.989,1.306-0.949,2.632c0.026,0.88-0.384,1.717-1.095,2.236
	s-1.635,0.654-2.463,0.361C424.758,291.209,423.67,291.022,422.563,291.022z"/>
<path fill="#FFFFFF" d="M499.264,358.153c-1.014-0.302-2.039-0.509-3.094-0.598c4.268-9.183-4.237-19.232-13.264-20.383
	c-7.349-0.937-16.404,2.809-16.814,11.188c-5.608-0.971-13.706,6.074-10.082,11.879c-10.656,2.442-14.79,18.249-4.399,23.761
	c4.624,2.453,11.158,2.421,15.861,0.161c4.597,3.722,12.223,2.27,14.386-3.453c7.185,4.549,18.668,5.26,24.924-1.428
	C513.462,372.138,507.579,360.633,499.264,358.153C498.739,357.997,505.669,360.063,499.264,358.153z"/>
<path fill="#222E63" d="M473.419,388.883c-2.23,0-4.398-0.593-6.251-1.691c-2.308,0.87-4.883,1.326-7.54,1.326
	c-3.4,0-6.604-0.747-9.268-2.16c-5.392-2.86-8.116-8.317-7.287-14.598c0.778-5.904,4.458-10.88,9.496-13.162
	c-0.343-1.979,0.033-4.075,1.13-6.052c2.022-3.647,6.117-6.387,10.084-6.869c1.765-7.439,9.456-11.314,16.876-11.314
	c0.872,0,1.741,0.055,2.585,0.162c5.902,0.752,11.646,4.736,14.635,10.148c1.939,3.512,2.54,7.256,1.783,10.818
	c0.109,0.031,0.221,0.062,0.331,0.095l0,0l0,0c0.006,0.001,0.011,0.003,0.016,0.005c0.006,0.001,0.012,0.003,0.017,0.005
	c0.001,0,0.002,0,0.002,0l2.729,0.814l-0.021,0.071c0.865,0.352,1.45,0.734,1.744,1.282c3.496,2.399,6.225,6.122,7.331,10.242
	c1.301,4.843,0.179,9.617-3.078,13.1c-3.485,3.726-8.636,5.778-14.5,5.778c-0.001,0-0.001,0-0.001,0
	c-3.878,0-7.878-0.917-11.339-2.563C480.767,387.159,477.302,388.883,473.419,388.883z M467.472,381.491
	c0.601,0,1.195,0.202,1.681,0.595c1.16,0.94,2.675,1.458,4.266,1.458c2.082,0,4.887-0.99,5.94-3.779
	c0.284-0.751,0.891-1.334,1.651-1.588c0.764-0.254,1.598-0.153,2.274,0.276c3.103,1.964,7.092,3.09,10.946,3.09c0,0,0,0,0.001,0
	c4.371,0,8.136-1.451,10.6-4.086c2.562-2.738,2.404-5.899,1.821-8.068c-1.067-3.978-4.402-7.54-8.109-8.664
	c-0.006-0.001-0.01-0.003-0.016-0.005l-0.026-0.008c-0.007-0.002-0.014-0.004-0.021-0.006l0,0l0,0l-0.003-0.001l0,0
	c-0.876-0.259-1.705-0.419-2.533-0.49c-0.869-0.074-1.646-0.567-2.084-1.321c-0.438-0.754-0.479-1.674-0.111-2.465
	c1.708-3.675,0.646-7.019-0.546-9.177c-2.158-3.909-6.433-6.896-10.636-7.432c-0.62-0.079-1.263-0.119-1.909-0.119
	c-4.61,0-11.585,2.341-11.9,8.79c-0.038,0.764-0.401,1.475-0.998,1.953c-0.598,0.478-1.367,0.678-2.125,0.547
	c-0.196-0.034-0.407-0.051-0.628-0.051c-2.378,0-5.356,1.882-6.639,4.195c-1.129,2.034-0.351,3.281-0.095,3.69
	c0.457,0.732,0.532,1.641,0.201,2.438s-1.027,1.385-1.869,1.578c-4.938,1.132-7.733,5.779-8.24,9.617
	c-0.252,1.91-0.318,6.629,4.496,9.183c1.868,0.991,4.271,1.537,6.766,1.537c2.402,0,4.778-0.505,6.688-1.423
	C466.684,381.578,467.079,381.491,467.472,381.491z"/>
<path fill="#FFFFFF" d="M439.088,366.595c-0.78-1.11-1.72-2.181-2.897-2.882c-1.056-0.628-0.473-0.778-0.153-1.852
	c0.226-0.757,0.385-1.534,0.471-2.319c0.263-2.379-0.15-4.827-1.249-6.955c-1.843-3.576-5.424-5.902-9.267-6.838
	c-9.402-2.29-18.811,4.512-15.591,14.74c-7.268-0.11-8.955,10.584-3.48,14.114c0.675,0.435,1.416,0.776,2.182,1.017
	c1.305,0.411,0.477,1.113,0.498,2.356c0.027,1.606,0.676,3.083,1.839,4.191c2.365,2.251,5.879,2.413,8.889,1.611
	c1.102-0.294,3.426-2.016,4.221-1.569c1.125,0.634,2.355,1.079,3.621,1.328c2.477,0.487,5.12,0.232,7.42-0.83
	C441.89,379.8,442.864,371.978,439.088,366.595C438.605,365.908,440.903,369.183,439.088,366.595z"/>
<path fill="#222E63" d="M417.094,386.888c-2.986,0-5.577-0.964-7.492-2.787c-1.682-1.6-2.629-3.759-2.669-6.079
	c-0.002-0.13,0.001-0.256,0.007-0.376c-0.511-0.232-1-0.499-1.464-0.798c-3.734-2.408-5.369-7.394-3.977-12.124
	c0.926-3.144,3.005-5.409,5.707-6.379c-0.442-3.545,0.38-6.903,2.411-9.671c2.772-3.781,7.521-6.037,12.7-6.037
	c1.44,0,2.89,0.175,4.308,0.521c4.926,1.2,8.938,4.192,11.008,8.209c1.329,2.571,1.858,5.501,1.53,8.471
	c-0.089,0.803-0.241,1.606-0.455,2.395c0.888,0.721,1.706,1.621,2.498,2.735l0.01,0.014c0.002,0.003,0.005,0.007,0.007,0.01
	l0.01,0.014c0.009,0.011,0.017,0.023,0.024,0.034c0.002,0.002,0.003,0.004,0.005,0.007l0,0c0.002,0.002,0.003,0.004,0.004,0.006
	c0.003,0.004,0.006,0.007,0.008,0.011l0.001,0.001c0.063,0.09,0.126,0.18,0.188,0.269l0.514,0.731l-0.025,0.018
	c0.114,0.195,0.217,0.39,0.301,0.586c1.714,3.26,2.181,7.059,1.243,10.476c-0.984,3.585-3.394,6.422-6.782,7.987
	c-1.861,0.86-3.971,1.314-6.101,1.314l0,0c-0.989,0-1.983-0.097-2.954-0.288c-1.262-0.248-2.472-0.65-3.608-1.199
	c-0.297,0.14-0.657,0.33-0.911,0.464c-0.733,0.386-1.427,0.752-2.121,0.937C419.7,386.71,418.38,386.888,417.094,386.888z
	 M410.362,363.16c-2.477,0-3.402,1.925-3.74,3.072c-0.6,2.038-0.19,4.878,1.749,6.128c0.463,0.299,0.98,0.539,1.537,0.715
	c0.976,0.307,3.171,1.359,2.438,4.476c-0.034,0.148-0.074,0.316-0.072,0.383c0.015,0.89,0.364,1.686,1.011,2.301
	c0.916,0.873,2.198,1.315,3.811,1.315c0.821,0,1.68-0.117,2.55-0.349c0.155-0.052,0.668-0.322,1.007-0.501
	c1.149-0.605,2.338-1.231,3.574-1.231c0.595,0,1.146,0.14,1.637,0.417c0.868,0.489,1.819,0.837,2.827,1.035
	c1.97,0.387,4.07,0.158,5.786-0.634c2.48-1.146,3.475-3.108,3.871-4.553c0.676-2.461,0.156-5.274-1.39-7.525
	c-0.001-0.001-0.002-0.003-0.003-0.005l-0.106-0.152c-0.002-0.002-0.004-0.005-0.005-0.007l0,0
	c-0.688-0.968-1.353-1.639-2.017-2.034c-1.846-1.099-2.371-2.731-1.479-4.596c0.039-0.083,0.094-0.183,0.134-0.316
	c0.181-0.606,0.308-1.228,0.376-1.847c0.209-1.892-0.135-3.823-0.969-5.436c-1.362-2.644-4.104-4.636-7.526-5.47
	c-1.005-0.245-2.029-0.369-3.044-0.369c-3.485,0-6.624,1.441-8.395,3.856c-1.578,2.151-1.915,4.868-0.974,7.857
	c0.257,0.818,0.106,1.709-0.406,2.397c-0.504,0.677-1.298,1.074-2.141,1.074C410.388,363.16,410.365,363.161,410.362,363.16z"/>
</svg>
