<?xml version="1.0" encoding="utf-8"?>
<!-- Generator: Adobe Illustrator 17.0.0, SVG Export Plug-In . SVG Version: 6.00 Build 0)  -->
<!DOCTYPE svg PUBLIC "-//W3C//DTD SVG 1.1//EN" "http://www.w3.org/Graphics/SVG/1.1/DTD/svg11.dtd">
<svg version="1.1" id="svg1" xmlns="http://www.w3.org/2000/svg" xmlns:xlink="http://www.w3.org/1999/xlink" x="0px" y="0px"
	 width="613.34px" height="552.34px" viewBox="-7.397 4.001 613.34 552.34" enable-background="new -7.397 4.001 613.34 552.34"
	 xml:space="preserve">
<rect x="-4.727" y="6.67" fill="#FFFFFF" width="608" height="547"/>
<path fill="#222E63" d="M603.273,556.341h-608c-1.475,0-2.67-1.195-2.67-2.67v-547c0-1.475,1.195-2.67,2.67-2.67h608
	c1.475,0,2.67,1.195,2.67,2.67v547C605.943,555.145,604.748,556.341,603.273,556.341z M-2.057,551.001h602.66V9.34H-2.057V551.001z"
	/>
<rect x="11.773" y="21.515" fill="#FFFFFF" width="575" height="517.311"/>
<path fill="#222E63" d="M586.773,541.496h-575c-1.475,0-2.67-1.195-2.67-2.67V21.515c0-1.475,1.195-2.67,2.67-2.67h575
	c1.475,0,2.67,1.195,2.67,2.67v517.311C589.443,540.301,588.248,541.496,586.773,541.496z M14.443,536.156h569.66V24.185H14.443
	V536.156z"/>
<path fill="#FFFFFF" d="M129.439,197.262v305.636h-10.303v11.774h32.38v-11.774h-10.303V197.262l26.062-22.107h34.617v-5.887h-6.589
	v-4.719c3.812,0.058,6.589-0.201,6.589-4.428c0-2.84-4.881-4.656-5.783-7.128c-0.96-2.622,3.036-4.421,3.036-6.233
	c0-3.036-3.749-4.22-6.784-4.22c-3.041,0-6.784,1.185-6.784,4.22c0,1.811,3.899,3.185,3.042,6.233
	c-0.713,2.53-5.79,4.283-5.79,7.128c0,4.226,2.777,4.484,6.589,4.428v4.719h-22.629v-4.719c3.812,0.058,6.589-0.201,6.589-4.428
	c0-2.84-4.881-4.656-5.783-7.128c-0.96-2.622,3.036-4.421,3.036-6.233c0-3.036-3.749-4.22-6.784-4.22
	c-3.041,0-6.784,1.185-6.784,4.22c0,1.811,3.899,3.185,3.042,6.233c-0.713,2.53-5.79,4.283-5.79,7.128
	c0,4.226,2.777,4.484,6.589,4.428v4.719h-19.686v-24.015l26.062-22.1h34.617v-5.887h-6.589v-4.721
	c3.812,0.058,6.589-0.201,6.589-4.432c0-2.84-4.881-4.658-5.783-7.128c-0.96-2.617,3.036-4.416,3.036-6.233
	c0-3.036-3.749-4.215-6.784-4.215c-3.041,0-6.784,1.18-6.784,4.215c0,1.817,3.899,3.185,3.042,6.233
	c-0.713,2.535-5.79,4.289-5.79,7.128c0,4.231,2.777,4.49,6.589,4.432v4.721h-22.629v-4.721c3.812,0.058,6.589-0.201,6.589-4.432
	c0-2.84-4.881-4.658-5.783-7.128c-0.96-2.617,3.036-4.416,3.036-6.233c0-3.036-3.749-4.215-6.784-4.215
	c-3.041,0-6.784,1.18-6.784,4.215c0,1.817,3.899,3.185,3.042,6.233c-0.713,2.535-5.79,4.289-5.79,7.128
	c0,4.231,2.777,4.49,6.589,4.432v4.721h-19.686v-42.06h-11.774v42.062h-19.686v-4.721c3.812,0.058,6.589-0.201,6.589-4.432
	c0-2.84-4.881-4.658-5.783-7.128c-0.96-2.617,3.036-4.416,3.036-6.233c0-3.036-3.749-4.215-6.784-4.215
	c-3.041,0-6.784,1.18-6.784,4.215c0,1.817,3.899,3.185,3.041,6.233c-0.713,2.535-5.79,4.289-5.79,7.128
	c0,4.231,2.777,4.49,6.589,4.432v4.721h-22.64v-4.721c3.812,0.058,6.589-0.201,6.589-4.432c0-2.84-4.881-4.658-5.783-7.128
	c-0.96-2.617,3.036-4.416,3.036-6.233c0-3.036-3.749-4.215-6.784-4.215c-3.041,0-6.784,1.18-6.784,4.215
	c0,1.817,3.899,3.185,3.041,6.233c-0.713,2.535-5.79,4.289-5.79,7.128c0,4.231,2.777,4.49,6.589,4.432v4.721H68.76v5.887h34.617
	l26.062,22.1v24.015h-19.686v-4.719c3.812,0.058,6.589-0.201,6.589-4.428c0-2.84-4.881-4.656-5.783-7.128
	c-0.96-2.622,3.036-4.421,3.036-6.233c0-3.036-3.749-4.22-6.784-4.22c-3.041,0-6.784,1.185-6.784,4.22
	c0,1.811,3.899,3.185,3.041,6.233c-0.713,2.53-5.79,4.283-5.79,7.128c0,4.226,2.777,4.484,6.589,4.428v4.719h-22.63v-4.719
	c3.812,0.058,6.589-0.201,6.589-4.428c0-2.84-4.881-4.656-5.783-7.128c-0.96-2.622,3.036-4.421,3.036-6.233
	c0-3.036-3.749-4.22-6.784-4.22c-3.041,0-6.784,1.185-6.784,4.22c0,1.811,3.899,3.185,3.041,6.233
	c-0.713,2.53-5.79,4.283-5.79,7.128c0,4.226,2.777,4.484,6.589,4.428v4.719H68.76v5.887h34.617L129.439,197.262z M158.174,123.154
	l-16.96,14.384v-14.384C141.214,123.154,158.174,123.154,158.174,123.154z M112.479,123.154h16.96v14.384L112.479,123.154z
	 M158.174,175.155l-16.96,14.391v-14.391H158.174z M129.439,175.155v14.391l-16.96-14.391H129.439z"/>
<path fill="#222E63" d="M153.515,516.672h-36.379v-15.774h10.303v-302.71l-24.797-21.032H66.759v-9.887h6.589v-0.737
	c-2.637-0.127-6.589-0.96-6.589-6.411c0-2.51,2.081-4.195,3.753-5.549c0.828-0.67,1.961-1.588,2.112-2.122
	c0.172-0.613-0.136-1.06-1.217-2.181c-0.846-0.877-1.899-1.97-1.899-3.509c0-4.274,4.553-6.221,8.784-6.221s8.784,1.947,8.784,6.221
	c0,1.522-1.027,2.648-1.934,3.642c-0.75,0.822-1.359,1.532-1.224,1.903c0.21,0.575,1.273,1.453,2.128,2.159
	c1.683,1.39,3.777,3.12,3.777,5.657c0,5.458-3.956,6.286-6.588,6.412v0.736h18.626v-0.737c-2.637-0.127-6.588-0.96-6.588-6.411
	c0-2.51,2.081-4.195,3.753-5.549c0.828-0.67,1.961-1.588,2.112-2.123c0.172-0.612-0.137-1.06-1.217-2.181
	c-0.846-0.877-1.899-1.97-1.899-3.509c0-4.274,4.554-6.221,8.784-6.221c4.231,0,8.785,1.947,8.785,6.221
	c0,1.522-1.027,2.648-1.934,3.642c-0.75,0.821-1.359,1.532-1.224,1.902c0.21,0.575,1.273,1.453,2.128,2.159
	c1.683,1.39,3.777,3.12,3.777,5.657c0,5.458-3.956,6.286-6.588,6.412v0.736h15.686V146.18l-24.795-21.026H66.759v-9.887h6.589
	v-0.737c-2.635-0.126-6.589-0.957-6.589-6.415c0-2.505,2.078-4.188,3.748-5.541c0.83-0.672,1.965-1.592,2.117-2.129
	c0.172-0.613-0.136-1.059-1.214-2.177c-0.847-0.878-1.901-1.972-1.901-3.514c0-4.271,4.553-6.215,8.784-6.215
	s8.784,1.945,8.784,6.215c0,1.525-1.029,2.653-1.936,3.648c-0.609,0.667-1.367,1.499-1.222,1.895
	c0.21,0.576,1.273,1.454,2.127,2.159c1.684,1.391,3.778,3.121,3.778,5.659c0,5.458-3.954,6.289-6.588,6.415v0.737h18.626v-0.737
	c-2.634-0.126-6.588-0.957-6.588-6.415c0-2.505,2.078-4.188,3.748-5.541c0.83-0.672,1.965-1.592,2.117-2.129
	c0.172-0.613-0.136-1.059-1.214-2.177c-0.847-0.878-1.901-1.972-1.901-3.514c0-4.271,4.554-6.215,8.785-6.215
	c4.23,0,8.784,1.945,8.784,6.215c0,1.525-1.029,2.653-1.937,3.648c-0.609,0.668-1.367,1.499-1.222,1.895
	c0.21,0.575,1.273,1.453,2.128,2.159c1.683,1.391,3.778,3.121,3.778,5.659c0,5.458-3.955,6.289-6.589,6.415v0.737h15.686V73.205
	h15.774v42.06h15.686v-0.737c-2.633-0.126-6.588-0.955-6.588-6.416c0-2.505,2.078-4.188,3.748-5.541
	c0.829-0.672,1.965-1.592,2.116-2.129c0.172-0.612-0.136-1.059-1.215-2.177c-0.847-0.878-1.901-1.972-1.901-3.514
	c0-4.27,4.554-6.215,8.785-6.215s8.784,1.945,8.784,6.215c0,1.525-1.029,2.653-1.937,3.649c-0.609,0.667-1.367,1.499-1.222,1.895
	c0.21,0.575,1.273,1.453,2.128,2.159c1.683,1.39,3.778,3.121,3.778,5.659c0,5.461-3.956,6.29-6.589,6.416v0.737h18.629v-0.737
	c-2.633-0.126-6.589-0.955-6.589-6.416c0-2.505,2.078-4.188,3.748-5.541c0.83-0.672,1.965-1.592,2.117-2.129
	c0.172-0.612-0.136-1.059-1.215-2.177c-0.847-0.878-1.901-1.972-1.901-3.514c0-4.27,4.553-6.215,8.784-6.215
	s8.785,1.945,8.785,6.215c0,1.525-1.029,2.653-1.937,3.649c-0.609,0.668-1.367,1.499-1.222,1.895
	c0.21,0.575,1.273,1.453,2.127,2.159c1.684,1.39,3.778,3.121,3.778,5.659c0,5.461-3.956,6.29-6.588,6.416v0.737h6.588v9.887h-35.882
	L143.21,146.18v21.089h15.686v-0.736c-2.637-0.127-6.589-0.96-6.589-6.411c0-2.51,2.081-4.195,3.753-5.549
	c0.828-0.67,1.961-1.588,2.112-2.123c0.172-0.612-0.137-1.06-1.218-2.18c-0.846-0.878-1.899-1.97-1.899-3.51
	c0-4.274,4.553-6.22,8.784-6.22s8.785,1.946,8.785,6.22c0,1.522-1.027,2.649-1.934,3.642c-0.75,0.822-1.359,1.532-1.224,1.902
	c0.21,0.575,1.273,1.454,2.128,2.159c1.683,1.39,3.777,3.12,3.777,5.658c0,5.456-3.954,6.285-6.588,6.411v0.736h18.629v-0.736
	c-2.637-0.127-6.589-0.96-6.589-6.411c0-2.51,2.081-4.195,3.753-5.549c0.828-0.67,1.961-1.588,2.112-2.123
	c0.172-0.612-0.137-1.06-1.218-2.18c-0.846-0.878-1.899-1.97-1.899-3.51c0-4.274,4.553-6.22,8.784-6.22s8.785,1.946,8.785,6.22
	c0,1.522-1.027,2.649-1.934,3.642c-0.75,0.822-1.359,1.532-1.224,1.902c0.21,0.575,1.273,1.454,2.128,2.159
	c1.683,1.39,3.777,3.12,3.777,5.658c0,5.456-3.954,6.285-6.588,6.411v0.736h6.588v9.887h-35.882l-24.796,21.033v302.709h10.303
	v15.776H153.515z M121.136,512.672h28.379v-7.774h-10.303V196.336l27.328-23.181h33.35v-1.887h-6.588v-8.75l2.03,0.031
	c0.241,0.003,0.478,0.006,0.709,0.006c3.662,0,3.849-0.625,3.849-2.434c0-0.653-1.344-1.763-2.325-2.574
	c-1.355-1.119-2.755-2.276-3.337-3.87c-0.981-2.677,0.901-4.74,2.025-5.972c0.301-0.33,0.743-0.814,0.883-1.065
	c-0.14-1.448-2.844-2.102-4.779-2.102c-1.927,0-4.617,0.648-4.777,2.084c0.141,0.214,0.515,0.602,0.772,0.869
	c1.125,1.167,3.009,3.121,2.188,6.04c-0.496,1.76-1.995,2.974-3.445,4.148c-0.904,0.732-2.27,1.838-2.27,2.44
	c0,1.809,0.187,2.434,3.857,2.434c0.23,0,0.463-0.002,0.702-0.005l2.03-0.03v8.749h-26.629v-8.75l2.03,0.031
	c0.241,0.003,0.478,0.006,0.71,0.006c3.662,0,3.848-0.625,3.848-2.434c0-0.653-1.344-1.763-2.325-2.574
	c-1.355-1.119-2.756-2.276-3.337-3.87c-0.981-2.677,0.901-4.74,2.025-5.972c0.301-0.33,0.743-0.814,0.883-1.065
	c-0.14-1.448-2.844-2.102-4.779-2.102c-1.927,0-4.617,0.648-4.777,2.084c0.141,0.214,0.515,0.602,0.772,0.869
	c1.125,1.167,3.009,3.121,2.188,6.04c-0.496,1.76-1.995,2.974-3.445,4.148c-0.904,0.732-2.27,1.838-2.27,2.44
	c0,1.809,0.187,2.434,3.857,2.434c0.23,0,0.463-0.002,0.702-0.005l2.03-0.03v8.749h-23.686v-26.941l27.328-23.174h33.35v-1.887
	h-6.588v-8.751l2.03,0.031c0.243,0.004,0.481,0.006,0.714,0.006c3.658,0,3.844-0.626,3.844-2.438c0-0.654-1.344-1.764-2.326-2.575
	c-1.354-1.119-2.754-2.275-3.336-3.868c-0.981-2.673,0.899-4.734,2.022-5.965c0.303-0.332,0.747-0.818,0.887-1.07
	c-0.138-1.446-2.844-2.099-4.779-2.099c-1.928,0-4.619,0.647-4.777,2.081c0.14,0.214,0.515,0.604,0.773,0.872
	c1.125,1.166,3.007,3.118,2.187,6.036c-0.496,1.763-1.998,2.979-3.45,4.155c-0.902,0.73-2.266,1.834-2.266,2.432
	c0,1.812,0.186,2.438,3.845,2.438c0.233,0,0.471-0.002,0.714-0.006l2.03-0.031v8.751h-26.629v-8.751l2.03,0.031
	c0.243,0.004,0.481,0.006,0.714,0.006c3.659,0,3.845-0.626,3.845-2.438c0-0.654-1.344-1.764-2.326-2.575
	c-1.354-1.119-2.755-2.275-3.336-3.868c-0.981-2.673,0.899-4.734,2.022-5.965c0.303-0.332,0.747-0.818,0.887-1.07
	c-0.138-1.446-2.843-2.098-4.779-2.098c-1.928,0-4.619,0.647-4.777,2.081c0.14,0.214,0.515,0.604,0.773,0.872
	c1.125,1.166,3.007,3.118,2.187,6.036c-0.496,1.763-1.997,2.979-3.45,4.155c-0.902,0.73-2.265,1.834-2.265,2.432
	c0,1.812,0.186,2.438,3.844,2.438c0.233,0,0.471-0.002,0.714-0.006l2.03-0.031v8.751h-23.686v-42.06h-7.774v42.062h-23.686v-8.751
	l2.03,0.03c0.241,0.004,0.478,0.006,0.71,0.006c3.662,0,3.849-0.626,3.849-2.438c0-0.654-1.344-1.764-2.326-2.575
	c-1.354-1.119-2.755-2.275-3.336-3.868c-0.981-2.672,0.899-4.734,2.022-5.965c0.303-0.332,0.746-0.818,0.887-1.07
	c-0.139-1.446-2.844-2.099-4.779-2.099c-1.928,0-4.619,0.647-4.777,2.081c0.14,0.214,0.515,0.604,0.773,0.871
	c1.125,1.167,3.007,3.118,2.186,6.037c-0.496,1.762-1.998,2.979-3.45,4.155c-0.902,0.73-2.266,1.835-2.266,2.433
	c0,1.812,0.187,2.438,3.848,2.438c0.232,0,0.469-0.002,0.71-0.006l2.03-0.03v8.751H79.237v-8.751l2.03,0.03
	c0.241,0.004,0.478,0.006,0.71,0.006c3.662,0,3.848-0.626,3.848-2.438c0-0.654-1.344-1.764-2.326-2.575
	c-1.354-1.119-2.754-2.275-3.336-3.868c-0.981-2.672,0.898-4.734,2.022-5.965c0.302-0.332,0.746-0.818,0.886-1.07
	c-0.139-1.446-2.844-2.099-4.779-2.099c-1.927,0-4.618,0.647-4.777,2.081c0.14,0.214,0.515,0.604,0.773,0.871
	c1.125,1.167,3.007,3.119,2.186,6.038c-0.496,1.762-1.998,2.978-3.45,4.154c-0.902,0.731-2.266,1.835-2.266,2.433
	c0,1.812,0.187,2.438,3.849,2.438c0.232,0,0.469-0.002,0.71-0.006l2.03-0.03v8.751h-6.589v1.887h33.351l27.328,23.174v26.941
	h-23.686v-8.75l2.03,0.031c0.243,0.004,0.481,0.006,0.714,0.006c3.658,0,3.844-0.625,3.844-2.434c0-0.653-1.344-1.763-2.325-2.573
	c-1.354-1.119-2.756-2.276-3.337-3.87c-0.981-2.677,0.901-4.74,2.026-5.972c0.301-0.33,0.742-0.813,0.883-1.064
	c-0.14-1.449-2.844-2.102-4.779-2.102c-1.927,0-4.617,0.648-4.777,2.085c0.141,0.214,0.514,0.602,0.771,0.869
	c1.125,1.167,3.009,3.122,2.188,6.041c-0.496,1.759-1.995,2.973-3.445,4.147c-0.904,0.732-2.27,1.838-2.27,2.44
	c0,1.809,0.187,2.434,3.856,2.434c0.23,0,0.463-0.002,0.702-0.006l2.03-0.03v8.75H79.237v-8.75l2.03,0.031
	c0.243,0.004,0.481,0.006,0.714,0.006c3.658,0,3.844-0.625,3.844-2.434c0-0.653-1.344-1.763-2.325-2.573
	c-1.354-1.119-2.755-2.276-3.337-3.87c-0.981-2.677,0.901-4.74,2.025-5.972c0.301-0.33,0.742-0.813,0.883-1.064
	c-0.14-1.449-2.844-2.102-4.778-2.102c-1.927,0-4.617,0.648-4.777,2.085c0.141,0.214,0.514,0.602,0.771,0.869
	c1.125,1.167,3.009,3.122,2.187,6.042c-0.496,1.759-1.995,2.973-3.445,4.146c-0.904,0.732-2.27,1.838-2.27,2.44
	c0,1.809,0.187,2.434,3.857,2.434c0.229,0,0.463-0.002,0.702-0.006l2.03-0.03v8.75h-6.589v1.887h33.351l27.329,23.179v308.562
	h-10.303C121.136,504.899,121.136,512.672,121.136,512.672z M131.439,193.866l-24.409-20.711h24.409V193.866z M117.927,177.155
	l9.512,8.071v-8.071H117.927z M139.213,193.866v-20.711h24.409L139.213,193.866z M143.213,177.155v8.071l9.512-8.071H143.213z
	 M139.213,141.857v-20.703h24.411L139.213,141.857z M143.213,125.154v8.065l9.51-8.065
	C152.723,125.154,143.213,125.154,143.213,125.154z M131.439,141.857l-24.411-20.703h24.411V141.857z M117.929,125.154l9.51,8.065
	v-8.065C127.439,125.154,117.929,125.154,117.929,125.154z"/>
<path fill="#222E63" d="M207.432,378.662c-0.943-0.772-1.812-1.635-2.596-2.567c-2.169,4.325-4.436,8.884-8.422,11.851
	c-2.484,1.849-7.151,4.954-10.416,3.793c-3.799-1.351-0.459-8.012,0.512-10.207c0.847-1.916,1.72-3.784,2.371-5.779
	c0.478-1.463,0.904-2.943,1.3-4.43c0.661-2.483-2.332-2.329-4.337-3.417c-3.546,13.503-8.944,26.937-17.378,38.162
	c-3.818,5.081-8.167,10.142-13.254,13.996c-5.289,4.008-12.852,6.598-12.604-2.631c0.189-7.03,0.042-14.085,0.332-21.11
	c0.037-3.667,0.058-7.334,0.059-11c0-1.836-0.005-3.673-0.016-5.509c-0.015-2.548,1.436-3.169,3.13-4.93
	c4.339-4.511,8.114-9.584,10.846-15.23c1.48-3.06,2.6-6.256,3.508-9.528c0.389-1.4,0.742-2.81,1.058-4.229
	c-1.406-1.165-2.718-2.442-3.924-3.812c-1.255,4.517-2.832,8.948-4.484,13.334c-1.23,3.265-3.135,8.123-6.736,9.464
	c-5.057,1.882-4.826-21.249-5.049-23.849c-1.938,0.749-1.263-2.183-3.157-1.835c-0.133,12.391-1.434,24.738-1.666,37.126
	c-0.106,5.69,0.576,11.398,0.377,17.068c-0.224,6.367-1.222,12.666-1.419,19.027c-0.138,4.466-0.737,10.703-4.389,13.875
	c-4.082,3.546-9.887,1.809-13.531-1.369c-4.287-3.739-7.556-8.921-10.803-13.539c-3.733-5.31-7.141-10.89-9.801-16.82
	c-1.971,1.675-5.792,2.185-4.589,4.954c1.407,3.237,3.134,6.426,5.008,9.417c2.508,4.003,4.569,10.287-2.693,8.669
	c-5.761-1.284-11.091-5.132-15.654-8.702c-2.921-2.285-5.709-4.733-8.483-7.192c-1.177-1.043-2.352-2.09-3.534-3.127
	c-1.331,0.708-2.75,1.294-4.183,1.764c6.287,9.658,17.858,16.303,28.162,20.916c4.954,2.217,10.522,4.049,16.02,3.395
	c2.442-0.29,4.969,3.916,6.696,5.695c2.214,2.278,4.195,4.778,5.991,7.396c6.64,9.678,11.424,21.347,12.66,33.067
	c1.319,12.453-1.7,29.604-12.459,37.54c-2.091,1.542-4.6,2.413-6.629,4.048c-2.137,1.723,1.699,3.244,3.332,3.588
	c5.412,1.14,10.083-1.904,15.32-2.274c5.055-0.357,10.668,2.812,15.528,1.784c5.896-1.247-0.545-5.334-1.877-8.415
	c-4.702-10.875-4.383-24.291-3.664-35.867c0.773-12.448,4.333-24.744,11.168-35.241c4.541-6.973,10.628-12.704,15.841-19.148
	c3.892-4.811,6.526-9.811,9.454-15.161c1.31-2.393,3.073-2.297,5.636-2.991c3.591-0.973,7.151-2.15,10.428-3.937
	c3.11-1.695,5.827-3.923,8.187-6.555c1.306-1.456,2.53-2.989,3.654-4.59C207.595,381.705,209.471,380.28,207.432,378.662
	C206.524,377.919,207.842,378.987,207.432,378.662z"/>
<path fill="#FFFFFF" d="M194.69,279.57c-1.897-8.7-10.006-15.055-18.644-16.162c4.016-9.562-0.072-23.955-9.655-28.944
	c-8.118-4.226-21.857-1.902-24.944,7.808c-2.331-9.042-13.412-9.201-18.511-2.732c-3.806-9.256-20.195-9.882-23.404,0.26
	c-6.289-7.909-17.485-10.934-27.152-8.542c-9.869,2.442-19.206,11.852-18.636,22.625c-9.418-4.361-18.539,4.449-17.681,13.949
	c0.204,2.259-2.301,1.829-4.116,3.135c-1.591,1.146-2.818,2.762-3.508,4.596c-1.521,4.039-0.454,8.796,3.381,11.08
	c-5.617,7.362-6.078,19.392-3.764,28.028c2.435,9.086,9.286,16.447,18.199,19.474c0.6,7.393,7.228,11.882,13.949,13.331
	c3.862,0.833,7.933,0.825,11.787-0.05c1.722-0.391,3.407-0.962,4.995-1.736c1.536-0.748,3.297,3.284,4.549,4.645
	c6.201,6.74,15.84,9.001,24.657,7.212c4.932-1.001,9.61-3.414,13.455-6.636c1.649-1.382,3.118-4.354,4.957-3.217
	c2.173,1.344,5.007,1.952,7.525,1.418c2.177-0.461,4.206-1.544,5.884-2.993c0.683-0.59,1.305-1.238,1.864-1.946
	c1.335-1.692,1.377-0.53,3.159,0.185c4.776,1.917,10.225-0.292,13.641-3.782c1.555-1.581,2.497-3.661,2.785-5.85
	c0.227-1.721-0.705-2.475,1.234-2.678c1.164-0.121,2.301-0.441,3.357-0.945c4.748-2.266,7.442-7.387,6.724-12.565
	c7.7,3.438,17.444-1.171,19.231-9.5c0.491-2.286,0.468-4.685,0.052-6.981c-0.254-1.401-0.662-2.778-1.243-4.079
	c1.023-1.001,1.949-2.102,2.757-3.284C194.585,290.292,195.83,284.809,194.69,279.57C193.752,275.27,196.197,286.494,194.69,279.57z
	"/>
<path fill="#222E63" d="M100.343,360.67c-8.098,0-15.633-3.141-20.671-8.618c-0.518-0.563-0.993-1.295-1.497-2.07
	c-0.275-0.422-0.711-1.092-1.071-1.557c-1.429,0.616-2.955,1.111-4.549,1.473c-4.175,0.949-8.659,0.968-12.883,0.056
	c-6.464-1.394-14.178-5.863-15.72-13.958c-9.007-3.585-15.806-11.208-18.342-20.669c-2.246-8.379-2.128-19.952,2.805-28.165
	c-3.043-3.101-4.048-7.971-2.346-12.491c0.877-2.327,2.398-4.319,4.4-5.76c0.951-0.685,1.924-1.012,2.705-1.275
	c0.101-0.034,0.216-0.073,0.328-0.112c-0.256-4.518,1.341-8.989,4.425-12.364c2.921-3.197,6.753-4.958,10.788-4.958
	c0.877,0,1.75,0.084,2.618,0.251c1.288-10.78,10.852-19.282,20.44-21.654c2.339-0.579,4.774-0.872,7.239-0.872
	c7.59,0,14.785,2.76,19.925,7.52c2.553-3.481,6.894-5.585,11.933-5.585c5.19,0,9.807,2.13,12.593,5.63
	c2.484-1.906,5.566-2.987,8.719-2.987c3.871,0,7.164,1.571,9.353,4.303c3.397-4.301,9.196-6.895,15.984-6.895
	c3.675,0,7.147,0.797,10.042,2.304c9.397,4.892,14.599,18.41,11.803,29.249c8.473,2.152,15.379,8.581,17.55,16.54
	c0.003,0.009,0.006,0.018,0.008,0.028l0.024-0.005l0.148,0.682c0.015,0.063,0.028,0.126,0.041,0.186l0.029,0.132
	c0.001,0.001,0.001,0.002,0.001,0.003c0.035,0.162,0.07,0.32,0.103,0.475l0.4,1.837l-0.061,0.013
	c0.056,0.468,0.067,0.88,0.012,1.242c0.19,4.699-1.183,9.478-3.95,13.526c-0.579,0.847-1.216,1.662-1.902,2.434
	c0.334,0.976,0.598,1.996,0.789,3.048c0.492,2.71,0.47,5.464-0.067,7.964c-1.573,7.33-8.409,12.65-16.252,12.65h-0.001
	c-0.986,0-1.956-0.087-2.904-0.259c-0.575,4.896-3.588,9.237-8.184,11.43c-0.994,0.474-2.039,0.816-3.115,1.021
	c-0.008,0.202-0.025,0.417-0.056,0.646c-0.367,2.789-1.606,5.38-3.49,7.295c-3.215,3.285-7.595,5.248-11.712,5.248
	c-1.632,0-3.205-0.3-4.679-0.891c-0.277-0.111-0.524-0.229-0.743-0.345c-0.521,0.597-1.083,1.157-1.68,1.673
	c-2.077,1.793-4.503,3.022-7.016,3.554c-2.848,0.603-6.145,0.062-8.831-1.42c-0.286,0.278-0.647,0.692-0.893,0.975
	c-0.509,0.584-1.035,1.188-1.655,1.707c-4.345,3.642-9.386,6.124-14.578,7.178C104.608,360.455,102.47,360.67,100.343,360.67z
	 M77.378,343.066c2.344,0,3.778,2.207,5.045,4.153c0.35,0.54,0.749,1.151,0.979,1.402c4.082,4.437,10.257,6.982,16.942,6.982
	c1.789,0,3.588-0.181,5.346-0.538c4.367-0.887,8.632-2.995,12.332-6.095c0.315-0.264,0.709-0.716,1.09-1.153
	c1.13-1.296,2.536-2.91,4.664-2.91c0.756,0,1.485,0.213,2.163,0.632c1.674,1.035,3.898,1.469,5.668,1.094
	c1.678-0.355,3.322-1.197,4.753-2.432c0.559-0.482,1.074-1.02,1.532-1.6c0.433-0.548,1.449-1.836,3.116-1.836
	c1.029,0,1.75,0.49,2.227,0.814c0.246,0.167,0.46,0.312,0.748,0.428c0.87,0.349,1.809,0.526,2.791,0.526
	c2.742,0,5.844-1.429,8.095-3.729c1.12-1.139,1.859-2.704,2.083-4.408c0.033-0.25,0.013-0.477-0.013-0.764
	c-0.275-3.061,1.75-3.92,3.496-4.103c0.881-0.092,1.732-0.331,2.53-0.712c3.748-1.789,5.881-5.779,5.305-9.931
	c-0.127-0.912,0.252-1.82,0.988-2.373c0.737-0.553,1.715-0.663,2.555-0.288c1.379,0.616,2.866,0.928,4.423,0.928
	c5.383,0,10.24-3.717,11.298-8.646c0.398-1.857,0.411-3.931,0.035-5.996c-0.226-1.248-0.584-2.426-1.063-3.5
	c-0.432-0.968-0.215-2.101,0.542-2.842c0.907-0.888,1.727-1.865,2.437-2.903c2.673-3.911,3.675-8.671,2.749-13.058l-0.044-0.207
	c-1.602-7.134-8.529-13.061-16.467-14.079c-0.785-0.101-1.477-0.562-1.873-1.248c-0.395-0.686-0.447-1.517-0.141-2.246
	c3.705-8.819-0.5-21.557-8.489-25.716c-2.144-1.117-4.88-1.731-7.702-1.731c-5.118,0-11.765,2.111-13.655,8.059
	c-0.343,1.077-1.362,1.804-2.485,1.765c-1.129-0.031-2.101-0.806-2.382-1.9c-1.241-4.812-5.178-5.332-6.814-5.332
	c-2.797,0-5.509,1.322-7.255,3.536c-0.557,0.707-1.446,1.065-2.34,0.941c-0.891-0.125-1.65-0.713-1.992-1.546
	c-1.585-3.851-6.025-5.575-9.724-5.575c-3.451,0-7.607,1.481-8.921,5.636c-0.283,0.893-1.034,1.557-1.955,1.727
	c-0.922,0.169-1.861-0.181-2.444-0.914c-4.175-5.25-11.104-8.384-18.538-8.384c-2.054,0-4.081,0.243-6.022,0.724
	c-8.438,2.088-17.228,10.34-16.715,20.032c0.047,0.887-0.374,1.734-1.11,2.232c-0.735,0.498-1.679,0.574-2.484,0.201
	c-3.875-1.795-8.069-0.825-11.013,2.396c-2.254,2.466-3.376,5.756-3.08,9.026c0.311,3.453-2.569,4.421-3.798,4.835
	c-0.529,0.178-1.029,0.346-1.36,0.585c-1.172,0.844-2.102,2.063-2.617,3.433c-0.983,2.611-0.681,6.232,2.306,8.011
	c0.621,0.37,1.054,0.987,1.191,1.696s-0.035,1.443-0.474,2.018c-5.214,6.834-5.382,18.183-3.33,25.835
	c2.234,8.338,8.426,14.967,16.565,17.731c0.956,0.325,1.629,1.187,1.711,2.194c0.517,6.364,6.516,9.886,11.959,11.06
	c3.506,0.756,7.235,0.741,10.692-0.044c1.591-0.361,3.088-0.881,4.447-1.543C76.352,343.183,76.856,343.066,77.378,343.066z"/>
<path fill="#FFFFFF" d="M138.051,358.577c-0.862-7.593-6.988-13.717-14.477-14.966c-1.827-0.305-3.722-0.371-5.548-0.021
	c-0.257-2.109-1.307-4.084-2.872-5.514c-3.431-3.134-9.021-3.737-13.229-2.016c-0.021-7.813-5.959-14.792-13.059-17.464
	c-4.526-1.706-9.727-1.806-14.229,0.028c-2.455,1-4.655,2.527-6.64,4.268c-0.992,0.87-1.936,1.789-2.796,2.791
	c-2.125,2.477-1.409,2.177-4.398,1.033c-5.702-2.182-11.259,0.504-14.094,5.716c-0.644,1.183-1.131,2.449-1.481,3.749
	c-1.378-0.27-2.805-0.266-4.189-0.041c-2.89,0.468-5.982,1.899-7.702,4.35c-1.315,1.874-2.271,4.196-2.481,6.485
	c-0.154,1.672,0.683,1.79-1.014,2.583c-1.107,0.517-2.173,1.121-3.182,1.81c-4.31,2.942-7.489,7.479-8.131,12.723
	c-0.607,4.958,0.936,10.482,3.982,14.437c1.535,1.993,3.637,3.912,5.984,4.891c1.709,0.712,2.387-0.16,2.494,1.855
	c0.092,1.718,0.597,3.538,1.58,4.965c1.509,2.19,4.129,3.631,6.762,3.874c0.375,2.145,1.65,4.04,3.234,5.485
	c3.87,3.529,9.675,5.398,14.858,5.079c3.053-0.188,6.067-0.993,8.855-2.239c1.546-0.691,2.213-1.966,3.427-0.577
	c0.739,0.846,1.624,1.556,2.574,2.15c4.151,2.598,9.873,3.569,14.633,2.359c5.296-1.347,9.83-5.159,12.918-9.565
	c0.805-1.149,1.522-2.36,2.134-3.623c0.809-1.671,0.347-2.496,2.312-2.412c2.999,0.13,6.124-1.036,8.225-3.199
	c1.342-1.382,2.362-3.101,3.05-4.894c1.142-2.979,0.478-2.696,3.756-2.839c3.874-0.169,7.9-1.218,11.165-3.365
	C136.224,372.688,138.804,365.237,138.051,358.577C137.262,351.621,138.846,365.604,138.051,358.577z"/>
<path fill="#222E63" d="M82.622,409.419c-4.115,0-8.375-1.188-11.687-3.261c-0.955-0.598-1.807-1.267-2.54-1.994
	c-0.303,0.189-0.665,0.399-1.083,0.586c-3.194,1.428-6.469,2.255-9.733,2.455c-0.433,0.027-0.868,0.04-1.308,0.04
	c-5.685,0-11.447-2.159-15.413-5.776c-1.229-1.12-2.723-2.848-3.55-5.145c-2.753-0.701-5.268-2.389-6.825-4.65
	c-1.067-1.548-1.756-3.51-1.971-5.588c-0.297-0.075-0.631-0.18-0.992-0.331c-2.505-1.044-4.997-3.062-7.016-5.683
	c-3.451-4.479-5.171-10.721-4.49-16.29c0.698-5.697,4.058-10.985,9.219-14.508c0.967-0.661,1.998-1.261,3.07-1.789
	c-0.003-0.222,0.005-0.471,0.031-0.744c0.241-2.622,1.281-5.36,2.929-7.708c1.952-2.78,5.367-4.747,9.371-5.396
	c0.944-0.153,1.896-0.218,2.823-0.192c0.299-0.776,0.642-1.52,1.027-2.226c2.657-4.884,7.26-7.801,12.313-7.801
	c1.648,0,3.301,0.313,4.912,0.93c0.375,0.144,0.696,0.275,0.973,0.39c0.172-0.206,0.369-0.441,0.597-0.706
	c0.869-1.013,1.866-2.009,3.048-3.045c2.455-2.153,4.86-3.694,7.355-4.71c2.491-1.014,5.178-1.528,7.988-1.528
	c2.731,0,5.529,0.511,8.091,1.476c7.517,2.829,13.073,9.378,14.397,16.587c0.9-0.153,1.822-0.232,2.749-0.232
	c3.808,0,7.437,1.321,9.959,3.625c1.408,1.286,2.465,2.878,3.094,4.627c1.289-0.049,2.636,0.046,4.034,0.279
	c7.715,1.287,13.957,6.951,15.993,14.198c0.13,0.291,0.227,0.626,0.305,1.001l0.054-0.006l0.158,1.399
	c0.022,0.187,0.044,0.38,0.067,0.579c0,0.003,0,0.006,0.001,0.009c0.036,0.325,0.07,0.616,0.098,0.878l0.13,1.142l-0.022,0.003
	c0.035,0.541,0.019,0.884-0.066,1.159c-0.16,7.068-3.46,13.57-8.848,17.114c-3.398,2.235-7.818,3.577-12.446,3.779l-0.739,0.029
	c-0.11,0.004-0.224,0.008-0.335,0.013c-0.114,0.326-0.25,0.713-0.426,1.173c-0.849,2.213-2.092,4.202-3.597,5.752
	c-2.42,2.491-6.004,3.978-9.589,3.978h-0.001c-0.026,0-0.053,0-0.08,0c-0.101,0.284-0.23,0.61-0.405,0.972
	c-0.661,1.364-1.447,2.7-2.34,3.974c-3.799,5.424-8.903,9.177-14.368,10.567C85.985,409.219,84.331,409.419,82.622,409.419z
	 M68.645,398.705c1.106,0,2.105,0.501,2.967,1.489c0.526,0.602,1.204,1.164,2.01,1.669c2.529,1.582,5.809,2.489,9,2.489
	c1.289,0,2.521-0.147,3.664-0.438c4.228-1.075,8.409-4.197,11.468-8.564c0.738-1.053,1.386-2.154,1.928-3.274
	c0.141-0.291,0.227-0.556,0.318-0.837c0.292-0.9,0.976-3.009,4.014-3.009c0.116,0,0.239,0.003,0.37,0.008
	c0.114,0.005,0.23,0.007,0.344,0.007h0.001c2.244,0,4.469-0.912,5.954-2.44c1.031-1.062,1.896-2.458,2.501-4.036
	c0.159-0.416,0.282-0.764,0.384-1.057c0.978-2.793,2.034-3.273,4.923-3.379l0.704-0.028c3.727-0.163,7.237-1.211,9.883-2.951
	c4.503-2.962,7.106-9.109,6.477-15.298l-0.045-0.398c-0.795-6.296-5.876-11.469-12.353-12.549c-1.704-0.284-3.279-0.295-4.654-0.031
	c-0.688,0.132-1.401-0.027-1.97-0.441c-0.567-0.414-0.937-1.044-1.022-1.741c-0.18-1.475-0.932-2.914-2.066-3.95
	c-1.599-1.461-3.983-2.299-6.541-2.299c-1.419,0-2.809,0.262-4.02,0.757c-0.779,0.319-1.667,0.23-2.369-0.24
	c-0.701-0.469-1.121-1.255-1.124-2.098c-0.017-6.266-4.819-12.616-11.418-15.099c-1.998-0.753-4.178-1.151-6.305-1.151
	c-2.152,0-4.196,0.389-6.077,1.154c-1.964,0.799-3.901,2.051-5.924,3.826c-1.001,0.878-1.833,1.707-2.545,2.536
	c-0.215,0.251-0.4,0.473-0.563,0.668c-0.904,1.082-1.758,2.104-3.381,2.104c-0.801,0-1.431-0.264-2.229-0.597
	c-0.285-0.12-0.629-0.264-1.052-0.426c-1.032-0.395-2.076-0.595-3.102-0.595c-3.166,0-6.106,1.927-7.862,5.156
	c-0.525,0.965-0.95,2.041-1.26,3.196c-0.345,1.286-1.624,2.085-2.934,1.829c-1.03-0.202-2.16-0.21-3.296-0.027
	c-2.584,0.419-4.897,1.685-6.034,3.305c-1.132,1.613-1.873,3.53-2.032,5.261c-0.022,0.241-0.002,0.392,0.028,0.619
	c0.313,2.377-1.083,3.37-2.492,4.028c-0.992,0.464-1.942,1.004-2.824,1.607c-3.958,2.701-6.526,6.688-7.045,10.939
	c-0.526,4.297,0.804,9.119,3.474,12.582c1.467,1.905,3.272,3.399,4.951,4.099c0.259,0.108,0.461,0.137,0.741,0.177
	c2.132,0.303,3.183,1.537,3.308,3.882c0.073,1.386,0.487,2.721,1.136,3.663c1.044,1.515,2.971,2.61,4.909,2.789
	c1.139,0.105,2.066,0.96,2.263,2.087c0.244,1.395,1.112,2.833,2.445,4.049c3.242,2.956,8.338,4.708,12.996,4.423
	c2.655-0.163,5.339-0.844,7.976-2.023c0.244-0.109,0.495-0.273,0.76-0.447C66.629,399.267,67.487,398.705,68.645,398.705z"/>
<path fill="#FFFFFF" d="M247.717,340.099c-0.51-0.455-1.056-0.862-1.636-1.222c3.595-3.059,3.973-9.946-1.297-11.464
	c7.223-11.778,0.81-27.664-11.508-32.733c-9.361-3.853-27.096-4.468-31.062,7.483c-9.136-6.684-25.138,1.79-23.64,13.303
	c-14.875-3.01-28.835,12.238-24.599,26.603c2.261,7.667,8.048,14.997,15.543,18.087c-1.35,8.257,6.57,14.049,13.56,9.062
	c1.44,7.036,9.449,8.902,15.022,5.183c5.043,10.365,18.148,13.276,28.367,9.621c11.189-4.003,17.839-16.532,14.968-28.123
	C249.19,354.916,254.291,345.842,247.717,340.099C247.207,339.652,249.955,342.054,247.717,340.099z"/>
<path fill="#222E63" d="M217.667,388.062L217.667,388.062c-8.717,0-16.356-3.879-20.552-10.277
	c-1.628,0.673-3.368,1.021-5.137,1.021c-4.526,0-8.344-2.305-10.279-5.977c-1.311,0.509-2.666,0.771-4.017,0.771
	c-3.084,0-6.023-1.377-8.064-3.779c-1.864-2.195-2.837-5.074-2.78-8.11c-7.085-3.577-12.858-10.667-15.294-18.928
	c-1.997-6.77-0.539-14.135,4-20.204c4.965-6.642,12.697-10.451,20.469-9.996c0.308-3.078,1.632-6.05,3.87-8.598
	c3.641-4.145,9.296-6.72,14.759-6.72c2.281,0,4.451,0.448,6.402,1.312c3.242-5.703,9.994-8.911,19.022-8.911
	c4.886,0,10.053,0.973,14.173,2.669c6.887,2.834,12.431,8.92,14.83,16.281c1.987,6.096,1.676,12.293-0.842,17.726
	c1.451,1.111,2.454,2.701,2.866,4.616c0.547,2.535,0.001,5.292-1.38,7.52l0.553,0.484l-0.017,0.02
	c0.218,0.22,0.405,0.438,0.553,0.667c2.339,2.82,3.057,6.271,1.996,9.752c-1.193,3.909-4.424,7.058-8.42,8.407
	c1.68,12.027-5.566,24.488-17.059,28.599C224.292,387.49,220.954,388.062,217.667,388.062z M198.1,371.867
	c0.221,0,0.445,0.029,0.663,0.088c0.707,0.192,1.295,0.679,1.615,1.337c2.956,6.075,9.419,9.703,17.288,9.703h0.001
	c2.713,0,5.461-0.47,7.947-1.36c9.921-3.549,15.916-14.821,13.362-25.128c-0.173-0.702-0.039-1.445,0.37-2.042
	s1.054-0.99,1.771-1.081c3.167-0.401,5.978-2.648,6.837-5.463c0.466-1.53,0.516-3.795-1.891-5.906
	c-0.004-0.003-0.007-0.006-0.011-0.01c-0.01-0.009-0.021-0.019-0.032-0.028h-0.001c-0.004-0.004-0.007-0.007-0.012-0.011l0,0
	c-0.392-0.346-0.816-0.662-1.261-0.938c-0.688-0.427-1.13-1.156-1.19-1.963s0.268-1.594,0.884-2.118
	c1.331-1.132,2.062-3.248,1.701-4.921c-0.246-1.138-0.918-1.851-2.058-2.18c-0.76-0.219-1.374-0.78-1.661-1.518
	c-0.286-0.738-0.211-1.566,0.202-2.241c2.868-4.676,3.446-10.323,1.628-15.901c-1.945-5.968-6.409-10.889-11.94-13.165
	c-3.481-1.432-8.058-2.287-12.246-2.287c-4.75,0-13.073,1.068-15.448,8.225c-0.255,0.768-0.862,1.369-1.634,1.615
	c-0.769,0.247-1.613,0.11-2.267-0.369c-1.674-1.225-3.775-1.873-6.076-1.873c-3.987,0-8.286,1.961-10.952,4.997
	c-1.438,1.638-3.058,4.322-2.604,7.808c0.106,0.811-0.186,1.623-0.785,2.18c-0.598,0.557-1.427,0.793-2.23,0.63
	c-1.093-0.221-2.21-0.333-3.319-0.333c-5.742,0-11.405,2.991-15.15,8c-3.572,4.778-4.738,10.514-3.198,15.737
	c2.174,7.369,7.7,13.831,14.08,16.462c1.089,0.449,1.725,1.589,1.535,2.751c-0.376,2.302,0.143,4.425,1.461,5.977
	c1.092,1.285,2.584,1.993,4.202,1.993c1.321,0,2.642-0.464,3.924-1.38c0.7-0.498,1.602-0.609,2.398-0.295
	c0.798,0.314,1.384,1.01,1.555,1.85c0.76,3.709,3.813,5.031,6.418,5.031c1.643,0,3.318-0.514,4.716-1.447
	C197.114,372.013,197.604,371.867,198.1,371.867z"/>
<g>
	<rect x="26.688" y="411.012" fill="#FFFFFF" width="263.258" height="105.434"/>
	<path fill="#222E63" d="M289.946,518.979H26.688c-1.399,0-2.534-1.135-2.534-2.534V411.012c0-1.399,1.134-2.534,2.534-2.534
		h263.258c1.399,0,2.534,1.134,2.534,2.534v105.434C292.48,517.845,291.345,518.979,289.946,518.979z M29.221,513.912h258.191
		V413.546H29.221V513.912z"/>
</g>
<path fill="#222E63" d="M510.072,337.878c-6.187,10.143-14.073,19.275-23.265,26.809c-9.246,7.578-19.967,12.164-30.064,18.375
	c7.819-12.954,13.49-27.069,18.368-41.352c-1.592,0.258-3.187,0.286-4.787,0.086c-0.617,1.489-1.247,2.973-1.892,4.451
	c-1.285,2.946-2.626,5.867-4.027,8.76c-2.801,5.782-5.841,11.448-9.134,16.965c-7.305,12.234-16.606,23.197-23.308,35.796
	c1.558-30.797,4.499-61.08,3.896-91.974c-0.314-16.099-0.406-32.235,1.004-48.29c0.664-7.563,1.423-15.12,2.148-22.677
	c0.324-3.37,0.658-6.739,1.015-10.106c0.179-1.685,0.364-3.368,0.556-5.051c-1.939-0.416-3.84-1.082-5.598-2.003
	c-4.474,27.306-7.682,53.995-7.13,81.713c-5.777-9.803-13.481-18.255-18.967-28.265c-5.677-10.36-9.775-21.52-12.9-32.892
	c-3.812,2.849-4.077,1.761-2.711,6.893c1.073,4.03,2.314,8.014,3.667,11.958c2.385,6.952,4.966,13.923,8.041,20.602
	c5.926,12.872,15.432,23.707,20.979,36.763c5.376,12.654,0.669,29.696-0.58,42.916c-1.411,14.94-3.032,29.874-3.8,44.865
	c-6.218-16.906-16.341-31.983-24.457-47.975c-8.502-16.795-13.888-34.928-17.525-53.349c-1.752,3.357-5.268,5.671-4.369,9.413
	c1.159,4.825,2.444,9.621,3.874,14.373c2.48,8.242,5.453,16.296,8.843,24.205c-4.885-5.561-9.969-10.956-14.645-16.698
	c-2.602-3.202-5.169-6.432-7.703-9.688c-1.016-1.306-2.027-2.616-3.032-3.93c-2.23-2.916-2.706-1.414-5.999-0.938
	c11.03,15.887,22.259,31.988,34.516,46.955c11.874,14.499,19.636,28.513,22.801,47.253c3.339,19.769,4.847,39.247-1.777,58.464
	c-0.87,2.523-8.766,21.806-7.567,22.162c4.656,1.381,11.366,2.334,16.158,1.405c3.456-0.414,6.771-0.996,10.258-1.251
	c3.748-0.274,6.008-0.118,4.642-4.002c-2.967-8.431-5.675-17.01-6.768-25.913c-1.184-9.642-0.208-19.292,1.509-28.809
	c1.637-9.069,3.135-18.959,6.942-27.409c3.75-8.324,8.473-17.077,15.555-23.017c7.168-6.012,15.766-10.163,23.689-15.056
	c15.646-9.664,28.612-22.662,36.849-39.239C512.226,338.877,511.123,338.444,510.072,337.878
	C501.585,351.792,511.351,338.54,510.072,337.878z"/>
<path fill="#FFFFFF" d="M502.844,162.458c21.143-13.294,8.34-52.156-15.657-52.881c14.995-32.241-12.684-68.54-43.619-77.367
	c-26.921-7.666-62.738,4.833-70.083,34.189c-11.377-10.747-28.776-2.525-28.312,13.054c-16.451-5.808-34.334,1.598-44.081,15.485
	c-9.821,13.992-8.782,33.489-0.329,47.857c-27.205,7.386-47.011,39.91-50.59,66.292c-4.119,30.37,12.3,61,38.409,76.433
	c23.323,13.786,55.378,15.171,77.644-1.639c5.255-3.968,9.814-8.847,13.414-14.361c1.777-2.721,2.545-6.665,5.849-6.981
	c3.42-0.327,6.803-1.007,10.091-2.002c14.865-4.5,28.055-15.38,35.306-29.106c18.194,11.481,43.094,13.532,60.652-0.328
	c20.786-16.408,21.455-45.948,4.053-65.277C498.117,164.967,500.583,163.88,502.844,162.458
	C512.952,156.103,500.732,163.786,502.844,162.458z"/>
<path fill="#222E63" d="M327.629,298.707c-14.003,0-28.328-3.909-40.335-11.007c-27.875-16.477-43.801-48.206-39.631-78.954
	c3.612-26.63,22.9-58.365,49.389-67.46c-7.988-15.744-7.307-34.592,1.967-47.804c8.032-11.446,21.255-18.556,34.508-18.556
	c3.144,0,6.252,0.39,9.277,1.162c0.55-4.328,2.397-8.259,5.36-11.311c3.569-3.676,8.521-5.785,13.588-5.785
	c3.689,0,7.212,1.065,10.36,3.107c8.094-23.762,33.748-34.634,55.13-34.634c5.921,0,11.646,0.776,17.02,2.306
	c18.824,5.371,36.314,20.495,44.558,38.529c6.073,13.285,6.754,26.742,2.022,39.135c9.545,1.79,19.871,9.606,23.907,24.448
	c3.005,11.048,0.978,21.319-5.263,28.269c-0.007,0.711-0.381,1.207-1.269,1.861l0.025,0.04l-1.7,1.069
	c-0.143,0.09-0.291,0.183-0.446,0.281c-0.174,0.11-0.348,0.219-0.519,0.326l-1.634,1.028l-0.001-0.001
	c-0.03,0.018-0.058,0.036-0.088,0.054c-0.007,0.005-0.011,0.007-0.011,0.007c-0.002,0.001-0.003,0.001-0.005,0.002
	c-1.252,0.764-2.588,1.457-4.032,2.09c7.728,9.905,11.532,22.252,10.499,34.401c-1.069,12.583-7.177,23.869-17.197,31.779
	c-8.473,6.688-19.044,10.223-30.571,10.223h-0.001c-10.471,0-21.277-2.956-30.715-8.364c-7.777,13.206-20.871,23.58-35.507,28.012
	c-3.484,1.055-7.045,1.761-10.584,2.099c-0.902,0.086-1.487,1.086-2.522,3.189c-0.433,0.879-0.88,1.788-1.447,2.655
	c-3.778,5.786-8.491,10.832-14.008,14.997C356.657,294.279,342.783,298.707,327.629,298.707z M333.527,79.994
	c-11.628,0-23.261,6.284-30.361,16.4c-8.71,12.407-8.798,30.538-0.221,45.116c0.401,0.681,0.461,1.509,0.163,2.241
	s-0.92,1.282-1.683,1.489c-11.922,3.237-23.554,12.132-32.755,25.047c-8.383,11.767-14.21,26.033-15.988,39.14
	c-3.9,28.755,11.045,58.458,37.188,73.911c11.239,6.643,24.648,10.302,37.757,10.302c14.043,0,26.861-4.074,37.072-11.782
	c5.048-3.812,9.361-8.429,12.819-13.724c0.398-0.61,0.76-1.345,1.143-2.123c1.169-2.376,2.772-5.63,6.587-5.995
	c3.205-0.306,6.435-0.948,9.598-1.905c14.222-4.306,26.857-14.722,33.799-27.864c0.329-0.624,0.904-1.082,1.586-1.264
	c0.68-0.182,1.408-0.071,2.005,0.305c9.155,5.777,19.915,8.959,30.298,8.959c10.377,0,19.863-3.158,27.432-9.133
	c8.909-7.033,14.338-17.059,15.288-28.231c1.014-11.924-3.195-24.084-11.548-33.362c-0.57-0.633-0.783-1.51-0.568-2.334
	c0.214-0.824,0.829-1.485,1.636-1.76c2.588-0.88,4.785-1.899,6.718-3.114c9.907-6.229,10.817-18.083,8.365-27.098
	c-2.786-10.247-10.902-20.748-22.75-21.105c-0.851-0.026-1.633-0.477-2.079-1.202c-0.447-0.725-0.5-1.626-0.141-2.398
	c6.977-15.002,3.482-28.999-0.677-38.1c-7.654-16.744-23.881-30.781-41.34-35.763c-4.921-1.401-10.18-2.112-15.631-2.112
	c-20.553,0-45.373,10.79-51.3,34.48c-0.218,0.873-0.883,1.564-1.747,1.817c-0.866,0.252-1.797,0.028-2.45-0.59
	c-2.896-2.735-6.35-4.181-9.993-4.181c-3.705,0-7.332,1.548-9.952,4.247c-2.769,2.852-4.223,6.783-4.095,11.07
	c0.025,0.835-0.364,1.629-1.039,2.122c-0.675,0.493-1.55,0.62-2.337,0.343C340.856,80.616,337.221,79.994,333.527,79.994z"/>
<path fill="#FFFFFF" d="M550.163,274.609c-2.864-0.853-5.758-1.437-8.737-1.69c12.054-25.937-11.968-54.319-37.464-57.57
	c-20.758-2.646-46.333,7.934-47.491,31.6c-15.839-2.743-38.712,17.157-28.477,33.55c-30.097,6.897-41.773,51.543-12.425,67.11
	c13.06,6.927,31.515,6.838,44.799,0.455c12.983,10.514,34.522,6.413,40.631-9.752c20.295,12.847,52.728,14.857,70.396-4.033
	C590.263,314.106,573.647,281.611,550.163,274.609C548.681,274.167,568.252,280.002,550.163,274.609z"/>
<path fill="#222E63" d="M477.163,356.396c-6.238,0-12.256-1.906-17.121-5.395c-6.453,2.82-14.138,4.362-21.831,4.362
	c-8.787,0-17.027-1.907-23.829-5.515c-13.304-7.057-20.02-20.573-17.964-36.154c2.173-16.471,13.213-30.073,27.902-34.809
	c-2.293-5.551-1.784-11.72,1.526-17.689c5.519-9.951,17.825-17.386,28.323-17.023c2.607-20.86,23.411-31.755,43.443-31.755
	c2.252,0,4.495,0.14,6.669,0.417c15.138,1.93,29.891,12.18,37.585,26.114c5.753,10.419,6.835,21.61,3.159,31.867
	c1.901,0.313,3.813,0.757,5.779,1.339l0.01,0.003c0.001,0,0.002,0.001,0.002,0.001l0.044,0.013c0.008,0.003,0.018,0.005,0.026,0.008
	l0.005,0.002l6.026,1.797c0.096,0.029,0.193,0.058,0.288,0.086c0.804,0.24,1.364,0.407,1.397,0.416l-0.015,0.05
	c1.017,0.413,1.755,0.964,1.845,1.988c9.636,5.979,17.318,16.006,20.327,27.197c3.267,12.151,0.599,23.62-7.513,32.293
	c-8.886,9.5-22.133,14.733-37.297,14.733h-0.003c-11.734-0.001-23.885-3.181-33.8-8.793
	C497.548,350.816,488.053,356.396,477.163,356.396z M460.368,345.532c0.57,0,1.134,0.192,1.594,0.565
	c4.167,3.374,9.566,5.233,15.201,5.233c9.847,0,18.273-5.461,21.467-13.912c0.269-0.712,0.844-1.266,1.566-1.507
	c0.725-0.241,1.516-0.145,2.158,0.262c9.541,6.04,21.784,9.504,33.592,9.504h0.003c13.747,0,25.678-4.662,33.596-13.127
	c6.872-7.347,9.117-17.119,6.321-27.517c-3.502-13.026-14.077-24.263-26.314-27.962l-0.184-0.055
	c-0.006-0.001-0.01-0.003-0.015-0.004c-2.79-0.825-5.456-1.339-8.142-1.568c-0.824-0.07-1.561-0.538-1.977-1.254
	c-0.415-0.715-0.454-1.588-0.106-2.338c4.455-9.586,3.852-20.4-1.698-30.451c-6.938-12.566-20.201-21.805-33.79-23.537
	c-1.962-0.25-3.989-0.377-6.028-0.377c-18.468,0-37.661,10.163-38.612,29.588c-0.036,0.725-0.381,1.4-0.947,1.854
	c-0.567,0.454-1.297,0.643-2.016,0.519c-0.836-0.145-1.72-0.218-2.627-0.218c-8.486,0-18.646,6.337-23.133,14.427
	c-2.106,3.798-3.839,9.571-0.135,15.504c0.434,0.695,0.505,1.557,0.191,2.313c-0.314,0.757-0.976,1.315-1.774,1.498
	c-13.95,3.197-25.102,16.104-27.119,31.388c-1.767,13.396,3.958,24.99,15.315,31.015c5.987,3.176,13.606,4.925,21.455,4.925
	c7.522,0,15.001-1.603,21.06-4.514C459.62,345.614,459.994,345.532,460.368,345.532z"/>
<g>
	<path fill="#FFFFFF" d="M380.2,298.453c-2.204-3.136-4.858-6.161-8.183-8.139c-2.983-1.775-1.337-2.198-0.431-5.231
		c0.638-2.137,1.086-4.331,1.332-6.549c0.743-6.719-0.423-13.635-3.529-19.645c-5.205-10.101-15.319-16.67-26.173-19.314
		c-26.556-6.469-53.132,12.743-44.035,41.632c-20.528-0.311-25.292,29.894-9.83,39.864c1.907,1.23,4.001,2.192,6.164,2.873
		c3.685,1.159,1.348,3.144,1.406,6.654c0.076,4.536,1.908,8.708,5.195,11.836c6.679,6.357,16.606,6.815,25.107,4.551
		c3.113-0.829,9.676-5.695,11.921-4.431c3.179,1.79,6.65,3.048,10.228,3.751c6.997,1.376,14.463,0.654,20.957-2.345
		C388.114,335.749,390.865,313.655,380.2,298.453C378.836,296.512,385.326,305.76,380.2,298.453z"/>
	<path fill="#222E63" d="M318.081,350.761c-7.125,0-13.25-2.244-17.711-6.49c-3.77-3.589-5.895-8.429-5.982-13.629
		c-0.023-1.442,0.263-2.663,0.474-3.554c0.046-0.199,0.102-0.436,0.144-0.641c-0.07-0.026-0.153-0.055-0.25-0.085
		c-2.43-0.765-4.71-1.828-6.777-3.161c-9.694-6.251-11.936-19.129-9.142-28.62c2.582-8.77,8.987-14.571,17.075-15.705
		c-2.445-10.347-0.679-20.22,5.089-28.084c6.893-9.396,18.793-15.006,31.833-15.006c3.67,0,7.364,0.447,10.982,1.328
		c12.502,3.045,22.643,10.559,27.825,20.615c3.254,6.297,4.602,13.785,3.794,21.084c-0.259,2.351-0.738,4.705-1.422,6.995
		c-0.282,0.942-0.617,1.671-0.879,2.221c0.055,0.034,0.114,0.07,0.178,0.108c3.097,1.842,5.97,4.657,8.779,8.603h0.001l0.139,0.198
		c0.013,0.018,0.025,0.036,0.037,0.053l0.005,0.006l0.001,0.002l1.564,2.23c0.039,0.055,0.079,0.113,0.12,0.173
		c0.175,0.249,0.295,0.42,0.312,0.445l-0.017,0.012c0.196,0.332,0.374,0.71,0.45,1.121c4.254,8.064,5.432,17.468,3.123,25.915
		c-2.378,8.694-8.215,15.573-16.435,19.369c-4.603,2.126-9.835,3.249-15.13,3.249h-0.001c-2.472,0-4.954-0.242-7.377-0.718
		c-3.818-0.751-7.437-2.065-10.763-3.907c-1.086,0.092-3.61,1.422-5.301,2.312c-1.815,0.956-3.531,1.86-4.944,2.236
		C324.572,350.315,321.276,350.761,318.081,350.761z M298.867,283.739c-7.235,0-12.907,4.588-15.17,12.273
		c-2.263,7.684-0.575,18.028,7.028,22.931c1.686,1.087,3.553,1.957,5.552,2.586c4.746,1.494,3.916,5.023,3.517,6.719
		c-0.173,0.736-0.352,1.498-0.338,2.309c0.064,3.831,1.629,7.398,4.408,10.043c4.423,4.21,10.173,5.094,14.217,5.094
		c2.755,0,5.612-0.389,8.491-1.156c0.862-0.23,2.4-1.04,3.887-1.823c2.832-1.492,5.507-2.901,7.763-2.901
		c0.808,0,1.536,0.18,2.167,0.535c2.914,1.641,6.102,2.81,9.474,3.473c2.102,0.413,4.255,0.623,6.4,0.623h0.001
		c4.567,0,9.064-0.962,13.006-2.782c6.839-3.159,11.694-8.878,13.67-16.105c2.292-8.377,0.544-17.891-4.675-25.451l-0.272-0.388
		c-2.396-3.375-4.777-5.744-7.271-7.227c-3.447-2.052-3.38-4.088-2.221-6.516c0.23-0.48,0.467-0.977,0.658-1.617
		c0.598-2,1.016-4.053,1.242-6.102c0.699-6.318-0.46-12.783-3.261-18.204c-4.51-8.752-13.448-15.318-24.522-18.015
		c-3.226-0.786-6.517-1.184-9.783-1.184c-11.433,0-21.806,4.836-27.747,12.936c-5.44,7.415-6.646,16.633-3.489,26.658
		c0.244,0.776,0.101,1.622-0.385,2.275c-0.478,0.642-1.232,1.02-2.031,1.02c-0.013,0-0.026,0-0.038,0L298.867,283.739z"/>
</g>
<rect x="289.469" y="208.72" fill="#FFFFFF" width="147.288" height="13.573"/>
<rect x="308.822" y="234.86" fill="#222E63" width="108.58" height="23.46"/>
<rect x="333.782" y="395.748" fill="#FFFFFF" width="58.66" height="120.617"/>
<rect x="365.475" y="392.659" fill="#FFFFFF" width="45.735" height="123.357"/>
<rect x="316.58" y="392.659" fill="#FFFFFF" width="45.735" height="123.357"/>
<rect x="317.387" y="392.427" fill="#FFFFFF" width="93.823" height="123.589"/>
<rect x="293.165" y="222.293" fill="#FFFFFF" width="139.748" height="294.071"/>
<path fill="#222E63" d="M411.21,390.125h-45.735c-0.601,0-1.146,0.218-1.58,0.567c-0.435-0.349-0.979-0.567-1.58-0.567H316.58
	c-1.399,0-2.534,1.134-2.534,2.533v123.357c0,1.399,1.134,2.534,2.534,2.534h45.735c0.601,0,1.145-0.218,1.58-0.567
	c0.434,0.349,0.979,0.567,1.58,0.567h45.735c1.399,0,2.534-1.134,2.534-2.534V392.658
	C413.743,391.259,412.608,390.125,411.21,390.125z M359.782,513.482h-40.668v-118.29h40.668V513.482z M408.676,513.482h-40.668
	v-118.29h40.668V513.482z"/>
<g>
	<path fill="#222E63" d="M354.835,450.712c-0.23-2.078-1.971-3.703-4.11-3.703c-2.142,0-3.885,1.626-4.113,3.706
		c-1.308,1.147-2.138,2.824-2.138,4.696c0,3.447,2.804,6.252,6.252,6.252s6.252-2.805,6.252-6.252
		C356.977,453.538,356.144,451.859,354.835,450.712z M350.724,460.191c-2.635,0-4.779-2.145-4.779-4.78
		c0-1.035,0.339-1.988,0.901-2.771c0.596,1.567,2.101,2.685,3.878,2.685c1.777,0,3.282-1.12,3.876-2.689
		c0.563,0.784,0.904,1.738,0.904,2.774C355.504,458.047,353.361,460.191,350.724,460.191z"/>
	<path fill="#222E63" d="M381.276,450.713c-0.23-2.078-1.971-3.703-4.111-3.703c-2.142,0-3.883,1.626-4.113,3.705
		c-1.308,1.146-2.14,2.824-2.14,4.697c0,3.447,2.805,6.252,6.252,6.252c3.447,0,6.252-2.805,6.252-6.252
		C383.418,453.538,382.585,451.86,381.276,450.713z M377.165,460.191c-2.635,0-4.78-2.145-4.78-4.78c0-1.036,0.34-1.988,0.902-2.772
		c0.595,1.568,2.1,2.687,3.877,2.687s3.282-1.119,3.877-2.688c0.563,0.784,0.903,1.737,0.903,2.774
		C381.945,458.047,379.801,460.191,377.165,460.191z"/>
</g>
<g>
	<rect x="328.437" y="266.077" fill="#FFFFFF" width="68.702" height="102.666"/>
	<path fill="#222E63" d="M397.139,371.276h-68.702c-1.399,0-2.534-1.134-2.534-2.534V266.077c0-1.399,1.134-2.534,2.534-2.534
		h68.702c1.399,0,2.534,1.134,2.534,2.534v102.666C399.672,370.142,398.538,371.276,397.139,371.276z M330.971,366.209h63.635
		V268.61h-63.635V366.209z"/>
</g>
<rect x="330.82" y="271.383" fill="#FFFFFF" width="29.44" height="48.254"/>
<rect x="365.474" y="271.383" fill="#FFFFFF" width="29.437" height="48.254"/>
<g>
	<path fill="#222E63" d="M364.825,320.411h30.734v-49.8h-30.734V320.411z M366.14,312.296h2.329l3.892,3.892v2.909h-6.221V312.296z
		 M368.391,289.451v0.085l3.97,3.97v4.76l-3.677,3.677h-2.544v-12.492H368.391z M366.14,288.136v-7.726h2.251v7.726H366.14z
		 M373.678,280.411v-4.272h12.49v4.272h4.512v7.726h-4.512v4.817h-12.49v-4.817h-3.971v-7.726H373.678z M370.712,279.096l1.649-1.65
		v1.65H370.712z M387.483,276.905l2.192,2.191h-2.192V276.905z M373.678,271.926h12.49v2.897h-12.49V271.926z M394.243,289.451
		v12.492h-2.541l-4.219-4.218v-3.678l4.513-4.511v-0.085L394.243,289.451L394.243,289.451z M391.995,288.136v-7.726h2.248v7.726
		H391.995z M394.243,303.256v7.725h-2.248v-7.725H394.243z M386.168,310.981v4.654h-12.49v-4.654h-3.971v-7.725h3.971v-4.437h12.49
		v4.437h4.512v7.725H386.168z M390.055,312.296l-2.572,2.572v-2.572H390.055z M372.361,314.327l-2.03-2.031h2.03V314.327z
		 M386.168,319.097h-12.49v-2.147h12.49V319.097z M370.545,301.943l1.816-1.816v1.816H370.545z M372.361,291.646l-2.194-2.194h2.194
		V291.646z M373.678,297.504v-3.236h12.49v3.236H373.678z M387.483,301.943v-2.357l2.358,2.357H387.483z M387.483,292.187v-2.736
		h2.736L387.483,292.187z M368.391,303.256v7.725h-2.251v-7.725H368.391z M387.483,319.097v-2.368l4.435-4.434h2.326v6.801h-6.761
		V319.097z M394.243,279.096h-2.707l-4.053-4.052v-3.118h6.761L394.243,279.096L394.243,279.096z M372.361,271.926v3.659
		l-3.511,3.511h-2.71v-7.17L372.361,271.926L372.361,271.926z"/>
	<path fill="#222E63" d="M330.173,320.411h30.734v-49.8h-30.734V320.411z M337.71,314.328l-2.032-2.032h2.032V314.328z
		 M351.516,319.097h-12.493v-2.147h12.493V319.097z M351.516,315.635h-12.493v-4.654h-3.97v-7.725h3.97v-4.437h12.493v4.437h4.51
		v7.725h-4.51V315.635z M335.892,301.943l1.818-1.817v1.817H335.892z M337.71,291.647l-2.196-2.196h2.196V291.647z M339.023,297.504
		v-3.236h12.493v3.236H339.023z M352.832,301.943v-2.356l2.356,2.356H352.832z M355.402,312.296l-2.57,2.571v-2.571H355.402z
		 M359.592,319.097h-6.76v-2.37l4.431-4.432h2.329V319.097z M359.592,310.981h-2.251v-7.725h2.251V310.981z M359.592,301.943h-2.544
		l-4.216-4.216v-3.682l4.509-4.509v-0.085h2.251V301.943z M352.832,292.185v-2.734h2.734L352.832,292.185z M359.592,288.136h-2.251
		v-7.726h2.251V288.136z M352.832,271.926h6.76v7.17h-2.71l-4.05-4.05L352.832,271.926L352.832,271.926z M352.832,276.907
		l2.189,2.189h-2.189V276.907z M339.023,271.926h12.493v2.897h-12.493V271.926z M339.023,276.138h12.493v4.272h4.51v7.726h-4.51
		v4.817h-12.493v-4.817h-3.97v-7.726h3.97V276.138z M336.058,279.096l1.651-1.651v1.651H336.058z M331.487,271.926h6.223v3.659
		l-3.512,3.512h-2.711V271.926z M331.487,280.411h2.252v7.726h-2.252V280.411z M331.487,289.451h2.252v0.085l3.971,3.97v4.759
		l-3.677,3.678h-2.546L331.487,289.451L331.487,289.451z M331.487,303.256h2.252v7.725h-2.252V303.256z M331.487,312.296h2.33
		l3.893,3.893v2.908h-6.223V312.296z"/>
</g>
<path fill="#222E63" d="M436.814,338.078v-7.036H289.946v1.339v5.697v27.146v4.021v3.016h146.868v-7.037h-0.238v-27.146
	L436.814,338.078L436.814,338.078z M325.385,338.078h12.213v27.146h-12.213V338.078z M321.714,365.224H309.5v-27.146h12.214V365.224
	z M341.269,338.078h12.214v27.146h-12.214V338.078z M357.155,338.078h12.212v27.146h-12.212V338.078z M373.039,338.078h12.212
	v27.146h-12.212V338.078z M388.923,338.078h12.213v27.146h-12.213V338.078z M404.808,338.078h12.212v27.146h-12.212V338.078z
	 M293.617,338.078h12.212v27.146h-12.212V338.078z M432.904,365.224h-12.212v-27.146h12.212V365.224z"/>
<g>
	<rect x="68.049" y="324.235" fill="#FFFFFF" width="184.201" height="62.333"/>
	<path fill="#222E63" d="M252.25,389.101H68.05c-1.399,0-2.534-1.134-2.534-2.534v-62.333c0-1.399,1.134-2.534,2.534-2.534h184.2
		c1.399,0,2.534,1.134,2.534,2.534v62.333C254.783,387.967,253.649,389.101,252.25,389.101z M70.583,384.034h179.133v-57.266H70.583
		V384.034z"/>
</g>
<rect x="77.205" y="330.293" fill="#FFFFFF" width="29.132" height="29.709"/>
<rect x="209.753" y="330.293" fill="#FFFFFF" width="29.132" height="29.709"/>
<g>
	<path fill="#222E63" d="M75.97,365.637h31.601v-31.492H75.97V365.637z M90.062,353.743H83.44v-1.92h3.789v-6.986h2.834
		L90.062,353.743L90.062,353.743z M105.694,349.945h-3.143v-1.811h3.143V349.945z M91.939,336.024h13.755v3.379H91.939V336.024z
		 M91.939,341.278h13.755v4.979h-5.02v3.687h-1.913v-6.987h-6.822V341.278z M91.939,344.836h4.944v6.986h3.791v1.92h-8.735V344.836z
		 M91.939,355.622h10.612v-3.8h3.143v7.076H91.939V355.622z M91.939,360.776h13.755v2.985H91.939V360.776z M77.846,336.024h12.215
		v3.379H77.846V336.024z M77.846,341.278h12.215v1.68H85.35v6.987h-1.911v-3.687h-5.593
		C77.846,346.258,77.846,341.278,77.846,341.278z M77.846,348.134h3.714v1.811h-3.714V348.134z M77.846,351.823h3.714v3.8h8.501
		v3.276H77.846V351.823z M77.846,360.776h12.215v2.985H77.846V360.776z"/>
	<path fill="#222E63" d="M208.518,334.145v31.492h31.601v-31.492H208.518z M224.488,344.836h4.943v6.986h3.792v1.92h-8.736v-8.906
		H224.488z M210.395,348.134h3.714v1.811h-3.714V348.134z M222.611,363.761h-12.217v-2.985h12.217V363.761z M222.611,358.898
		h-12.217v-7.076h3.714v3.8h8.502L222.611,358.898L222.611,358.898z M222.611,353.743h-6.625v-1.92h3.79v-6.986h2.835V353.743z
		 M222.611,342.958h-4.714v6.987h-1.911v-3.687h-5.592v-4.979h12.217V342.958z M222.611,339.403h-12.217v-3.379h12.217V339.403z
		 M238.242,363.761h-13.754v-2.985h13.754V363.761z M238.242,358.898h-13.754v-3.276H235.1v-3.8h3.142V358.898z M238.242,349.945
		H235.1v-1.811h3.142V349.945z M238.242,346.257h-5.019v3.687h-1.914v-6.987h-6.822v-1.68h13.754v4.98L238.242,346.257
		L238.242,346.257z M238.242,339.403h-13.754v-3.379h13.754V339.403z"/>
</g>
<g>
	<rect x="63.477" y="318.403" fill="#FFFFFF" width="196.203" height="8.5"/>
	<path fill="#222E63" d="M259.681,329.437H63.478c-1.399,0-2.534-1.134-2.534-2.534v-8.5c0-1.399,1.134-2.534,2.534-2.534h196.203
		c1.399,0,2.534,1.134,2.534,2.534v8.5C262.214,328.302,261.08,329.437,259.681,329.437z M66.011,324.37h191.136v-3.433H66.011
		V324.37z"/>
</g>
<rect x="229.243" y="428.31" fill="#FFFFFF" width="64.041" height="88.055"/>
<path fill="#222E63" d="M293.284,518.898h-64.041c-1.399,0-2.534-1.134-2.534-2.534V428.31c0-1.399,1.134-2.534,2.534-2.534h64.041
	c1.399,0,2.534,1.134,2.534,2.534v88.055C295.817,517.764,294.683,518.898,293.284,518.898z M231.776,513.831h58.974v-82.988
	h-58.974V513.831z"/>
<rect x="244.278" y="440.152" fill="#FFFFFF" width="33.783" height="40.367"/>
<path fill="#222E63" d="M243.101,439.304v42.064h36.136v-42.064H243.101z M262.335,441.093h15.114v3.218h-15.114V441.093z
	 M277.449,468.424h-5.005V466.7h5.005V468.424z M277.449,454.353h-5.005v-1.725h5.005V454.353z M262.335,446.1h15.114v4.742h-6.793
	v3.512h-1.823V447.7h-6.499L262.335,446.1L262.335,446.1z M262.335,449.488h4.709v6.654h3.612v1.83h-8.322L262.335,449.488
	L262.335,449.488z M262.335,459.762h10.109v-3.62h5.005v8.769h-5.005v-3.619h-10.109V459.762z M262.335,463.081h8.322v1.83h-3.612
	v6.655h-4.709L262.335,463.081L262.335,463.081z M268.834,473.354V466.7h1.823v3.513h6.793v4.359h-15.114v-1.219L268.834,473.354
	L268.834,473.354z M252.227,464.911v-1.83h8.32v8.486h-4.711v-6.655h-3.609V464.911z M260.547,457.973h-8.32v-1.83h3.609v-6.654
	h4.711V457.973z M244.889,441.093h15.658v3.218h-15.658L244.889,441.093L244.889,441.093z M244.889,446.1h15.658v1.601h-6.5v6.653
	h-1.82v-3.512h-7.338L244.889,446.1L244.889,446.1z M244.889,452.629h5.548v1.725h-5.548V452.629z M244.889,456.142h5.548v3.62
	h10.109v1.53h-10.109v3.619h-5.548L244.889,456.142L244.889,456.142z M244.889,466.7h5.548v1.724h-5.548V466.7z M252.227,470.214
	V466.7h1.82v6.654h6.5v1.219h-15.658v-4.359H252.227z M244.889,479.58v-3.219h15.658v3.219H244.889z M262.335,479.58v-3.219h15.114
	v3.219H262.335z"/>
<rect x="23.023" y="428.31" fill="#FFFFFF" width="64.041" height="88.055"/>
<path fill="#222E63" d="M87.064,518.898h-64.04c-1.399,0-2.534-1.134-2.534-2.534V428.31c0-1.399,1.134-2.534,2.534-2.534h64.04
	c1.399,0,2.534,1.134,2.534,2.534v88.055C89.598,517.764,88.463,518.898,87.064,518.898z M25.557,513.831H84.53v-82.988H25.557
	V513.831z"/>
<rect x="38.246" y="440.152" fill="#FFFFFF" width="33.784" height="40.367"/>
<path fill="#222E63" d="M37.07,439.304v42.064h36.136v-42.064H37.07z M38.858,441.093h15.114v3.218H38.858V441.093z M38.858,446.1
	h15.114v1.601h-6.501v6.653h-1.822v-3.512h-6.791V446.1z M64.082,456.142v1.83h-8.321v-8.485h4.711v6.654h3.61V456.142z
	 M53.972,457.973h-8.323v-1.83h3.613v-6.654h4.71V457.973z M38.858,452.629h5.004v1.725h-5.004V452.629z M38.858,456.142h5.004v3.62
	h10.11v1.53h-10.11v3.619h-5.004V456.142z M53.972,471.566h-4.71v-6.655h-3.613v-1.83h8.323V471.566z M55.761,463.081h8.321v1.83
	h-3.61v6.655h-4.711V463.081z M38.858,466.7h5.004v1.724h-5.004V466.7z M38.858,470.214h6.791V466.7h1.822v6.654h6.501v1.219H38.858
	V470.214z M38.858,476.361h15.114v3.219H38.858V476.361z M71.416,479.58H55.761v-3.219h15.655V479.58z M71.416,474.573H55.761
	v-1.219h6.498V466.7h1.822v3.513h7.335V474.573z M71.416,468.424H65.87V466.7h5.547L71.416,468.424L71.416,468.424z M71.416,464.911
	H65.87v-3.619H55.761v-1.53H65.87v-3.62h5.547L71.416,464.911L71.416,464.911z M71.416,454.353H65.87v-1.725h5.547L71.416,454.353
	L71.416,454.353z M71.416,450.841h-7.335v3.512H62.26V447.7h-6.498v-1.6h15.655L71.416,450.841L71.416,450.841z M71.416,444.312
	H55.761v-3.218h15.655V444.312z"/>
<g>
	<path fill="#222E63" d="M222.028,428.084v0.07h-36.819v-0.071h-9.09v88.278h6.972v0.004h40.434v-0.026h7.594v-88.255
		L222.028,428.084L222.028,428.084z M193.301,497.951v-2.048h9.31v9.493h-5.271v-7.445H193.301z M185.209,484.208h6.09v1.93h-6.09
		V484.208z M185.209,499.952h6.091v1.929h-6.091V499.952z M185.209,497.951v-9.813h6.09v4.05h11.311v1.712H191.3v4.051H185.209z
		 M193.301,490.186v-2.048h4.039v-7.446h5.27v9.494L193.301,490.186L193.301,490.186z M195.338,478.692v7.446h-2.037v-3.931h-8.092
		v-5.305h17.402v1.79L195.338,478.692L195.338,478.692z M185.209,503.883h8.093v-3.93h2.037v7.447h7.273v1.36h-17.403V503.883z
		 M221.524,471.3v3.6h-16.912v-3.6H221.524z M221.524,501.88h-5.6v-1.929h5.6V501.88z M221.524,497.95h-5.6v-4.05h-11.313v-1.712
		h11.313v-4.05h5.6V497.95z M213.923,495.903v2.048h-4.04v7.445h-5.272v-9.493H213.923z M213.923,488.138v2.048h-9.312v-9.494h5.272
		v7.446L213.923,488.138L213.923,488.138z M221.524,486.138h-5.6v-1.93h5.6V486.138z M213.924,482.207v3.931h-2.04v-7.446h-7.272
		v-1.79h16.912v5.305L213.924,482.207L213.924,482.207z M204.612,507.399h7.272v-7.447h2.04v3.93h7.6v4.877h-16.912V507.399z
		 M216.43,430.403h5.598v3.354h-5.598V430.403z M216.43,435.758h5.598v3.664h-5.598V435.758z M204.696,430.156h9.73v3.602h-9.73
		V430.156z M204.696,435.76h9.73v5.665h7.602v3.569h-10.06v-7.445h-7.272V435.76z M192.942,430.155h9.753v3.602h-9.753V430.155z
		 M185.21,430.403h5.73v3.354h-5.73V430.403z M185.209,435.759h5.73v3.664h-5.73V435.759z M185.209,441.424h7.732v-5.665h9.753
		v1.789h-7.271v7.445h-10.214V441.424z M185.209,446.995h12.217v-7.445h12.542v7.445h12.06v22.302h-36.819L185.209,446.995
		L185.209,446.995z M202.611,471.3v3.6h-17.402v-3.6H202.611z M185.209,510.762h17.403v3.604h-17.403V510.762z M204.613,514.366
		v-3.604h16.911v3.604H204.613z"/>
	<path fill="#222E63" d="M131.096,428.154H94.279v-0.071h-9.092v88.255h7.593v0.026h40.435v-0.004h6.971v-88.278h-9.09V428.154z
		 M125.364,430.403h5.732v3.354h-5.732C125.364,433.757,125.364,430.403,125.364,430.403z M125.364,435.758h5.732v3.664h-5.732
		C125.364,439.422,125.364,435.758,125.364,435.758z M113.61,430.156h9.755v3.602h-9.755V430.156z M113.61,435.76h9.755v5.665h7.731
		v3.569h-10.214v-7.445h-7.272C113.61,437.549,113.61,435.76,113.61,435.76z M101.879,430.156h9.73v3.602h-9.73V430.156z
		 M94.279,430.404h5.597v3.354h-5.597V430.404z M94.279,435.759h5.597v3.664h-5.597V435.759z M94.279,441.424h7.601v-5.665h9.73
		v1.789h-7.273v7.445H94.279V441.424z M102.38,497.951v-2.048h9.313v9.493h-5.27v-7.445H102.38z M100.381,493.9v4.051h-5.599v-9.813
		h5.599v4.05h11.312v1.712H100.381z M100.381,499.952v1.929h-5.599v-1.929H100.381z M94.782,486.138v-1.93h5.599v1.93H94.782z
		 M102.38,490.186v-2.048h4.043v-7.446h5.27v9.494L102.38,490.186L102.38,490.186z M111.692,476.902v1.79h-7.272v7.446h-2.041
		v-3.931h-7.598v-5.305L111.692,476.902L111.692,476.902z M94.782,474.9v-3.6h16.911v3.6H94.782z M111.693,514.366H94.782v-3.605
		h16.911C111.693,510.761,111.693,514.366,111.693,514.366z M111.694,508.759L111.694,508.759H94.782v-4.877h7.598v-3.93h2.041
		v7.447h7.273V508.759z M125.007,497.951V493.9h-11.312v-1.712h11.312v-4.05h6.089v9.813H125.007z M131.096,499.952v1.929h-6.089
		v-1.929H131.096z M123.007,495.903v2.048h-4.041v7.445h-5.271v-9.493H123.007z M123.007,488.138v2.048h-9.312v-9.494h5.27v7.446
		L123.007,488.138L123.007,488.138z M125.007,486.138v-1.93h6.089v1.93H125.007z M131.095,476.902v5.305h-8.089v3.931h-2.039v-7.446
		h-7.273v-1.79L131.095,476.902L131.095,476.902z M113.695,474.9v-3.6h17.401v3.6H113.695z M131.096,514.366h-17.401v-3.605h17.401
		V514.366z M131.097,508.759L131.097,508.759h-17.402v-1.36h7.273v-7.447h2.039v3.93h8.09V508.759z M131.097,469.297
		L131.097,469.297H94.279v-22.302h12.059v-7.445h12.543v7.445h12.216V469.297z"/>
</g>
<g>
	<rect x="19.566" y="417.068" fill="#FFFFFF" width="277.174" height="12.006"/>
	<path fill="#222E63" d="M296.739,431.608H19.566c-1.399,0-2.534-1.134-2.534-2.534v-12.006c0-1.399,1.134-2.534,2.534-2.534
		h277.173c1.399,0,2.534,1.134,2.534,2.534v12.006C299.273,430.474,298.139,431.608,296.739,431.608z M22.1,426.541h272.106v-6.939
		H22.1V426.541z"/>
</g>
<rect x="118.12" y="331.736" fill="#FFFFFF" width="81.189" height="21.761"/>
<path fill="#222E63" d="M199.309,356.031H118.12c-1.399,0-2.534-1.134-2.534-2.534v-21.761c0-1.399,1.134-2.534,2.534-2.534h81.189
	c1.399,0,2.534,1.134,2.534,2.534v21.761C201.843,354.897,200.708,356.031,199.309,356.031z M120.654,350.964h76.122V334.27h-76.122
	V350.964z"/>
<polygon fill="#FFFFFF" points="262.172,317.08 60.987,317.08 74.902,273.943 248.258,273.943 "/>
<path fill="#222E63" d="M262.172,319.613H60.987c-0.81,0-1.572-0.387-2.048-1.042c-0.477-0.655-0.612-1.498-0.363-2.269
	l13.915-43.137c0.337-1.046,1.311-1.756,2.411-1.756h173.356c1.1,0,2.074,0.709,2.411,1.756l13.914,43.137
	c0.248,0.771,0.114,1.614-0.363,2.269C263.743,319.226,262.982,319.613,262.172,319.613z M64.466,314.546h194.227l-12.28-38.07
	H76.747L64.466,314.546z"/>
<rect x="433.503" y="411.012" fill="#FFFFFF" width="145.439" height="105.434"/>
<rect x="433.503" y="391.197" fill="#FFFFFF" width="145.439" height="25.871"/>
<circle fill="#FFFFFF" cx="506.223" cy="463.118" r="29.256"/>
<g>
	<path fill="#222E63" d="M506.223,494.905c17.528,0,31.789-14.26,31.789-31.787c0-17.527-14.261-31.787-31.789-31.787
		c-17.529,0-31.79,14.26-31.79,31.787C474.434,480.646,488.694,494.905,506.223,494.905z M506.223,436.398
		c14.734,0,26.721,11.987,26.721,26.72c0,14.734-11.987,26.72-26.721,26.72c-14.735,0-26.723-11.987-26.723-26.72
		C479.501,448.384,491.488,436.398,506.223,436.398z"/>
	<path fill="#222E63" d="M578.942,388.664H433.503c-1.399,0-2.534,1.134-2.534,2.533v25.383v99.865c0,1.399,1.134,2.534,2.534,2.534
		h145.439c1.399,0,2.533-1.134,2.533-2.534V417.07c0-0.001,0-0.001,0-0.002v-25.871
		C581.475,389.798,580.341,388.664,578.942,388.664z M576.408,513.912H436.036v-94.311h140.372V513.912z M576.408,414.534H436.036
		V393.73h140.372V414.534z"/>
</g>
<polygon fill="#FFFFFF" points="482.763,517.067 479.407,499.997 468.366,492.812 457.635,496.181 444.323,499.997 437.245,512.467 
	463.705,517.785 478.587,517.785 "/>
<path fill="#222E63" d="M478.587,520.319h-14.881c-0.168,0-0.335-0.017-0.499-0.05l-26.461-5.319
	c-0.797-0.16-1.468-0.693-1.805-1.432s-0.3-1.596,0.101-2.302l7.078-12.469c0.328-0.577,0.868-1.002,1.506-1.185l13.313-3.816
	l10.67-3.351c0.722-0.226,1.506-0.119,2.141,0.294l11.041,7.185c0.574,0.373,0.972,0.963,1.105,1.635l3.356,17.07
	c0.132,0.669-0.013,1.364-0.399,1.926c-0.387,0.562-0.985,0.944-1.658,1.06l-4.177,0.718
	C478.874,520.307,478.731,520.319,478.587,520.319z M463.958,515.252h14.413l1.406-0.242l-2.649-13.473l-9.143-5.95l-9.591,3.011
	l-12.378,3.549l-4.839,8.525L463.958,515.252z"/>
<path fill="#222E63" d="M436.757,206.186H289.469c-1.399,0-2.534,1.134-2.534,2.534v13.573c0,1.399,1.134,2.534,2.534,2.534h1.163
	v291.539c0,1.399,1.134,2.534,2.533,2.534h139.748c1.399,0,2.533-1.134,2.533-2.534v-291.54h1.311c1.399,0,2.534-1.134,2.534-2.534
	V208.72C439.291,207.32,438.156,206.186,436.757,206.186z M292.003,211.253h142.221v8.506H292.003V211.253z M430.379,513.831
	h-134.68V224.826H430.38v289.005H430.379z"/>
<polygon fill="#FFFFFF" points="449.293,514.819 446.325,496.691 436.559,489.06 413.368,489.06 401.62,498.62 396.645,511.347 
	419.455,516.999 443.93,516.999 "/>
<path fill="#222E63" d="M443.93,519.533h-24.475c-0.206,0-0.41-0.025-0.61-0.074l-22.81-5.652c-0.707-0.175-1.305-0.647-1.64-1.295
	s-0.375-1.408-0.109-2.087l4.975-12.726c0.159-0.407,0.421-0.766,0.76-1.043l11.747-9.56c0.452-0.368,1.017-0.569,1.599-0.569
	h23.191c0.565,0,1.115,0.189,1.56,0.537l9.767,7.631c0.502,0.392,0.838,0.959,0.941,1.587l2.967,18.127
	c0.191,1.167-0.45,2.311-1.546,2.756l-5.363,2.18C444.582,519.469,444.257,519.533,443.93,519.533z M419.764,514.466h23.67
	l3.032-1.232l-2.481-15.155l-8.299-6.484h-21.418l-10.532,8.57l-3.682,9.418L419.764,514.466z"/>
<g>
	<polygon fill="#FFFFFF" points="300.258,418.971 16.048,418.971 35.704,358.03 280.603,358.03 	"/>
	<path fill="#222E63" d="M300.258,421.505H16.048c-0.81,0-1.572-0.387-2.048-1.042c-0.477-0.655-0.612-1.498-0.363-2.269
		l19.657-60.941c0.337-1.046,1.311-1.756,2.411-1.756h244.899c1.1,0,2.074,0.709,2.411,1.756l19.655,60.941
		c0.248,0.771,0.114,1.614-0.363,2.269C301.83,421.117,301.068,421.505,300.258,421.505z M19.526,416.438h277.253l-18.021-55.874
		H37.549L19.526,416.438z"/>
</g>
<g>
	<polygon fill="#222E63" points="51.021,358.03 33.326,418.974 37.01,418.974 54.705,358.03 	"/>
	<polygon fill="#222E63" points="65.217,358.03 49.878,418.974 53.251,418.974 68.587,358.03 	"/>
	<polygon fill="#222E63" points="66.412,418.974 69.516,418.974 82.492,358.03 79.389,358.03 	"/>
	<polygon fill="#222E63" points="82.921,418.974 85.803,418.974 96.416,358.03 93.538,358.03 	"/>
	<polygon fill="#222E63" points="99.408,418.974 102.113,418.974 110.37,358.03 107.668,358.03 	"/>
	<polygon fill="#222E63" points="115.874,418.974 118.441,418.974 124.339,358.03 121.77,358.03 	"/>
	<polygon fill="#222E63" points="132.317,418.974 134.796,418.974 138.333,358.03 135.854,358.03 	"/>
	<polygon fill="#222E63" points="148.735,418.974 151.171,418.974 152.348,358.03 149.914,358.03 	"/>
	<polygon fill="#222E63" points="163.953,358.03 165.138,418.974 167.569,418.974 166.391,358.03 	"/>
	<polygon fill="#222E63" points="177.969,358.03 181.51,418.974 183.99,418.974 180.452,358.03 	"/>
	<polygon fill="#222E63" points="191.964,358.03 197.863,418.974 200.432,418.974 194.534,358.03 	"/>
	<polygon fill="#222E63" points="205.935,358.03 214.196,418.974 216.897,418.974 208.641,358.03 	"/>
	<polygon fill="#222E63" points="219.886,358.03 230.503,418.974 233.383,418.974 222.766,358.03 	"/>
	<polygon fill="#222E63" points="233.813,358.03 246.792,418.974 249.893,418.974 236.915,358.03 	"/>
	<polygon fill="#222E63" points="247.718,358.03 263.056,418.974 266.426,418.974 251.091,358.03 	"/>
	<polygon fill="#222E63" points="265.285,358.03 261.601,358.03 279.297,418.974 282.981,418.974 	"/>
</g>
</svg>
