<?xml version="1.0" encoding="utf-8"?>
<!-- Generator: Adobe Illustrator 17.0.0, SVG Export Plug-In . SVG Version: 6.00 Build 0)  -->
<!DOCTYPE svg PUBLIC "-//W3C//DTD SVG 1.1//EN" "http://www.w3.org/Graphics/SVG/1.1/DTD/svg11.dtd">
<svg version="1.1" id="图层_1" xmlns="http://www.w3.org/2000/svg" xmlns:xlink="http://www.w3.org/1999/xlink" x="0px" y="0px"
	 width="613.34px" height="552.34px" viewBox="0 0 613.34 552.34" enable-background="new 0 0 613.34 552.34" xml:space="preserve">
<rect x="2.669" y="2.67" fill="#FFFFFF" width="608" height="547"  id = "border"/>
<path fill="#222E63" d="M610.67,552.34h-608c-1.475,0-2.67-1.195-2.67-2.67v-547C0,1.195,1.195,0,2.67,0h608
	c1.475,0,2.67,1.195,2.67,2.67v547C613.339,551.145,612.144,552.34,610.67,552.34z M5.339,547h602.66V5.339H5.339V547z"/>
<rect x="19.169" y="17.514" fill="#FFFFFF" width="575" height="517.311"/>
<path fill="#222E63" d="M594.17,537.495h-575c-1.475,0-2.67-1.195-2.67-2.67V17.514c0-1.475,1.195-2.67,2.67-2.67h575
	c1.475,0,2.67,1.195,2.67,2.67v517.311C596.839,536.3,595.644,537.495,594.17,537.495z M21.839,532.155h569.66V20.184H21.839
	V532.155z"/>
<rect x="216.332" y="72.712" fill="#FFFFFF" width="178.279" height="456.824"/>
<rect x="205.824" y="62.708" fill="#FFFFFF" width="195.302" height="28.045"/>
<rect x="237.364" y="246.097" fill="#FFFFFF" width="37.175" height="37.173"/>
<path fill="#222E63" d="M277.039,285.77h-42.175v-42.173h42.175V285.77z M239.864,280.77h32.175v-32.173h-32.175V280.77z"/>
<rect x="288.699" y="246.097" fill="#FFFFFF" width="37.18" height="37.173"/>
<path fill="#222E63" d="M328.379,285.77h-42.18v-42.173h42.18V285.77z M291.199,280.77h32.18v-32.173h-32.18V280.77z"/>
<rect x="337.382" y="246.097" fill="#FFFFFF" width="37.17" height="37.173"/>
<path fill="#222E63" d="M377.052,285.77h-42.17v-42.173h42.17V285.77z M339.882,280.77h32.17v-32.173h-32.17V280.77z"/>
<rect x="237.364" y="293.893" fill="#FFFFFF" width="37.175" height="37.171"/>
<path fill="#222E63" d="M277.039,333.564h-42.175v-42.171h42.175V333.564z M239.864,328.564h32.175v-32.171h-32.175V328.564z"/>
<rect x="288.699" y="293.893" fill="#FFFFFF" width="37.18" height="37.171"/>
<path fill="#222E63" d="M328.379,333.564h-42.18v-42.171h42.18V333.564z M291.199,328.564h32.18v-32.171h-32.18V328.564z"/>
<rect x="337.382" y="293.893" fill="#FFFFFF" width="37.17" height="37.171"/>
<path fill="#222E63" d="M377.052,333.564h-42.17v-42.171h42.17V333.564z M339.882,328.564h32.17v-32.171h-32.17V328.564z"/>
<rect x="237.364" y="341.685" fill="#FFFFFF" width="37.175" height="37.177"/>
<path fill="#222E63" d="M277.039,381.362h-42.175v-42.178h42.175V381.362z M239.864,376.362h32.175v-32.178h-32.175V376.362z"/>
<rect x="288.699" y="341.685" fill="#FFFFFF" width="37.18" height="37.177"/>
<path fill="#222E63" d="M328.379,381.362h-42.18v-42.178h42.18V381.362z M291.199,376.362h32.18v-32.178h-32.18V376.362z"/>
<rect x="337.382" y="341.685" fill="#FFFFFF" width="37.17" height="37.177"/>
<path fill="#222E63" d="M377.052,381.362h-42.17v-42.178h42.17V381.362z M339.882,376.362h32.17v-32.178h-32.17V376.362z"/>
<rect x="237.364" y="389.482" fill="#FFFFFF" width="37.175" height="37.174"/>
<path fill="#222E63" d="M277.039,429.156h-42.175v-42.175h42.175V429.156z M239.864,424.156h32.175v-32.175h-32.175V424.156z"/>
<rect x="288.699" y="389.482" fill="#FFFFFF" width="37.18" height="37.174"/>
<path fill="#222E63" d="M328.379,429.156h-42.18v-42.175h42.18V429.156z M291.199,424.156h32.18v-32.175h-32.18V424.156z"/>
<rect x="337.382" y="389.482" fill="#FFFFFF" width="37.17" height="37.174"/>
<path fill="#222E63" d="M377.052,429.156h-42.17v-42.175h42.17V429.156z M339.882,424.156h32.17v-32.175h-32.17V424.156z"/>
<rect x="237.364" y="437.275" fill="#FFFFFF" width="37.175" height="37.174"/>
<path fill="#222E63" d="M277.039,476.949h-42.175v-42.174h42.175V476.949z M239.864,471.949h32.175v-32.174h-32.175V471.949z"/>
<rect x="288.699" y="437.275" fill="#FFFFFF" width="37.18" height="37.174"/>
<path fill="#222E63" d="M328.379,476.949h-42.18v-42.174h42.18V476.949z M291.199,471.949h32.18v-32.174h-32.18V471.949z"/>
<rect x="337.382" y="437.275" fill="#FFFFFF" width="37.17" height="37.174"/>
<path fill="#222E63" d="M377.052,476.949h-42.17v-42.174h42.17V476.949z M339.882,471.949h32.17v-32.174h-32.17V471.949z"/>
<rect x="237.364" y="99.309" fill="#FFFFFF" width="37.175" height="37.175"/>
<path fill="#222E63" d="M277.039,138.984h-42.175V96.809h42.175V138.984z M239.864,133.984h32.175v-32.175h-32.175V133.984z"/>
<rect x="288.699" y="99.309" fill="#FFFFFF" width="37.18" height="37.175"/>
<path fill="#222E63" d="M328.379,138.984h-42.18V96.809h42.18V138.984z M291.199,133.984h32.18v-32.175h-32.18V133.984z"/>
<rect x="337.382" y="99.309" fill="#FFFFFF" width="37.17" height="37.175"/>
<path fill="#222E63" d="M377.052,138.984h-42.17V96.809h42.17V138.984z M339.882,133.984h32.17v-32.175h-32.17V133.984z"/>
<rect x="237.364" y="147.104" fill="#FFFFFF" width="37.175" height="37.176"/>
<path fill="#222E63" d="M277.039,186.78h-42.175v-42.176h42.175V186.78z M239.864,181.78h32.175v-32.176h-32.175V181.78z"/>
<rect x="288.699" y="147.104" fill="#FFFFFF" width="37.18" height="37.176"/>
<path fill="#222E63" d="M328.379,186.78h-42.18v-42.176h42.18V186.78z M291.199,181.78h32.18v-32.176h-32.18V181.78z"/>
<rect x="337.382" y="147.104" fill="#FFFFFF" width="37.17" height="37.176"/>
<path fill="#222E63" d="M377.052,186.78h-42.17v-42.176h42.17V186.78z M339.882,181.78h32.17v-32.176h-32.17V181.78z"/>
<rect x="237.364" y="194.9" fill="#FFFFFF" width="37.175" height="37.174"/>
<path fill="#222E63" d="M277.039,234.574h-42.175V192.4h42.175V234.574z M239.864,229.574h32.175V197.4h-32.175V229.574z"/>
<rect x="288.699" y="194.9" fill="#FFFFFF" width="37.18" height="37.174"/>
<path fill="#222E63" d="M328.379,234.574h-42.18V192.4h42.18V234.574z M291.199,229.574h32.18V197.4h-32.18V229.574z"/>
<rect x="337.382" y="194.9" fill="#FFFFFF" width="37.17" height="37.174"/>
<path fill="#222E63" d="M377.052,234.574h-42.17V192.4h42.17V234.574z M339.882,229.574h32.17V197.4h-32.17V229.574z"/>
<rect x="216.379" y="506.497" fill="#FFFFFF" width="178.279" height="23.034"/>
<path fill="#222E63" d="M401.125,60.167H205.824c-1.403,0-2.541,1.138-2.541,2.541v28.045c0,1.403,1.138,2.541,2.541,2.541h7.967
	v436.243c0,1.403,1.138,2.541,2.541,2.541H394.61c0.177,0,0.349-0.018,0.515-0.053c1.179-0.22,2.072-1.251,2.072-2.494v-23.034
	c0-0.158-0.019-0.31-0.046-0.46V93.293h3.974c1.403,0,2.541-1.138,2.541-2.541V62.708C403.666,61.304,402.529,60.167,401.125,60.167
	z M392.07,526.99H218.919v-17.952h173.15v17.952H392.07z M392.07,503.956H218.873V93.293H392.07V503.956z M398.585,88.212h-190.22
	V65.249h190.22V88.212z"/>
<rect x="342.81" y="128.522" fill="#FFFFFF" width="180.273" height="401.014"/>
<rect x="342.81" y="495.212" fill="#FFFFFF" width="180.273" height="34.324"/>
<rect x="381.44" y="172.668" fill="#FFFFFF" width="103.011" height="25.398"/>
<rect x="381.44" y="218.526" fill="#FFFFFF" width="103.011" height="25.396"/>
<rect x="381.44" y="264.382" fill="#FFFFFF" width="103.011" height="25.398"/>
<rect x="381.44" y="310.239" fill="#FFFFFF" width="103.011" height="25.398"/>
<rect x="381.44" y="356.095" fill="#FFFFFF" width="103.011" height="25.398"/>
<rect x="381.44" y="401.953" fill="#FFFFFF" width="103.011" height="25.397"/>
<g>
	<path fill="#222E63" d="M484.451,170.127h-103.01c-1.403,0-2.541,1.138-2.541,2.541v25.398c0,1.403,1.138,2.541,2.541,2.541
		h103.011c1.403,0,2.541-1.138,2.541-2.541v-25.398C486.992,171.265,485.855,170.127,484.451,170.127z M481.911,195.526h-97.929
		v-20.317h97.929L481.911,195.526L481.911,195.526z"/>
	<path fill="#222E63" d="M484.451,215.985h-103.01c-1.403,0-2.541,1.138-2.541,2.541v25.396c0,1.403,1.138,2.541,2.541,2.541
		h103.011c1.403,0,2.541-1.138,2.541-2.541v-25.396C486.992,217.123,485.855,215.985,484.451,215.985z M481.911,241.381h-97.929
		v-20.314h97.929L481.911,241.381L481.911,241.381z"/>
	<path fill="#222E63" d="M484.451,261.841h-103.01c-1.403,0-2.541,1.138-2.541,2.541v25.398c0,1.403,1.138,2.541,2.541,2.541
		h103.011c1.403,0,2.541-1.138,2.541-2.541v-25.398C486.992,262.978,485.855,261.841,484.451,261.841z M481.911,287.239h-97.929
		v-20.316h97.929L481.911,287.239L481.911,287.239z"/>
	<path fill="#222E63" d="M484.451,307.698h-103.01c-1.403,0-2.541,1.138-2.541,2.541v25.398c0,1.403,1.138,2.541,2.541,2.541
		h103.011c1.403,0,2.541-1.137,2.541-2.541v-25.398C486.992,308.836,485.855,307.698,484.451,307.698z M481.911,333.097h-97.929
		V312.78h97.929L481.911,333.097L481.911,333.097z"/>
	<path fill="#222E63" d="M484.451,353.554h-103.01c-1.403,0-2.541,1.138-2.541,2.541v25.398c0,1.403,1.138,2.541,2.541,2.541
		h103.011c1.403,0,2.541-1.137,2.541-2.541v-25.398C486.992,354.691,485.855,353.554,484.451,353.554z M481.911,378.952h-97.929
		v-20.316h97.929L481.911,378.952L481.911,378.952z"/>
	<path fill="#222E63" d="M484.451,399.412h-103.01c-1.403,0-2.541,1.138-2.541,2.541v25.397c0,1.403,1.138,2.541,2.541,2.541
		h103.011c1.403,0,2.541-1.138,2.541-2.541v-25.397C486.992,400.549,485.855,399.412,484.451,399.412z M481.911,424.809h-97.929
		v-20.315h97.929L481.911,424.809L481.911,424.809z"/>
</g>
<rect x="91.682" y="211.041" fill="#FFFFFF" width="178.279" height="318.495"/>
<rect x="82.671" y="203.029" fill="#FFFFFF" width="195.302" height="28.042"/>
<rect x="335.466" y="118.176" fill="#FFFFFF" width="195.302" height="28.042"/>
<rect x="113.714" y="246.097" fill="#FFFFFF" width="37.175" height="37.173"/>
<path fill="#222E63" d="M153.389,285.77h-42.175v-42.173h42.175V285.77z M116.214,280.77h32.175v-32.173h-32.175V280.77z"/>
<rect x="165.054" y="246.097" fill="#FFFFFF" width="37.175" height="37.173"/>
<path fill="#222E63" d="M204.729,285.77h-42.175v-42.173h42.175V285.77z M167.554,280.77h32.175v-32.173h-32.175V280.77z"/>
<rect x="213.732" y="246.097" fill="#FFFFFF" width="37.175" height="37.173"/>
<path fill="#222E63" d="M253.407,285.77h-42.175v-42.173h42.175V285.77z M216.232,280.77h32.175v-32.173h-32.175V280.77z"/>
<rect x="113.714" y="293.89" fill="#FFFFFF" width="37.175" height="37.174"/>
<path fill="#222E63" d="M153.389,333.564h-42.175V291.39h42.175V333.564z M116.214,328.564h32.175V296.39h-32.175V328.564z"/>
<rect x="165.054" y="293.89" fill="#FFFFFF" width="37.175" height="37.174"/>
<path fill="#222E63" d="M204.729,333.564h-42.175V291.39h42.175V333.564z M167.554,328.564h32.175V296.39h-32.175V328.564z"/>
<rect x="213.732" y="293.89" fill="#FFFFFF" width="37.175" height="37.174"/>
<path fill="#222E63" d="M253.407,333.564h-42.175V291.39h42.175V333.564z M216.232,328.564h32.175V296.39h-32.175V328.564z"/>
<rect x="113.714" y="341.685" fill="#FFFFFF" width="37.175" height="37.174"/>
<path fill="#222E63" d="M153.389,381.359h-42.175v-42.175h42.175V381.359z M116.214,376.359h32.175v-32.175h-32.175V376.359z"/>
<rect x="165.054" y="341.685" fill="#FFFFFF" width="37.175" height="37.174"/>
<path fill="#222E63" d="M204.729,381.359h-42.175v-42.175h42.175V381.359z M167.554,376.359h32.175v-32.175h-32.175V376.359z"/>
<rect x="213.732" y="341.685" fill="#FFFFFF" width="37.175" height="37.174"/>
<path fill="#222E63" d="M253.407,381.359h-42.175v-42.175h42.175V381.359z M216.232,376.359h32.175v-32.175h-32.175V376.359z"/>
<rect x="113.714" y="389.482" fill="#FFFFFF" width="37.175" height="37.174"/>
<path fill="#222E63" d="M153.389,429.156h-42.175v-42.175h42.175V429.156z M116.214,424.156h32.175v-32.175h-32.175V424.156z"/>
<rect x="165.054" y="389.482" fill="#FFFFFF" width="37.175" height="37.174"/>
<path fill="#222E63" d="M204.729,429.156h-42.175v-42.175h42.175V429.156z M167.554,424.156h32.175v-32.175h-32.175V424.156z"/>
<rect x="213.732" y="389.482" fill="#FFFFFF" width="37.175" height="37.174"/>
<path fill="#222E63" d="M253.407,429.156h-42.175v-42.175h42.175V429.156z M216.232,424.156h32.175v-32.175h-32.175V424.156z"/>
<rect x="113.714" y="437.275" fill="#FFFFFF" width="37.175" height="37.174"/>
<path fill="#222E63" d="M153.389,476.949h-42.175v-42.174h42.175V476.949z M116.214,471.949h32.175v-32.174h-32.175V471.949z"/>
<rect x="165.054" y="437.275" fill="#FFFFFF" width="37.175" height="37.174"/>
<path fill="#222E63" d="M204.729,476.949h-42.175v-42.174h42.175V476.949z M167.554,471.949h32.175v-32.174h-32.175V471.949z"/>
<rect x="213.732" y="437.275" fill="#FFFFFF" width="37.175" height="37.174"/>
<path fill="#222E63" d="M253.407,476.949h-42.175v-42.174h42.175V476.949z M216.232,471.949h32.175v-32.174h-32.175V471.949z"/>
<rect x="91.682" y="506.502" fill="#FFFFFF" width="178.279" height="23.034"/>
<path fill="#222E63" d="M530.768,115.635H335.466c-1.403,0-2.541,1.138-2.541,2.541v28.042c0,1.403,1.138,2.541,2.541,2.541h4.803
	v380.778c0,0.296,0.061,0.577,0.154,0.841c0.348,0.988,1.28,1.7,2.387,1.7l0,0h180.273l0,0c1.403,0,2.541-1.138,2.541-2.541V148.758
	h5.145c1.403,0,2.541-1.138,2.541-2.541v-28.041C533.309,116.772,532.171,115.635,530.768,115.635z M520.541,492.671H345.35V148.758
	h175.191V492.671z M520.541,497.753v29.242H345.35v-29.242H520.541z M528.227,143.677H338.006v-22.96h190.221V143.677z"/>
<path fill="#222E63" d="M277.973,200.488H82.671c-1.403,0-2.541,1.138-2.541,2.541v28.042c0,1.403,1.138,2.541,2.541,2.541h6.47
	v272.889c0,0.001,0,0.001,0,0.002v23.034c0,0.957,0.536,1.781,1.317,2.214c0.364,0.202,0.777,0.327,1.223,0.327l0,0H269.96l0,0
	c1.403,0,2.541-1.138,2.541-2.541V233.612h5.471c1.403,0,2.541-1.138,2.541-2.541v-28.042
	C280.513,201.626,279.376,200.488,277.973,200.488z M267.42,503.962H94.223v-270.35H267.42V503.962z M267.42,509.043v17.952H94.223
	v-17.952H267.42z M275.432,228.53H85.212v-22.96h190.22V228.53z"/>
</svg>
