<?xml version="1.0" encoding="utf-8"?>
<!-- Generator: Adobe Illustrator 17.0.0, SVG Export Plug-In . SVG Version: 6.00 Build 0)  -->
<!DOCTYPE svg PUBLIC "-//W3C//DTD SVG 1.1//EN" "http://www.w3.org/Graphics/SVG/1.1/DTD/svg11.dtd">
<svg version="1.1" id="图层_1" xmlns="http://www.w3.org/2000/svg" xmlns:xlink="http://www.w3.org/1999/xlink" x="0px" y="0px"
	 width="613.34px" height="552.34px" viewBox="-6.34 -4.183 613.34 552.34" enable-background="new -6.34 -4.183 613.34 552.34"
	 xml:space="preserve">
<g>
	<rect x="-3.67" y="-1.513" fill="#FFFFFF" width="608" height="547"  id = "border"/>
	<path fill="#222E63" d="M604.33,548.157h-608c-1.475,0-2.67-1.195-2.67-2.67v-547c0-1.475,1.195-2.67,2.67-2.67h608
		c1.475,0,2.67,1.195,2.67,2.67v547C607,546.962,605.805,548.157,604.33,548.157z M-1,542.817h602.66V1.157H-1V542.817z"/>
</g>
<g>
	<rect x="12.83" y="13.331" fill="#FFFFFF" width="575" height="517.311"/>
	<path fill="#222E63" d="M587.83,533.312h-575c-1.475,0-2.67-1.195-2.67-2.67V13.332c0-1.475,1.195-2.67,2.67-2.67h575
		c1.475,0,2.67,1.195,2.67,2.67v517.311C590.5,532.117,589.305,533.312,587.83,533.312z M15.5,527.973h569.66V16.001H15.5V527.973z"
		/>
</g>
<path fill="#FFFFFF" d="M583.623,426.167c-31.327-21.588-68.418-38.843-108.591-42.945
	c-97.773-9.985-153.931,103.353-203.356,145.356h311.948L583.623,426.167L583.623,426.167z"/>
<path fill="#222E63" d="M583.623,531.168H271.675c-1.086,0-2.057-0.678-2.432-1.697c-0.375-1.019-0.074-2.164,0.754-2.868
	c13.076-11.113,26.902-27.608,41.54-45.072c37.911-45.23,85.093-101.521,151.429-101.521c4.064,0,8.212,0.213,12.327,0.633
	c36.483,3.726,73.424,18.324,109.797,43.389c0.702,0.484,1.121,1.281,1.121,2.133v102.411
	C586.213,530.008,585.054,531.168,583.623,531.168z M278.465,525.987h302.567v-98.456c-35.283-24.094-71.03-38.134-106.263-41.733
	c-3.941-0.402-7.911-0.606-11.801-0.606c-28.393,0-55.595,10.659-83.159,32.585c-24.224,19.269-45.516,44.671-64.3,67.082
	C302.595,500.267,290.306,514.928,278.465,525.987z"/>
<path fill="#FFFFFF" d="M17.804,531.518h563.563c-20.538-37.129-132.296-144.084-292.956-156.692
	C155.181,364.371,85.052,460.1,17.804,514.961V531.518z"/>
<path fill="#222E63" d="M581.367,534.109H17.804c-1.431,0-2.591-1.16-2.591-2.591v-16.557c0-0.779,0.35-1.516,0.953-2.008
	c12.62-10.295,25.257-21.958,38.635-34.306c54.444-50.249,116.154-107.203,213.697-107.203c6.596,0,13.364,0.269,20.116,0.799
	c163.599,12.839,275.03,121.885,295.019,158.021c0.444,0.802,0.431,1.78-0.035,2.57
	C583.133,533.624,582.285,534.109,581.367,534.109z M20.395,528.927h556.412c-12.802-20.134-45.305-53.152-90.786-82.78
	c-42.37-27.601-111.082-61.932-197.812-68.739c-6.618-0.519-13.25-0.783-19.71-0.783c-95.518,0-156.436,56.224-210.183,105.829
	c-13.104,12.094-25.497,23.533-37.921,33.733C20.395,516.187,20.395,528.927,20.395,528.927z"/>
<polygon fill="#FFFFFF" points="452.085,269.353 472.452,288.104 492.816,306.853 452.085,306.853 411.358,306.853 431.718,288.104 
	"/>
<path fill="#222E63" d="M492.816,309.444h-81.458c-1.067,0-2.025-0.655-2.414-1.649c-0.388-0.994-0.126-2.125,0.659-2.848
	l40.727-37.5c0.991-0.913,2.517-0.913,3.51,0l40.73,37.5c0.785,0.723,1.046,1.854,0.659,2.848
	C494.841,308.789,493.883,309.444,492.816,309.444z M417.996,304.262h68.181l-34.091-31.388L417.996,304.262z"/>
<rect x="417.892" y="306.853" fill="#FFFFFF" width="68.386" height="97.066"/>
<path fill="#222E63" d="M486.278,406.509h-68.386c-1.431,0-2.591-1.16-2.591-2.591v-97.065c0-1.431,1.16-2.591,2.591-2.591h68.386
	c1.431,0,2.591,1.16,2.591,2.591v97.065C488.869,405.349,487.709,406.509,486.278,406.509z M420.483,401.328h63.205v-91.884h-63.205
	L420.483,401.328L420.483,401.328z"/>
<rect x="417.892" y="306.853" fill="#FFFFFF" width="68.386" height="9.851"/>
<path fill="#222E63" d="M486.278,319.294h-68.386c-1.431,0-2.591-1.16-2.591-2.591v-9.85c0-1.431,1.16-2.591,2.591-2.591h68.386
	c1.431,0,2.591,1.16,2.591,2.591v9.85C488.869,318.134,487.709,319.294,486.278,319.294z M420.483,314.113h63.205v-4.669h-63.205
	L420.483,314.113L420.483,314.113z"/>
<circle fill="#FFFFFF" cx="452.085" cy="339.721" r="8.272"/>
<path fill="#222E63" d="M452.086,350.586c-5.99,0-10.863-4.874-10.863-10.865c0-5.99,4.874-10.863,10.863-10.863
	s10.863,4.873,10.863,10.863C462.949,345.712,458.075,350.586,452.086,350.586z M452.086,334.04c-3.133,0-5.682,2.549-5.682,5.681
	c0,3.134,2.549,5.684,5.682,5.684s5.682-2.55,5.682-5.684C457.767,336.589,455.218,334.04,452.086,334.04z"/>
<polygon fill="#FFFFFF" points="445.739,370.279 442.158,370.279 442.158,403.919 445.739,403.919 462.01,403.919 462.01,370.279 
	"/>
<path fill="#222E63" d="M463.51,405.419h-22.852v-36.64h22.852V405.419z M443.658,402.419h16.852v-30.64h-16.852V402.419z"/>
<rect x="355.269" y="288.876" transform="matrix(0.7091 0.7051 -0.7051 0.7091 335.7581 -234.44)" fill="#222E63" width="193.48" height="1.654"/>
<rect x="451.315" y="192.382" transform="matrix(0.698 0.7161 -0.7161 0.698 342.9443 -236.734)" fill="#222E63" width="1.654" height="191.685"/>
<g>
	<path fill="#222E63" d="M477.652,279.812l-15.364-15.364l51.46-51.465l15.363,15.37L477.652,279.812z M465.003,264.448
		l12.649,12.649l48.745-48.744l-12.648-12.656L465.003,264.448z"/>
</g>
<g>
	
		<rect x="505.586" y="225.647" transform="matrix(0.707 0.7073 -0.7073 0.707 311.3315 -298.1805)" fill="#222E63" width="19.815" height="1.92"/>
</g>
<g>
	
		<rect x="500.628" y="230.621" transform="matrix(0.7071 0.7071 -0.7071 0.7071 313.2845 -293.1734)" fill="#222E63" width="19.813" height="1.92"/>
</g>
<g>
	
		<rect x="495.603" y="235.619" transform="matrix(0.7072 0.707 -0.707 0.7072 315.2722 -288.1286)" fill="#222E63" width="19.81" height="1.92"/>
</g>
<g>
	
		<rect x="490.629" y="240.598" transform="matrix(0.7072 0.707 -0.707 0.7072 317.3363 -283.1551)" fill="#222E63" width="19.812" height="1.92"/>
</g>
<g>
	
		<rect x="485.685" y="245.567" transform="matrix(0.7071 0.7071 -0.7071 0.7071 319.4753 -278.2281)" fill="#222E63" width="19.808" height="1.92"/>
</g>
<g>
	
		<rect x="480.702" y="250.547" transform="matrix(0.7071 0.7071 -0.7071 0.7071 321.5377 -273.247)" fill="#222E63" width="19.811" height="1.92"/>
</g>
<g>
	
		<rect x="475.68" y="255.545" transform="matrix(0.7072 0.707 -0.707 0.7072 323.5261 -268.2079)" fill="#222E63" width="19.808" height="1.92"/>
</g>
<g>
	
		<rect x="470.674" y="260.538" transform="matrix(0.7071 0.7071 -0.7071 0.7071 325.6662 -263.2323)" fill="#222E63" width="19.818" height="1.92"/>
</g>
<g>
	
		<rect x="465.705" y="265.516" transform="matrix(0.7072 0.707 -0.707 0.7072 327.6553 -258.2371)" fill="#222E63" width="19.81" height="1.92"/>
</g>
<g>
	<path fill="#222E63" d="M470.651,271.456"/>
</g>
<g>
	<path fill="#222E63" d="M520.753,221.347"/>
</g>
<g>
	<path fill="#222E63" d="M513.604,366.272l-51.457-51.458l15.364-15.368l51.465,51.465L513.604,366.272z M464.862,314.814
		l48.743,48.745l12.657-12.648l-48.75-48.75L464.862,314.814z"/>
</g>
<g>
	
		<rect x="514.391" y="342.748" transform="matrix(0.7071 0.7071 -0.7071 0.7071 400.3076 -261.1175)" fill="#222E63" width="1.92" height="19.815"/>
</g>
<g>
	
		<rect x="509.407" y="337.762" transform="matrix(0.7071 0.7071 -0.7071 0.7071 395.3215 -259.0546)" fill="#222E63" width="1.92" height="19.812"/>
</g>
<g>
	
		<rect x="504.429" y="332.783" transform="matrix(0.7071 0.7071 -0.7071 0.7071 390.342 -256.993)" fill="#222E63" width="1.92" height="19.811"/>
</g>
<g>
	
		<rect x="499.446" y="327.802" transform="matrix(0.7071 0.7071 -0.7071 0.7071 385.3596 -254.929)" fill="#222E63" width="1.92" height="19.808"/>
</g>
<g>
	
		<rect x="494.428" y="322.823" transform="matrix(0.7071 0.7071 -0.7071 0.7071 380.369 -252.8387)" fill="#222E63" width="1.919" height="19.807"/>
</g>
<g>
	
		<rect x="489.486" y="317.831" transform="matrix(0.7071 0.7071 -0.7071 0.7071 375.3949 -250.8049)" fill="#222E63" width="1.92" height="19.816"/>
</g>
<g>
	
		<rect x="484.496" y="312.852" transform="matrix(0.7071 0.7071 -0.7071 0.7071 370.4105 -248.7359)" fill="#222E63" width="1.92" height="19.811"/>
</g>
<g>
	
		<rect x="479.543" y="307.861" transform="matrix(0.7071 0.7071 -0.7071 0.7071 365.4317 -246.6946)" fill="#222E63" width="1.919" height="19.814"/>
</g>
<g>
	
		<rect x="474.562" y="302.884" transform="matrix(0.7071 0.7071 -0.7071 0.7071 360.4514 -244.631)" fill="#222E63" width="1.919" height="19.807"/>
</g>
<g>
	<path fill="#222E63" d="M470.505,307.808"/>
</g>
<g>
	<path fill="#222E63" d="M520.611,357.916"/>
</g>
<g>
	<path fill="#222E63" d="M390.557,364.114l-15.368-15.363l51.463-51.463l15.364,15.367L390.557,364.114z M377.904,348.751
		l12.654,12.648l48.744-48.744l-12.649-12.653L377.904,348.751z"/>
</g>
<g>
	
		<rect x="378.934" y="349.537" transform="matrix(0.7071 0.7071 -0.7071 0.7071 361.7274 -172.295)" fill="#222E63" width="19.817" height="1.919"/>
</g>
<g>
	
		<rect x="383.889" y="344.55" transform="matrix(0.7073 0.707 -0.707 0.7073 359.5414 -177.2506)" fill="#222E63" width="19.813" height="1.92"/>
</g>
<g>
	
		<rect x="388.864" y="339.571" transform="matrix(0.7069 0.7073 -0.7073 0.7069 357.7365 -182.2447)" fill="#222E63" width="19.811" height="1.92"/>
</g>
<g>
	
		<rect x="393.831" y="334.589" transform="matrix(0.7069 0.7073 -0.7073 0.7069 355.6685 -187.2191)" fill="#222E63" width="19.813" height="1.92"/>
</g>
<g>
	
		<rect x="398.85" y="329.6" transform="matrix(0.7071 0.7071 -0.7071 0.7071 353.4626 -192.2143)" fill="#222E63" width="19.809" height="1.92"/>
</g>
<g>
	
		<rect x="403.798" y="324.624" transform="matrix(0.7071 0.7071 -0.7071 0.7071 351.3938 -197.1726)" fill="#222E63" width="19.814" height="1.92"/>
</g>
<g>
	
		<rect x="408.807" y="319.638" transform="matrix(0.7069 0.7073 -0.7073 0.7069 349.4829 -202.1927)" fill="#222E63" width="19.811" height="1.92"/>
</g>
<g>
	
		<rect x="413.765" y="314.658" transform="matrix(0.707 0.7072 -0.7072 0.707 347.3403 -207.1508)" fill="#222E63" width="19.817" height="1.92"/>
</g>
<g>
	
		<rect x="418.739" y="309.681" transform="matrix(0.707 0.7072 -0.7072 0.707 345.2767 -212.1226)" fill="#222E63" width="19.805" height="1.92"/>
</g>
<g>
	<path fill="#222E63" d="M433.66,305.649"/>
</g>
<g>
	<path fill="#222E63" d="M383.552,355.756"/>
</g>
<g>
	<path fill="#222E63" d="M426.512,279.953l-51.462-51.458l15.366-15.368l51.462,51.464L426.512,279.953z M377.764,228.495
		l48.747,48.744l12.651-12.648l-48.747-48.749L377.764,228.495z"/>
</g>
<g>
	
		<rect x="387.736" y="216.836" transform="matrix(0.7071 0.7071 -0.7071 0.7071 274.1778 -208.4377)" fill="#222E63" width="1.919" height="19.814"/>
</g>
<g>
	
		<rect x="392.697" y="221.826" transform="matrix(0.7071 0.7071 -0.7071 0.7071 279.1594 -210.4848)" fill="#222E63" width="1.92" height="19.813"/>
</g>
<g>
	
		<rect x="397.675" y="226.809" transform="matrix(0.7071 0.7071 -0.7071 0.7071 284.1388 -212.5457)" fill="#222E63" width="1.92" height="19.808"/>
</g>
<g>
	
		<rect x="402.66" y="231.789" transform="matrix(0.7071 0.7071 -0.7071 0.7071 289.1219 -214.6115)" fill="#222E63" width="1.92" height="19.813"/>
</g>
<g>
	
		<rect x="407.644" y="236.775" transform="matrix(0.7071 0.7071 -0.7071 0.7071 294.1045 -216.6762)" fill="#222E63" width="1.92" height="19.805"/>
</g>
<g>
	
		<rect x="412.599" y="241.759" transform="matrix(0.7071 0.7071 -0.7071 0.7071 299.0826 -218.7191)" fill="#222E63" width="1.919" height="19.813"/>
</g>
<g>
	
		<rect x="417.608" y="246.74" transform="matrix(0.7071 0.7071 -0.7071 0.7071 304.0712 -220.8024)" fill="#222E63" width="1.92" height="19.811"/>
</g>
<g>
	
		<rect x="422.59" y="251.723" transform="matrix(0.7071 0.7071 -0.7071 0.7071 309.0565 -222.865)" fill="#222E63" width="1.92" height="19.818"/>
</g>
<g>
	
		<rect x="427.571" y="256.706" transform="matrix(0.7071 0.7071 -0.7071 0.7071 314.0353 -224.9289)" fill="#222E63" width="1.92" height="19.808"/>
</g>
<g>
	<path fill="#222E63" d="M433.515,271.597"/>
</g>
<g>
	<path fill="#222E63" d="M383.411,221.49"/>
</g>
<path fill="#FFFFFF" d="M446.681,289.556c0-2.545,2.065-4.614,4.616-4.614c2.547,0,4.614,2.069,4.614,4.614
	c0,2.547-2.067,4.616-4.614,4.616C448.746,294.172,446.681,292.103,446.681,289.556z"/>
<path fill="#222E63" d="M451.298,296.763c-3.974,0-7.208-3.233-7.208-7.207c0-3.973,3.233-7.205,7.208-7.205
	c3.972,0,7.205,3.232,7.205,7.205C458.503,293.53,455.27,296.763,451.298,296.763z M451.298,287.533
	c-1.117,0-2.026,0.908-2.026,2.023c0,1.117,0.909,2.026,2.026,2.026c1.115,0,2.023-0.909,2.023-2.026
	C453.321,288.44,452.413,287.533,451.298,287.533z"/>
<path fill="#FFFFFF" d="M470.567,161.676c-0.984-0.293-1.978-0.494-3.002-0.581c4.141-8.911-4.112-18.662-12.871-19.778
	c-7.132-0.909-15.918,2.726-16.316,10.856c-5.441-0.943-13.3,5.894-9.783,11.526c-10.34,2.37-14.352,17.708-4.269,23.056
	c4.487,2.38,10.827,2.349,15.391,0.156c4.46,3.612,11.86,2.203,13.959-3.351c6.972,4.414,18.115,5.104,24.185-1.386
	C484.344,175.246,478.635,164.082,470.567,161.676C470.058,161.525,476.781,163.529,470.567,161.676z"/>
<path fill="#222E63" d="M445.487,191.495c-2.164,0-4.268-0.575-6.066-1.641c-2.239,0.844-4.738,1.286-7.317,1.286
	c-3.299,0-6.409-0.725-8.993-2.095c-5.232-2.775-7.876-8.071-7.071-14.166c0.756-5.729,4.327-10.557,9.216-12.772
	c-0.333-1.921,0.032-3.954,1.096-5.873c1.963-3.539,5.936-6.198,9.785-6.666c1.712-7.218,9.176-10.979,16.376-10.979
	c0.845,0,1.69,0.053,2.508,0.157c5.727,0.73,11.301,4.596,14.201,9.848c1.881,3.408,2.465,7.04,1.729,10.497
	c0.109,0.03,0.219,0.062,0.329,0.095l0.004,0.001l0,0c0.004,0.002,0.008,0.002,0.011,0.004c0.004,0.001,0.008,0.002,0.01,0.003
	l2.65,0.791l-0.021,0.072c0.828,0.34,1.404,0.714,1.696,1.242c3.383,2.323,6.028,5.929,7.104,9.923
	c1.268,4.704,0.18,9.342-2.983,12.725c-3.382,3.615-8.38,5.607-14.07,5.607h-0.001c-3.762,0-7.644-0.89-11.002-2.487
	C452.618,189.822,449.256,191.495,445.487,191.495z M439.717,184.322c0.583,0,1.16,0.196,1.631,0.577
	c1.126,0.912,2.596,1.414,4.139,1.414c2.02,0,4.743-0.96,5.766-3.667c0.275-0.728,0.863-1.294,1.601-1.541
	c0.741-0.247,1.551-0.148,2.207,0.268c3.011,1.905,6.882,2.998,10.621,2.998h0.001c4.242,0,7.895-1.408,10.285-3.965
	c2.487-2.66,2.333-5.73,1.765-7.837c-1.041-3.863-4.283-7.319-7.883-8.403l-0.003-0.001c-0.891-0.264-1.696-0.42-2.503-0.489
	c-0.843-0.072-1.598-0.55-2.022-1.282c-0.425-0.732-0.464-1.625-0.108-2.392c1.657-3.566,0.627-6.81-0.529-8.904
	c-2.094-3.794-6.242-6.692-10.32-7.212c-0.602-0.077-1.225-0.116-1.853-0.116c-4.475,0-11.242,2.271-11.548,8.529
	c-0.037,0.741-0.389,1.432-0.968,1.895c-0.58,0.464-1.327,0.657-2.062,0.53c-0.19-0.033-0.395-0.05-0.609-0.05
	c-2.307,0-5.198,1.826-6.442,4.071c-1.095,1.974-0.34,3.184-0.092,3.581c0.443,0.711,0.516,1.592,0.195,2.366
	c-0.321,0.774-0.998,1.344-1.814,1.531c-4.793,1.098-7.504,5.607-7.996,9.332c-0.244,1.854-0.309,6.433,4.362,8.91
	c1.813,0.962,4.145,1.491,6.565,1.491c2.331,0,4.637-0.49,6.49-1.381C438.953,184.406,439.335,184.322,439.717,184.322z"/>
<path fill="#FFFFFF" d="M82.711,77.701c-0.05-0.008-0.093-0.014-0.133-0.021C82.619,77.687,82.663,77.694,82.711,77.701z"/>
<path fill="#222E63" d="M82.714,80.292c-0.133,0-0.266-0.01-0.401-0.031l-0.023-0.004l-0.108-0.017
	c-1.413-0.219-2.381-1.539-2.164-2.952c0.215-1.413,1.527-2.384,2.948-2.17l0.129,0.02c1.413,0.222,2.388,1.548,2.167,2.961
	C85.062,79.378,83.967,80.292,82.714,80.292z"/>
<path fill="#FFFFFF" d="M82.462,77.663c-0.039-0.006-0.071-0.011-0.093-0.014C82.392,77.652,82.424,77.657,82.462,77.663z"/>
<path fill="#222E63" d="M82.462,80.254c-0.119,0-0.241-0.009-0.363-0.026l0,0c-0.002,0-0.003-0.001-0.003-0.001
	s-0.012-0.002-0.019-0.002c0.002-0.001-0.009-0.001-0.015-0.002c-0.009-0.002-0.024-0.004-0.037-0.006l0,0
	c-0.011-0.002-0.023-0.004-0.031-0.005c-0.006-0.001-0.008,0-0.018-0.003c-0.062-0.008-0.022-0.004-0.022-0.004
	c-1.413-0.23-2.371-1.559-2.143-2.97c0.227-1.411,1.55-2.372,2.967-2.145l0.008,0.001l0,0l0,0l0,0l0,0c0.002,0,0.003,0,0.003,0
	h0.002c0.059,0.009,0.117,0.021,0.174,0.034c0,0,0.002,0,0.004,0.001h0.001c0,0,0.002,0,0.003,0.001h0.001l0.004,0.001
	c0.002,0,0.003,0.001,0.003,0.001l0.006,0.001l0.004,0.001l0.005,0.001c0,0,0.002,0.001,0.004,0.001h0.001
	c0.002,0.001,0.004,0,0.004,0.001c0,0,0.003,0,0.004,0.001l0,0c0,0,0.003,0.001,0.004,0.001l0,0
	c1.265,0.314,2.144,1.531,1.983,2.836c0,0,0,0,0,0.001c0,0.002-0.001,0.004-0.001,0.005s0,0.003,0,0.005
	c0.002,0.002,0,0.003-0.001,0.005v0.001c-0.003,0.024-0.007,0.048-0.01,0.072c-0.001,0.005-0.002,0.01-0.002,0.016
	c-0.001,0-0.002,0.002-0.001,0.003c-0.203,1.231-1.216,2.125-2.415,2.173l0,0c0,0-0.005,0-0.007,0l0,0
	C82.525,80.253,82.494,80.254,82.462,80.254z"/>
<path fill="#FFFFFF" d="M85.153,78.081c-0.529-0.082-1.793-0.279-2.442-0.379C83.122,77.765,83.886,77.884,85.153,78.081z"/>
<path fill="#222E63" d="M85.156,80.672c-0.132,0-0.265-0.01-0.4-0.031l-0.008-0.001c-0.001,0-0.001,0-0.002,0l0,0h-0.004H84.74l0,0
	l0,0l-0.004-0.001c0,0-0.002,0-0.004-0.001h-0.003h-0.001l-2.416-0.375c-1.414-0.22-2.381-1.544-2.162-2.957
	c0.221-1.413,1.545-2.38,2.957-2.163l2.416,0.375h0.002h0.001l0,0l0,0l0,0c0.001,0,0.001,0,0.001,0
	c0.005,0.001,0.004,0.001,0.004,0.001h0.004c0.573,0.089,1.074,0.359,1.452,0.743c0.002,0.001,0.003,0.003,0.004,0.004
	c0.001,0,0.001,0.001,0.001,0.001c0.448,0.457,0.725,1.075,0.744,1.74c0.004,0.155-0.006,0.313-0.03,0.472
	C87.508,79.756,86.41,80.672,85.156,80.672z"/>
<path fill="#FFFFFF" d="M85.159,78.082c-0.002,0-0.004-0.001-0.004-0.001S85.157,78.082,85.159,78.082z"/>
<path fill="#222E63" d="M85.162,80.673c-0.141,0-0.284-0.012-0.427-0.035c-0.029-0.005-0.059-0.01-0.088-0.016
	c-0.036-0.007-0.072-0.015-0.108-0.024l0,0c-0.001,0-0.002,0-0.002,0h-0.002c-0.001,0,0.03,0.006-0.005-0.001h-0.001l-0.004-0.001
	l0,0c0,0-0.003-0.001-0.004-0.001c-1.177-0.296-1.961-1.352-1.961-2.512c0.001-0.208,0.026-0.421,0.079-0.632
	c0.337-1.343,1.666-2.177,3.01-1.911c0.046,0.009,0.093,0.019,0.138,0.031c1.349,0.337,2.192,1.68,1.908,3.042
	C87.442,79.828,86.368,80.673,85.162,80.673z"/>
<path fill="#FFFFFF" d="M82.578,77.681c-0.044-0.007-0.082-0.013-0.116-0.018C82.494,77.668,82.534,77.674,82.578,77.681z"/>
<path fill="#222E63" d="M82.581,80.272c-0.116,0-0.234-0.008-0.353-0.024l0,0c-0.001,0-0.002,0-0.003,0h-0.003h-0.001h-0.003
	c0,0,0.029-0.001-0.003,0h-0.001h-0.002H82.21c-0.001,0,0.037,0-0.004,0h-0.001c-0.002,0-0.003,0-0.003,0s0.045,0.001-0.004,0
	c0,0-0.001,0-0.002,0h-0.001h-0.003l0,0h-0.003h-0.001c0,0-0.006,0.003-0.003,0c-0.001,0,0.028,0.003-0.004,0l0,0
	c-0.001,0,0.001,0.004-0.003,0l-0.007-0.001l-0.049-0.008c0,0-0.009-0.001-0.013-0.002l-0.045-0.008
	c-1.383-0.247-2.35-1.558-2.134-2.952c0.219-1.414,1.528-2.39,2.924-2.168l0.125,0.019c1.413,0.223,2.379,1.549,2.156,2.962
	C84.936,79.361,83.835,80.272,82.581,80.272z"/>
<path fill="#FFFFFF" d="M85.346,78.111C85.405,78.12,85.407,78.12,85.346,78.111L85.346,78.111z"/>
<path fill="#222E63" d="M85.391,80.708c-0.12,0-0.278-0.014-0.405-0.032l0,0c-0.005-0.001-0.009-0.002-0.014-0.002
	c-0.009-0.001-0.017-0.003-0.026-0.004c-1.412-0.221-2.379-1.543-2.161-2.956c0.209-1.35,1.427-2.295,2.767-2.187h0.002
	c0.001,0,0.003,0,0.004,0l0,0c0.059,0.005,0.118,0.012,0.176,0.021l0,0c0.001,0,0.002,0,0.002,0h0.002l0,0l0.004,0.001h0.004
	c1.335,0.208,2.331,1.415,2.228,2.763C87.872,79.665,86.746,80.708,85.391,80.708z"/>
<path fill="#FFFFFF" d="M233.492,105.153c-4.407-10.5-18.046-20.05-35.19-21.744c-4.047-0.4-8.177-0.347-12.156,0.155
	c-1.963,0.248-4.007,1.125-5.611,0.267c-1.66-0.887-3.456-1.665-5.346-2.329c-8.544-2.999-19.098-3.747-28.243-2.006
	c-3.124-8.393-13.297-16.082-27.078-17.251c-16.314-1.383-29.362,6.635-29.978,16.982c-1.492-0.483-3.056-0.886-4.674-1.138
	C70.087,75.74,58.998,90.2,69.342,97.263c-20.576,4.672-23.953,22.674-14.024,33.972c8.647,9.828,29.949,16.595,45.883,10.537
	c0.413,6.24,11.69,8.929,18.209,4.467c4.799,6.318,15.938,9.373,26.261,8.3c10.401-1.08,18.356-6.796,20.804-13.205
	c15.271,5.726,38.106,2.35,51.083-3.958C232.496,130.114,238.426,116.907,233.492,105.153z"/>
<path fill="#222E63" d="M141.563,157.341c-9.41,0-17.858-2.951-22.715-7.818c-2.134,0.989-4.603,1.519-7.154,1.519
	c-5.594,0-10.265-2.419-12.172-5.976c-3.607,1.058-7.511,1.592-11.647,1.592c-13.211,0-27.397-5.639-34.502-13.712
	c-5.522-6.283-7.391-14.437-5.002-21.812c2.27-7.01,7.904-12.286,16.065-15.156c-1.727-2.605-2.189-5.714-1.213-8.876
	c1.82-5.893,8.833-11.858,18.714-11.858c1.218,0,2.454,0.096,3.677,0.286c0.726,0.113,1.455,0.254,2.195,0.427
	c2.565-9.573,14.102-16.457,28.413-16.457c1.275,0,2.576,0.055,3.865,0.165c12.823,1.088,23.932,7.789,28.428,16.939
	c2.762-0.412,5.636-0.621,8.573-0.621c6.67,0,13.226,1.064,18.959,3.076c2.035,0.714,3.955,1.551,5.708,2.488
	c0.076,0.04,0.22,0.062,0.407,0.062c0.487,0,1.145-0.139,1.841-0.286c0.579-0.122,1.178-0.249,1.817-0.329
	c4.151-0.524,8.515-0.581,12.736-0.163c17.183,1.698,32.182,11.07,37.325,23.32c5.582,13.301-1.487,27.922-17.192,35.556
	c-9.074,4.411-21.989,7.152-33.705,7.152h-0.001c-6.412,0-12.172-0.782-17.162-2.327c-3.753,6.642-12.195,11.579-21.884,12.585
	C144.502,157.265,143.03,157.341,141.563,157.341z M119.407,143.648c0.784,0,1.557,0.355,2.065,1.024
	c3.456,4.549,11.342,7.488,20.091,7.488c1.289,0,2.58-0.066,3.839-0.197c8.731-0.907,16.4-5.657,18.652-11.553
	c0.508-1.331,1.996-2.002,3.33-1.502c4.83,1.811,10.916,2.768,17.6,2.768c10.98,0,23.027-2.541,31.441-6.63
	c13.316-6.473,19.215-18.083,14.679-28.89c-4.358-10.382-17.952-18.676-33.057-20.169c-3.836-0.38-7.808-0.328-11.576,0.148
	c-0.427,0.054-0.898,0.154-1.397,0.258c-0.883,0.186-1.884,0.397-2.911,0.397c-1.055,0-2.013-0.227-2.849-0.674
	c-1.52-0.812-3.196-1.542-4.983-2.169c-5.187-1.821-11.15-2.784-17.242-2.784c-3.348,0-6.598,0.295-9.659,0.878
	c-1.232,0.235-2.471-0.457-2.912-1.641c-3.556-9.552-15.384-14.769-24.868-15.573c-1.145-0.097-2.298-0.146-3.428-0.146
	c-12.825,0-23.255,6.457-23.745,14.701c-0.047,0.8-0.463,1.534-1.126,1.986c-0.661,0.452-1.495,0.572-2.259,0.325
	c-1.507-0.488-2.905-0.829-4.274-1.042c-0.96-0.149-1.929-0.225-2.881-0.225c-7.294,0-12.535,4.228-13.763,8.206
	c-0.784,2.537,0.125,4.782,2.63,6.491c0.851,0.581,1.276,1.611,1.084,2.623c-0.192,1.013-0.967,1.814-1.972,2.043
	c-8.647,1.964-14.549,6.56-16.615,12.942c-1.82,5.619-0.338,11.897,3.965,16.793c6.093,6.925,18.966,11.952,30.61,11.952
	c4.519,0,8.693-0.716,12.405-2.127c0.77-0.292,1.629-0.202,2.321,0.241c0.691,0.444,1.131,1.189,1.185,2.009
	c0.155,2.349,3.702,4.26,7.908,4.26c2.374,0,4.594-0.625,6.252-1.76C118.392,143.796,118.902,143.648,119.407,143.648z"/>
<path fill="#FFFFFF" d="M82.368,77.648C82.3,77.638,82.293,77.636,82.368,77.648L82.368,77.648z"/>
<path fill="#222E63" d="M82.372,80.239c-0.13,0-0.262-0.01-0.395-0.03c-0.016-0.003-0.031-0.005-0.047-0.008l0,0l0,0
	c-1.315-0.226-2.299-1.424-2.198-2.758c0.112-1.469,1.407-2.583,2.988-2.362l0,0c0.007,0.001,0.012,0.002,0.019,0.003
	c0.01,0.001,0.02,0.003,0.03,0.005c1.412,0.221,2.379,1.543,2.161,2.956C84.731,79.324,83.628,80.239,82.372,80.239z"/>
<path fill="#FFFFFF" d="M85.159,78.082c0.02,0.003,0.036,0.006,0.056,0.009c0.062,0.01,0.101,0.016,0.131,0.02
	C85.306,78.105,85.243,78.095,85.159,78.082z"/>
<path fill="#222E63" d="M85.348,80.702c-0.13,0-0.262-0.01-0.394-0.03l0.001-0.006h-0.004l-0.001,0.006c0,0-0.006-0.001-0.012-0.002
	l-0.12-0.018c-0.009-0.001-0.017-0.003-0.027-0.004c-0.004-0.001-0.01-0.001-0.014-0.002c-0.006-0.001-0.012-0.002-0.012-0.002
	c-1.414-0.219-2.383-1.541-2.165-2.955c0.217-1.413,1.533-2.383,2.953-2.166h0.004l0,0c0.004,0,0.007,0.001,0.01,0.002
	c0,0,0.001,0,0.002,0l0,0c0-0.001,0.011,0.002,0.011,0.002l0.01,0.001h0.003c0.025,0.004,0.111,0.017,0.112,0.017
	c0.005,0.001,0.009,0.001,0.013,0.002l0.005,0.001c1.403,0.228,2.381,1.548,2.164,2.956C87.689,79.783,86.602,80.702,85.348,80.702z
	"/>
<rect x="141.847" y="199.928" fill="#FFFFFF" width="26.017" height="58.275"/>
<path fill="#222E63" d="M167.864,260.794h-26.017c-1.431,0-2.591-1.16-2.591-2.591v-58.275c0-1.431,1.16-2.591,2.591-2.591h26.017
	c1.431,0,2.591,1.16,2.591,2.591v58.275C170.455,259.634,169.295,260.794,167.864,260.794z M144.438,255.613h20.835v-53.094h-20.835
	L144.438,255.613L144.438,255.613z"/>
<path fill="#FFFFFF" d="M137.916,198.657c0,0.703,0.57,1.271,1.271,1.271h31.337c0.702,0,1.271-0.568,1.271-1.271v-10.162
	c0-0.703-0.569-1.271-1.271-1.271h-31.337c-0.701,0-1.271,0.569-1.271,1.271V198.657z"/>
<path fill="#222E63" d="M170.524,202.519h-31.338c-2.129,0-3.862-1.732-3.862-3.862v-10.161c0-2.13,1.732-3.862,3.862-3.862h31.338
	c2.129,0,3.862,1.733,3.862,3.862v10.161C174.386,200.787,172.654,202.519,170.524,202.519z M140.507,197.338h28.697v-7.522h-28.697
	V197.338z"/>
<rect x="72.509" y="270.541" fill="#FFFFFF" width="276.002" height="196.823"/>
<path fill="#222E63" d="M348.512,469.954H72.509c-1.431,0-2.591-1.16-2.591-2.591V270.541c0-1.431,1.16-2.591,2.591-2.591h276.003
	c1.431,0,2.591,1.16,2.591,2.591v196.823C351.102,468.794,349.942,469.954,348.512,469.954z M75.1,464.772h270.821V273.131H75.1
	V464.772z"/>
<polygon fill="#FFFFFF" points="352.063,273.662 68.959,273.662 133.828,219.882 287.195,219.882 "/>
<path fill="#222E63" d="M353.718,271.668l-64.869-53.78c-0.466-0.385-1.05-0.596-1.654-0.596H133.829
	c-0.604,0-1.189,0.211-1.654,0.596l-64.869,53.78c-0.841,0.697-1.155,1.846-0.784,2.873c0.37,1.027,1.345,1.712,2.437,1.712h283.104
	c1.092,0,2.067-0.685,2.439-1.712C354.872,273.514,354.559,272.365,353.718,271.668z M131.346,225.305h158.33l2.615,2.168h-163.56
	L131.346,225.305z M122.48,232.655h176.061l2.617,2.17H119.863L122.48,232.655z M113.612,240.007H307.41l2.617,2.17H110.995
	L113.612,240.007z M104.744,247.359h211.533l2.616,2.169H102.128L104.744,247.359z M95.878,254.71h229.267l2.617,2.17H93.26
	L95.878,254.71z M87.01,262.062h247.003l2.615,2.168H84.395L87.01,262.062z M76.143,271.071l2.236-1.854v0.195h264.265v-0.194
	l2.235,1.853H76.143z"/>
<polygon fill="#FFFFFF" points="130.591,277.915 210.511,199.261 290.431,277.915 "/>
<path fill="#222E63" d="M290.431,280.506h-159.84c-1.052,0-1.999-0.636-2.397-1.609c-0.399-0.973-0.17-2.091,0.58-2.828
	l79.92-78.655c1.008-0.993,2.627-0.993,3.635,0l79.921,78.655c0.75,0.737,0.979,1.855,0.58,2.828
	C292.43,279.87,291.483,280.506,290.431,280.506z M136.916,275.325h147.189l-73.594-72.429L136.916,275.325z"/>
<polygon fill="#FFFFFF" points="142.572,277.915 210.511,211.052 278.45,277.915 276.767,281.196 143.202,281.196 "/>
<path fill="#222E63" d="M272.733,275.574l-62.222-61.237l-62.222,61.237l-3.369,3.094l-2.348,1.589c-0.95,0-1.807-0.575-2.167-1.454
	c-0.361-0.88-0.153-1.889,0.525-2.556l67.939-66.864c0.909-0.896,2.372-0.896,3.284,0l67.938,66.864
	c0.678,0.668,0.885,1.677,0.524,2.556c-0.36,0.88-1.216,1.454-2.166,1.454l-2.152-1.311L272.733,275.574z"/>
<rect x="130.591" y="277.915" fill="#FFFFFF" width="11.981" height="187.652"/>
<path fill="#222E63" d="M142.572,468.158h-11.981c-1.431,0-2.591-1.16-2.591-2.591V277.915c0-1.431,1.16-2.591,2.591-2.591h11.981
	c1.431,0,2.591,1.16,2.591,2.591v187.652C145.162,466.998,144.003,468.158,142.572,468.158z M133.182,462.977h6.799v-182.47h-6.799
	V462.977z"/>
<rect x="278.45" y="277.915" fill="#FFFFFF" width="11.98" height="187.652"/>
<path fill="#222E63" d="M290.43,468.158h-11.98c-1.431,0-2.591-1.16-2.591-2.591V277.915c0-1.431,1.16-2.591,2.591-2.591h11.98
	c1.431,0,2.591,1.16,2.591,2.591v187.652C293.02,466.998,291.86,468.158,290.43,468.158z M281.041,462.977h6.798v-182.47h-6.798
	V462.977z"/>
<rect x="185.616" y="374.617" fill="#FFFFFF" width="49.79" height="90.95"/>
<path fill="#222E63" d="M235.406,468.158h-49.79c-1.431,0-2.591-1.16-2.591-2.591v-90.95c0-1.431,1.16-2.591,2.591-2.591h49.79
	c1.431,0,2.591,1.16,2.591,2.591v90.95C237.997,466.998,236.837,468.158,235.406,468.158z M188.207,462.977h44.609v-85.768h-44.609
	V462.977z"/>
<rect x="174.024" y="362.035" fill="#FFFFFF" width="72.975" height="12.582"/>
<path fill="#222E63" d="M246.999,377.208h-72.975c-1.431,0-2.591-1.16-2.591-2.591v-12.582c0-1.431,1.16-2.591,2.591-2.591h72.975
	c1.431,0,2.591,1.16,2.591,2.591v12.582C249.589,376.048,248.429,377.208,246.999,377.208z M176.615,372.027h67.793v-7.401h-67.793
	V372.027z"/>
<rect x="177.168" y="374.617" fill="#FFFFFF" width="8.448" height="90.95"/>
<path fill="#222E63" d="M185.616,468.158h-8.448c-1.431,0-2.591-1.16-2.591-2.591v-90.95c0-1.431,1.16-2.591,2.591-2.591h8.448
	c1.431,0,2.591,1.16,2.591,2.591v90.95C188.207,466.998,187.047,468.158,185.616,468.158z M179.759,462.977h3.266v-85.768h-3.266
	V462.977z"/>
<rect x="235.406" y="374.617" fill="#FFFFFF" width="8.448" height="90.95"/>
<path fill="#222E63" d="M243.853,468.158h-8.447c-1.431,0-2.591-1.16-2.591-2.591v-90.95c0-1.431,1.16-2.591,2.591-2.591h8.447
	c1.431,0,2.591,1.16,2.591,2.591v90.95C246.444,466.998,245.284,468.158,243.853,468.158z M237.997,462.977h3.265v-85.768h-3.265
	V462.977z"/>
<circle fill="#222E63" cx="197.569" cy="415.958" r="4.134"/>
<rect x="159.088" y="293.098" fill="#FFFFFF" width="19.411" height="54.143"/>
<path fill="#222E63" d="M181.09,349.832h-24.592v-59.324h24.592V349.832z M161.679,344.65h14.229v-48.961h-14.229V344.65z"/>
<rect x="178.499" y="293.098" fill="#FFFFFF" width="19.411" height="54.143"/>
<path fill="#222E63" d="M200.501,349.832h-24.592v-59.324h24.592V349.832z M181.09,344.65h14.229v-48.961H181.09V344.65z"/>
<rect x="150.82" y="347.241" fill="#FFFFFF" width="55.359" height="7.153"/>
<path fill="#222E63" d="M208.77,356.984h-60.54V344.65h60.54L208.77,356.984L208.77,356.984z M153.411,351.803h50.177v-1.971
	h-50.177V351.803z"/>
<rect x="150.82" y="285.946" fill="#FFFFFF" width="55.359" height="7.152"/>
<path fill="#222E63" d="M208.77,295.689h-60.54v-12.334h60.54L208.77,295.689L208.77,295.689z M153.411,290.507h50.177v-1.971
	h-50.177V290.507z"/>
<rect x="150.82" y="293.098" fill="#FFFFFF" width="8.268" height="54.143"/>
<path fill="#222E63" d="M161.679,349.832H148.23v-59.324h13.449V349.832z M153.411,344.65h3.086v-48.961h-3.086V344.65z"/>
<rect x="197.91" y="293.098" fill="#FFFFFF" width="8.269" height="54.143"/>
<path fill="#222E63" d="M208.77,349.832h-13.45v-59.324h13.45V349.832z M200.501,344.65h3.087v-48.961h-3.087V344.65z"/>
<rect x="223.11" y="293.098" fill="#FFFFFF" width="19.411" height="54.143"/>
<path fill="#222E63" d="M245.112,349.832H220.52v-59.324h24.592V349.832z M225.701,344.65h14.229v-48.961h-14.229V344.65z"/>
<rect x="242.521" y="293.098" fill="#FFFFFF" width="19.412" height="54.143"/>
<path fill="#222E63" d="M264.524,349.832H239.93v-59.324h24.593v59.324H264.524z M245.112,344.65h14.23v-48.961h-14.23
	L245.112,344.65L245.112,344.65z"/>
<rect x="214.842" y="347.241" fill="#FFFFFF" width="55.359" height="7.153"/>
<path fill="#222E63" d="M272.792,356.984h-60.54V344.65h60.54V356.984z M217.433,351.803h50.177v-1.971h-50.177L217.433,351.803
	L217.433,351.803z"/>
<rect x="214.842" y="285.946" fill="#FFFFFF" width="55.359" height="7.152"/>
<path fill="#222E63" d="M272.792,295.689h-60.54v-12.334h60.54V295.689z M217.433,290.507h50.177v-1.971h-50.177L217.433,290.507
	L217.433,290.507z"/>
<rect x="214.842" y="293.098" fill="#FFFFFF" width="8.268" height="54.143"/>
<path fill="#222E63" d="M225.701,349.832h-13.449v-59.324h13.449V349.832z M217.433,344.65h3.086v-48.961h-3.086V344.65z"/>
<rect x="261.933" y="293.098" fill="#FFFFFF" width="8.268" height="54.143"/>
<path fill="#222E63" d="M272.792,349.832h-13.449v-59.324h13.449V349.832z M264.524,344.65h3.086v-48.961h-3.086V344.65z"/>
<g>
	<rect x="308.892" y="293.098" fill="#FFFFFF" width="19.411" height="54.143"/>
	<path fill="#222E63" d="M330.893,349.832h-24.592v-59.324h24.592V349.832z M311.483,344.65h14.229v-48.961h-14.229V344.65z"/>
</g>
<g>
	<rect x="300.623" y="347.241" fill="#FFFFFF" width="35.948" height="7.153"/>
	<path fill="#222E63" d="M339.161,356.984h-41.129V344.65h41.129V356.984z M303.214,351.803h30.766v-1.971h-30.766V351.803z"/>
</g>
<g>
	<rect x="300.623" y="285.946" fill="#FFFFFF" width="35.948" height="7.152"/>
	<path fill="#222E63" d="M339.161,295.689h-41.129v-12.334h41.129V295.689z M303.214,290.507h30.766v-1.971h-30.766V290.507z"/>
</g>
<g>
	<rect x="300.622" y="293.098" fill="#FFFFFF" width="8.269" height="54.143"/>
	<path fill="#222E63" d="M311.483,349.832h-13.45v-59.324h13.45V349.832z M303.214,344.65h3.087v-48.961h-3.087V344.65z"/>
</g>
<g>
	<rect x="328.303" y="293.098" fill="#FFFFFF" width="8.268" height="54.143"/>
	<path fill="#222E63" d="M339.161,349.832h-13.449v-59.324h13.449V349.832z M330.893,344.65h3.086v-48.961h-3.086V344.65z"/>
</g>
<g>
	<rect x="308.892" y="379.591" fill="#FFFFFF" width="19.411" height="54.143"/>
	<path fill="#222E63" d="M330.893,436.325h-24.592v-59.324h24.592V436.325z M311.483,431.143h14.229v-48.961h-14.229V431.143z"/>
</g>
<g>
	<rect x="300.623" y="433.734" fill="#FFFFFF" width="35.948" height="7.153"/>
	<path fill="#222E63" d="M339.161,443.477h-41.129v-12.334h41.129V443.477z M303.214,438.296h30.766v-1.971h-30.766V438.296z"/>
</g>
<g>
	<rect x="300.623" y="372.439" fill="#FFFFFF" width="35.948" height="7.152"/>
	<path fill="#222E63" d="M339.161,382.182h-41.129v-12.334h41.129V382.182z M303.214,377.001h30.766v-1.971h-30.766V377.001z"/>
</g>
<g>
	<rect x="300.622" y="379.591" fill="#FFFFFF" width="8.269" height="54.143"/>
	<path fill="#222E63" d="M311.483,436.325h-13.45v-59.324h13.45V436.325z M303.214,431.143h3.087v-48.961h-3.087V431.143z"/>
</g>
<g>
	<rect x="328.303" y="379.591" fill="#FFFFFF" width="8.268" height="54.143"/>
	<path fill="#222E63" d="M339.161,436.325h-13.449v-59.324h13.449V436.325z M330.893,431.143h3.086v-48.961h-3.086V431.143z"/>
</g>
<g>
	<rect x="92.717" y="293.098" fill="#FFFFFF" width="19.411" height="54.143"/>
	<path fill="#222E63" d="M114.718,349.832H90.126v-59.324h24.592V349.832z M95.308,344.65h14.229v-48.961H95.308V344.65z"/>
</g>
<g>
	<rect x="84.449" y="347.241" fill="#FFFFFF" width="35.947" height="7.153"/>
	<path fill="#222E63" d="M122.987,356.984H81.858V344.65h41.129V356.984z M87.04,351.803h30.766v-1.971H87.04V351.803z"/>
</g>
<g>
	<rect x="84.449" y="285.946" fill="#FFFFFF" width="35.947" height="7.152"/>
	<path fill="#222E63" d="M122.987,295.689H81.858v-12.334h41.129V295.689z M87.04,290.507h30.766v-1.971H87.04V290.507z"/>
</g>
<g>
	<rect x="84.449" y="293.098" fill="#FFFFFF" width="8.268" height="54.143"/>
	<path fill="#222E63" d="M95.308,349.832h-13.45v-59.324h13.449L95.308,349.832L95.308,349.832z M87.04,344.65h3.086v-48.961H87.04
		V344.65z"/>
</g>
<g>
	<rect x="112.128" y="293.098" fill="#FFFFFF" width="8.268" height="54.143"/>
	<path fill="#222E63" d="M122.987,349.832h-13.45v-59.324h13.45V349.832z M114.718,344.65h3.087v-48.961h-3.087V344.65z"/>
</g>
<g>
	<rect x="92.717" y="379.591" fill="#FFFFFF" width="19.411" height="54.143"/>
	<path fill="#222E63" d="M114.718,436.325H90.126v-59.324h24.592V436.325z M95.308,431.143h14.229v-48.961H95.308V431.143z"/>
</g>
<g>
	<rect x="84.449" y="433.734" fill="#FFFFFF" width="35.947" height="7.153"/>
	<path fill="#222E63" d="M122.987,443.477H81.858v-12.334h41.129V443.477z M87.04,438.296h30.766v-1.971H87.04V438.296z"/>
</g>
<g>
	<rect x="84.449" y="372.439" fill="#FFFFFF" width="35.947" height="7.152"/>
	<path fill="#222E63" d="M122.987,382.182H81.858v-12.334h41.129V382.182z M87.04,377.001h30.766v-1.971H87.04V377.001z"/>
</g>
<g>
	<rect x="84.449" y="379.591" fill="#FFFFFF" width="8.268" height="54.143"/>
	<path fill="#222E63" d="M95.308,436.325h-13.45v-59.324h13.449L95.308,436.325L95.308,436.325z M87.04,431.143h3.086v-48.961H87.04
		V431.143z"/>
</g>
<g>
	<rect x="112.128" y="379.591" fill="#FFFFFF" width="8.268" height="54.143"/>
	<path fill="#222E63" d="M122.987,436.325h-13.45v-59.324h13.45V436.325z M114.718,431.143h3.087v-48.961h-3.087V431.143z"/>
</g>
<circle fill="#FFFFFF" cx="210.512" cy="252.119" r="18.517"/>
<path fill="#222E63" d="M210.511,273.226c-11.638,0-21.106-9.469-21.106-21.107c0-11.638,9.469-21.107,21.106-21.107
	c11.64,0,21.109,9.469,21.109,21.107C231.62,263.757,222.15,273.226,210.511,273.226z M210.511,236.193
	c-8.781,0-15.925,7.144-15.925,15.926c0,8.782,7.144,15.926,15.925,15.926c8.782,0,15.927-7.144,15.927-15.926
	C226.438,243.337,219.293,236.193,210.511,236.193z"/>
<circle fill="#FFFFFF" cx="210.512" cy="252.119" r="12.598"/>
<path fill="#222E63" d="M210.512,266.217c-7.773,0-14.098-6.324-14.098-14.098c0-7.774,6.324-14.098,14.098-14.098
	c7.774,0,14.098,6.324,14.098,14.098C224.61,259.893,218.286,266.217,210.512,266.217z M210.512,241.021
	c-6.119,0-11.098,4.979-11.098,11.098c0,6.119,4.979,11.098,11.098,11.098c6.12,0,11.098-4.979,11.098-11.098
	C221.61,246,216.631,241.021,210.512,241.021z"/>
<rect x="65.342" y="467.363" fill="#FFFFFF" width="290.338" height="14.113"/>
<path fill="#222E63" d="M358.271,484.067H62.751v-19.294h295.52V484.067z M67.933,478.885h285.156v-8.931H67.933V478.885z"/>
<path fill="#222E63" d="M402.205,477.991l-4.672-2.242c2.361-4.92,1.617-9.733,0.827-14.828c-0.812-5.25-1.653-10.678,0.664-16.61
	c4.144-10.548,16.299-9.202,22.15-7.017l-1.808,4.856c-0.497-0.183-12.203-4.389-15.517,4.051
	c-1.808,4.628-1.109,9.145-0.369,13.928C404.356,465.78,405.26,471.623,402.205,477.991z"/>
<path fill="#FFFFFF" d="M461.1,503.296c0,3.358-2.15,6.084-4.81,6.084l0,0c-2.649,0-4.802-2.726-4.802-6.084V475.86
	c0-3.358,2.153-6.079,4.802-6.079l0,0c2.66,0,4.81,2.721,4.81,6.079V503.296z"/>
<path fill="#222E63" d="M456.29,511.971c-4.076,0-7.392-3.891-7.392-8.675V475.86c0-4.78,3.317-8.67,7.392-8.67
	c4.08,0,7.401,3.889,7.401,8.67v27.436C463.691,508.079,460.371,511.971,456.29,511.971z M456.29,472.372
	c-1.046,0-2.211,1.433-2.211,3.488v27.436c0,2.059,1.165,3.493,2.211,3.493c1.05,0,2.219-1.434,2.219-3.493V475.86
	C458.509,473.805,457.34,472.372,456.29,472.372z"/>
<path fill="#FFFFFF" d="M482.7,503.296c0,3.358-2.113,6.084-4.725,6.084l0,0c-2.607,0-4.724-2.726-4.724-6.084V475.86
	c0-3.358,2.117-6.079,4.724-6.079l0,0c2.612,0,4.725,2.721,4.725,6.079V503.296z"/>
<path fill="#222E63" d="M477.974,511.971c-4.033,0-7.315-3.891-7.315-8.675V475.86c0-4.78,3.282-8.67,7.315-8.67
	c4.034,0,7.317,3.889,7.317,8.67v27.436C485.291,508.079,482.008,511.971,477.974,511.971z M477.974,472.372
	c-1.007,0-2.133,1.492-2.133,3.488v27.436c0,1.999,1.126,3.493,2.133,3.493c1.008,0,2.135-1.494,2.135-3.493V475.86
	C480.109,473.864,478.983,472.372,477.974,472.372z"/>
<path fill="#FFFFFF" d="M469.588,478.943c0,11.405-9.239,20.647-20.647,20.647l0,0c-11.396,0-20.638-9.243-20.638-20.647l0,0
	c0-11.396,9.243-20.642,20.638-20.642l0,0C460.35,458.3,469.588,467.546,469.588,478.943L469.588,478.943z"/>
<path fill="#222E63" d="M448.941,502.181c-12.809,0-23.23-10.425-23.23-23.238c0-12.811,10.421-23.233,23.23-23.233
	c12.813,0,23.237,10.422,23.237,23.233C472.179,491.756,461.754,502.181,448.941,502.181z M448.941,460.891
	c-9.952,0-18.048,8.098-18.048,18.052c0,9.957,8.096,18.057,18.048,18.057c9.956,0,18.056-8.1,18.056-18.057
	C466.997,468.989,458.897,460.891,448.941,460.891z"/>
<path fill="#222E63" d="M458.877,498.925c0,1.066-0.855,1.926-1.926,1.926l0,0c-1.066,0-1.926-0.86-1.926-1.926v-3.099
	c0-1.062,0.86-1.922,1.926-1.922l0,0c1.071,0,1.926,0.86,1.926,1.922V498.925z"/>
<path fill="#222E63" d="M449.582,501.102c0,1.066-0.864,1.922-1.927,1.922l0,0c-1.062,0-1.922-0.855-1.922-1.922v-3.099
	c0-1.058,0.86-1.93,1.922-1.93l0,0c1.063,0,1.927,0.872,1.927,1.93V501.102z"/>
<path fill="#FFFFFF" d="M505.143,508.236c0,3.354-2.088,6.079-4.66,6.079l0,0c-2.563,0-4.652-2.725-4.652-6.079v-27.44
	c0-3.355,2.089-6.072,4.652-6.072l0,0c2.571,0,4.66,2.717,4.66,6.072V508.236z"/>
<path fill="#222E63" d="M500.483,516.906c-3.993,0-7.243-3.889-7.243-8.67v-27.44c0-4.776,3.249-8.662,7.243-8.662
	c3.998,0,7.25,3.886,7.25,8.662v27.44C507.733,513.017,504.481,516.906,500.483,516.906z M500.483,477.316
	c-0.973,0-2.061,1.488-2.061,3.481v27.44c0,1.996,1.088,3.488,2.061,3.488c0.977,0,2.069-1.492,2.069-3.488v-27.44
	C502.552,478.804,501.46,477.316,500.483,477.316z"/>
<path fill="#FFFFFF" d="M441.483,508.236c0,3.354-2.227,6.079-4.976,6.079l0,0c-2.746,0-4.977-2.725-4.977-6.079v-27.44
	c0-3.355,2.231-6.072,4.977-6.072l0,0c2.749,0,4.976,2.717,4.976,6.072V508.236z"/>
<path fill="#222E63" d="M436.507,516.906c-4.172,0-7.567-3.889-7.567-8.67v-27.44c0-4.776,3.394-8.662,7.567-8.662
	s7.568,3.886,7.568,8.662v27.44C444.074,513.017,440.679,516.906,436.507,516.906z M436.507,477.316
	c-1.271,0-2.385,1.627-2.385,3.481v27.44c0,1.858,1.114,3.488,2.385,3.488s2.386-1.63,2.386-3.488v-27.44
	C438.893,478.91,437.8,477.316,436.507,477.316z"/>
<g>
	<path id="XMLID_1_" fill="#FFFFFF" d="M519.24,455.294c0,18.121-15.857,32.814-35.425,32.814h-34.229
		c-19.568,0-35.43-14.693-35.43-32.814l0,0c0-18.112,15.862-32.789,35.43-32.789h34.229
		C503.383,422.506,519.24,437.183,519.24,455.294L519.24,455.294z"/>
</g>
<g>
	<path id="SVGID_1_" fill="#222E63" d="M483.815,490.699h-34.229c-20.965,0-38.021-15.882-38.021-35.404
		c0-19.508,17.056-35.379,38.021-35.379h34.229c20.962,0,38.015,15.871,38.015,35.379
		C521.831,474.816,504.778,490.699,483.815,490.699z M449.587,425.097c-18.108,0-32.84,13.547-32.84,30.198
		c0,16.665,14.732,30.223,32.84,30.223h34.229c18.105,0,32.834-13.558,32.834-30.223c0-16.651-14.729-30.198-32.834-30.198H449.587z
		"/>
</g>
<g>
	<g>
		<g>
			<g>
				<defs>
					<path id="SVGID_2_" d="M519.24,455.294c0,18.121-15.857,32.814-35.425,32.814h-34.229c-19.568,0-35.43-14.693-35.43-32.814l0,0
						c0-18.112,15.862-32.789,35.43-32.789h34.229C503.383,422.506,519.24,437.183,519.24,455.294L519.24,455.294z"/>
				</defs>
				<clipPath id="SVGID_3_">
					<use xlink:href="#SVGID_2_"  overflow="visible"/>
				</clipPath>
			</g>
			<g>
				<defs>
					<path id="SVGID_4_" d="M519.24,455.294c0,18.121-15.857,32.814-35.425,32.814h-34.229c-19.568,0-35.43-14.693-35.43-32.814l0,0
						c0-18.112,15.862-32.789,35.43-32.789h34.229C503.383,422.506,519.24,437.183,519.24,455.294L519.24,455.294z"/>
				</defs>
				<defs>
					<path id="SVGID_5_" d="M483.815,490.699h-34.229c-20.965,0-38.021-15.882-38.021-35.404c0-19.508,17.056-35.379,38.021-35.379
						h34.229c20.962,0,38.015,15.871,38.015,35.379C521.831,474.816,504.778,490.699,483.815,490.699z M449.587,425.097
						c-18.108,0-32.84,13.547-32.84,30.198c0,16.665,14.732,30.223,32.84,30.223h34.229c18.105,0,32.834-13.558,32.834-30.223
						c0-16.651-14.729-30.198-32.834-30.198H449.587z"/>
				</defs>
				<clipPath id="SVGID_6_">
					<use xlink:href="#SVGID_4_"  overflow="visible"/>
				</clipPath>
				<clipPath id="SVGID_7_" clip-path="url(#SVGID_6_)">
					<use xlink:href="#SVGID_5_"  overflow="visible"/>
				</clipPath>
				<g id="XMLID_6_" clip-path="url(#SVGID_7_)">
					<path fill="#222E63" d="M478.804,422.019c10.626-0.329,10.413,9.486,7.752,14.929c-1.764,3.402-7.085,7.815-11.513,9.522
						c-6.647,2.377-7.527-0.694-13.728-1.707c-8.857-1.359-16.823,7.819-23.47-1.699c-4.429-6.805,0.446-14.616,2.664-21.417
						L478.804,422.019z"/>
				</g>
			</g>
		</g>
	</g>
</g>
<g>
	<g>
		<g>
			<g>
				<defs>
					<path id="SVGID_8_" d="M519.24,455.294c0,18.121-15.857,32.814-35.425,32.814h-34.229c-19.568,0-35.43-14.693-35.43-32.814l0,0
						c0-18.112,15.862-32.789,35.43-32.789h34.229C503.383,422.506,519.24,437.183,519.24,455.294L519.24,455.294z"/>
				</defs>
				<clipPath id="SVGID_9_">
					<use xlink:href="#SVGID_8_"  overflow="visible"/>
				</clipPath>
			</g>
			<g>
				<defs>
					<path id="SVGID_10_" d="M519.24,455.294c0,18.121-15.857,32.814-35.425,32.814h-34.229c-19.568,0-35.43-14.693-35.43-32.814
						l0,0c0-18.112,15.862-32.789,35.43-32.789h34.229C503.383,422.506,519.24,437.183,519.24,455.294L519.24,455.294z"/>
				</defs>
				<defs>
					<path id="SVGID_11_" d="M483.815,490.699h-34.229c-20.965,0-38.021-15.882-38.021-35.404c0-19.508,17.056-35.379,38.021-35.379
						h34.229c20.962,0,38.015,15.871,38.015,35.379C521.831,474.816,504.778,490.699,483.815,490.699z M449.587,425.097
						c-18.108,0-32.84,13.547-32.84,30.198c0,16.665,14.732,30.223,32.84,30.223h34.229c18.105,0,32.834-13.558,32.834-30.223
						c0-16.651-14.729-30.198-32.834-30.198H449.587z"/>
				</defs>
				<clipPath id="SVGID_12_">
					<use xlink:href="#SVGID_10_"  overflow="visible"/>
				</clipPath>
				<clipPath id="SVGID_13_" clip-path="url(#SVGID_12_)">
					<use xlink:href="#SVGID_11_"  overflow="visible"/>
				</clipPath>
				<g id="XMLID_4_" clip-path="url(#SVGID_13_)">
					<path fill="#222E63" d="M449.582,489.581c6.793-8.2-4.514-7.499-5.84-13.862c-0.86-4.481,1.679-6.298-2.418-9.697
						c-2.842-2.218-8.423-3.925-12.045-3.714c-5.747,0.45-11.902,3.67-11.902,7.474
						C417.377,469.781,421.296,483.745,449.582,489.581z"/>
				</g>
			</g>
		</g>
	</g>
</g>
<path fill="#222E63" d="M533.359,424.876c0,0,12.69-3.419,9.831-16.445c0,0,10.135,16.32-5.463,21.677L533.359,424.876z"/>
<path fill="#222E63" d="M509.342,426.664c0,0-12.69-3.423-9.831-16.449c0,0-10.139,16.323,5.467,21.685L509.342,426.664z"/>
<path fill="#FFFFFF" d="M508.011,451.898v-20.127c0-7.892,6.4-14.292,14.296-14.292l0,0c7.896,0,14.292,6.4,14.292,14.292v20.127"/>
<path fill="#222E63" d="M539.19,451.898h-5.182V431.77c0-6.452-5.249-11.701-11.701-11.701c-6.454,0-11.705,5.249-11.705,11.701
	v20.128h-5.182V431.77c0-9.309,7.575-16.882,16.886-16.882c9.309,0,16.883,7.574,16.883,16.882L539.19,451.898L539.19,451.898z"/>
<path fill="#FFFFFF" d="M539.146,424.057c0,3.638-2.953,6.586-6.578,6.586h-20.201c-3.634,0-6.578-2.949-6.578-6.586l0,0
	c0-3.63,2.944-6.578,6.578-6.578h20.201C536.193,417.479,539.146,420.428,539.146,424.057L539.146,424.057z"/>
<path fill="#222E63" d="M532.568,433.235h-20.201c-5.056,0-9.169-4.117-9.169-9.177c0-5.056,4.114-9.169,9.169-9.169h20.201
	c5.055,0,9.169,4.113,9.169,9.169C541.737,429.118,537.622,433.235,532.568,433.235z M512.366,420.07
	c-2.198,0-3.988,1.789-3.988,3.987c0,2.203,1.789,3.996,3.988,3.996h20.201c2.198,0,3.988-1.792,3.988-3.996
	c0-2.199-1.789-3.987-3.988-3.987H512.366z"/>
<path fill="#FFFFFF" d="M536.599,453.229c0,5.26-4.586,9.523-10.244,9.523h-8.086c-5.669,0-10.257-4.263-10.257-9.523l0,0
	c0-5.268,4.587-9.531,10.257-9.531h8.086C532.011,443.698,536.599,447.96,536.599,453.229L536.599,453.229z"/>
<path fill="#222E63" d="M526.354,465.342h-8.086c-7.084,0-12.848-5.434-12.848-12.113c0-6.684,5.763-12.122,12.848-12.122h8.086
	c7.078,0,12.835,5.438,12.835,12.122C539.19,459.908,533.432,465.342,526.354,465.342z M518.268,446.289
	c-4.227,0-7.666,3.113-7.666,6.94c0,3.822,3.439,6.932,7.666,6.932h8.086c4.221,0,7.654-3.11,7.654-6.932
	c0-3.827-3.433-6.94-7.654-6.94H518.268z"/>
<path fill="#222E63" d="M518.856,458.852c-1.88,0-3.409-1.535-3.409-3.421v-1.513c0-1.885,1.529-3.418,3.409-3.418
	c1.885,0,3.418,1.533,3.418,3.418v1.513C522.273,457.317,520.74,458.852,518.856,458.852z M517.263,454.675
	c0.283,0.594,0.891,1.006,1.592,1.006c0.705,0,1.315-0.412,1.601-1.006c-0.285-0.593-0.896-1.004-1.601-1.004
	C518.154,453.671,517.547,454.082,517.263,454.675z"/>
<path fill="#222E63" d="M525.68,458.852c-1.885,0-3.418-1.535-3.418-3.421v-1.513c0-1.885,1.533-3.418,3.418-3.418
	s3.418,1.533,3.418,3.418v1.513C529.099,457.317,527.565,458.852,525.68,458.852z M524.089,454.675
	c0.283,0.594,0.891,1.006,1.592,1.006s1.309-0.412,1.592-1.006c-0.283-0.593-0.891-1.004-1.592-1.004
	S524.372,454.082,524.089,454.675z"/>
<polygon fill="#FFFFFF" points="212.353,499.959 205.788,466.562 184.184,452.503 163.188,459.095 137.142,466.562 123.294,490.959 
	175.066,501.365 204.183,501.365 "/>
<path fill="#222E63" d="M204.183,503.956h-29.116c-0.172,0-0.342-0.017-0.511-0.051l-51.773-10.406
	c-0.815-0.164-1.501-0.708-1.846-1.464c-0.345-0.756-0.306-1.632,0.103-2.355l13.849-24.397c0.335-0.59,0.888-1.024,1.54-1.211
	l26.045-7.467l20.934-6.573c0.737-0.231,1.54-0.122,2.189,0.3l21.604,14.059c0.587,0.382,0.994,0.985,1.13,1.672l6.565,33.397
	c0.135,0.685-0.013,1.394-0.408,1.969c-0.396,0.575-1.007,0.965-1.694,1.084l-8.17,1.406
	C204.477,503.943,204.329,503.956,204.183,503.956z M175.324,498.774h28.637l5.338-0.918l-5.842-29.72l-19.662-12.795l-19.831,6.226
	l-25.09,7.194l-11.56,20.364L175.324,498.774z"/>
<polygon fill="#FFFFFF" points="146.866,501.43 141.061,465.963 121.952,451.032 76.577,451.032 53.592,469.737 43.858,494.637 
	88.487,505.696 136.374,505.696 "/>
<path fill="#222E63" d="M136.374,508.287H88.487c-0.21,0-0.419-0.026-0.624-0.076l-44.628-11.06
	c-0.723-0.179-1.334-0.662-1.677-1.324c-0.343-0.662-0.384-1.44-0.112-2.134l9.733-24.9c0.163-0.417,0.43-0.784,0.777-1.066
	l22.985-18.705c0.462-0.376,1.04-0.581,1.636-0.581h45.375c0.578,0,1.14,0.193,1.595,0.549l19.109,14.931
	c0.514,0.401,0.857,0.98,0.962,1.623l5.805,35.467c0.195,1.193-0.461,2.363-1.581,2.818l-10.492,4.266
	C137.04,508.222,136.709,508.287,136.374,508.287z M88.803,503.105h47.064l8.109-3.297l-5.308-32.428l-17.608-13.758H77.498
	l-21.742,17.693l-8.41,21.516L88.803,503.105z"/>
<g>
	<path fill="#FFFFFF" d="M481.149,420.956c10.96-0.339,10.742,9.785,7.996,15.399c-1.82,3.509-7.308,8.061-11.876,9.822
		c-6.857,2.452-7.764-0.715-14.16-1.761c-9.136-1.402-17.353,8.065-24.209-1.753c-4.568-7.019,0.46-15.077,2.748-22.092
		L481.149,420.956z"/>
	<path fill="#212D62" d="M446.596,450.177c-4.109,0.001-7.432-1.896-10.156-5.796c-4.541-6.977-1.583-14.496,0.793-20.538
		c0.58-1.475,1.128-2.867,1.562-4.201l0.683-2.092l41.642,0.406c6.274-0.207,9.396,2.633,10.859,4.977
		c2.738,4.389,1.903,10.565-0.14,14.74c-2.193,4.233-8.231,9.275-13.491,11.303c-2.139,0.767-3.871,1.111-5.522,1.111
		c-2.295,0-3.993-0.68-5.636-1.337c-1.302-0.521-2.647-1.06-4.564-1.373c-0.448-0.069-0.95-0.106-1.465-0.106
		c-2.258,0-4.543,0.685-6.963,1.409C451.736,449.416,449.192,450.177,446.596,450.177z M443.763,423.592
		c-0.307,0.821-0.63,1.642-0.946,2.447c-2.161,5.494-4.202,10.685-1.402,14.988c1.934,2.766,3.708,3.15,5.182,3.149
		c1.718,0,3.74-0.604,5.881-1.245c2.601-0.778,5.547-1.661,8.684-1.661c0.818,0,1.627,0.061,2.404,0.181
		c2.596,0.424,4.402,1.146,5.854,1.728c1.365,0.547,2.268,0.908,3.406,0.908c0.928,0,2.051-0.24,3.434-0.735
		c3.743-1.443,8.745-5.527,10.223-8.378c1.28-2.62,1.853-6.547,0.406-8.864c-0.333-0.534-1.349-2.162-5.209-2.162
		c-0.144,0-0.29,0.003-0.438,0.008l-0.122,0.001L443.763,423.592z"/>
</g>
<g>
	<path fill="#FFFFFF" d="M451.007,490.646c7.007-8.459-4.656-7.736-6.024-14.299c-0.888-4.622,1.732-6.497-2.494-10.003
		c-2.932-2.288-8.688-4.049-12.425-3.831c-5.928,0.464-12.277,3.786-12.277,7.71C417.787,470.223,421.829,484.627,451.007,490.646z"
		/>
	<path fill="#212D62" d="M452.167,493.948l-1.767-0.364c-30.614-6.315-35.316-21.891-35.502-22.551l-0.111-0.397v-0.413
		c0-4.682,5.627-9.964,15.042-10.701c0.326-0.02,0.601-0.027,0.883-0.027c4.49,0,10.347,1.928,13.623,4.484
		c4.035,3.346,3.765,6.268,3.548,8.615c-0.095,1.022-0.184,1.988,0.047,3.187c0.264,1.264,1.458,2.154,3.394,3.467
		c1.97,1.335,4.421,2.996,4.847,5.985c0.424,2.969-1.425,5.604-2.853,7.327L452.167,493.948z M420.861,469.872
		c1.017,2.271,6.694,12.374,28.874,17.428c0.515-0.854,0.496-1.216,0.495-1.22c-0.115-0.403-1.52-1.355-2.273-1.867
		c-2.162-1.465-5.122-3.471-5.91-7.255c-0.4-2.08-0.249-3.719-0.139-4.916c0.17-1.837,0.196-2.119-1.335-3.39
		c-2.235-1.742-7.255-3.327-10.335-3.145C425.233,465.899,421.433,468.414,420.861,469.872z"/>
</g>
<g>
	<path fill="#FFFFFF" d="M478.897,488.049c-7.722-0.49-11.475-14.48-2.293-18.755c7.856-3.598,8.27,4.405,12.525-5.099
		c1.648-3.28,6.037-5.899,10.972-5.41c7.305,0.724,13.07,8.479,11.934,17.653C512.036,476.438,505.728,489.75,478.897,488.049z"/>
	<path fill="#212D62" d="M483.512,491.199c-1.554,0-3.17-0.053-4.805-0.156c-4.938-0.313-9.146-4.571-10.236-10.354
		c-1.148-6.097,1.547-11.637,6.866-14.114c1.89-0.865,3.633-1.281,5.349-1.281c1.529,0,2.711,0.333,3.573,0.576
		c0.148,0.041,0.325,0.091,0.479,0.13c0.268-0.331,0.809-1.142,1.653-3.029l0.058-0.121c2.339-4.657,8.15-7.626,13.948-7.049
		c4.069,0.403,7.828,2.523,10.585,5.972c3.242,4.056,4.712,9.536,4.031,15.034l-0.012-0.001c-0.351,2.015-3.376,5.54-6.918,7.983
		C501.916,489.042,493.65,491.199,483.512,491.199z M480.686,471.293c-0.835,0-1.762,0.238-2.833,0.729
		c-4.187,1.949-3.727,6.277-3.485,7.557c0.49,2.604,2.27,5.321,4.72,5.477c1.508,0.096,2.997,0.145,4.425,0.145
		c18.428,0,24.434-7.823,25.605-9.693c0.324-3.709-0.69-7.321-2.822-9.987c-1.738-2.175-4.044-3.506-6.49-3.748
		c-3.753-0.377-6.907,1.676-7.969,3.721c-1.498,3.336-3.267,6.571-6.815,6.571c-0.901,0-1.691-0.223-2.389-0.419
		C481.963,471.455,481.386,471.293,480.686,471.293z"/>
</g>
<g>
	<g>
		<g>
			<g>
				<defs>
					<path id="SVGID_14_" d="M519.24,455.294c0,18.121-15.857,32.814-35.425,32.814h-34.229c-19.568,0-35.43-14.693-35.43-32.814
						l0,0c0-18.112,15.862-32.789,35.43-32.789h34.229C503.383,422.506,519.24,437.183,519.24,455.294L519.24,455.294z"/>
				</defs>
				<clipPath id="SVGID_15_">
					<use xlink:href="#SVGID_14_"  overflow="visible"/>
				</clipPath>
			</g>
			<g>
				<defs>
					<path id="SVGID_16_" d="M519.24,455.294c0,18.121-15.857,32.814-35.425,32.814h-34.229c-19.568,0-35.43-14.693-35.43-32.814
						l0,0c0-18.112,15.862-32.789,35.43-32.789h34.229C503.383,422.506,519.24,437.183,519.24,455.294L519.24,455.294z"/>
				</defs>
				<defs>
					<path id="SVGID_17_" d="M483.815,490.699h-34.229c-20.965,0-38.021-15.882-38.021-35.404c0-19.508,17.056-35.379,38.021-35.379
						h34.229c20.962,0,38.015,15.871,38.015,35.379C521.831,474.816,504.778,490.699,483.815,490.699z M449.587,425.097
						c-18.108,0-32.84,13.547-32.84,30.198c0,16.665,14.732,30.223,32.84,30.223h34.229c18.105,0,32.834-13.558,32.834-30.223
						c0-16.651-14.729-30.198-32.834-30.198H449.587z"/>
				</defs>
				<clipPath id="SVGID_18_">
					<use xlink:href="#SVGID_16_"  overflow="visible"/>
				</clipPath>
				<clipPath id="SVGID_19_" clip-path="url(#SVGID_18_)">
					<use xlink:href="#SVGID_17_"  overflow="visible"/>
				</clipPath>
				<g clip-path="url(#SVGID_19_)">
					<path fill="#222E63" d="M476.621,487.063c-7.486-0.475-11.125-14.037-2.223-18.182c7.616-3.488,8.018,4.27,12.142-4.944
						c1.598-3.179,5.852-5.719,10.637-5.244c7.082,0.702,12.671,8.22,11.569,17.114
						C508.747,475.807,502.632,488.712,476.621,487.063z"/>
				</g>
			</g>
		</g>
	</g>
</g>
</svg>
