<?xml version="1.0" encoding="utf-8"?>
<!-- Generator: Adobe Illustrator 17.0.0, SVG Export Plug-In . SVG Version: 6.00 Build 0)  -->
<!DOCTYPE svg PUBLIC "-//W3C//DTD SVG 1.1//EN" "http://www.w3.org/Graphics/SVG/1.1/DTD/svg11.dtd">
<svg version="1.1" id="图层_1" xmlns="http://www.w3.org/2000/svg" xmlns:xlink="http://www.w3.org/1999/xlink" x="0px" y="0px"
	 width="613.34px" height="552.34px" viewBox="-5.67 10.331 613.34 552.34" enable-background="new -5.67 10.331 613.34 552.34"
	 xml:space="preserve">
<g>
	<rect x="-3" y="13.001" fill="#FFFFFF" width="608" height="547"  id = "border"/>
	<path fill="#222E63" d="M605,562.671H-3c-1.475,0-2.67-1.195-2.67-2.67v-547c0-1.475,1.195-2.67,2.67-2.67h608
		c1.475,0,2.67,1.195,2.67,2.67v547C607.67,561.476,606.475,562.671,605,562.671z M-0.33,557.331h602.66V15.671H-0.33V557.331z"/>
</g>
<g>
	<rect x="13.5" y="27.845" fill="#FFFFFF" width="575" height="517.311"/>
	<path fill="#222E63" d="M588.5,547.826h-575c-1.475,0-2.67-1.195-2.67-2.67V27.846c0-1.475,1.195-2.67,2.67-2.67h575
		c1.475,0,2.67,1.195,2.67,2.67v517.311C591.17,546.631,589.975,547.826,588.5,547.826z M16.17,542.487h569.66V30.515H16.17V542.487
		z"/>
</g>
<path fill="#FFFFFF" d="M444.209,444.934c-3.092-11.929-13.751-23.081-26.847-18.718c-0.688,0.229-1.375,0.639-2.082,0.795
	c-0.227,0.05-1.776-3.364-2.036-3.786c-2.164-3.508-5.341-6.308-9.056-8.082c-6.458-3.083-14.392-3.152-21.015-0.53
	c-6.911,2.736-12.919,8.222-15.034,15.483c-1.239,4.253-1.577,8.77-1.136,13.172c-3.493,2.652-5.937,6.481-6.971,10.732
	c-1.821,7.483-0.26,16.926,5.99,21.976c4.846,3.916,11.786,4.97,17.605,2.778c1.21-0.456,2.77,2.259,3.74,3.195
	c1.5,1.447,3.163,2.723,4.955,3.787c3.302,1.962,7.013,3.178,10.825,3.623c7.416,0.866,14.997-1.29,20.759-6.075
	c2.887-2.398,5.24-5.457,6.596-8.971c4.05-0.552,7.755-2.558,10.356-5.725C446.152,462.141,446.206,452.637,444.209,444.934
	C443.268,441.305,446.548,453.956,444.209,444.934z"/>
<path fill="#222E63" d="M406.368,492.217L406.368,492.217c-1.177,0-2.365-0.069-3.531-0.205c-4.219-0.492-8.327-1.869-11.88-3.98
	c-1.955-1.162-3.787-2.562-5.443-4.161c-0.395-0.38-0.763-0.844-1.153-1.335c-0.201-0.253-0.509-0.641-0.777-0.941
	c-1.993,0.634-4.088,0.955-6.24,0.955c-4.794,0-9.41-1.597-12.998-4.497c-7.455-6.024-8.841-16.738-6.906-24.684
	c1.07-4.4,3.46-8.354,6.79-11.279c-0.274-4.375,0.186-8.75,1.347-12.74c2.194-7.531,8.405-13.968,16.614-17.219
	c3.417-1.353,7.215-2.068,10.981-2.068c4.3,0,8.508,0.924,12.168,2.671c4.24,2.025,7.76,5.168,10.178,9.089
	c0.146,0.237,0.304,0.558,0.68,1.328c0.073,0.151,0.167,0.342,0.269,0.549c0.018-0.006,0.035-0.012,0.053-0.018
	c2.197-0.732,4.422-1.103,6.611-1.103c8.536,0,19.458,6.583,23.487,21.022l0.006-0.002l0.131,0.506
	c0.015,0.055,0.028,0.108,0.041,0.158c0,0,0,0,0.001,0l0.669,2.584c0.005,0.018,0.009,0.035,0.014,0.052l0.174,0.673l-0.036,0.01
	c0.055,0.368,0.067,0.692,0.048,0.979c0.872,5.896,0.905,14.843-4.741,21.72c-2.678,3.26-6.376,5.499-10.532,6.406
	c-1.514,3.238-3.835,6.206-6.778,8.65C420.27,489.774,413.435,492.217,406.368,492.217z M383.91,476.033
	c2.104,0,3.505,1.763,4.631,3.18c0.24,0.302,0.539,0.679,0.679,0.814c1.362,1.314,2.864,2.462,4.466,3.414
	c2.912,1.731,6.291,2.861,9.771,3.267c0.962,0.112,1.941,0.169,2.912,0.169c5.824,0,11.447-2.005,15.831-5.646
	c2.668-2.215,4.678-4.939,5.812-7.879c0.351-0.907,1.167-1.553,2.131-1.684c3.437-0.468,6.51-2.163,8.653-4.774
	c3.94-4.798,5.015-12.694,2.874-21.121l-0.083-0.318c-2.304-8.707-9.387-17.535-18.457-17.535c-1.615,0-3.271,0.279-4.923,0.829
	c-0.203,0.068-0.405,0.161-0.61,0.251c-0.473,0.208-1.062,0.468-1.737,0.618c-0.188,0.042-0.387,0.063-0.58,0.064h-0.005
	c-1.833,0-2.431-1.227-3.876-4.188c-0.201-0.412-0.367-0.759-0.454-0.915c-1.85-2.999-4.594-5.445-7.905-7.026
	c-2.946-1.406-6.358-2.15-9.867-2.15c-3.101,0-6.218,0.585-9.016,1.693c-6.688,2.648-11.717,7.787-13.453,13.747
	c-1.1,3.778-1.461,7.982-1.043,12.159c0.093,0.924-0.302,1.83-1.041,2.392c-2.962,2.25-5.09,5.53-5.992,9.237
	c-1.485,6.105-0.531,14.739,5.074,19.269c2.642,2.135,6.066,3.31,9.643,3.31c1.865,0,3.663-0.321,5.343-0.954
	C383.077,476.108,383.489,476.033,383.91,476.033z"/>
<path fill="#FFFFFF" d="M558.799,463.888c-2.373-9.152-10.551-17.709-20.599-14.362c-0.528,0.176-1.055,0.49-1.597,0.61
	c-0.174,0.039-1.363-2.581-1.562-2.905c-1.66-2.692-4.098-4.84-6.948-6.201c-4.955-2.366-11.042-2.419-16.124-0.407
	c-5.303,2.1-9.912,6.309-11.535,11.879c-0.95,3.263-1.21,6.729-0.871,10.106c-2.68,2.035-4.555,4.972-5.349,8.234
	c-1.397,5.742-0.2,12.986,4.596,16.861c3.718,3.004,9.043,3.813,13.507,2.131c0.928-0.35,2.125,1.734,2.869,2.452
	c1.151,1.11,2.427,2.089,3.802,2.906c2.533,1.505,5.381,2.439,8.305,2.78c5.69,0.664,11.506-0.99,15.928-4.661
	c2.215-1.84,4.021-4.187,5.061-6.883c3.107-0.423,5.95-1.962,7.946-4.393C560.29,477.09,560.331,469.798,558.799,463.888
	C558.077,461.103,560.593,470.81,558.799,463.888z"/>
<path fill="#222E63" d="M529.765,500.787L529.765,500.787c-0.927,0-1.862-0.054-2.781-0.162c-3.322-0.388-6.56-1.472-9.36-3.137
	c-1.54-0.915-2.983-2.018-4.291-3.279c-0.332-0.321-0.627-0.692-0.939-1.086c-0.09-0.113-0.203-0.256-0.318-0.396
	c-1.471,0.426-3.006,0.641-4.579,0.641c-3.82,0-7.5-1.274-10.363-3.588c-5.931-4.792-7.042-13.281-5.513-19.569
	c0.827-3.4,2.645-6.464,5.176-8.771c-0.176-3.326,0.19-6.647,1.075-9.685c1.735-5.961,6.639-11.05,13.116-13.615
	c2.693-1.066,5.686-1.63,8.653-1.63c3.392,0,6.712,0.729,9.603,2.11c3.361,1.604,6.152,4.097,8.071,7.208
	c0.078,0.127,0.28,0.521,0.521,1.011c1.593-0.482,3.202-0.726,4.791-0.726c9.588,0,16.278,8.426,18.586,16.471
	c0.013,0.039,0.025,0.078,0.037,0.118h0.002l0.029,0.112c0.001,0.003,0.002,0.007,0.003,0.01l0.101,0.388c0,0.001,0,0.002,0,0.003
	l0.667,2.573c0.088,0.355,0.101,0.712,0.047,1.052c0.655,4.694,0.575,11.553-3.806,16.888c-2.08,2.532-4.926,4.294-8.13,5.06
	c-1.2,2.459-2.989,4.71-5.234,6.575C540.717,498.862,535.332,500.787,529.765,500.787z M512.534,487.127
	c1.915,0,3.144,1.547,4.04,2.677c0.173,0.218,0.327,0.427,0.467,0.564c1.009,0.973,2.124,1.826,3.311,2.531
	c2.16,1.284,4.668,2.122,7.251,2.423c0.714,0.083,1.441,0.125,2.162,0.125c4.324,0,8.497-1.488,11.751-4.189
	c1.965-1.633,3.443-3.635,4.274-5.79c0.351-0.908,1.167-1.553,2.131-1.685c2.48-0.338,4.698-1.56,6.243-3.442
	c2.914-3.549,3.686-9.431,2.062-15.736v-0.002c-0.001-0.001-0.001-0.003-0.001-0.004c-1.714-6.569-6.923-13.145-13.601-13.145
	c-1.173,0-2.378,0.203-3.581,0.604c-0.14,0.047-0.277,0.112-0.416,0.173c-0.388,0.171-0.869,0.383-1.446,0.511
	c-0.189,0.042-0.387,0.063-0.58,0.063c-0.001,0-0.002,0-0.002,0c-1.797,0-2.378-1.192-3.536-3.565
	c-0.145-0.297-0.266-0.55-0.333-0.672c-1.341-2.171-3.355-3.967-5.789-5.128c-4.104-1.96-9.574-2.083-13.989-0.334
	c-4.956,1.962-8.677,5.754-9.955,10.143c-0.822,2.824-1.092,5.969-0.779,9.094c0.093,0.924-0.302,1.83-1.042,2.392
	c-2.158,1.639-3.71,4.033-4.369,6.739c-1.094,4.5-0.409,10.849,3.681,14.154c1.917,1.549,4.405,2.402,7.008,2.402
	c1.355,0,2.661-0.233,3.88-0.692C511.746,487.198,512.136,487.127,512.534,487.127z"/>
<path fill="#FFFFFF" d="M109.679,168.755c-1.014-0.302-2.039-0.509-3.094-0.598c4.268-9.183-4.237-19.232-13.264-20.383
	c-7.349-0.937-16.404,2.809-16.814,11.188c-5.608-0.971-13.706,6.074-10.082,11.879c-10.656,2.442-14.79,18.249-4.399,23.761
	c4.624,2.453,11.158,2.421,15.861,0.161c4.597,3.722,12.223,2.27,14.386-3.453c7.185,4.549,18.668,5.26,24.924-1.428
	C123.876,182.74,117.993,171.235,109.679,168.755C109.154,168.599,116.083,170.665,109.679,168.755z"/>
<path fill="#222E63" d="M83.833,199.486c-2.231,0-4.398-0.593-6.251-1.691c-2.307,0.87-4.882,1.326-7.54,1.326
	c-3.399,0-6.604-0.747-9.268-2.159c-5.392-2.86-8.116-8.317-7.287-14.599c0.779-5.904,4.459-10.88,9.496-13.162
	c-0.342-1.979,0.034-4.075,1.13-6.052c2.022-3.646,6.118-6.387,10.084-6.869c1.765-7.44,9.457-11.314,16.876-11.314
	c0.872,0,1.742,0.055,2.585,0.162c5.902,0.752,11.646,4.736,14.635,10.148c1.939,3.512,2.541,7.256,1.783,10.818
	c0.111,0.031,0.222,0.063,0.333,0.096h0.001l0,0c0.003,0.001,0.006,0.002,0.01,0.003c0.007,0.002,0.014,0.004,0.021,0.006
	l2.73,0.814l-0.021,0.071c0.874,0.355,1.464,0.74,1.756,1.292c3.488,2.398,6.209,6.113,7.316,10.226
	c1.303,4.845,0.181,9.622-3.078,13.106c-3.485,3.726-8.634,5.778-14.5,5.778h-0.001c-3.876,0-7.877-0.917-11.338-2.563
	C91.181,197.761,87.717,199.486,83.833,199.486z M77.886,192.093c0.601,0,1.196,0.202,1.681,0.595
	c1.161,0.94,2.676,1.458,4.266,1.458c2.082,0,4.888-0.99,5.942-3.78c0.284-0.751,0.89-1.334,1.651-1.588s1.596-0.153,2.274,0.276
	c3.102,1.964,7.091,3.09,10.945,3.09c0,0,0,0,0.001,0c4.371,0,8.136-1.451,10.6-4.086c2.562-2.74,2.404-5.902,1.82-8.072
	c-1.07-3.98-4.409-7.542-8.119-8.663c-0.93-0.275-1.759-0.436-2.589-0.506c-0.869-0.074-1.646-0.567-2.083-1.321
	c-0.438-0.754-0.479-1.674-0.112-2.465c1.708-3.675,0.646-7.019-0.545-9.177c-2.158-3.909-6.432-6.896-10.635-7.432
	c-0.62-0.079-1.263-0.119-1.91-0.119c-4.61,0-11.584,2.341-11.9,8.79c-0.037,0.764-0.4,1.475-0.998,1.953s-1.374,0.677-2.125,0.547
	c-0.196-0.034-0.408-0.051-0.628-0.051c-2.378,0-5.357,1.882-6.64,4.195c-1.128,2.034-0.35,3.281-0.095,3.69
	c0.458,0.732,0.532,1.641,0.201,2.438c-0.332,0.797-1.028,1.385-1.87,1.578c-4.938,1.132-7.733,5.779-8.239,9.617
	c-0.252,1.91-0.319,6.629,4.495,9.183c1.869,0.991,4.271,1.537,6.766,1.537c2.403,0,4.778-0.505,6.688-1.423
	C77.098,192.18,77.493,192.093,77.886,192.093z"/>
<path fill="#FFFFFF" d="M423.317,66.244c-8.621-1.965-15.145,10.97-9.319,17.159c-11.826,4.318-13.984,20.335-8.449,30.289
	c4.821,8.659,16.917,14.497,26.105,8.986c0.158,5.539,6.572,7.836,10.356,3.82c2.665,5.573,8.996,8.196,14.912,7.159
	c5.962-1.044,10.583-6.185,12.063-11.899c8.66,4.962,21.761,1.778,29.262-3.931c8.634-6.572,12.192-18.351,9.519-28.751
	c-2.387-9.29-10.066-17.662-19.849-19.028c-2.309-0.322-4.672-0.242-6.954,0.237c-1.126,0.236-2.306,1.031-3.212,0.283
	c-0.938-0.774-1.955-1.451-3.027-2.025c-4.848-2.595-10.874-3.173-16.126-1.552c-1.681-7.429-7.401-14.176-15.267-15.102
	c-9.312-1.096-16.875,6.132-17.357,15.328C425.129,66.799,424.239,66.454,423.317,66.244
	C419.195,65.305,424.178,66.44,423.317,66.244z"/>
<path fill="#222E63" d="M454.359,136.549c-5.345,0-10.13-2.322-13.114-6.217c-1.17,0.566-2.444,0.865-3.759,0.865
	c-3.391,0-6.235-1.883-7.613-4.734c-1.926,0.688-3.968,1.035-6.104,1.035c-8.002,0-16.453-5.143-20.553-12.507
	c-3.609-6.492-4.246-15.239-1.622-22.283c1.701-4.565,4.665-8.169,8.505-10.412c-1.4-3.125-1.35-6.966,0.255-10.682
	c2.014-4.66,5.962-7.785,10.241-8.195c0.328-0.143,0.689-0.222,1.067-0.222c0.223,0,0.351,0.016,0.597,0.069v-0.001l0.225,0.051
	c0.027,0.006,0.055,0.012,0.085,0.019l1.229,0.28c1.944-8.364,9.156-14.507,17.673-14.507c0.719,0,1.45,0.043,2.175,0.128
	c7.594,0.894,14.089,6.615,16.818,14.557c1.389-0.251,2.812-0.378,4.257-0.378c3.979,0,7.875,0.959,11.265,2.774
	c1.049,0.561,2.044,1.205,2.968,1.92c0.078-0.027,0.16-0.055,0.229-0.078c0.36-0.123,0.77-0.262,1.233-0.359
	c2.574-0.54,5.269-0.631,7.872-0.268c10.178,1.421,19.252,10.06,22.065,21.008c3.028,11.785-1.187,24.46-10.488,31.54
	c-5.619,4.277-13.557,6.934-20.716,6.934c-3.147,0-6.032-0.49-8.617-1.462c-2.482,5.655-7.474,9.869-13.148,10.863
	C456.389,136.461,455.371,136.549,454.359,136.549z M442.01,123.828c0.137,0,0.274,0.01,0.412,0.032
	c0.87,0.136,1.617,0.692,1.997,1.486c1.729,3.616,5.537,5.863,9.939,5.863c0.705,0,1.412-0.061,2.103-0.182
	c4.542-0.795,8.63-4.882,9.939-9.938c0.209-0.806,0.782-1.468,1.549-1.791s1.642-0.27,2.363,0.144
	c2.438,1.396,5.41,2.104,8.836,2.104c5.956,0,12.818-2.294,17.481-5.843c7.497-5.706,11.013-16.382,8.551-25.962
	c-2.289-8.908-9.54-15.918-17.632-17.048c-1.996-0.279-4.065-0.208-6.036,0.205c-0.203,0.043-0.407,0.119-0.611,0.189
	c-0.608,0.207-1.367,0.465-2.249,0.465c-0.968,0-1.867-0.32-2.6-0.924c-0.788-0.651-1.658-1.233-2.588-1.73
	c-2.618-1.401-5.642-2.142-8.745-2.142c-1.848,0-3.642,0.265-5.333,0.787c-0.708,0.219-1.48,0.133-2.124-0.24
	c-0.644-0.372-1.103-0.996-1.267-1.722c-1.333-5.887-5.862-12.203-12.977-13.04c-0.518-0.061-1.038-0.092-1.55-0.092
	c-6.927,0-12.442,5.549-12.828,12.908c-0.047,0.896-0.541,1.709-1.315,2.163c-0.775,0.454-1.726,0.489-2.531,0.092
	c-0.737-0.364-1.412-0.613-2.062-0.762l0,0c-0.003,0-0.006-0.001-0.009-0.002c-0.392-0.089-0.785-0.135-1.17-0.135
	c-3.048,0-5.298,2.704-6.298,5.019c-1.019,2.356-1.372,5.654,0.687,7.841c0.615,0.654,0.86,1.573,0.653,2.446
	c-0.207,0.873-0.839,1.584-1.682,1.892c-4.868,1.777-7.21,5.691-8.316,8.661c-2.103,5.643-1.598,12.638,1.284,17.823
	c3.149,5.657,9.831,9.763,15.887,9.763c2.363,0,4.554-0.595,6.512-1.769c0.812-0.488,1.825-0.507,2.655-0.052
	c0.832,0.456,1.359,1.318,1.387,2.266c0.061,2.137,1.638,3.255,3.163,3.255c0.666,0,1.654-0.207,2.581-1.19
	C440.576,124.127,441.281,123.828,442.01,123.828z"/>
<path fill="#FFFFFF" d="M556.716,395.492c-0.778-0.637-1.495-1.349-2.142-2.118c-1.79,3.568-3.66,7.329-6.947,9.777
	c-2.049,1.526-5.9,4.087-8.593,3.128c-3.134-1.115-0.379-6.611,0.421-8.421c0.699-1.58,1.419-3.121,1.956-4.767
	c0.395-1.208,0.745-2.428,1.072-3.654c0.545-2.049-1.924-1.922-3.578-2.818c-2.925,11.14-7.378,22.223-14.337,31.483
	c-3.149,4.191-6.737,8.366-10.935,11.547c-4.364,3.306-10.603,5.444-10.398-2.17c0.156-5.8,0.034-11.62,0.275-17.416
	c0.031-3.026,0.048-6.05,0.048-9.075c0-1.515-0.004-3.03-0.013-4.545c-0.013-2.103,1.185-2.614,2.582-4.067
	c3.579-3.722,6.694-7.907,8.948-12.564c1.222-2.524,2.145-5.16,2.894-7.86c0.321-1.156,0.612-2.318,0.874-3.489
	c-1.16-0.961-2.242-2.014-3.237-3.145c-1.036,3.726-2.336,7.383-3.699,11c-1.015,2.694-2.586,6.702-5.558,7.807
	c-4.171,1.553-3.982-17.53-4.166-19.675c-1.599,0.619-1.041-1.801-2.604-1.513c-0.11,10.222-1.184,20.408-1.374,30.629
	c-0.087,4.694,0.475,9.404,0.31,14.081c-0.185,5.252-1.008,10.449-1.171,15.697c-0.114,3.685-0.609,8.83-3.62,11.447
	c-3.368,2.925-8.156,1.492-11.162-1.13c-3.537-3.085-6.233-7.36-8.912-11.169c-3.081-4.381-5.892-8.984-8.086-13.876
	c-1.626,1.381-4.779,1.802-3.785,4.087c1.161,2.67,2.586,5.301,4.132,7.769c2.069,3.303,3.77,8.486-2.221,7.152
	c-4.753-1.06-9.15-4.235-12.915-7.178c-2.41-1.885-4.71-3.905-6.998-5.934c-0.971-0.861-1.94-1.723-2.916-2.58
	c-1.098,0.583-2.269,1.067-3.451,1.454c5.187,7.968,14.732,13.451,23.233,17.255c4.087,1.829,8.681,3.341,13.217,2.801
	c2.015-0.24,4.099,3.231,5.524,4.698c1.826,1.88,3.461,3.941,4.942,6.102c5.477,7.984,9.425,17.611,10.445,27.279
	c1.088,10.273-1.402,24.423-10.279,30.97c-1.725,1.273-3.795,1.99-5.469,3.34c-1.763,1.42,1.402,2.676,2.749,2.961
	c4.466,0.94,8.318-1.571,12.639-1.877c4.17-0.295,8.8,2.319,12.811,1.471c4.865-1.029-0.45-4.4-1.549-6.943
	c-3.879-8.972-3.616-20.04-3.023-29.59c0.637-10.27,3.575-20.413,9.213-29.073c3.746-5.752,8.768-10.48,13.069-15.797
	c3.21-3.968,5.385-8.094,7.8-12.508c1.081-1.974,2.535-1.895,4.65-2.467c2.962-0.803,5.899-1.774,8.603-3.248
	c2.566-1.398,4.807-3.237,6.754-5.408c1.077-1.202,2.087-2.466,3.014-3.786C556.851,398.002,558.397,396.826,556.716,395.492
	C555.966,394.879,557.054,395.759,556.716,395.492z"/>
<path fill="#222E63" d="M483.823,509.995c-0.77,0-1.529-0.077-2.257-0.23c-0.146-0.031-3.562-0.774-4.016-2.668
	c-0.103-0.429-0.129-1.265,0.846-2.05c0.964-0.777,2.027-1.349,3.056-1.901c0.873-0.47,1.698-0.913,2.446-1.465
	c6.03-4.447,11.423-15.467,9.878-30.06c-0.952-9.023-4.601-18.547-10.274-26.818c-1.537-2.241-3.163-4.25-4.835-5.971
	c-0.384-0.396-0.793-0.901-1.227-1.437c-0.957-1.183-2.404-2.971-3.38-2.971c-0.739,0.083-1.42,0.123-2.105,0.123
	c-4.5,0-8.844-1.712-11.72-2.999c-11.576-5.181-19.316-10.945-23.663-17.623l-0.71-1.091l1.236-0.405
	c1.185-0.389,2.292-0.855,3.294-1.387l0.609-0.324l0.52,0.456c0.829,0.729,1.654,1.461,2.479,2.193l0.439,0.39
	c2.308,2.046,4.576,4.037,6.95,5.896c3.636,2.842,7.902,5.96,12.517,6.989c1.479,0.328,2.49,0.229,2.771-0.282
	c0.474-0.856-0.205-3.111-1.615-5.362c-1.661-2.652-3.074-5.311-4.201-7.901c-1.064-2.445,1.078-3.562,2.495-4.301
	c0.566-0.295,1.151-0.601,1.56-0.947l1.016-0.861l0.544,1.215c1.953,4.356,4.567,8.841,7.992,13.71
	c0.416,0.593,0.833,1.196,1.254,1.805c2.262,3.275,4.602,6.662,7.496,9.186c1.799,1.569,4.075,2.507,6.092,2.507
	c1.441,0,2.705-0.464,3.758-1.377c2.711-2.356,3.168-7.249,3.275-10.724c0.085-2.696,0.344-5.408,0.594-8.031
	c0.24-2.514,0.488-5.113,0.578-7.669c0.085-2.428-0.031-4.927-0.144-7.344c-0.103-2.198-0.209-4.472-0.167-6.721
	c0.092-4.909,0.391-9.883,0.679-14.691c0.313-5.222,0.638-10.621,0.695-15.93l0.009-0.824l0.811-0.148
	c1.535-0.288,2.052,0.817,2.334,1.361c0.03,0.059,0.069,0.134,0.105,0.197l1.229-0.476l0.113,1.329
	c0.027,0.322,0.048,1.016,0.074,1.96c0.447,16.075,2.267,16.89,2.626,16.89c0.031,0,0.072-0.01,0.12-0.027
	c2.617-0.973,4.09-4.885,4.971-7.222c1.202-3.189,2.578-6.98,3.671-10.915l0.495-1.78l1.22,1.388
	c0.962,1.094,2.013,2.115,3.124,3.035l0.473,0.392l-0.135,0.598c-0.27,1.201-0.567,2.392-0.886,3.538
	c-0.842,3.028-1.81,5.654-2.958,8.028c-2.155,4.451-5.227,8.765-9.128,12.822c-0.32,0.333-0.631,0.619-0.92,0.886
	c-0.925,0.853-1.389,1.28-1.382,2.481c0.008,1.517,0.012,3.034,0.012,4.551c0,3.029-0.017,6.057-0.048,9.086
	c-0.136,3.291-0.156,6.622-0.176,9.844c-0.016,2.486-0.031,5.058-0.099,7.589c-0.046,1.695,0.258,2.929,0.878,3.565
	c1.27,1.305,4.592,0.298,7.917-2.22c3.502-2.653,6.915-6.261,10.739-11.351c6.112-8.134,10.88-18.609,14.17-31.136l0.323-1.232
	l1.12,0.607c0.396,0.215,0.896,0.373,1.379,0.526c1.242,0.394,3.321,1.052,2.689,3.428c-0.37,1.386-0.727,2.599-1.089,3.708
	c-0.475,1.456-1.092,2.839-1.688,4.178l-0.496,1.11c-0.624,1.377-2.084,4.602-1.464,6.062c0.123,0.288,0.324,0.469,0.654,0.586
	c0.282,0.101,0.603,0.151,0.953,0.151c1.138,0,3.225-0.545,6.708-3.14c3.07-2.285,4.868-5.869,6.606-9.334l0.682-1.358l1.022,1.074
	c0.561,0.667,1.179,1.287,1.838,1.844c0.048,0.039,0.1,0.081,0.151,0.126l0.02,0.017c2.145,1.703,0.687,3.543-0.185,4.642
	c-0.197,0.249-0.401,0.506-0.592,0.776c-0.936,1.332-1.975,2.637-3.088,3.878c-2.087,2.328-4.449,4.219-7.02,5.619
	c-3.052,1.663-6.317,2.656-8.82,3.335c-0.418,0.113-0.81,0.202-1.18,0.285c-1.463,0.33-2.196,0.495-2.855,1.698l-0.503,0.921
	c-2.238,4.101-4.354,7.974-7.396,11.735c-1.575,1.947-3.265,3.837-4.899,5.665c-2.833,3.169-5.763,6.445-8.108,10.049
	c-5.264,8.084-8.395,17.97-9.053,28.588c-0.63,10.14-0.71,20.686,2.942,29.133c0.271,0.627,0.938,1.415,1.585,2.178
	c1.259,1.486,2.447,2.891,1.955,4.329c-0.458,1.336-2.147,1.693-2.702,1.811c-0.61,0.129-1.243,0.191-1.934,0.191
	c-0.001,0-0.001,0-0.001,0c-1.788,0-3.625-0.435-5.4-0.854c-1.983-0.47-3.841-0.91-5.613-0.789
	c-1.591,0.113-3.115,0.544-4.729,1.001C487.86,509.442,485.905,509.995,483.823,509.995z M479.547,506.697
	c0.29,0.34,1.413,0.895,2.433,1.11c0.6,0.126,1.203,0.188,1.844,0.188c1.805,0,3.543-0.491,5.384-1.013
	c1.641-0.464,3.337-0.943,5.134-1.07c2.046-0.143,4.175,0.354,6.214,0.837c1.741,0.412,3.386,0.801,4.94,0.801h0.001
	c0.55,0,1.047-0.048,1.52-0.148c1.062-0.225,1.223-0.499,1.225-0.502c0.109-0.381-1.038-1.736-1.59-2.388
	c-0.74-0.874-1.506-1.778-1.895-2.678c-3.819-8.833-3.748-19.662-3.103-30.05c0.68-10.963,3.921-21.183,9.373-29.556
	c2.429-3.73,5.41-7.065,8.293-10.29c1.618-1.81,3.292-3.682,4.836-5.59c2.93-3.621,5.002-7.417,7.195-11.436l0.505-0.924
	c1.092-1.995,2.587-2.332,4.17-2.688c0.344-0.077,0.708-0.159,1.097-0.264c2.396-0.65,5.517-1.598,8.386-3.161
	c2.37-1.292,4.553-3.041,6.488-5.199c1.06-1.182,2.049-2.424,2.94-3.693c0.213-0.302,0.44-0.59,0.66-0.867
	c1.082-1.365,0.999-1.443,0.506-1.835l-0.011-0.009c-0.049-0.04-0.1-0.081-0.149-0.124l-0.109-0.089l0.002-0.002
	c-0.352-0.298-0.691-0.613-1.02-0.941c-1.692,3.324-3.537,6.562-6.591,8.836c-4.064,3.029-7.201,4.097-9.526,3.27
	c-0.854-0.304-1.484-0.888-1.825-1.688c-0.963-2.268,0.628-5.781,1.482-7.669l0.491-1.1c0.603-1.351,1.171-2.627,1.614-3.984
	c0.351-1.074,0.696-2.252,1.057-3.602c0.113-0.429,0.141-0.531-1.36-1.007c-0.188-0.06-0.383-0.121-0.582-0.189
	c-3.344,12.289-8.121,22.62-14.207,30.719c-3.939,5.243-7.477,8.975-11.132,11.743c-1.274,0.966-4.559,3.212-7.507,3.213
	c-1.254,0-2.28-0.4-3.051-1.191c-1.02-1.047-1.505-2.734-1.444-5.015c0.068-2.511,0.084-5.071,0.099-7.547
	c0.02-3.239,0.04-6.589,0.177-9.884c0.03-2.991,0.047-6.013,0.047-9.034c0-1.513-0.004-3.026-0.012-4.54
	c-0.013-2.084,0.979-2.996,2.026-3.963c0.263-0.241,0.544-0.5,0.834-0.802c3.756-3.905,6.706-8.046,8.769-12.307
	c1.097-2.266,2.022-4.781,2.831-7.692c0.258-0.927,0.502-1.884,0.728-2.852c-0.569-0.492-1.122-1.009-1.655-1.546
	c-1.017,3.391-2.191,6.612-3.235,9.383c-1,2.656-2.674,7.102-6.145,8.392c-0.271,0.101-0.547,0.152-0.817,0.152
	c-3.403,0-4.311-7.529-4.625-18.834c-0.009-0.333-0.018-0.633-0.025-0.894c-0.282-0.081-0.507-0.229-0.688-0.401
	c-0.107,4.657-0.389,9.34-0.661,13.889c-0.288,4.789-0.585,9.741-0.676,14.609c-0.041,2.185,0.063,4.424,0.164,6.591
	c0.115,2.457,0.233,4.997,0.145,7.507c-0.092,2.615-0.343,5.245-0.585,7.789c-0.247,2.591-0.503,5.271-0.585,7.903
	c-0.12,3.85-0.66,9.3-3.964,12.171c-1.407,1.222-3.16,1.867-5.069,1.867c-2.486,0-5.255-1.122-7.406-2.999
	c-3.084-2.688-5.495-6.181-7.827-9.557c-0.418-0.604-0.831-1.203-1.245-1.791c-3.218-4.575-5.739-8.827-7.684-12.961
	c-0.286,0.165-0.578,0.317-0.867,0.468c-1.818,0.948-1.828,1.171-1.585,1.729c1.087,2.5,2.454,5.069,4.062,7.637
	c0.92,1.469,2.923,5.129,1.669,7.394c-0.38,0.687-1.213,1.504-3.027,1.504c-0.568,0-1.217-0.08-1.929-0.239
	c-4.782-1.065-9.225-4.17-13.313-7.365c-2.419-1.894-4.713-3.906-7.045-5.975l-0.44-0.39c-0.653-0.581-1.308-1.161-1.963-1.739
	c-0.557,0.271-1.139,0.525-1.742,0.76c4.252,5.908,11.493,11.099,22.084,15.838c2.709,1.213,6.786,2.825,10.903,2.825
	c0.606,0,1.208-0.035,1.787-0.104c2.032-0.245,3.767,1.857,5.253,3.694c0.404,0.499,0.785,0.971,1.106,1.301
	c1.75,1.802,3.449,3.899,5.05,6.233c5.858,8.54,9.628,18.392,10.613,27.739c1.174,11.082-1.673,25.237-10.679,31.879
	c-0.863,0.637-1.791,1.135-2.688,1.617c-0.991,0.532-1.928,1.035-2.747,1.696C479.606,506.641,479.571,506.672,479.547,506.697z"/>
<path fill="#FFFFFF" d="M534.688,332.335c-1.111-5.093-5.858-8.814-10.915-9.462c2.351-5.598-0.042-14.024-5.652-16.945
	c-4.752-2.474-12.796-1.113-14.603,4.571c-1.364-5.293-7.852-5.387-10.837-1.599c-2.228-5.419-11.823-5.785-13.702,0.152
	c-3.682-4.63-10.236-6.401-15.896-5.001c-5.777,1.43-11.244,6.939-10.91,13.245c-5.514-2.553-10.854,2.605-10.351,8.166
	c0.12,1.323-1.347,1.071-2.409,1.836c-0.932,0.671-1.65,1.617-2.054,2.691c-0.89,2.365-0.266,5.15,1.98,6.487
	c-3.288,4.31-3.559,11.353-2.204,16.409c1.425,5.319,5.436,9.629,10.654,11.401c0.351,4.328,4.232,6.956,8.167,7.805
	c2.261,0.488,4.644,0.483,6.901-0.029c1.008-0.229,1.994-0.563,2.924-1.016c0.9-0.438,1.93,1.923,2.663,2.719
	c3.63,3.946,9.274,5.27,14.435,4.222c2.888-0.586,5.626-1.999,7.877-3.885c0.966-0.809,1.825-2.549,2.902-1.883
	c1.272,0.787,2.931,1.142,4.405,0.83c1.274-0.27,2.462-0.904,3.445-1.752c0.4-0.345,0.764-0.725,1.091-1.139
	c0.781-0.991,0.806-0.31,1.849,0.108c2.796,1.122,5.986-0.171,7.986-2.214c0.91-0.926,1.462-2.143,1.631-3.425
	c0.133-1.008-0.413-1.449,0.722-1.568c0.681-0.071,1.347-0.258,1.966-0.553c2.78-1.326,4.357-4.325,3.936-7.356
	c4.508,2.013,10.212-0.685,11.259-5.562c0.287-1.339,0.274-2.743,0.03-4.087c-0.149-0.82-0.387-1.626-0.727-2.388
	c0.599-0.586,1.141-1.231,1.614-1.923C534.627,338.612,535.356,335.402,534.688,332.335
	C534.139,329.817,535.571,336.388,534.688,332.335z"/>
<path fill="#222E63" d="M479.454,381c-5.072,0-9.801-1.979-12.975-5.429c-0.37-0.403-0.676-0.872-0.999-1.369
	c-0.022-0.034-0.046-0.071-0.071-0.109c-0.632,0.227-1.287,0.418-1.961,0.571c-2.612,0.593-5.415,0.606-8.055,0.036
	c-5.137-1.108-8.875-4.343-9.969-8.469c-5.334-2.326-9.341-6.956-10.869-12.655c-1.313-4.905-1.297-11.605,1.348-16.65
	c-1.628-2.127-2.087-5.104-1.042-7.878c0.595-1.582,1.63-2.936,2.992-3.917c0.438-0.315,0.882-0.528,1.27-0.682
	c0.067-2.645,1.096-5.217,2.913-7.206c2.07-2.265,4.857-3.445,7.743-3.272c1.325-6.262,6.987-11.107,12.663-12.512
	c1.463-0.362,2.984-0.545,4.523-0.545c4.299,0,8.401,1.423,11.535,3.916c1.742-1.755,4.264-2.783,7.115-2.783
	c2.985,0,5.689,1.087,7.561,2.923c1.475-0.885,3.179-1.375,4.916-1.375c2.105,0,3.993,0.718,5.437,1.978
	c2.254-2.202,5.588-3.495,9.397-3.495c2.341,0,4.563,0.513,6.427,1.483c5.742,2.989,8.971,10.671,7.763,17.352
	c4.88,1.626,8.778,5.531,10.041,10.278l0.014-0.003l0.093,0.429c0.013,0.054,0.023,0.105,0.033,0.15c0,0.001,0,0.001,0,0.001
	l0.001,0.001c0,0.001,0,0.003,0.001,0.004c0.032,0.15,0.063,0.293,0.093,0.43l0.198,0.912l-0.022,0.005
	c0.073,0.468,0.093,0.852,0.027,1.202c0.061,2.926-0.815,5.874-2.525,8.375c-0.24,0.351-0.495,0.693-0.766,1.025
	c0.121,0.424,0.222,0.859,0.302,1.303c0.315,1.736,0.3,3.508-0.047,5.122c-1.037,4.834-5.526,8.343-10.674,8.343l0,0
	c-0.246,0-0.491-0.008-0.733-0.024c-0.678,2.774-2.556,5.164-5.247,6.448c-0.408,0.195-0.828,0.356-1.258,0.484
	c-0.311,1.723-1.121,3.317-2.307,4.524c-2.1,2.144-4.98,3.427-7.704,3.427c-0.998,0-1.966-0.166-2.882-0.494
	c-0.163,0.16-0.329,0.313-0.5,0.46c-1.366,1.181-2.971,1.991-4.638,2.344c-1.648,0.349-3.505,0.145-5.133-0.54
	c-0.291,0.333-0.619,0.698-1.013,1.027c-2.694,2.258-5.828,3.799-9.061,4.455C482.11,380.866,480.778,381,479.454,381z
	 M466.01,368.321c2.016,0,3.132,1.717,3.947,2.97c0.147,0.227,0.37,0.569,0.459,0.672c2.158,2.347,5.455,3.697,9.038,3.697
	c0.969,0,1.942-0.098,2.894-0.291c2.33-0.473,4.707-1.65,6.693-3.315c0.114-0.096,0.332-0.345,0.507-0.546
	c0.732-0.84,1.839-2.11,3.624-2.11c0.657,0,1.311,0.189,1.89,0.547c0.728,0.45,1.709,0.646,2.448,0.49
	c0.788-0.167,1.567-0.568,2.254-1.161c0.271-0.234,0.521-0.495,0.74-0.773c0.297-0.377,1.204-1.527,2.756-1.527
	c0.967,0,1.645,0.46,1.97,0.681c0.122,0.082,0.168,0.113,0.214,0.131c1.502,0.602,3.622-0.11,5.084-1.604
	c0.479-0.487,0.794-1.161,0.891-1.904c0.005-0.072-0.008-0.135-0.013-0.188c-0.184-2.055,1.006-3.468,3.105-3.688
	c0.382-0.04,0.749-0.143,1.094-0.308c1.698-0.811,2.702-2.694,2.441-4.58c-0.133-0.961,0.266-1.918,1.041-2.501
	c0.776-0.583,1.808-0.698,2.692-0.303c0.653,0.292,1.362,0.44,2.105,0.44c2.604,0,4.949-1.773,5.453-4.124
	c0.201-0.938,0.206-1.992,0.014-3.05c-0.115-0.639-0.296-1.236-0.538-1.775c-0.456-1.021-0.229-2.218,0.571-3
	c0.476-0.465,0.905-0.976,1.275-1.519c1.378-2.014,1.9-4.457,1.436-6.703l-0.04-0.18c-0.839-3.674-4.469-6.748-8.623-7.28
	c-0.827-0.106-1.557-0.593-1.974-1.315c-0.416-0.723-0.471-1.598-0.148-2.367c1.744-4.152,0.046-11.216-4.424-13.543
	c-1.089-0.567-2.496-0.88-3.961-0.88c-2.801,0-6.01,1.203-6.865,3.892c-0.359,1.135-1.421,1.894-2.618,1.86
	c-1.189-0.033-2.214-0.85-2.511-2.002c-0.501-1.941-1.994-2.231-2.84-2.231c-1.258,0-2.528,0.62-3.315,1.618
	c-0.586,0.745-1.524,1.122-2.466,0.991c-0.939-0.131-1.739-0.751-2.1-1.629c-0.719-1.747-2.826-2.529-4.596-2.529
	c-0.776,0-3.366,0.178-4.091,2.471c-0.298,0.941-1.09,1.641-2.061,1.82c-0.972,0.179-1.961-0.192-2.575-0.964
	c-2.221-2.793-5.931-4.46-9.924-4.46c-1.107,0-2.197,0.131-3.24,0.389c-4.482,1.109-9.154,5.444-8.886,10.512
	c0.05,0.935-0.395,1.827-1.17,2.352c-0.774,0.525-1.77,0.604-2.618,0.212c-1.803-0.835-3.693-0.383-5.073,1.126
	c-1.078,1.181-1.639,2.817-1.497,4.377c0.178,1.96-0.841,3.327-3.027,4.062c-0.165,0.055-0.414,0.139-0.489,0.186
	c-0.49,0.354-0.887,0.874-1.106,1.459c-0.407,1.081-0.316,2.56,0.847,3.252c0.654,0.389,1.11,1.04,1.255,1.787
	s-0.037,1.521-0.499,2.126c-2.685,3.518-2.911,9.755-1.747,14.098c1.205,4.498,4.545,8.073,8.934,9.564
	c1.008,0.343,1.717,1.251,1.803,2.312c0.25,3.082,3.426,4.841,6.068,5.411c1.886,0.407,3.892,0.399,5.746-0.023
	c0.843-0.191,1.633-0.465,2.349-0.813C465.053,368.43,465.523,368.321,466.01,368.321z"/>
<path fill="#FFFFFF" d="M481.092,393.649c-0.504-4.445-4.091-8.03-8.475-8.762c-1.07-0.178-2.179-0.217-3.248-0.012
	c-0.15-1.235-0.765-2.391-1.681-3.228c-2.008-1.835-5.281-2.188-7.745-1.18c-0.013-4.574-3.489-8.66-7.645-10.224
	c-2.65-0.999-5.695-1.057-8.33,0.016c-1.437,0.585-2.725,1.479-3.887,2.498c-0.581,0.509-1.133,1.047-1.637,1.634
	c-1.244,1.45-0.825,1.275-2.575,0.605c-3.338-1.278-6.591,0.295-8.251,3.346c-0.377,0.693-0.662,1.434-0.867,2.195
	c-0.807-0.158-1.642-0.156-2.452-0.024c-1.692,0.274-3.502,1.112-4.509,2.547c-0.77,1.097-1.329,2.456-1.452,3.797
	c-0.09,0.979,0.4,1.048-0.594,1.512c-0.648,0.303-1.272,0.657-1.863,1.06c-2.523,1.722-4.385,4.378-4.76,7.448
	c-0.355,2.903,0.548,6.137,2.331,8.452c0.899,1.167,2.129,2.291,3.503,2.863c1,0.417,1.397-0.094,1.46,1.086
	c0.054,1.006,0.35,2.071,0.925,2.907c0.883,1.282,2.417,2.126,3.959,2.268c0.219,1.256,0.966,2.365,1.894,3.211
	c2.266,2.066,5.664,3.16,8.698,2.974c1.787-0.11,3.552-0.581,5.184-1.311c0.905-0.405,1.296-1.151,2.006-0.338
	c0.433,0.495,0.951,0.911,1.507,1.259c2.43,1.521,5.78,2.09,8.566,1.381c3.1-0.788,5.755-3.02,7.562-5.6
	c0.471-0.673,0.891-1.382,1.249-2.121c0.474-0.979,0.203-1.461,1.354-1.412c1.756,0.076,3.585-0.606,4.815-1.873
	c0.786-0.809,1.383-1.815,1.785-2.865c0.669-1.744,0.28-1.578,2.199-1.662c2.268-0.099,4.625-0.713,6.536-1.97
	C480.022,401.91,481.533,397.548,481.092,393.649C480.63,389.577,481.557,397.763,481.092,393.649z"/>
<path fill="#222E63" d="M448.641,424.601c-2.664,0-5.317-0.742-7.472-2.09c-0.367-0.23-0.711-0.476-1.031-0.737
	c-1.995,0.888-4.042,1.402-6.086,1.528c-3.834,0.234-7.929-1.174-10.661-3.665c-0.95-0.866-1.679-1.851-2.159-2.907
	c-1.656-0.549-3.117-1.615-4.093-3.031c-0.601-0.871-1.027-1.927-1.243-3.055c-1.646-0.694-3.265-2.002-4.562-3.687
	c-2.236-2.903-3.309-6.793-2.866-10.405c0.45-3.674,2.603-7.074,5.904-9.329c0.426-0.29,0.868-0.561,1.325-0.811
	c0.191-1.676,0.863-3.403,1.904-4.886c1.324-1.888,3.608-3.218,6.268-3.649c0.35-0.057,0.701-0.095,1.052-0.115
	c0.109-0.238,0.226-0.47,0.349-0.696c1.768-3.248,4.852-5.187,8.251-5.187c1.04,0,2.079,0.184,3.094,0.546
	c0.496-0.556,1.056-1.106,1.702-1.674c1.539-1.35,3.058-2.32,4.643-2.965c3.147-1.281,6.958-1.294,10.278-0.042
	c4.406,1.658,7.756,5.34,8.924,9.521c2.738-0.177,5.478,0.722,7.326,2.41c0.752,0.688,1.359,1.503,1.796,2.398
	c0.575,0.019,1.169,0.08,1.772,0.18c5.031,0.839,9.081,4.56,10.351,9.312c0.069,0.203,0.124,0.413,0.168,0.623l0.037-0.004
	l0.107,0.947c0.009,0.074,0.017,0.146,0.025,0.217l-0.001,0.001h0.001c0.009,0.079,0.018,0.16,0.026,0.243l0.107,0.942l-0.037,0.004
	c0.002,0.124,0.002,0.249-0.004,0.373c0.037,4.7-2.116,9.078-5.718,11.446c-2.703,1.778-5.663,2.29-7.725,2.399
	c-0.556,1.431-1.366,2.719-2.348,3.729c-1.465,1.508-3.558,2.472-5.714,2.656c-0.405,0.829-0.888,1.645-1.434,2.422
	c-2.387,3.407-5.615,5.771-9.09,6.655C450.807,424.472,449.741,424.601,448.641,424.601z M440.459,415.955
	c0.691,0,1.709,0.222,2.632,1.278c0.23,0.264,0.538,0.518,0.913,0.752c1.81,1.132,4.474,1.569,6.49,1.056
	c2.204-0.561,4.403-2.217,6.034-4.545c0.396-0.565,0.743-1.154,1.032-1.751c0.064-0.134,0.096-0.248,0.127-0.342
	c0.556-1.712,1.726-2.581,3.479-2.581c0.084,0,0.173,0.002,0.268,0.006l0.149,0.003c0.985,0,1.994-0.409,2.634-1.069
	c0.493-0.507,0.911-1.186,1.21-1.963c0.087-0.228,0.154-0.422,0.211-0.583c0.787-2.25,1.951-2.698,3.959-2.772l0.403-0.016
	c1.973-0.086,3.813-0.631,5.187-1.533c2.644-1.739,3.542-5.21,3.26-7.88l-0.012-0.097c-0.387-3.177-3.017-5.857-6.257-6.397
	c-0.858-0.143-1.641-0.151-2.307-0.024c-0.725,0.139-1.479-0.029-2.077-0.466c-0.598-0.436-0.987-1.101-1.076-1.836
	c-0.071-0.585-0.374-1.16-0.831-1.578c-0.72-0.657-1.824-1.035-3.029-1.035c-0.678,0-1.337,0.123-1.904,0.355
	c-0.823,0.336-1.758,0.241-2.496-0.253s-1.182-1.323-1.185-2.211c-0.01-3.619-2.983-6.629-5.916-7.732
	c-2.078-0.783-4.469-0.79-6.383-0.01c-1.025,0.417-2.051,1.082-3.134,2.033c-0.544,0.477-0.993,0.925-1.372,1.366l-0.32,0.379
	c-0.584,0.699-1.384,1.657-2.889,1.657c-0.707,0-1.244-0.224-1.763-0.442c-0.158-0.066-0.348-0.146-0.582-0.236
	c-1.922-0.734-3.872,0.142-4.952,2.129c-0.263,0.483-0.477,1.026-0.635,1.614c-0.365,1.354-1.715,2.195-3.092,1.925
	c-0.465-0.091-0.984-0.094-1.512-0.009c-1.19,0.193-2.27,0.76-2.75,1.445c-0.548,0.78-0.904,1.694-0.979,2.507
	c0.225,1.719-0.493,2.926-2.122,3.687c-0.521,0.244-1.022,0.528-1.488,0.847c-2.033,1.388-3.352,3.418-3.614,5.567
	c-0.268,2.184,0.438,4.734,1.796,6.498c0.736,0.956,1.616,1.695,2.415,2.028c0.058,0.016,0.104,0.018,0.145,0.024
	c1.803,0.256,2.853,1.458,2.954,3.385c0.031,0.589,0.202,1.163,0.458,1.532c0.414,0.601,1.219,1.053,2.005,1.125
	c1.2,0.111,2.177,1.011,2.385,2.198c0.098,0.56,0.476,1.163,1.062,1.698c1.672,1.524,4.32,2.433,6.735,2.282
	c1.411-0.087,2.844-0.451,4.26-1.084c0.107-0.048,0.194-0.116,0.277-0.17C438.697,416.433,439.427,415.955,440.459,415.955z"/>
<path fill="#FFFFFF" d="M569.981,378.818c-0.299-0.266-0.618-0.505-0.958-0.716c2.105-1.791,2.326-5.823-0.759-6.712
	c4.229-6.895,0.474-16.195-6.737-19.163c-5.481-2.255-15.863-2.616-18.185,4.381c-5.349-3.913-14.717,1.048-13.84,7.788
	c-8.709-1.762-16.881,7.165-14.401,15.574c1.324,4.489,4.712,8.78,9.1,10.589c-0.791,4.834,3.846,8.225,7.939,5.305
	c0.843,4.119,5.532,5.212,8.795,3.034c2.952,6.068,10.625,7.772,16.607,5.632c6.551-2.343,10.444-9.678,8.763-16.464
	C570.843,387.492,573.83,382.18,569.981,378.818C569.683,378.556,571.291,379.962,569.981,378.818z"/>
<path fill="#222E63" d="M552.388,408.084L552.388,408.084c-5.155,0-9.725-2.166-12.481-5.787c-0.827,0.244-1.687,0.369-2.558,0.369
	c-2.746,0-5.114-1.24-6.547-3.274c-2.716,0.679-5.623-0.258-7.447-2.404c-1.126-1.325-1.778-3.006-1.893-4.796
	c-4.143-2.329-7.479-6.571-8.922-11.466c-1.276-4.326-0.354-9.019,2.529-12.875c2.915-3.898,7.355-6.256,11.925-6.346
	c0.362-1.653,1.169-3.229,2.383-4.611c2.35-2.675,6.003-4.337,9.532-4.337c1.139,0,2.236,0.17,3.264,0.502
	c2.258-3.179,6.335-4.95,11.62-4.95c3.01,0,6.199,0.602,8.749,1.652c4.35,1.79,7.848,5.625,9.358,10.26
	c1.142,3.502,1.053,7.182-0.203,10.427c0.698,0.748,1.188,1.688,1.421,2.77c0.317,1.476,0.11,3.058-0.521,4.447
	c0.034,0.044,0.068,0.088,0.102,0.134c1.608,1.952,2.125,4.409,1.392,6.812c-0.716,2.347-2.508,4.289-4.777,5.337
	c0.632,7.363-3.794,14.565-10.874,17.099C556.513,407.734,554.477,408.084,552.388,408.084z M540.934,396.229
	c0.233,0,0.469,0.031,0.698,0.093c0.744,0.202,1.365,0.716,1.702,1.409c1.527,3.139,4.912,5.013,9.054,5.013h0.001
	c1.453,0,2.923-0.251,4.252-0.727c5.252-1.879,8.424-7.849,7.071-13.308c-0.183-0.74-0.041-1.523,0.39-2.151s1.11-1.043,1.866-1.139
	c1.566-0.198,2.703-1.341,3.016-2.367c0.253-0.828,0.005-1.555-0.757-2.222c-0.001,0-0.002-0.001-0.002-0.001
	c-0.011-0.009-0.021-0.018-0.031-0.028l0,0c-0.18-0.159-0.374-0.303-0.578-0.43c-0.725-0.45-1.19-1.219-1.254-2.069
	s0.282-1.68,0.932-2.233c0.448-0.381,0.725-1.172,0.605-1.728c-0.051-0.235-0.128-0.314-0.374-0.385
	c-0.801-0.231-1.448-0.823-1.75-1.6s-0.223-1.651,0.213-2.362c1.494-2.437,1.792-5.392,0.837-8.321
	c-1.033-3.167-3.393-5.775-6.313-6.978c-1.902-0.783-4.413-1.25-6.718-1.25c-2.461,0-6.762,0.52-7.917,4.002
	c-0.269,0.81-0.908,1.442-1.722,1.702c-0.811,0.26-1.7,0.116-2.389-0.388c-0.787-0.576-1.748-0.867-2.856-0.867
	c-2.008,0-4.175,0.99-5.52,2.521c-0.68,0.775-1.447,2.034-1.239,3.635c0.111,0.854-0.196,1.71-0.827,2.298
	c-0.63,0.587-1.503,0.835-2.35,0.664c-3.51-0.712-7.281,0.898-9.627,4.035c-1.865,2.495-2.479,5.472-1.685,8.167
	c1.175,3.983,4.141,7.467,7.557,8.876c1.147,0.473,1.817,1.675,1.617,2.899c-0.163,0.998,0.046,1.9,0.589,2.539
	c0.771,0.906,1.996,0.994,3.164,0.161c0.737-0.525,1.688-0.641,2.528-0.311c0.841,0.331,1.457,1.064,1.638,1.949
	c0.369,1.802,1.937,1.996,2.595,1.996c0.73,0,1.478-0.23,2.103-0.647C539.895,396.383,540.411,396.229,540.934,396.229z"/>
<rect x="21.008" y="511.666" fill="#FFFFFF" width="558.102" height="31.208"/>
<path fill="#222E63" d="M579.111,545.544H21.008c-1.475,0-2.67-1.195-2.67-2.67v-31.208c0-1.475,1.195-2.67,2.67-2.67h558.103
	c1.475,0,2.67,1.195,2.67,2.67v31.208C581.781,544.349,580.585,545.544,579.111,545.544z M23.678,540.204h552.763v-25.868H23.678
	V540.204z"/>
<rect x="336.156" y="450.064" fill="#FFFFFF" width="238.975" height="12.631"/>
<path fill="#222E63" d="M575.131,465.366H336.156c-1.475,0-2.67-1.195-2.67-2.67v-12.631c0-1.475,1.195-2.67,2.67-2.67h238.976
	c1.475,0,2.67,1.195,2.67,2.67v12.631C577.801,464.17,576.606,465.366,575.131,465.366z M338.826,460.026h233.636v-7.292H338.826
	V460.026z"/>
<polygon fill="#FFFFFF" points="354.381,435.892 346.232,429.515 338.084,435.892 338.084,507.784 354.381,507.784 "/>
<path fill="#222E63" d="M354.381,510.454h-16.297c-1.475,0-2.67-1.195-2.67-2.67v-71.892c0-0.821,0.378-1.596,1.024-2.103
	l8.148-6.377c0.967-0.756,2.324-0.756,3.291,0l8.148,6.377c0.646,0.506,1.024,1.281,1.024,2.103v71.892
	C357.051,509.259,355.856,510.454,354.381,510.454z M340.754,505.114h10.957v-67.921l-5.479-4.288l-5.479,4.288v67.921H340.754z"/>
<polygon fill="#FFFFFF" points="385.407,435.892 377.258,429.515 369.109,435.892 369.109,507.784 385.407,507.784 "/>
<path fill="#222E63" d="M385.407,510.454h-16.298c-1.475,0-2.67-1.195-2.67-2.67v-71.892c0-0.821,0.378-1.596,1.024-2.103
	l8.148-6.377c0.967-0.756,2.324-0.756,3.291,0l8.149,6.377c0.646,0.506,1.024,1.281,1.024,2.103v71.892
	C388.077,509.259,386.881,510.454,385.407,510.454z M371.779,505.114h10.958v-67.921l-5.479-4.288l-5.479,4.288V505.114z"/>
<polygon fill="#FFFFFF" points="416.43,435.892 408.282,429.515 400.133,435.892 400.133,507.784 416.43,507.784 "/>
<path fill="#222E63" d="M416.43,510.454h-16.297c-1.475,0-2.67-1.195-2.67-2.67v-71.892c0-0.821,0.378-1.596,1.024-2.103
	l8.148-6.377c0.967-0.756,2.324-0.756,3.291,0l8.148,6.377c0.646,0.506,1.024,1.281,1.024,2.103v71.892
	C419.1,509.259,417.905,510.454,416.43,510.454z M402.803,505.114h10.957v-67.921l-5.479-4.288l-5.479,4.288v67.921H402.803z"/>
<polygon fill="#FFFFFF" points="447.456,435.892 439.306,429.515 431.157,435.892 431.157,507.784 447.456,507.784 "/>
<path fill="#222E63" d="M447.456,510.454h-16.299c-1.475,0-2.67-1.195-2.67-2.67v-71.892c0-0.821,0.378-1.596,1.024-2.103
	l8.148-6.377c0.967-0.756,2.324-0.756,3.291,0l8.15,6.378c0.646,0.506,1.024,1.281,1.024,2.103v71.892
	C450.126,509.259,448.931,510.454,447.456,510.454z M433.827,505.114h10.959v-67.921l-5.48-4.288l-5.479,4.288V505.114z"/>
<polygon fill="#FFFFFF" points="478.479,435.892 470.331,429.515 462.182,435.892 462.182,507.784 478.479,507.784 "/>
<path fill="#222E63" d="M478.479,510.454h-16.297c-1.475,0-2.67-1.195-2.67-2.67v-71.892c0-0.821,0.378-1.596,1.024-2.103
	l8.148-6.377c0.967-0.756,2.324-0.756,3.291,0l8.148,6.377c0.646,0.506,1.024,1.281,1.024,2.103v71.892
	C481.149,509.259,479.953,510.454,478.479,510.454z M464.852,505.114h10.957v-67.921l-5.479-4.288l-5.479,4.288v67.921H464.852z"/>
<polygon fill="#FFFFFF" points="509.504,435.892 501.356,429.515 493.207,435.892 493.207,507.784 509.504,507.784 "/>
<path fill="#222E63" d="M509.504,510.454h-16.298c-1.475,0-2.67-1.195-2.67-2.67v-71.892c0-0.821,0.378-1.596,1.024-2.103
	l8.149-6.377c0.967-0.756,2.324-0.756,3.291,0l8.148,6.377c0.646,0.506,1.024,1.281,1.024,2.103v71.892
	C512.174,509.259,510.979,510.454,509.504,510.454z M495.876,505.114h10.958v-67.921l-5.479-4.288l-5.479,4.288V505.114z"/>
<polygon fill="#FFFFFF" points="540.53,435.892 532.379,429.515 524.231,435.892 524.231,507.784 540.53,507.784 "/>
<path fill="#222E63" d="M540.53,510.454h-16.299c-1.475,0-2.67-1.195-2.67-2.67v-71.892c0-0.821,0.378-1.596,1.024-2.103
	l8.148-6.377c0.967-0.756,2.324-0.756,3.291,0l8.15,6.378c0.646,0.506,1.024,1.281,1.024,2.103v71.892
	C543.2,509.259,542.004,510.454,540.53,510.454z M526.901,505.114h10.959v-67.921l-5.48-4.288l-5.479,4.288V505.114z"/>
<polygon fill="#FFFFFF" points="571.553,435.892 563.405,429.515 555.257,435.892 555.257,507.784 571.553,507.784 "/>
<path fill="#222E63" d="M571.553,510.454h-16.296c-1.475,0-2.67-1.195-2.67-2.67v-71.892c0-0.821,0.378-1.596,1.024-2.102
	l8.147-6.377c0.967-0.757,2.324-0.757,3.291,0l8.148,6.377c0.646,0.506,1.024,1.281,1.024,2.103v71.892
	C574.223,509.259,573.028,510.454,571.553,510.454z M557.927,505.114h10.956v-67.921l-5.479-4.288l-5.478,4.288v67.921H557.927z"/>
<polygon fill="#FFFFFF" points="305.06,493.917 58.462,493.917 58.462,278.201 121.343,263.88 181.761,211.964 242.181,263.88 
	305.06,278.201 "/>
<path fill="#222E63" d="M305.06,496.491H58.462c-1.422,0-2.574-1.152-2.574-2.574V278.201c0-1.201,0.831-2.243,2.002-2.51
	l62.259-14.179l59.934-51.5c0.965-0.829,2.39-0.829,3.355,0l59.936,51.5l62.257,14.179c1.171,0.267,2.002,1.308,2.002,2.51v215.716
	C307.634,495.338,306.482,496.491,305.06,496.491z M61.036,491.343h241.45V280.255l-60.877-13.865
	c-0.409-0.093-0.788-0.285-1.106-0.558l-58.742-50.474l-58.74,50.474c-0.318,0.273-0.698,0.464-1.106,0.558l-60.879,13.865
	L61.036,491.343L61.036,491.343z"/>
<path fill="#FFFFFF" d="M218.663,493.917V379.812c0-0.947-0.767-1.715-1.715-1.715h-70.821c-0.949,0-1.716,0.768-1.716,1.715
	v114.105L218.663,493.917L218.663,493.917z"/>
<path fill="#222E63" d="M221.237,496.491h-79.4V379.812c0-2.365,1.925-4.289,4.29-4.289h70.821c2.365,0,4.289,1.924,4.289,4.289
	V496.491z M146.984,491.343h69.104V380.67h-69.104L146.984,491.343L146.984,491.343z"/>
<path fill="#FFFFFF" d="M208.166,493.917v-99.428c0-0.947-0.767-1.715-1.716-1.715h-49.826c-0.949,0-1.716,0.768-1.716,1.715v99.428
	H208.166z"/>
<path fill="#222E63" d="M210.74,496.491h-58.406V394.489c0-2.365,1.925-4.289,4.291-4.289h49.826c2.365,0,4.29,1.924,4.29,4.289
	v102.002L210.74,496.491L210.74,496.491z M157.482,491.343h48.111v-95.996h-48.111V491.343z"/>
<polygon fill="#FFFFFF" points="345.876,366.815 17.645,366.815 103.44,336.383 260.082,336.383 "/>
<path fill="#222E63" d="M345.877,369.389H17.646c-1.253,0-2.324-0.902-2.537-2.138c-0.212-1.235,0.495-2.443,1.676-2.862
	l85.794-30.432c0.276-0.098,0.567-0.148,0.86-0.148h156.642c0.293,0,0.584,0.05,0.86,0.148l85.794,30.432
	c1.181,0.419,1.889,1.627,1.676,2.862C348.201,368.487,347.13,369.389,345.877,369.389z M32.601,364.241h298.32l-71.282-25.284
	H103.883L32.601,364.241z"/>
<rect x="39.89" y="366.815" fill="#FFFFFF" width="30.432" height="10.294"/>
<path fill="#222E63" d="M70.322,379.683H39.89c-1.422,0-2.574-1.152-2.574-2.574v-10.294c0-1.422,1.152-2.574,2.574-2.574h30.432
	c1.422,0,2.574,1.152,2.574,2.574v10.294C72.896,378.53,71.744,379.683,70.322,379.683z M42.464,374.535h25.284v-5.146H42.464
	V374.535z"/>
<rect x="39.89" y="483.625" fill="#FFFFFF" width="30.432" height="10.292"/>
<path fill="#222E63" d="M70.322,496.491H39.89c-1.422,0-2.574-1.152-2.574-2.574v-10.292c0-1.422,1.152-2.574,2.574-2.574h30.432
	c1.422,0,2.574,1.152,2.574,2.574v10.292C72.896,495.338,71.744,496.491,70.322,496.491z M42.464,491.343h25.284v-5.144H42.464
	V491.343z"/>
<rect x="44.814" y="377.109" fill="#FFFFFF" width="20.585" height="106.516"/>
<path fill="#222E63" d="M65.399,486.199H44.814c-1.422,0-2.574-1.152-2.574-2.574V377.109c0-1.422,1.152-2.574,2.574-2.574H65.4
	c1.422,0,2.574,1.152,2.574,2.574v106.516C67.973,485.047,66.821,486.199,65.399,486.199z M47.388,481.051h15.438V379.683H47.388
	V481.051z"/>
<rect x="293.2" y="366.815" fill="#FFFFFF" width="30.432" height="10.294"/>
<path fill="#222E63" d="M323.632,379.683H293.2c-1.422,0-2.574-1.152-2.574-2.574v-10.294c0-1.422,1.152-2.574,2.574-2.574h30.432
	c1.422,0,2.574,1.152,2.574,2.574v10.294C326.206,378.53,325.054,379.683,323.632,379.683z M295.774,374.535h25.284v-5.146h-25.284
	V374.535z"/>
<rect x="293.2" y="483.625" fill="#FFFFFF" width="30.432" height="10.292"/>
<path fill="#222E63" d="M323.632,496.491H293.2c-1.422,0-2.574-1.152-2.574-2.574v-10.292c0-1.422,1.152-2.574,2.574-2.574h30.432
	c1.422,0,2.574,1.152,2.574,2.574v10.292C326.206,495.338,325.054,496.491,323.632,496.491z M295.774,491.343h25.284v-5.144h-25.284
	V491.343z"/>
<rect x="298.123" y="377.109" fill="#FFFFFF" width="20.585" height="106.516"/>
<path fill="#222E63" d="M318.708,486.199h-20.586c-1.422,0-2.574-1.152-2.574-2.574V377.109c0-1.422,1.152-2.574,2.574-2.574h20.586
	c1.422,0,2.574,1.152,2.574,2.574v106.516C321.282,485.047,320.13,486.199,318.708,486.199z M300.697,481.051h15.438V379.683
	h-15.438V481.051z"/>
<rect x="218.011" y="207.489" fill="#FFFFFF" width="30.432" height="10.294"/>
<path fill="#222E63" d="M248.443,220.356h-30.432c-1.422,0-2.574-1.152-2.574-2.574v-10.294c0-1.422,1.152-2.574,2.574-2.574h30.432
	c1.422,0,2.574,1.152,2.574,2.574v10.294C251.017,219.204,249.865,220.356,248.443,220.356z M220.585,215.208h25.284v-5.146h-25.284
	V215.208z"/>
<path fill="#FFFFFF" d="M243.007,258.062h0.512v-40.279h-20.585v19.489C230.254,243.606,236.59,250.862,243.007,258.062z"/>
<path fill="#222E63" d="M243.52,260.636h-0.512c-0.734,0-1.433-0.314-1.921-0.861l-1.29-1.449
	c-5.823-6.542-11.844-13.307-18.546-19.108c-0.565-0.489-0.89-1.199-0.89-1.946v-19.489c0-1.422,1.152-2.574,2.574-2.574h20.586
	c1.422,0,2.574,1.152,2.574,2.574v40.279C246.093,259.483,244.941,260.636,243.52,260.636z M225.508,236.103
	c5.554,4.915,10.593,10.366,15.438,15.778v-31.525h-15.438V236.103z"/>
<rect x="105.231" y="263.88" fill="#FFFFFF" width="16.112" height="72.503"/>
<path fill="#222E63" d="M121.343,338.957h-16.112c-1.422,0-2.574-1.152-2.574-2.574V263.88c0-1.422,1.152-2.574,2.574-2.574h16.112
	c1.422,0,2.574,1.152,2.574,2.574v72.503C123.917,337.805,122.765,338.957,121.343,338.957z M107.805,333.809h10.964v-67.355
	h-10.964V333.809z"/>
<rect x="242.181" y="263.88" fill="#FFFFFF" width="16.112" height="72.503"/>
<path fill="#222E63" d="M258.293,338.957h-16.112c-1.422,0-2.574-1.152-2.574-2.574V263.88c0-1.422,1.152-2.574,2.574-2.574h16.112
	c1.422,0,2.574,1.152,2.574,2.574v72.503C260.866,337.805,259.714,338.957,258.293,338.957z M244.755,333.809h10.964v-67.355
	h-10.964V333.809z"/>
<polygon fill="#FFFFFF" points="181.761,203.46 105.231,263.88 121.343,263.88 181.761,219.572 242.179,263.88 258.29,263.88 "/>
<path fill="#222E63" d="M258.291,266.454h-16.112c-0.547,0-1.081-0.175-1.522-0.498l-58.895-43.192l-58.896,43.192
	c-0.442,0.324-0.975,0.498-1.522,0.498h-16.112c-1.096,0-2.072-0.694-2.431-1.73c-0.36-1.036-0.024-2.185,0.836-2.864l76.53-60.42
	c0.935-0.739,2.255-0.739,3.19,0l76.53,60.42c0.86,0.679,1.196,1.829,0.836,2.864C260.363,265.76,259.387,266.454,258.291,266.454z
	 M243.021,261.306h7.855l-69.116-54.567l-69.116,54.567h7.855l59.738-43.809c0.907-0.665,2.138-0.665,3.045,0L243.021,261.306z"/>
<polygon fill="#FFFFFF" points="105.231,263.88 70.027,263.88 52.868,278.201 105.231,278.201 "/>
<path fill="#222E63" d="M105.231,280.775H52.869c-1.083,0-2.05-0.678-2.42-1.697c-0.369-1.018-0.061-2.159,0.771-2.853
	l17.159-14.321c0.463-0.386,1.046-0.598,1.649-0.598h35.204c1.422,0,2.574,1.152,2.574,2.574v14.321
	C107.805,279.623,106.653,280.775,105.231,280.775z M59.969,275.627h42.689v-9.173H70.96L59.969,275.627z"/>
<polygon fill="#FFFFFF" points="258.29,263.88 293.495,263.88 310.653,278.201 258.29,278.201 "/>
<path fill="#222E63" d="M310.654,280.775h-52.363c-1.422,0-2.574-1.152-2.574-2.574V263.88c0-1.422,1.152-2.574,2.574-2.574h35.204
	c0.603,0,1.187,0.212,1.649,0.598l17.159,14.321c0.831,0.694,1.14,1.835,0.771,2.853
	C312.704,280.097,311.737,280.775,310.654,280.775z M260.865,275.627h42.689l-10.991-9.173h-31.697v9.173H260.865z"/>
<path fill="#222E63" d="M294.096,288.159h-23.273c-1.421,0-2.574,1.152-2.574,2.574v39.831c0,1.422,1.153,2.574,2.574,2.574h23.273
	c1.422,0,2.574-1.152,2.574-2.574v-39.831C296.67,289.311,295.518,288.159,294.096,288.159z M291.522,308.075h-6.489v-14.768h6.489
	V308.075z M279.885,293.307v14.768h-6.488v-14.768H279.885z M273.397,313.222h6.488v14.768h-6.488V313.222z M285.033,327.99v-14.768
	h6.489v14.768H285.033z"/>
<path fill="#222E63" d="M93.595,288.159H70.322c-1.421,0-2.574,1.152-2.574,2.574v39.831c0,1.422,1.153,2.574,2.574,2.574h23.273
	c1.422,0,2.574-1.152,2.574-2.574v-39.831C96.169,289.311,95.017,288.159,93.595,288.159z M91.021,308.075h-6.489v-14.768h6.489
	V308.075z M79.384,293.307v14.768h-6.488v-14.768H79.384z M72.896,313.222h6.488v14.768h-6.488V313.222z M84.532,327.99v-14.768
	h6.489v14.768H84.532z"/>
<rect x="145.511" y="263.88" fill="#FFFFFF" width="72.5" height="72.503"/>
<path fill="#222E63" d="M220.585,338.957h-77.648v-77.651h77.648L220.585,338.957L220.585,338.957z M148.085,333.809h67.352v-67.355
	h-67.352L148.085,333.809L148.085,333.809z"/>
<circle fill="#FFFFFF" cx="181.761" cy="244.337" r="9.399"/>
<path fill="#222E63" d="M181.761,256.309c-6.601,0-11.972-5.371-11.972-11.972c0-6.602,5.371-11.973,11.972-11.973
	c6.602,0,11.973,5.371,11.973,11.973C193.734,250.938,188.363,256.309,181.761,256.309z M181.761,237.511
	c-3.763,0-6.824,3.062-6.824,6.825s3.062,6.824,6.824,6.824c3.763,0,6.825-3.061,6.825-6.824
	C188.587,240.573,185.524,237.511,181.761,237.511z"/>
<path fill="#FFFFFF" d="M203.243,324.82c0,0.948-0.767,1.716-1.715,1.716h-39.533c-0.948,0-1.715-0.768-1.715-1.716v-49.379
	c0-0.948,0.767-1.716,1.715-1.716h39.533c0.948,0,1.715,0.768,1.715,1.716V324.82z"/>
<path fill="#222E63" d="M201.527,329.11h-39.532c-2.365,0-4.289-1.925-4.289-4.29v-49.378c0-2.366,1.924-4.29,4.289-4.29h39.532
	c2.365,0,4.29,1.925,4.29,4.29v49.378C205.817,327.186,203.892,329.11,201.527,329.11z M162.853,323.963h37.816V276.3h-37.816
	V323.963z"/>
<line fill="none" x1="181.761" y1="273.726" x2="181.761" y2="326.536"/>
<rect x="179.187" y="273.726" fill="#222E63" width="5.148" height="52.811"/>
<path fill="#FFFFFF" d="M75.153,430.466c0,0.948,0.767,1.716,1.715,1.716h57.482c0.949,0,1.716-0.768,1.716-1.716v-35.977
	c0-0.947-0.767-1.715-1.716-1.715H76.869c-0.948,0-1.715,0.768-1.715,1.715v35.977H75.153z"/>
<path fill="#222E63" d="M134.351,434.756H76.869c-2.365,0-4.289-1.925-4.289-4.29v-35.977c0-2.365,1.924-4.289,4.289-4.289h57.482
	c2.365,0,4.29,1.924,4.29,4.289v35.977C138.641,432.831,136.717,434.756,134.351,434.756z M77.727,429.608h55.766v-34.261H77.727
	V429.608z"/>
<line fill="none" x1="105.61" y1="392.773" x2="105.61" y2="432.182"/>
<rect x="103.036" y="392.773" fill="#222E63" width="5.148" height="39.409"/>
<line fill="none" x1="75.153" y1="412.476" x2="136.067" y2="412.476"/>
<rect x="75.153" y="409.902" fill="#222E63" width="60.914" height="5.148"/>
<path fill="#FFFFFF" d="M227.007,430.466c0,0.948,0.767,1.716,1.716,1.716h57.482c0.948,0,1.715-0.768,1.715-1.716v-35.977
	c0-0.947-0.767-1.715-1.715-1.715h-57.482c-0.949,0-1.716,0.768-1.716,1.715L227.007,430.466L227.007,430.466z"/>
<path fill="#222E63" d="M286.206,434.756h-57.482c-2.365,0-4.29-1.925-4.29-4.29v-35.977c0-2.365,1.925-4.289,4.29-4.289h57.482
	c2.365,0,4.289,1.924,4.289,4.289v35.977C290.495,432.831,288.571,434.756,286.206,434.756z M229.581,429.608h55.766v-34.261
	h-55.766V429.608z"/>
<line fill="none" x1="257.465" y1="392.773" x2="257.465" y2="432.182"/>
<rect x="254.891" y="392.773" fill="#222E63" width="5.148" height="39.409"/>
<line fill="none" x1="227.007" y1="412.476" x2="287.921" y2="412.476"/>
<rect x="227.008" y="409.902" fill="#222E63" width="60.914" height="5.148"/>
<path fill="#FFFFFF" d="M198.096,428.65c0,0.948-0.768,1.715-1.716,1.715h-29.237c-0.948,0-1.715-0.767-1.715-1.715v-22.109
	c0-0.946,0.767-1.715,1.715-1.715h29.237c0.948,0,1.716,0.769,1.716,1.715V428.65z"/>
<path fill="#222E63" d="M196.38,432.939h-29.237c-2.365,0-4.289-1.924-4.289-4.289v-22.109c0-2.365,1.924-4.289,4.289-4.289h29.237
	c2.365,0,4.29,1.924,4.29,4.289v22.109C200.67,431.015,198.745,432.939,196.38,432.939z M168.001,427.791h27.521V407.4h-27.521
	V427.791z"/>
<rect x="65.399" y="440.476" fill="#FFFFFF" width="7.901" height="16.301"/>
<path fill="#222E63" d="M75.874,459.351H62.825v-21.449h13.048L75.874,459.351L75.874,459.351z M67.973,454.203h2.753V443.05h-2.753
	V454.203z"/>
<rect x="73.3" y="440.476" fill="#FFFFFF" width="7.901" height="16.301"/>
<path fill="#222E63" d="M83.774,459.351H70.726v-21.449h13.048V459.351z M75.874,454.203h2.753V443.05h-2.753V454.203z"/>
<rect x="81.2" y="440.476" fill="#FFFFFF" width="7.902" height="16.301"/>
<path fill="#222E63" d="M91.677,459.351h-13.05v-21.449h13.05V459.351z M83.774,454.203h2.755V443.05h-2.755V454.203z"/>
<rect x="89.102" y="440.476" fill="#FFFFFF" width="7.901" height="16.301"/>
<path fill="#222E63" d="M99.578,459.351H86.529v-21.449h13.049V459.351z M91.677,454.203h2.754V443.05h-2.754V454.203z"/>
<rect x="97.004" y="440.476" fill="#FFFFFF" width="7.901" height="16.301"/>
<path fill="#222E63" d="M107.479,459.351H94.43v-21.449h13.048L107.479,459.351L107.479,459.351z M99.578,454.203h2.753V443.05
	h-2.753V454.203z"/>
<rect x="104.905" y="440.476" fill="#FFFFFF" width="7.901" height="16.301"/>
<path fill="#222E63" d="M115.379,459.351h-13.048v-21.449h13.048V459.351z M107.479,454.203h2.753V443.05h-2.753V454.203z"/>
<rect x="112.805" y="440.476" fill="#FFFFFF" width="7.902" height="16.301"/>
<path fill="#222E63" d="M123.281,459.351h-13.049v-21.449h13.049C123.281,437.902,123.281,459.351,123.281,459.351z
	 M115.379,454.203h2.754V443.05h-2.754V454.203z"/>
<rect x="120.707" y="440.476" fill="#FFFFFF" width="7.902" height="16.301"/>
<path fill="#222E63" d="M131.183,459.351h-13.05v-21.449h13.05V459.351z M123.281,454.203h2.755V443.05h-2.755V454.203z"/>
<rect x="128.609" y="440.476" fill="#FFFFFF" width="7.901" height="16.301"/>
<path fill="#222E63" d="M139.084,459.351h-13.048v-21.449h13.048V459.351z M131.183,454.203h2.753V443.05h-2.753V454.203z"/>
<rect x="136.51" y="440.476" fill="#FFFFFF" width="7.901" height="16.301"/>
<path fill="#222E63" d="M146.984,459.351h-13.048v-21.449h13.048V459.351z M139.084,454.203h2.753V443.05h-2.753V454.203z"/>
<rect x="218.787" y="440.476" fill="#FFFFFF" width="7.901" height="16.301"/>
<path fill="#222E63" d="M229.261,459.351h-13.048v-21.449h13.048V459.351z M221.361,454.203h2.753V443.05h-2.753V454.203z"/>
<rect x="226.687" y="440.476" fill="#FFFFFF" width="7.901" height="16.301"/>
<path fill="#222E63" d="M237.162,459.351h-13.048v-21.449h13.048V459.351z M229.261,454.203h2.753V443.05h-2.753V454.203z"/>
<rect x="234.588" y="440.476" fill="#FFFFFF" width="7.902" height="16.301"/>
<path fill="#222E63" d="M245.064,459.351h-13.05v-21.449h13.05V459.351z M237.162,454.203h2.755V443.05h-2.755V454.203z"/>
<rect x="242.491" y="440.476" fill="#FFFFFF" width="7.901" height="16.301"/>
<path fill="#222E63" d="M252.965,459.351h-13.049v-21.449h13.049V459.351z M245.064,454.203h2.753V443.05h-2.753V454.203z"/>
<rect x="250.392" y="440.476" fill="#FFFFFF" width="7.901" height="16.301"/>
<path fill="#222E63" d="M260.866,459.351h-13.049v-21.449h13.049V459.351z M252.965,454.203h2.753V443.05h-2.753V454.203z"/>
<rect x="258.292" y="440.476" fill="#FFFFFF" width="7.901" height="16.301"/>
<path fill="#222E63" d="M268.767,459.351h-13.048v-21.449h13.048V459.351z M260.866,454.203h2.753V443.05h-2.753V454.203z"/>
<rect x="266.193" y="440.476" fill="#FFFFFF" width="7.901" height="16.301"/>
<path fill="#222E63" d="M276.668,459.351H263.62v-21.449h13.048V459.351z M268.767,454.203h2.753V443.05h-2.753V454.203z"/>
<rect x="274.094" y="440.476" fill="#FFFFFF" width="7.902" height="16.301"/>
<path fill="#222E63" d="M284.57,459.351h-13.05v-21.449h13.05V459.351z M276.668,454.203h2.754V443.05h-2.754V454.203z"/>
<rect x="281.996" y="440.476" fill="#FFFFFF" width="7.902" height="16.301"/>
<path fill="#222E63" d="M292.472,459.351h-13.05v-21.449h13.05V459.351z M284.57,454.203h2.754V443.05h-2.754V454.203z"/>
<rect x="289.897" y="440.476" fill="#FFFFFF" width="7.901" height="16.301"/>
<path fill="#222E63" d="M300.372,459.351h-13.048v-21.449h13.048V459.351z M292.472,454.203h2.752V443.05h-2.752V454.203z"/>
<circle fill="#222E63" cx="167.441" cy="446.03" r="4.439"/>
<rect x="31.71" y="493.917" fill="#FFFFFF" width="299.654" height="15.513"/>
<path fill="#222E63" d="M333.937,512.004H29.136v-20.661h304.801L333.937,512.004L333.937,512.004z M34.284,506.856H328.79v-10.365
	H34.284V506.856z"/>
</svg>
