<?xml version="1.0" encoding="utf-8"?>
<!-- Generator: Adobe Illustrator 17.0.0, SVG Export Plug-In . SVG Version: 6.00 Build 0)  -->
<!DOCTYPE svg PUBLIC "-//W3C//DTD SVG 1.1//EN" "http://www.w3.org/Graphics/SVG/1.1/DTD/svg11.dtd">
<svg version="1.1" id="图层_1" xmlns="http://www.w3.org/2000/svg" xmlns:xlink="http://www.w3.org/1999/xlink" x="0px" y="0px"
	 width="613.34px" height="552.34px" viewBox="0 0 613.34 552.34" enable-background="new 0 0 613.34 552.34" xml:space="preserve">
<g>
	<rect x="0.711" y="2.67" fill="#FFFFFF" width="608" height="547"  id = "border"/>
	<path fill="#222E63" d="M608.711,552.34h-608c-1.475,0-2.67-1.195-2.67-2.67v-547c0-1.475,1.195-2.67,2.67-2.67h608
		c1.475,0,2.67,1.195,2.67,2.67v547C611.381,551.145,610.186,552.34,608.711,552.34z M3.381,547h602.66V5.34H3.381V547z"/>
</g>
<g>
	<rect x="17.211" y="17.514" fill="#FFFFFF" width="575" height="517.311"/>
	<path fill="#222E63" d="M592.211,537.495h-575c-1.475,0-2.67-1.195-2.67-2.67V17.515c0-1.475,1.195-2.67,2.67-2.67h575
		c1.475,0,2.67,1.195,2.67,2.67v517.311C594.881,536.3,593.686,537.495,592.211,537.495z M19.881,532.156h569.66V20.184H19.881
		V532.156z"/>
</g>
<rect x="24.18" y="438.516" fill="#FFFFFF" width="560.289" height="93.434"/>
<path fill="#FFFFFF" d="M27.472,509.629c5.053,3.744,11.937,6.053,19.53,6.053s14.477-2.309,19.53-6.053
	c5.053,3.744,11.937,6.053,19.53,6.053s14.477-2.309,19.53-6.053c5.053,3.744,11.937,6.053,19.53,6.053
	c7.593,0,14.477-2.309,19.53-6.053c5.053,3.744,11.937,6.053,19.53,6.053s14.477-2.309,19.53-6.053
	c5.053,3.744,11.937,6.053,19.53,6.053s14.477-2.309,19.53-6.053c5.053,3.744,11.937,6.053,19.53,6.053s14.477-2.309,19.53-6.053
	c5.053,3.744,11.937,6.053,19.53,6.053s14.477-2.309,19.53-6.053c5.053,3.744,11.937,6.053,19.53,6.053s14.477-2.309,19.53-6.053
	c5.053,3.744,11.937,6.053,19.53,6.053s14.477-2.309,19.53-6.053c5.053,3.744,11.937,6.053,19.53,6.053s14.477-2.309,19.53-6.053
	c5.053,3.744,11.937,6.053,19.53,6.053s14.477-2.309,19.53-6.053c5.053,3.744,11.937,6.053,19.53,6.053s14.477-2.309,19.53-6.053
	c5.053,3.744,11.937,6.053,19.53,6.053c7.593,0,14.477-2.309,19.53-6.053c5.053,3.744,11.937,6.053,19.53,6.053
	s14.477-2.309,19.53-6.053c3.103,2.299,6.897,4.054,11.12,5.068v-21.464c-4.223-1.015-8.018-2.769-11.12-5.068
	c-5.053,3.744-11.938,6.053-19.53,6.053c-7.593,0-14.477-2.309-19.53-6.053c-5.053,3.744-11.938,6.053-19.53,6.053
	c-7.592,0-14.477-2.309-19.53-6.053c-5.053,3.744-11.937,6.053-19.53,6.053s-14.477-2.309-19.53-6.053
	c-5.053,3.744-11.937,6.053-19.53,6.053s-14.477-2.309-19.53-6.053c-5.053,3.744-11.937,6.053-19.53,6.053
	s-14.477-2.309-19.53-6.053c-5.053,3.744-11.937,6.053-19.53,6.053s-14.477-2.309-19.53-6.053
	c-5.053,3.744-11.937,6.053-19.53,6.053s-14.477-2.309-19.53-6.053c-5.053,3.744-11.937,6.053-19.53,6.053
	s-14.477-2.309-19.53-6.053c-5.053,3.744-11.937,6.053-19.53,6.053s-14.477-2.309-19.53-6.053
	c-5.053,3.744-11.937,6.053-19.53,6.053s-14.477-2.309-19.53-6.053c-5.053,3.744-11.937,6.053-19.53,6.053
	s-14.477-2.309-19.53-6.053c-5.053,3.744-11.937,6.053-19.53,6.053c-7.593,0-14.477-2.309-19.53-6.053
	c-5.053,3.744-11.937,6.053-19.53,6.053s-14.477-2.309-19.53-6.053c-5.053,3.744-11.937,6.053-19.53,6.053
	s-14.477-2.309-19.53-6.053c-1.021,0.757-2.121,1.452-3.283,2.084v21.464C25.351,511.081,26.45,510.386,27.472,509.629z"/>
<path fill="#FFFFFF" d="M27.463,480.285c5.053,3.637,11.937,5.88,19.53,5.88s14.477-2.243,19.53-5.88
	c5.053,3.637,11.937,5.88,19.53,5.88s14.477-2.243,19.53-5.88c5.053,3.637,11.937,5.88,19.53,5.88s14.477-2.243,19.53-5.88
	c5.053,3.637,11.937,5.88,19.53,5.88s14.477-2.243,19.53-5.88c5.053,3.637,11.937,5.88,19.53,5.88s14.477-2.243,19.53-5.88
	c5.053,3.637,11.937,5.88,19.53,5.88s14.477-2.243,19.53-5.88c5.053,3.637,11.937,5.88,19.53,5.88s14.477-2.243,19.53-5.88
	c5.053,3.637,11.937,5.88,19.53,5.88s14.477-2.243,19.53-5.88c5.053,3.637,11.937,5.88,19.53,5.88s14.477-2.243,19.53-5.88
	c5.053,3.637,11.937,5.88,19.53,5.88s14.477-2.243,19.53-5.88c5.053,3.637,11.937,5.88,19.53,5.88s14.477-2.243,19.53-5.88
	c5.053,3.637,11.937,5.88,19.53,5.88s14.477-2.243,19.53-5.88c5.053,3.637,11.937,5.88,19.53,5.88c7.593,0,14.477-2.243,19.53-5.88
	c5.053,3.637,11.937,5.88,19.53,5.88s14.477-2.243,19.53-5.88c3.103,2.233,6.897,3.937,11.12,4.923v-20.85
	c-4.223-0.986-8.018-2.689-11.12-4.923c-5.053,3.637-11.938,5.88-19.53,5.88c-7.593,0-14.477-2.243-19.53-5.88
	c-5.053,3.637-11.938,5.88-19.53,5.88c-7.592,0-14.477-2.243-19.53-5.88c-5.053,3.637-11.937,5.88-19.53,5.88
	s-14.477-2.243-19.53-5.88c-5.053,3.637-11.937,5.88-19.53,5.88s-14.477-2.243-19.53-5.88c-5.053,3.637-11.937,5.88-19.53,5.88
	s-14.477-2.243-19.53-5.88c-5.053,3.637-11.937,5.88-19.53,5.88s-14.477-2.243-19.53-5.88c-5.053,3.637-11.937,5.88-19.53,5.88
	s-14.477-2.243-19.53-5.88c-5.053,3.637-11.937,5.88-19.53,5.88s-14.477-2.243-19.53-5.88c-5.053,3.637-11.937,5.88-19.53,5.88
	s-14.477-2.243-19.53-5.88c-5.053,3.637-11.937,5.88-19.53,5.88s-14.477-2.243-19.53-5.88c-5.053,3.637-11.937,5.88-19.53,5.88
	s-14.477-2.243-19.53-5.88c-5.053,3.637-11.937,5.88-19.53,5.88s-14.477-2.243-19.53-5.88c-5.053,3.637-11.937,5.88-19.53,5.88
	s-14.477-2.243-19.53-5.88c-5.053,3.637-11.937,5.88-19.53,5.88s-14.477-2.243-19.53-5.88c-1.021,0.735-2.121,1.41-3.283,2.025
	v20.85C25.342,481.694,26.441,481.02,27.463,480.285z"/>
<path fill="#222E63" d="M584.469,435.846H24.18c-1.475,0-2.67,1.195-2.67,2.67v22.112v21.453v49.869c0,1.475,1.195,2.67,2.67,2.67
	h560.289c1.475,0,2.67-1.195,2.67-2.67v-93.434C587.139,437.041,585.944,435.846,584.469,435.846z M581.791,510.895
	c-2.043-0.845-3.948-1.891-5.619-3.129c-1.037-0.767-2.68-0.767-3.717,0c-4.767,3.531-11.043,5.475-17.672,5.475
	c-6.63,0-12.905-1.945-17.672-5.475c-0.517-0.383-1.188-0.575-1.858-0.575c-0.67,0-1.34,0.192-1.853,0.575
	c-4.767,3.531-11.043,5.475-17.672,5.475c-6.629,0-12.906-1.944-17.673-5.475c-1.037-0.767-2.682-0.767-3.717,0
	c-4.767,3.531-11.042,5.475-17.672,5.475c-6.629,0-12.905-1.944-17.672-5.475c-1.037-0.767-2.68-0.767-3.717,0
	c-4.767,3.531-11.043,5.475-17.672,5.475c-6.629,0-12.905-1.944-17.672-5.475c-1.037-0.767-2.68-0.767-3.717,0
	c-4.767,3.531-11.043,5.475-17.672,5.475c-6.63,0-12.905-1.945-17.672-5.475c-1.035-0.767-2.68-0.767-3.717,0
	c-4.767,3.531-11.043,5.475-17.672,5.475c-6.63,0-12.905-1.945-17.672-5.475c-1.035-0.767-2.68-0.767-3.717,0
	c-4.766,3.531-11.043,5.475-17.672,5.475c-6.629,0-12.905-1.944-17.672-5.475c-1.035-0.766-2.68-0.767-3.716,0
	c-4.767,3.531-11.043,5.475-17.672,5.475c-6.629,0-12.905-1.944-17.673-5.475c-1.035-0.766-2.68-0.767-3.716,0
	c-4.767,3.531-11.043,5.475-17.672,5.475c-6.629,0-12.905-1.944-17.672-5.475c-1.036-0.767-2.681-0.766-3.716,0
	c-4.767,3.531-11.043,5.475-17.672,5.475c-6.629,0-12.905-1.944-17.673-5.475c-1.035-0.766-2.681-0.767-3.716,0
	c-4.767,3.531-11.043,5.475-17.672,5.475c-6.629,0-12.905-1.944-17.672-5.475c-1.035-0.767-2.681-0.767-3.716,0
	c-4.767,3.531-11.043,5.475-17.672,5.475c-6.629,0-12.905-1.944-17.672-5.475c-1.035-0.766-2.68-0.767-3.716,0
	c-4.768,3.531-11.044,5.475-17.673,5.475s-12.904-1.944-17.672-5.475c-1.035-0.766-2.68-0.767-3.716,0
	c-4.767,3.531-11.043,5.475-17.672,5.475c-6.629,0-12.905-1.944-17.672-5.475c-0.677-0.501-1.615-0.675-2.471-0.521v-16.361
	c0.205-0.123,0.408-0.247,0.609-0.373c5.496,3.467,12.343,5.357,19.534,5.357c7.189,0,14.034-1.889,19.53-5.355
	c5.496,3.466,12.341,5.355,19.53,5.355c7.19,0,14.035-1.889,19.531-5.355c5.495,3.466,12.341,5.355,19.53,5.355
	c7.189,0,14.034-1.889,19.53-5.355c5.495,3.466,12.341,5.355,19.53,5.355c7.189,0,14.034-1.889,19.53-5.355
	c5.496,3.466,12.342,5.355,19.531,5.355c7.189,0,14.034-1.889,19.53-5.355c5.495,3.466,12.341,5.355,19.53,5.355
	c7.189,0,14.034-1.889,19.53-5.355c5.496,3.466,12.342,5.355,19.531,5.355c7.189,0,14.034-1.889,19.53-5.355
	c5.495,3.466,12.341,5.355,19.53,5.355c7.189,0,14.035-1.889,19.531-5.355c5.495,3.466,12.341,5.355,19.53,5.355
	c7.188,0,14.034-1.889,19.53-5.355c5.495,3.466,12.341,5.355,19.53,5.355c7.188,0,14.034-1.889,19.53-5.355
	c5.496,3.466,12.342,5.355,19.53,5.355c7.189,0,14.034-1.889,19.53-5.355c5.496,3.466,12.342,5.355,19.53,5.355
	c7.189,0,14.035-1.889,19.53-5.355c5.496,3.466,12.342,5.355,19.531,5.355c7.189,0,14.034-1.889,19.53-5.355
	c5.495,3.466,12.341,5.355,19.53,5.355c7.19,0,14.036-1.889,19.532-5.356c2.259,1.42,4.792,2.576,7.475,3.454V510.895z
	 M576.176,486.313c-1.037-0.767-2.68-0.767-3.717,0c-4.767,3.531-11.043,5.475-17.672,5.475c-6.63,0-12.905-1.945-17.672-5.475
	c-1.035-0.767-2.68-0.767-3.717,0c-4.767,3.531-11.043,5.475-17.672,5.475c-6.629,0-12.906-1.945-17.673-5.475
	c-1.037-0.767-2.682-0.767-3.717,0c-4.767,3.531-11.042,5.475-17.672,5.475c-6.629,0-12.905-1.945-17.672-5.475
	c-1.037-0.767-2.68-0.767-3.717,0c-4.767,3.531-11.043,5.475-17.672,5.475c-6.629,0-12.905-1.945-17.672-5.475
	c-1.037-0.767-2.68-0.767-3.717,0c-4.767,3.531-11.043,5.475-17.672,5.475c-6.63,0-12.905-1.945-17.672-5.475
	c-1.035-0.767-2.68-0.767-3.717,0c-4.767,3.531-11.043,5.475-17.672,5.475c-6.63,0-12.905-1.945-17.672-5.475
	c-1.035-0.767-2.68-0.767-3.717,0c-4.766,3.531-11.043,5.475-17.672,5.475c-6.629,0-12.905-1.945-17.672-5.475
	c-1.035-0.766-2.68-0.767-3.716,0c-4.767,3.531-11.043,5.475-17.672,5.475c-6.629,0-12.905-1.945-17.673-5.475
	c-1.035-0.767-2.68-0.767-3.716,0c-4.767,3.531-11.043,5.475-17.672,5.475c-6.629,0-12.905-1.945-17.672-5.475
	c-1.036-0.767-2.681-0.766-3.716,0c-4.767,3.531-11.043,5.475-17.672,5.475c-6.629,0-12.905-1.945-17.673-5.475
	c-1.035-0.767-2.681-0.767-3.716,0c-4.767,3.531-11.043,5.475-17.672,5.475c-6.629,0-12.905-1.945-17.672-5.475
	c-1.035-0.767-2.681-0.767-3.716,0c-4.767,3.531-11.043,5.475-17.672,5.475c-6.629,0-12.905-1.945-17.672-5.475
	c-1.035-0.766-2.68-0.767-3.716,0c-4.768,3.531-11.044,5.475-17.673,5.475c-6.629,0-12.904-1.945-17.672-5.475
	c-1.035-0.767-2.68-0.767-3.716,0c-4.767,3.531-11.043,5.475-17.672,5.475c-6.629,0-12.905-1.945-17.672-5.475
	c-0.678-0.502-1.616-0.669-2.475-0.513v-2.713c0.201-0.12,0.412-0.233,0.608-0.356c5.497,3.467,12.344,5.357,19.534,5.357
	c7.189,0,14.035-1.889,19.53-5.355c5.496,3.466,12.342,5.355,19.53,5.355c7.189,0,14.035-1.889,19.531-5.355
	c5.495,3.466,12.341,5.355,19.53,5.355c7.189,0,14.034-1.889,19.53-5.354c5.495,3.466,12.341,5.354,19.53,5.354
	c7.189,0,14.034-1.889,19.53-5.355c5.496,3.466,12.342,5.355,19.53,5.355c7.189,0,14.034-1.889,19.53-5.355
	c5.496,3.466,12.341,5.355,19.53,5.355c7.189,0,14.035-1.889,19.53-5.355c5.496,3.466,12.342,5.355,19.531,5.355
	c7.188,0,14.034-1.889,19.53-5.355c5.495,3.466,12.341,5.355,19.53,5.355c7.188,0,14.034-1.889,19.53-5.354
	c5.495,3.466,12.341,5.354,19.53,5.354c7.188,0,14.034-1.889,19.53-5.354c5.495,3.466,12.341,5.354,19.53,5.354
	c7.188,0,14.034-1.889,19.53-5.355c5.496,3.466,12.342,5.355,19.53,5.355s14.034-1.889,19.53-5.355
	c5.496,3.466,12.342,5.355,19.53,5.355c7.189,0,14.035-1.889,19.53-5.354c5.496,3.466,12.342,5.354,19.531,5.354
	c7.188,0,14.034-1.889,19.53-5.354c5.495,3.466,12.341,5.354,19.53,5.354c7.189,0,14.036-1.889,19.532-5.356
	c2.265,1.422,4.795,2.594,7.484,3.473v3.245C579.747,488.605,577.847,487.551,576.176,486.313z M26.843,441.186h554.956v19.036
	c-2.048-0.846-3.953-1.902-5.628-3.142c-1.037-0.767-2.68-0.767-3.717,0c-4.767,3.531-11.043,5.475-17.672,5.475
	c-6.63,0-12.905-1.944-17.672-5.475c-1.035-0.767-2.681-0.767-3.716,0c-4.768,3.531-11.044,5.475-17.673,5.475
	c-6.629,0-12.906-1.944-17.673-5.475c-1.037-0.767-2.682-0.767-3.717,0c-4.767,3.531-11.042,5.475-17.672,5.475
	c-6.629,0-12.905-1.944-17.672-5.475c-1.037-0.767-2.68-0.767-3.717,0c-4.767,3.531-11.043,5.475-17.672,5.475
	c-6.629,0-12.905-1.944-17.672-5.475c-1.037-0.767-2.681-0.767-3.716,0c-4.769,3.531-11.044,5.475-17.673,5.475
	c-6.63,0-12.905-1.944-17.672-5.475c-1.035-0.767-2.681-0.767-3.716,0c-4.769,3.531-11.044,5.475-17.673,5.475
	c-6.63,0-12.905-1.944-17.672-5.475c-1.035-0.767-2.681-0.767-3.716,0c-4.769,3.531-11.045,5.475-17.673,5.475
	c-6.629,0-12.905-1.944-17.673-5.475c-1.034-0.766-2.68-0.767-3.716,0c-4.768,3.531-11.044,5.475-17.672,5.475
	c-6.629,0-12.905-1.944-17.673-5.475c-1.035-0.767-2.681-0.767-3.716,0c-4.768,3.531-11.044,5.475-17.673,5.475
	c-6.629,0-12.905-1.944-17.672-5.475c-1.035-0.766-2.681-0.767-3.716,0c-4.768,3.531-11.044,5.475-17.673,5.475
	c-6.629,0-12.905-1.944-17.673-5.475c-1.035-0.767-2.681-0.767-3.716,0c-4.767,3.531-11.043,5.475-17.672,5.475
	c-6.629,0-12.905-1.944-17.673-5.475c-1.035-0.767-2.681-0.767-3.716,0c-4.767,3.531-11.043,5.475-17.672,5.475
	c-6.629,0-12.905-1.944-17.673-5.475c-1.034-0.766-2.68-0.767-3.716,0c-4.768,3.531-11.044,5.475-17.673,5.475
	c-6.628,0-12.904-1.944-17.672-5.475c-1.035-0.767-2.681-0.767-3.716,0c-4.768,3.531-11.044,5.475-17.673,5.475
	c-6.629,0-12.905-1.944-17.672-5.475c-0.677-0.501-1.613-0.668-2.471-0.514V441.186z M26.836,461.651h0.014v0
	c0.205-0.123,0.408-0.247,0.609-0.373c5.496,3.467,12.343,5.357,19.533,5.357c7.189,0,14.035-1.889,19.53-5.355
	c5.496,3.466,12.342,5.355,19.53,5.355c7.189,0,14.035-1.889,19.531-5.355c5.495,3.466,12.341,5.355,19.53,5.355
	c7.189,0,14.034-1.889,19.53-5.354c5.495,3.466,12.341,5.354,19.53,5.354c7.189,0,14.034-1.889,19.53-5.355
	c5.496,3.466,12.342,5.355,19.53,5.355c7.189,0,14.034-1.889,19.53-5.355c5.496,3.466,12.341,5.355,19.53,5.355
	c7.189,0,14.035-1.889,19.53-5.355c5.496,3.466,12.342,5.355,19.531,5.355c7.188,0,14.034-1.889,19.53-5.355
	c5.495,3.466,12.341,5.355,19.53,5.355c7.188,0,14.034-1.889,19.53-5.354c5.495,3.466,12.341,5.354,19.53,5.354
	c7.188,0,14.034-1.889,19.53-5.354c5.495,3.466,12.341,5.354,19.53,5.354c7.188,0,14.034-1.889,19.53-5.355
	c5.496,3.466,12.342,5.355,19.53,5.355s14.034-1.889,19.53-5.355c5.496,3.466,12.342,5.355,19.53,5.355
	c7.189,0,14.035-1.889,19.53-5.354c5.496,3.466,12.342,5.354,19.531,5.354c7.188,0,14.034-1.889,19.53-5.354
	c5.495,3.466,12.341,5.354,19.53,5.354c7.189,0,14.036-1.889,19.532-5.356c2.262,1.421,4.798,2.578,7.484,3.456v16.93
	c-2.046-0.846-3.955-1.893-5.628-3.132c-1.037-0.767-2.68-0.767-3.717,0c-4.767,3.53-11.043,5.475-17.672,5.475
	c-6.63,0-12.905-1.944-17.672-5.475c-0.518-0.383-1.188-0.575-1.858-0.575c-0.67,0-1.34,0.192-1.857,0.575
	c-4.768,3.53-11.044,5.475-17.673,5.475c-6.629,0-12.906-1.944-17.673-5.475c-1.037-0.767-2.682-0.767-3.717,0
	c-4.767,3.53-11.042,5.475-17.672,5.475c-6.629,0-12.905-1.944-17.672-5.475c-1.037-0.767-2.68-0.767-3.717,0
	c-4.767,3.53-11.043,5.475-17.672,5.475c-6.629,0-12.905-1.944-17.672-5.475c-1.037-0.767-2.681-0.767-3.716,0
	c-4.769,3.53-11.044,5.475-17.673,5.475c-6.63,0-12.905-1.944-17.672-5.475c-1.035-0.767-2.681-0.767-3.716,0
	c-4.769,3.53-11.044,5.475-17.673,5.475c-6.63,0-12.905-1.944-17.672-5.475c-1.035-0.767-2.681-0.767-3.716,0
	c-4.769,3.53-11.045,5.475-17.673,5.475c-6.629,0-12.905-1.944-17.673-5.475c-1.034-0.766-2.68-0.767-3.716,0
	c-4.768,3.53-11.044,5.475-17.672,5.475c-6.629,0-12.905-1.944-17.673-5.475c-1.035-0.767-2.681-0.767-3.716,0
	c-4.768,3.53-11.044,5.475-17.673,5.475c-6.629,0-12.905-1.944-17.672-5.475c-1.035-0.766-2.681-0.767-3.716,0
	c-4.768,3.53-11.044,5.475-17.673,5.475c-6.629,0-12.905-1.944-17.673-5.475c-1.035-0.767-2.681-0.767-3.716,0
	c-4.767,3.53-11.043,5.475-17.672,5.475c-6.629,0-12.905-1.944-17.673-5.475c-1.035-0.767-2.681-0.767-3.716,0
	c-4.767,3.53-11.043,5.475-17.672,5.475c-6.629,0-12.905-1.944-17.673-5.475c-1.034-0.766-2.68-0.767-3.716,0
	c-4.768,3.53-11.044,5.475-17.673,5.475c-6.628,0-12.904-1.944-17.672-5.475c-1.035-0.767-2.681-0.767-3.716,0
	c-4.768,3.53-11.044,5.475-17.673,5.475c-6.629,0-12.905-1.944-17.672-5.475c-0.677-0.501-1.614-0.675-2.471-0.521V461.651z
	 M26.85,529.28v-16.956c0.203-0.121,0.416-0.235,0.614-0.359c5.496,3.467,12.343,5.357,19.534,5.357
	c7.189,0,14.034-1.889,19.53-5.355c5.496,3.466,12.341,5.355,19.53,5.355c7.19,0,14.035-1.889,19.531-5.355
	c5.495,3.466,12.341,5.355,19.53,5.355c7.189,0,14.034-1.889,19.53-5.355c5.495,3.466,12.341,5.355,19.53,5.355
	c7.189,0,14.034-1.889,19.53-5.355c5.496,3.466,12.342,5.355,19.531,5.355c7.189,0,14.034-1.889,19.53-5.355
	c5.495,3.466,12.341,5.355,19.53,5.355c7.189,0,14.034-1.889,19.53-5.355c5.496,3.466,12.342,5.355,19.531,5.355
	c7.189,0,14.034-1.889,19.53-5.355c5.495,3.466,12.341,5.355,19.53,5.355c7.189,0,14.035-1.889,19.531-5.355
	c5.495,3.466,12.341,5.355,19.53,5.355c7.188,0,14.034-1.889,19.53-5.355c5.495,3.466,12.341,5.355,19.53,5.355
	c7.188,0,14.034-1.889,19.53-5.355c5.496,3.466,12.342,5.355,19.53,5.355c7.189,0,14.034-1.889,19.53-5.355
	c5.496,3.466,12.342,5.355,19.53,5.355c7.189,0,14.035-1.889,19.53-5.355c5.496,3.466,12.342,5.355,19.531,5.355
	c7.189,0,14.034-1.889,19.53-5.355c5.495,3.466,12.341,5.355,19.53,5.355c7.19,0,14.036-1.889,19.536-5.357
	c2.261,1.42,4.787,2.591,7.472,3.469v13.844L26.85,529.28z"/>
<rect x="194.01" y="227.712" fill="#FFFFFF" width="17.134" height="5.638"/>
<path fill="#222E63" d="M211.144,236.02H194.01c-1.475,0-2.67-1.195-2.67-2.67v-5.638c0-1.475,1.195-2.67,2.67-2.67h17.134
	c1.475,0,2.67,1.195,2.67,2.67v5.638C213.814,234.824,212.618,236.02,211.144,236.02z M196.68,230.68h11.794v-0.298H196.68V230.68z"
	/>
<rect x="183.88" y="236.088" fill="#FFFFFF" width="17.133" height="5.641"/>
<path fill="#222E63" d="M201.013,244.399h-17.132c-1.475,0-2.67-1.195-2.67-2.67v-5.641c0-1.475,1.195-2.67,2.67-2.67h17.132
	c1.475,0,2.67,1.195,2.67,2.67v5.641C203.682,243.204,202.487,244.399,201.013,244.399z M186.55,239.059h11.792v-0.301H186.55
	V239.059z"/>
<rect x="194.01" y="244.315" fill="#FFFFFF" width="17.134" height="5.641"/>
<path fill="#222E63" d="M211.144,252.626H194.01c-1.475,0-2.67-1.195-2.67-2.67v-5.641c0-1.475,1.195-2.67,2.67-2.67h17.134
	c1.475,0,2.67,1.195,2.67,2.67v5.641C213.814,251.431,212.618,252.626,211.144,252.626z M196.68,247.287h11.794v-0.302H196.68
	V247.287z"/>
<path fill="#FFFFFF" d="M223.169,357.874c-0.443-3.142-2.078-6.137-4.809-7.845c-0.528-0.33-1.088-0.607-1.672-0.824
	c-0.942-0.351-0.375-1.002-0.257-1.902c0.168-1.29,0.157-2.624-0.163-3.891c-1.708-6.768-11.388-5.486-13.698,0.21
	c-10.266-7.073-30.118,0.468-29.87,14.218c-4.193-1.356-9.704,2.952-8.938,7.427c-10.439-0.581-21.012,10.694-13.707,20.524
	c-14.242,4.313-14.098,25.725-2.301,32.681c1.634,0.964,3.518,1.397,5.402,1.448c0.938,0.025,1.403-0.275,2.051,0.446
	c0.57,0.634,1.207,1.207,1.895,1.711c2.418,1.773,5.438,2.69,8.43,2.636c7.23-0.132,12.263-6.247,14.272-12.711
	c4.893,1.962,10.241-1.761,10.746-6.786c4.91,0.971,9.808-2.011,13.291-5.18c4.069-3.701,6.827-8.497,7.31-14.043
	c0.046-0.523,0.07-1.047,0.072-1.572c0.004-1.131,0.304-0.852,1.173-1.424c1.209-0.797,2.232-1.865,3.129-2.994
	c1.645-2.07,2.9-4.377,3.122-7.054c0.103-1.234-0.455-2.694,0.433-3.548c1.075-1.034,1.971-2.252,2.656-3.576
	C222.992,363.399,223.552,360.59,223.169,357.874C222.526,353.319,223.794,362.307,223.169,357.874z"/>
<path fill="#222E63" d="M165.28,427.385c-3.516,0-6.98-1.12-9.755-3.155c-0.681-0.499-1.318-1.052-1.898-1.648
	c-0.112,0.005-0.229,0.008-0.353,0.008l-0.188-0.002c-2.507-0.068-4.756-0.679-6.687-1.817c-6.909-4.074-10.838-12.75-9.778-21.59
	c0.797-6.649,4.301-11.936,9.581-14.691c-1.725-3.82-1.646-8.014,0.303-11.892c2.707-5.383,8.583-9.286,14.709-9.929
	c0.311-1.386,0.99-2.729,2.013-3.942c1.795-2.128,4.422-3.527,7.012-3.772c0.56-3.466,2.235-6.683,4.933-9.43
	c4.406-4.486,11.266-7.273,17.903-7.273c3.137,0,6.06,0.615,8.594,1.794c2.019-2.376,5.188-3.889,8.496-3.889
	c4.334,0,7.666,2.53,8.693,6.603c0.356,1.412,0.442,2.965,0.254,4.62c0.225,0.121,0.447,0.25,0.664,0.386
	c2.652,1.659,4.605,4.327,5.553,7.509c0.148,0.273,0.251,0.577,0.298,0.902l0.354,2.508c0,0.003,0.001,0.006,0.001,0.01l0.01,0.072
	l0,0c0.007,0.052,0.014,0.111,0.017,0.139c0.024,0.279,0.005,0.551-0.052,0.811c-0.023,2.495-0.657,5.037-1.848,7.338
	c-0.764,1.476-1.727,2.808-2.867,3.967c0.007,0.159,0.023,0.356,0.035,0.507c0.039,0.486,0.083,1.037,0.033,1.644
	c-0.24,2.892-1.448,5.67-3.692,8.494c-1.22,1.536-2.444,2.699-3.74,3.555c-0.014,0.337-0.035,0.674-0.064,1.007
	c-0.517,5.933-3.343,11.391-8.173,15.784c-3.014,2.741-7.711,6.005-13.025,6.06c-1.52,4.156-5.533,7.133-10.067,7.133
	c-0.355,0-0.708-0.019-1.059-0.056c-2.553,5.988-7.881,12.088-15.906,12.234L165.28,427.385z M154.178,417.208
	c1.184,0,2.198,0.462,3.017,1.373c0.44,0.49,0.94,0.941,1.487,1.343c1.866,1.368,4.209,2.121,6.599,2.121l0.204-0.002
	c6.239-0.114,10.24-5.907,11.771-10.834c0.221-0.712,0.73-1.299,1.403-1.619c0.673-0.32,1.448-0.345,2.141-0.067
	c0.564,0.226,1.153,0.341,1.748,0.341c2.631,0,5.08-2.251,5.348-4.916c0.075-0.749,0.462-1.43,1.067-1.878
	c0.604-0.447,1.369-0.619,2.107-0.474c0.456,0.09,0.929,0.136,1.408,0.136c3.857,0,7.651-2.927,9.569-4.672
	c3.819-3.473,6.048-7.726,6.447-12.299c0.04-0.45,0.06-0.9,0.062-1.35c0.006-1.729,0.655-2.809,2.104-3.5
	c0.072-0.034,0.162-0.073,0.269-0.143c0.821-0.541,1.641-1.334,2.508-2.425c1.588-2,2.399-3.783,2.552-5.615
	c0.014-0.17-0.011-0.476-0.034-0.771c-0.091-1.129-0.244-3.018,1.277-4.48c0.854-0.821,1.572-1.79,2.135-2.878
	c1.041-2.011,1.453-4.263,1.161-6.344l-0.002-0.017c-0.367-2.585-1.671-4.752-3.58-5.945c-0.377-0.236-0.777-0.433-1.186-0.585
	c-0.706-0.262-2.937-1.36-2.048-4.469c0.025-0.087,0.059-0.179,0.073-0.281c0.142-1.085,0.107-2.058-0.104-2.892
	c-0.536-2.124-2.208-2.57-3.516-2.57c-1.914,0-4.286,1.075-5.119,3.129c-0.304,0.75-0.932,1.322-1.708,1.554
	c-0.776,0.233-1.614,0.101-2.281-0.359c-2.117-1.458-4.877-2.229-7.982-2.229c-5.255,0-10.655,2.175-14.093,5.675
	c-1.687,1.717-3.682,4.59-3.611,8.525c0.016,0.862-0.386,1.679-1.079,2.193c-0.692,0.514-1.591,0.661-2.412,0.396
	c-1.346-0.433-3.38,0.377-4.571,1.79c-0.424,0.503-1.107,1.516-0.914,2.646c0.137,0.801-0.099,1.621-0.64,2.228
	c-0.541,0.606-1.324,0.93-2.141,0.888c-4.937-0.274-10.185,2.779-12.339,7.063c-1.089,2.166-1.812,5.521,0.923,9.202
	c0.519,0.698,0.665,1.604,0.393,2.429c-0.272,0.825-0.93,1.467-1.761,1.719c-7.054,2.136-8.579,8.733-8.908,11.471
	c-0.799,6.663,2.157,13.388,7.188,16.355c1.125,0.664,2.549,1.037,4.118,1.079c0.157,0.001,0.277-0.009,0.379-0.016
	C153.811,417.219,153.999,417.208,154.178,417.208z"/>
<rect x="179.079" y="207.958" fill="#FFFFFF" width="171.267" height="199.009"/>
<path fill="#222E63" d="M350.346,409.638H179.079c-1.475,0-2.67-1.195-2.67-2.67v-199.01c0-1.475,1.195-2.67,2.67-2.67h171.267
	c1.475,0,2.67,1.195,2.67,2.67v199.01C353.015,408.442,351.82,409.638,350.346,409.638z M181.749,404.298h165.927v-193.67H181.749
	V404.298z"/>
<rect x="170.485" y="187.54" fill="#FFFFFF" width="178.74" height="21.541"/>
<path fill="#222E63" d="M349.225,211.75h-178.74c-1.475,0-2.67-1.195-2.67-2.67v-21.541c0-1.475,1.195-2.67,2.67-2.67h178.74
	c1.475,0,2.67,1.195,2.67,2.67v21.541C351.895,210.555,350.7,211.75,349.225,211.75z M173.155,206.411h173.4V190.21h-173.4
	L173.155,206.411L173.155,206.411z"/>
<polygon fill="#FFFFFF" points="390.524,95.542 228.145,95.542 160.452,193.735 390.524,193.735 "/>
<path fill="#222E63" d="M390.524,196.405H160.452c-0.992,0-1.902-0.55-2.364-1.428c-0.461-0.878-0.397-1.94,0.166-2.757
	l67.693-98.193c0.499-0.723,1.32-1.155,2.198-1.155h162.379c1.475,0,2.67,1.195,2.67,2.67v98.193
	C393.194,195.209,391.999,196.405,390.524,196.405z M165.535,191.065h222.319V98.212H229.547L165.535,191.065z"/>
<polygon fill="#FFFFFF" points="465.935,165.882 392.103,25.879 318.271,165.882 "/>
<path fill="#222E63" d="M465.935,168.552H318.271c-0.936,0-1.803-0.49-2.286-1.291s-0.512-1.797-0.076-2.624l73.832-140.004
	c0.462-0.876,1.371-1.425,2.361-1.425s1.899,0.548,2.361,1.425l73.833,140.003c0.437,0.827,0.408,1.823-0.075,2.624
	C467.738,168.062,466.871,168.552,465.935,168.552z M322.698,163.212h138.811l-69.406-131.61L322.698,163.212z"/>
<polygon fill="#FFFFFF" points="433.508,125.675 392.43,47.796 351.353,125.675 336.086,154.632 336.086,406.968 448.792,406.968 
	448.792,154.668 "/>
<path fill="#222E63" d="M448.792,409.638H336.087c-1.475,0-2.67-1.195-2.67-2.67V154.632c0-0.434,0.105-0.861,0.309-1.245
	L390.07,46.551c0.462-0.876,1.371-1.424,2.361-1.424s1.899,0.548,2.361,1.424l56.361,106.873c0.203,0.384,0.309,0.811,0.309,1.245
	v252.3C451.462,408.442,450.266,409.638,448.792,409.638z M338.757,404.298h107.365V155.329l-53.691-101.81l-53.674,101.773
	L338.757,404.298L338.757,404.298z"/>
<rect x="376.111" y="139.298" fill="#FFFFFF" width="31.986" height="38.607"/>
<polygon fill="#FFFFFF" points="318.25,278.222 318.25,226.124 318.25,224.05 258.432,224.05 258.432,226.124 258.432,278.222 
	258.432,280.296 318.25,280.296 "/>
<rect x="197.68" y="224.05" fill="#FFFFFF" width="31.984" height="56.246"/>
<rect x="194.388" y="283.754" fill="#222E63" width="38.568" height="7.062"/>
<path fill="#222E63" d="M229.803,220.606h-31.984c-1.475,0-2.67,1.195-2.67,2.67v56.246c0,1.475,1.195,2.67,2.67,2.67h31.984
	c1.474,0,2.67-1.195,2.67-2.67v-56.246C232.473,221.801,231.278,220.606,229.803,220.606z M227.133,248.827h-10.516v-22.88h10.516
	V248.827z M211.005,225.946v22.88h-10.516v-22.88H211.005z M200.489,253.972h10.516v22.88h-10.516V253.972z M216.616,276.852v-22.88
	h10.516v22.88H216.616z"/>
<rect x="376.309" y="224.05" fill="#FFFFFF" width="31.984" height="56.246"/>
<path fill="#222E63" d="M408.431,220.606h-31.984c-1.475,0-2.67,1.195-2.67,2.67v56.246c0,1.475,1.195,2.67,2.67,2.67h31.984
	c1.474,0,2.67-1.195,2.67-2.67v-56.246C411.101,221.801,409.906,220.606,408.431,220.606z M405.761,248.827h-10.516v-22.88h10.516
	V248.827z M389.634,225.946v22.88h-10.516v-22.88H389.634z M379.117,253.972h10.516v22.88h-10.516V253.972z M395.245,276.852v-22.88
	h10.516v22.88H395.245z"/>
<rect x="376.17" y="140.753" fill="#FFFFFF" width="31.984" height="37.245"/>
<path fill="#222E63" d="M408.293,137.309h-31.984c-1.475,0-2.67,1.195-2.67,2.67v37.245c0,1.475,1.195,2.67,2.67,2.67h31.984
	c1.474,0,2.67-1.195,2.67-2.67v-37.245C410.963,138.504,409.768,137.309,408.293,137.309z M405.623,156.529h-10.516v-13.88h10.516
	V156.529z M389.495,142.649v13.88h-10.516v-13.88H389.495z M378.979,161.674h10.516v12.88h-10.516V161.674z M395.106,174.554v-12.88
	h10.516v12.88H395.106z"/>
<rect x="197.68" y="323.238" fill="#FFFFFF" width="31.984" height="56.246"/>
<path fill="#222E63" d="M229.803,319.794h-31.984c-1.475,0-2.67,1.195-2.67,2.67v56.246c0,1.475,1.195,2.67,2.67,2.67h31.984
	c1.474,0,2.67-1.195,2.67-2.67v-56.246C232.473,320.989,231.278,319.794,229.803,319.794z M227.133,348.015h-10.516v-22.88h10.516
	V348.015z M211.005,325.134v22.88h-10.516v-22.88H211.005z M200.489,353.16h10.516v22.88h-10.516V353.16z M216.616,376.04v-22.88
	h10.516v22.88H216.616z"/>
<rect x="375.972" y="323.238" fill="#FFFFFF" width="31.984" height="56.246"/>
<path fill="#222E63" d="M408.095,319.794h-31.984c-1.475,0-2.67,1.195-2.67,2.67v56.246c0,1.475,1.195,2.67,2.67,2.67h31.984
	c1.474,0,2.67-1.195,2.67-2.67v-56.246C410.765,320.989,409.57,319.794,408.095,319.794z M405.425,348.015h-10.516v-22.88h10.516
	V348.015z M389.297,325.134v22.88h-10.516v-22.88H389.297z M378.781,353.16h10.516v22.88h-10.516V353.16z M394.909,376.04v-22.88
	h10.516v22.88H394.909z"/>
<rect x="194.388" y="383.027" fill="#222E63" width="38.568" height="7.063"/>
<polygon fill="#FFFFFF" points="295.882,320.814 266.978,320.814 266.978,405.845 295.882,405.845 309.916,405.845 309.916,320.814 
	"/>
<path fill="#222E63" d="M309.915,408.515h-42.937c-1.475,0-2.67-1.195-2.67-2.67v-85.031c0-1.475,1.195-2.67,2.67-2.67h42.937
	c1.475,0,2.67,1.195,2.67,2.67v85.031C312.585,407.32,311.39,408.515,309.915,408.515z M269.648,403.176h37.597v-79.691h-37.597
	L269.648,403.176L269.648,403.176z"/>
<rect x="372.821" y="182.107" fill="#222E63" width="38.564" height="7.061"/>
<rect x="255.206" y="284.616" fill="#222E63" width="66.273" height="7.062"/>
<rect x="372.821" y="284.616" fill="#222E63" width="38.564" height="7.062"/>
<rect x="373.156" y="383.78" fill="#222E63" width="38.565" height="7.063"/>
<path fill="#FFFFFF" d="M273.273,362.019c0,0.688-0.559,1.242-1.243,1.242l0,0c-0.686,0-1.242-0.554-1.242-1.242v-5.41
	c0-0.682,0.557-1.241,1.242-1.241l0,0c0.685,0,1.243,0.559,1.243,1.241V362.019z"/>
<path fill="#222E63" d="M272.029,365.932c-2.157,0-3.912-1.755-3.912-3.912v-5.41c0-2.156,1.755-3.911,3.912-3.911
	c2.158,0,3.914,1.755,3.914,3.911v5.41C275.943,364.177,274.187,365.932,272.029,365.932z"/>
<rect x="174.975" y="405.845" fill="#FFFFFF" width="174.25" height="19.911"/>
<path fill="#222E63" d="M349.225,428.427h-174.25c-1.475,0-2.67-1.195-2.67-2.67v-19.911c0-1.475,1.195-2.67,2.67-2.67h174.25
	c1.475,0,2.67,1.195,2.67,2.67v19.911C351.895,427.231,350.7,428.427,349.225,428.427z M177.645,423.087h168.911v-14.572H177.645
	V423.087z"/>
<rect x="334.02" y="405.845" fill="#FFFFFF" width="118.25" height="19.911"/>
<path fill="#222E63" d="M452.27,428.427H334.02c-1.475,0-2.67-1.195-2.67-2.67v-19.911c0-1.475,1.195-2.67,2.67-2.67h118.25
	c1.475,0,2.67,1.195,2.67,2.67v19.911C454.94,427.231,453.745,428.427,452.27,428.427z M336.69,423.087H449.6v-14.572H336.69
	V423.087z"/>
<rect x="245.051" y="313.262" fill="#FFFFFF" width="86.786" height="5.91"/>
<path fill="#222E63" d="M331.837,321.842h-86.786c-1.475,0-2.67-1.195-2.67-2.67v-5.909c0-1.475,1.195-2.67,2.67-2.67h86.786
	c1.475,0,2.67,1.195,2.67,2.67v5.909C334.507,320.646,333.311,321.842,331.837,321.842z M247.721,316.502h81.446v-0.57h-81.446
	V316.502z"/>
<polygon fill="#FFFFFF" points="318.689,296.107 258.199,296.107 241.005,310.11 335.885,310.11 "/>
<path fill="#222E63" d="M335.885,312.78h-94.88c-1.129,0-2.137-0.711-2.516-1.775c-0.378-1.064-0.046-2.252,0.83-2.965
	l17.194-14.003c0.477-0.388,1.072-0.6,1.686-0.6h60.49c0.614,0,1.209,0.212,1.686,0.6l17.195,14.003
	c0.876,0.713,1.208,1.901,0.83,2.965C338.021,312.069,337.014,312.78,335.885,312.78z M248.511,307.44h79.867l-10.639-8.663h-58.59
	L248.511,307.44z"/>
<rect x="254.417" y="405.845" fill="#FFFFFF" width="65.501" height="10.563"/>
<path fill="#222E63" d="M319.918,419.078h-65.501c-1.475,0-2.67-1.195-2.67-2.67v-10.563c0-1.475,1.195-2.67,2.67-2.67h65.501
	c1.475,0,2.67,1.195,2.67,2.67v10.563C322.588,417.883,321.393,419.078,319.918,419.078z M257.087,413.738h60.161v-5.223h-60.161
	L257.087,413.738L257.087,413.738z"/>
<rect x="252.033" y="416.408" fill="#FFFFFF" width="70.271" height="10.555"/>
<path fill="#222E63" d="M322.304,429.633h-70.271c-1.475,0-2.67-1.195-2.67-2.67v-10.555c0-1.475,1.195-2.67,2.67-2.67h70.271
	c1.475,0,2.67,1.195,2.67,2.67v10.555C324.974,428.438,323.779,429.633,322.304,429.633z M254.703,424.293h64.931v-5.215h-64.931
	L254.703,424.293L254.703,424.293z"/>
<polygon fill="#FFFFFF" points="282.24,64.771 241.961,64.771 233.777,75.853 290.423,75.853 "/>
<path fill="#222E63" d="M290.423,78.523h-56.646c-1.008,0-1.93-0.567-2.384-1.467c-0.454-0.9-0.362-1.978,0.236-2.789l8.185-11.082
	c0.503-0.681,1.3-1.084,2.147-1.084h40.279c0.847,0,1.645,0.402,2.148,1.084l8.183,11.082c0.599,0.811,0.689,1.889,0.235,2.789
	C292.353,77.956,291.431,78.523,290.423,78.523z M239.068,73.183h46.065l-4.24-5.742h-37.584L239.068,73.183z"/>
<polygon fill="#FFFFFF" points="238.792,79.684 238.792,86.083 238.792,117.105 277.171,117.105 285.409,117.105 285.409,79.684 "/>
<path fill="#222E63" d="M285.409,119.775h-46.618c-1.475,0-2.67-1.195-2.67-2.67V79.684c0-1.475,1.195-2.67,2.67-2.67h46.618
	c1.475,0,2.67,1.195,2.67,2.67v37.421C288.079,118.58,286.884,119.775,285.409,119.775z M241.462,114.435h41.278V82.354h-41.278
	L241.462,114.435L241.462,114.435z"/>
<rect x="401.46" y="292.914" fill="#FFFFFF" width="17.133" height="5.641"/>
<rect x="371.066" y="301.293" fill="#FFFFFF" width="17.131" height="5.641"/>
<rect x="391.327" y="301.293" fill="#FFFFFF" width="17.134" height="5.641"/>
<rect x="411.589" y="301.293" fill="#FFFFFF" width="17.133" height="5.641"/>
<rect x="360.936" y="309.52" fill="#FFFFFF" width="17.132" height="5.641"/>
<rect x="390.496" y="117.523" fill="#FFFFFF" width="17.133" height="5.641"/>
<path fill="#222E63" d="M408.629,124.164h-19.133v-7.641h19.133V124.164z M391.496,122.164h15.133v-3.641h-15.133V122.164z"/>
<rect x="360.104" y="125.751" fill="#FFFFFF" width="17.132" height="5.641"/>
<path fill="#222E63" d="M378.236,132.392h-19.133v-7.641h19.133V132.392z M361.104,130.392h15.133v-3.641h-15.133V130.392z"/>
<rect x="355.263" y="191.448" fill="#FFFFFF" width="17.133" height="5.641"/>
<rect x="345.133" y="199.828" fill="#FFFFFF" width="17.131" height="5.641"/>
<rect x="355.263" y="208.056" fill="#FFFFFF" width="17.133" height="5.641"/>
<rect x="183.063" y="297.029" fill="#FFFFFF" width="17.133" height="5.639"/>
<rect x="203.326" y="297.029" fill="#FFFFFF" width="17.132" height="5.639"/>
<rect x="193.193" y="305.405" fill="#FFFFFF" width="17.134" height="5.641"/>
<rect x="213.456" y="305.405" fill="#FFFFFF" width="17.133" height="5.641"/>
<rect x="230.226" y="388.053" fill="#FFFFFF" width="17.132" height="5.641"/>
<rect x="220.094" y="396.43" fill="#FFFFFF" width="17.134" height="5.641"/>
<rect x="240.356" y="396.43" fill="#FFFFFF" width="17.131" height="5.641"/>
<rect x="341.863" y="383.628" fill="#FFFFFF" width="17.133" height="5.641"/>
<rect x="351.993" y="392.006" fill="#FFFFFF" width="17.133" height="5.641"/>
<g>
	<path fill="#222E63" d="M419.593,291.914H400.46v7.641h19.133V291.914z M417.593,297.555H402.46v-3.641h15.133V297.555z"/>
	<path fill="#222E63" d="M370.066,307.934h19.131v-7.641h-19.131V307.934z M372.066,302.293h15.131v3.641h-15.131V302.293z"/>
	<path fill="#222E63" d="M390.327,307.934h19.134v-7.641h-19.134V307.934z M392.327,302.293h15.134v3.641h-15.134V302.293z"/>
	<path fill="#222E63" d="M410.589,300.293v7.641h19.133v-7.641H410.589z M427.722,305.934h-15.133v-3.641h15.133V305.934z"/>
	<path fill="#222E63" d="M359.936,316.161h19.133v-7.642h-19.133V316.161z M361.936,310.52h15.133v3.642h-15.133V310.52z"/>
	<path fill="#222E63" d="M373.396,190.448h-19.133v7.641h19.133V190.448z M371.396,196.089h-15.133v-3.641h15.133V196.089z"/>
	<path fill="#222E63" d="M363.264,198.828h-19.131v7.641h19.131V198.828z M361.264,204.469h-15.131v-3.641h15.131V204.469z"/>
	<path fill="#222E63" d="M354.263,214.697h19.133v-7.641h-19.133V214.697z M356.263,209.056h15.133v3.641h-15.133V209.056z"/>
	<path fill="#222E63" d="M201.196,296.029h-19.133v7.639h19.133V296.029z M199.196,301.668h-15.133v-3.639h15.133V301.668z"/>
	<path fill="#222E63" d="M221.458,296.029h-19.132v7.639h19.132V296.029z M219.458,301.668h-15.132v-3.639h15.132V301.668z"/>
	<path fill="#222E63" d="M192.193,312.046h19.134v-7.641h-19.134V312.046z M194.193,306.405h15.134v3.641h-15.134V306.405z"/>
	<path fill="#222E63" d="M231.589,304.405h-19.133v7.641h19.133V304.405z M229.589,310.046h-15.133v-3.641h15.133V310.046z"/>
	<path fill="#222E63" d="M229.226,394.694h19.132v-7.642h-19.132V394.694z M231.226,389.053h15.132v3.642h-15.132V389.053z"/>
	<path fill="#222E63" d="M219.094,403.071h19.134v-7.642h-19.134V403.071z M221.094,397.43h15.134v3.642h-15.134V397.43z"/>
	<path fill="#222E63" d="M239.356,403.071h19.131v-7.642h-19.131V403.071z M241.356,397.43h15.131v3.642h-15.131V397.43z"/>
	<path fill="#222E63" d="M359.996,382.628h-19.133v7.641h19.133V382.628z M357.996,388.269h-15.133v-3.641h15.133V388.269z"/>
	<path fill="#222E63" d="M350.993,398.647h19.133v-7.641h-19.133V398.647z M352.993,393.006h15.133v3.641h-15.133V393.006z"/>
</g>
<g>
	<path fill="#FFFFFF" d="M228.681,145.457c-4.71,0-8.541-3.832-8.541-8.544h4.88c0,2.022,1.641,3.662,3.662,3.662
		s3.663-1.64,3.663-3.662h4.88C237.224,141.625,233.392,145.457,228.681,145.457z"/>
	<path fill="#222E63" d="M228.681,146.457c-5.261,0-9.541-4.281-9.541-9.544v-1h6.88v1c0,1.468,1.194,2.662,2.662,2.662
		c1.468,0,2.663-1.194,2.663-2.662v-1h6.88v1C238.224,142.176,233.942,146.457,228.681,146.457z M221.206,137.913
		c0.491,3.689,3.656,6.544,7.475,6.544c3.82,0,6.987-2.855,7.478-6.544h-2.922c-0.459,2.092-2.327,3.662-4.555,3.662
		c-2.228,0-4.095-1.57-4.554-3.662H221.206z"/>
</g>
<g>
	<path fill="#FFFFFF" d="M265.296,145.457c-4.712,0-8.541-3.832-8.541-8.544h4.879c0,2.022,1.644,3.662,3.662,3.662
		s3.662-1.64,3.662-3.662h4.88C273.837,141.625,270.007,145.457,265.296,145.457z"/>
	<path fill="#222E63" d="M265.296,146.457c-5.261,0-9.541-4.281-9.541-9.544v-1h6.879v1c0,1.468,1.194,2.662,2.662,2.662
		s2.662-1.194,2.662-2.662v-1h6.88v1C274.837,142.176,270.556,146.457,265.296,146.457z M257.821,137.913
		c0.491,3.689,3.656,6.544,7.475,6.544c3.819,0,6.984-2.855,7.476-6.544h-2.921c-0.459,2.092-2.327,3.662-4.554,3.662
		s-4.095-1.57-4.554-3.662H257.821z"/>
</g>
<g>
	<path fill="#FFFFFF" d="M210.425,153.608c-4.71,0-8.544-3.834-8.544-8.546h4.881c0,2.016,1.642,3.662,3.663,3.662
		c2.018,0,3.663-1.646,3.663-3.662h4.878C218.967,149.773,215.136,153.608,210.425,153.608z"/>
	<path fill="#222E63" d="M210.425,154.608c-5.263,0-9.544-4.282-9.544-9.546v-1h6.881v1c0,1.468,1.195,2.662,2.663,2.662
		s2.663-1.194,2.663-2.662v-1h6.878v1c0,2.545-0.993,4.941-2.796,6.747S212.97,154.608,210.425,154.608z M202.947,146.062
		c0.491,3.69,3.657,6.546,7.478,6.546c2.011,0,3.904-0.786,5.33-2.213c1.187-1.188,1.93-2.699,2.146-4.333h-2.92
		c-0.459,2.092-2.327,3.662-4.555,3.662s-4.096-1.57-4.555-3.662H202.947z"/>
</g>
<g>
	<path fill="#FFFFFF" d="M222.63,153.608c-4.71,0-8.541-3.834-8.541-8.546h4.878c0,2.016,1.645,3.662,3.663,3.662
		c2.02,0,3.663-1.646,3.663-3.662h4.881C231.173,149.773,227.34,153.608,222.63,153.608z"/>
	<path fill="#222E63" d="M222.63,154.608c-5.261,0-9.541-4.282-9.541-9.546v-1h6.878v1c0,1.468,1.195,2.662,2.663,2.662
		s2.663-1.194,2.663-2.662v-1h6.881v1C232.173,150.326,227.891,154.608,222.63,154.608z M215.155,146.062
		c0.491,3.69,3.656,6.546,7.475,6.546c3.82,0,6.986-2.856,7.478-6.546h-2.922c-0.459,2.092-2.327,3.662-4.555,3.662
		s-4.096-1.57-4.555-3.662H215.155z"/>
</g>
<g>
	<path fill="#FFFFFF" d="M271.448,169.156c-4.71,0-8.544-3.834-8.544-8.546h4.881c0,2.019,1.642,3.662,3.663,3.662
		c2.018,0,3.663-1.642,3.663-3.662h4.878C279.99,165.322,276.159,169.156,271.448,169.156z"/>
	<path fill="#222E63" d="M271.448,170.156c-5.263,0-9.544-4.282-9.544-9.546v-1h6.881v1c0,1.468,1.195,2.662,2.663,2.662
		s2.663-1.194,2.663-2.662v-1h6.878v1c0,2.546-0.993,4.942-2.796,6.747C276.389,169.162,273.993,170.156,271.448,170.156z
		 M263.97,161.61c0.491,3.69,3.657,6.546,7.478,6.546c2.011,0,3.904-0.786,5.33-2.213c1.187-1.188,1.93-2.699,2.146-4.333h-2.92
		c-0.459,2.092-2.327,3.662-4.555,3.662s-4.096-1.57-4.555-3.662H263.97z"/>
</g>
<g>
	<path fill="#FFFFFF" d="M296.019,169.156c-4.712,0-8.545-3.834-8.545-8.546h4.883c0,2.019,1.642,3.662,3.662,3.662
		c2.017,0,3.66-1.642,3.66-3.662h4.882C304.561,165.322,300.729,169.156,296.019,169.156z"/>
	<path fill="#222E63" d="M296.019,170.156c-5.263,0-9.545-4.282-9.545-9.546v-1h6.883v1c0,1.468,1.194,2.662,2.662,2.662
		c1.466,0,2.66-1.194,2.66-2.662v-1h6.882v1C305.561,165.874,301.281,170.156,296.019,170.156z M288.54,161.61
		c0.491,3.69,3.658,6.546,7.479,6.546c3.82,0,6.985-2.856,7.476-6.546h-2.924c-0.458,2.092-2.325,3.662-4.552,3.662
		c-2.228,0-4.095-1.57-4.554-3.662H288.54z"/>
</g>
<g>
	<path fill="#FFFFFF" d="M198.499,184.775c-4.71,0-8.544-3.834-8.544-8.544h4.881c0,2.016,1.645,3.662,3.663,3.662
		c2.018,0,3.661-1.646,3.661-3.662h4.883C207.043,180.941,203.209,184.775,198.499,184.775z"/>
	<path fill="#222E63" d="M198.499,185.775c-5.263,0-9.544-4.281-9.544-9.544v-1h6.881v1c0,1.468,1.195,2.662,2.663,2.662
		c1.467,0,2.661-1.194,2.661-2.662v-1h6.883v1C208.043,181.494,203.762,185.775,198.499,185.775z M191.021,177.231
		c0.491,3.689,3.657,6.544,7.478,6.544s6.987-2.855,7.478-6.544h-2.925c-0.459,2.092-2.326,3.662-4.553,3.662
		c-2.228,0-4.096-1.57-4.555-3.662H191.021z"/>
</g>
<g>
	<path fill="#FFFFFF" d="M302.727,184.775c-4.71,0-8.544-3.834-8.544-8.544h4.883c0,2.016,1.641,3.662,3.66,3.662
		c2.018,0,3.661-1.646,3.661-3.662h4.882C311.27,180.941,307.437,184.775,302.727,184.775z"/>
	<path fill="#222E63" d="M302.727,185.775c-5.263,0-9.544-4.281-9.544-9.544v-1h6.883v1c0,1.468,1.193,2.662,2.66,2.662
		c1.467,0,2.661-1.194,2.661-2.662v-1h6.882v1c0.001,2.545-0.993,4.94-2.797,6.745C307.667,184.781,305.272,185.775,302.727,185.775
		z M295.249,177.231c0.491,3.689,3.657,6.544,7.478,6.544c2.011,0,3.903-0.786,5.33-2.213c1.188-1.188,1.931-2.698,2.146-4.331
		h-2.925c-0.458,2.092-2.325,3.662-4.552,3.662c-2.227,0-4.094-1.57-4.552-3.662H295.249z"/>
</g>
<g>
	<path fill="#FFFFFF" d="M314.932,184.775c-4.71,0-8.544-3.834-8.544-8.544h4.882c0,2.016,1.642,3.662,3.662,3.662
		c2.018,0,3.661-1.646,3.661-3.662h4.882C323.474,180.941,319.642,184.775,314.932,184.775z"/>
	<path fill="#222E63" d="M314.932,185.775c-5.263,0-9.544-4.281-9.544-9.544v-1h6.882v1c0,1.468,1.194,2.662,2.662,2.662
		s2.661-1.194,2.661-2.662v-1h6.882v1C324.474,181.494,320.192,185.775,314.932,185.775z M307.454,177.231
		c0.49,3.689,3.656,6.544,7.478,6.544c3.819,0,6.985-2.855,7.477-6.544h-2.924c-0.458,2.092-2.325,3.662-4.553,3.662
		s-4.096-1.57-4.554-3.662H307.454z"/>
</g>
<g>
	<path fill="#FFFFFF" d="M302.72,111.775c-4.708,0-8.541-3.831-8.541-8.545h4.881c0,2.022,1.642,3.664,3.66,3.664
		c2.021,0,3.664-1.642,3.664-3.664h4.88C311.264,107.944,307.433,111.775,302.72,111.775z"/>
	<path fill="#222E63" d="M302.72,112.775c-5.261,0-9.541-4.282-9.541-9.545v-1h6.881v1c0,1.469,1.193,2.664,2.66,2.664
		c1.469,0,2.664-1.195,2.664-2.664v-1h6.88v1C312.264,108.493,307.983,112.775,302.72,112.775z M295.245,104.23
		c0.491,3.689,3.656,6.545,7.475,6.545c3.821,0,6.987-2.855,7.478-6.545h-2.922c-0.458,2.093-2.327,3.664-4.556,3.664
		c-2.227,0-4.093-1.571-4.552-3.664H295.245z"/>
</g>
<g>
	<path fill="#FFFFFF" d="M309.43,127.394c-4.71,0-8.542-3.831-8.542-8.542h4.882c0,2.018,1.642,3.662,3.66,3.662
		c2.019,0,3.662-1.644,3.662-3.662h4.882C317.974,123.563,314.141,127.394,309.43,127.394z"/>
	<path fill="#222E63" d="M309.43,128.394c-5.261,0-9.542-4.28-9.542-9.542v-1h6.882v1c0,1.468,1.193,2.662,2.66,2.662
		c1.468,0,2.662-1.194,2.662-2.662v-1h6.882v1C318.974,124.114,314.692,128.394,309.43,128.394z M301.954,119.852
		c0.491,3.688,3.656,6.542,7.476,6.542c3.821,0,6.987-2.854,7.478-6.542h-2.924c-0.459,2.092-2.326,3.662-4.554,3.662
		c-2.227,0-4.093-1.57-4.552-3.662H301.954z"/>
</g>
<g>
	<path fill="#FFFFFF" d="M321.634,127.394c-4.709,0-8.542-3.831-8.542-8.542h4.882c0,2.018,1.642,3.662,3.66,3.662
		c2.019,0,3.663-1.644,3.663-3.662h4.881C330.178,123.563,326.345,127.394,321.634,127.394z"/>
	<path fill="#222E63" d="M321.634,128.394c-5.262,0-9.542-4.28-9.542-9.542v-1h6.882v1c0,1.468,1.193,2.662,2.66,2.662
		c1.469,0,2.663-1.194,2.663-2.662v-1h6.881v1C331.178,124.114,326.897,128.394,321.634,128.394z M314.158,119.852
		c0.49,3.688,3.656,6.542,7.476,6.542c3.821,0,6.987-2.854,7.478-6.542h-2.923c-0.459,2.092-2.327,3.662-4.555,3.662
		c-2.227,0-4.094-1.57-4.552-3.662H314.158z"/>
</g>
<path fill="#FFFFFF" d="M490.803,471.928c0,7.272-5.893,13.168-13.163,13.168H152.738c-7.271,0-13.164-5.896-13.164-13.168l0,0
	c0-7.271,5.893-13.163,13.164-13.163H477.64C484.91,458.765,490.803,464.657,490.803,471.928L490.803,471.928z"/>
<path fill="#222E63" d="M477.64,487.765H152.738c-8.731,0-15.834-7.105-15.834-15.837c0-8.73,7.103-15.833,15.834-15.833h324.903
	c8.729,0,15.832,7.103,15.832,15.833C493.472,480.66,486.37,487.765,477.64,487.765z M152.738,461.435
	c-5.787,0-10.494,4.707-10.494,10.493c0,5.788,4.708,10.498,10.494,10.498h324.903c5.785,0,10.492-4.709,10.492-10.498
	c0-5.786-4.707-10.493-10.492-10.493H152.738z"/>
<path fill="#FFFFFF" d="M490.803,438.922c0,7.271-5.893,13.165-13.163,13.165H152.738c-7.271,0-13.164-5.894-13.164-13.165l0,0
	c0-7.27,5.893-13.165,13.164-13.165H477.64C484.91,425.757,490.803,431.652,490.803,438.922L490.803,438.922z"/>
<path fill="#222E63" d="M477.64,454.757H152.738c-8.731,0-15.834-7.104-15.834-15.835s7.103-15.835,15.834-15.835h324.903
	c8.729,0,15.832,7.104,15.832,15.835S486.37,454.757,477.64,454.757z M152.738,428.427c-5.787,0-10.494,4.708-10.494,10.495
	s4.708,10.495,10.494,10.495h324.903c5.785,0,10.492-4.708,10.492-10.495s-4.707-10.495-10.492-10.495H152.738z"/>
<path fill="#FFFFFF" d="M514.784,456.396c0,7.272-5.893,13.168-13.163,13.168H138.502c-7.271,0-13.164-5.896-13.164-13.168l0,0
	c0-7.271,5.893-13.163,13.164-13.163h363.119C508.891,443.233,514.784,449.125,514.784,456.396L514.784,456.396z"/>
<path fill="#222E63" d="M501.621,472.233H138.502c-8.731,0-15.834-7.105-15.834-15.838c0-8.73,7.104-15.833,15.834-15.833h363.119
	c8.73,0,15.833,7.103,15.833,15.833C517.454,465.129,510.351,472.233,501.621,472.233z M138.502,445.903
	c-5.787,0-10.495,4.707-10.495,10.493c0,5.789,4.708,10.498,10.495,10.498h363.119c5.786,0,10.493-4.709,10.493-10.498
	c0-5.786-4.707-10.493-10.493-10.493H138.502z"/>
<path fill="#FFFFFF" d="M493.451,373.611c-2.191,3.591-4.983,6.824-8.237,9.492c-3.274,2.683-7.069,4.307-10.644,6.506
	c2.768-4.586,4.776-9.584,6.503-14.641c-0.563,0.091-1.128,0.101-1.695,0.03c-0.218,0.527-0.442,1.053-0.67,1.576
	c-0.455,1.043-0.93,2.077-1.426,3.101c-0.992,2.047-2.068,4.053-3.234,6.006c-2.586,4.332-5.879,8.213-8.252,12.674
	c0.552-10.904,1.593-21.626,1.379-32.564c-0.111-5.7-0.144-11.413,0.355-17.097c0.235-2.678,0.504-5.353,0.761-8.029
	c0.115-1.193,0.233-2.386,0.359-3.578c0.063-0.596,0.129-1.193,0.197-1.788c-0.686-0.147-1.36-0.383-1.982-0.709
	c-1.584,9.668-2.72,19.117-2.524,28.931c-2.045-3.471-4.773-6.463-6.715-10.007c-2.01-3.668-3.461-7.619-4.567-11.646
	c-1.35,1.009-1.444,0.623-0.96,2.44c0.38,1.427,0.819,2.837,1.298,4.234c0.845,2.461,1.758,4.929,2.847,7.294
	c2.098,4.557,5.464,8.394,7.428,13.016c1.903,4.48,0.237,10.514-0.205,15.195c-0.499,5.289-1.074,10.577-1.345,15.885
	c-2.202-5.986-5.786-11.324-8.659-16.986c-3.01-5.946-4.917-12.366-6.205-18.888c-0.62,1.189-1.865,2.008-1.547,3.333
	c0.41,1.708,0.865,3.406,1.372,5.089c0.878,2.918,1.931,5.77,3.131,8.57c-1.729-1.969-3.53-3.879-5.185-5.912
	c-0.921-1.134-1.83-2.277-2.727-3.43c-0.36-0.462-0.718-0.926-1.074-1.392c-0.79-1.032-0.958-0.501-2.124-0.332
	c3.905,5.625,7.881,11.326,12.22,16.625c4.204,5.133,6.952,10.095,8.073,16.73c1.182,6.999,1.716,13.895-0.629,20.699
	c-0.308,0.893-3.104,7.721-2.679,7.847c1.648,0.489,4.024,0.826,5.721,0.498c1.224-0.147,2.397-0.352,3.632-0.443
	c1.327-0.097,2.127-0.042,1.643-1.417c-1.05-2.985-2.009-6.023-2.396-9.174c-0.419-3.414-0.074-6.83,0.534-10.2
	c0.579-3.211,1.11-6.712,2.458-9.704c1.328-2.947,3-6.046,5.507-8.149c2.538-2.129,5.582-3.598,8.387-5.331
	c5.54-3.422,10.13-8.024,13.046-13.893C494.213,373.965,493.823,373.812,493.451,373.611
	C490.446,378.537,493.904,373.846,493.451,373.611z"/>
<path fill="#222E63" d="M460.279,433.014c-1.344,0-2.963-0.243-4.333-0.649l-0.21-0.062l-0.125-0.224
	c-0.194-0.396-0.048-1.166,2.17-6.862c0.253-0.648,0.445-1.143,0.514-1.341c2.397-6.953,1.709-13.939,0.608-20.453
	c-1.009-5.978-3.392-10.91-7.966-16.496c-4.478-5.469-8.604-11.412-12.245-16.656l-0.461-0.664l0.801-0.116
	c0.29-0.042,0.512-0.109,0.695-0.165c0.218-0.065,0.424-0.127,0.646-0.127c0.552,0,0.928,0.392,1.252,0.815
	c0.355,0.465,0.713,0.928,1.071,1.389c0.896,1.15,1.803,2.29,2.721,3.421c1.034,1.271,2.147,2.518,3.233,3.726
	c-0.773-1.988-1.459-3.973-2.046-5.925c-0.494-1.639-0.958-3.359-1.38-5.115c-0.272-1.135,0.364-1.969,0.926-2.704
	c0.239-0.313,0.487-0.638,0.664-0.978l0.658-1.262l0.275,1.396c1.436,7.27,3.451,13.406,6.161,18.76
	c0.968,1.906,2.036,3.812,3.07,5.656c1.676,2.988,3.398,6.06,4.775,9.281c0.231-3.523,0.575-7.06,0.91-10.499l0.304-3.159
	c0.105-1.112,0.275-2.276,0.455-3.51c0.558-3.817,1.189-8.145-0.212-11.443c-1.013-2.384-2.44-4.61-3.82-6.764
	c-1.272-1.985-2.589-4.038-3.602-6.238c-1.202-2.61-2.163-5.294-2.866-7.341c-0.521-1.521-0.948-2.916-1.309-4.268
	c-0.422-1.587-0.462-1.865,0.571-2.564c0.156-0.106,0.347-0.235,0.572-0.404l0.588-0.439l0.194,0.707
	c1.217,4.43,2.696,8.204,4.523,11.538c1.024,1.869,2.301,3.624,3.535,5.321c0.743,1.022,1.505,2.069,2.22,3.152
	c-0.038-9.989,1.258-19.338,2.553-27.238l0.111-0.684l0.614,0.322c0.569,0.298,1.193,0.521,1.854,0.662l0.443,0.095l-0.051,0.451
	c-0.067,0.594-0.134,1.189-0.197,1.784c-0.126,1.19-0.243,2.382-0.357,3.573l-0.206,2.126c-0.191,1.966-0.383,3.932-0.555,5.899
	c-0.519,5.901-0.454,11.892-0.354,17.043c0.153,7.862-0.348,15.752-0.833,23.382c-0.15,2.362-0.301,4.729-0.434,7.102
	c1.12-1.862,2.367-3.645,3.584-5.383c1.233-1.764,2.51-3.587,3.626-5.457c1.133-1.898,2.215-3.906,3.214-5.968
	c0.481-0.994,0.959-2.031,1.418-3.083c0.226-0.52,0.449-1.042,0.666-1.566l0.146-0.354l0.379,0.048
	c0.516,0.064,1.034,0.054,1.554-0.027l0.821-0.133l-0.269,0.787c-1.83,5.355-3.587,9.479-5.589,13.081
	c0.696-0.396,1.393-0.778,2.076-1.153c2.438-1.338,4.741-2.602,6.862-4.341c3.204-2.627,5.938-5.777,8.128-9.365l0.242-0.397
	l0.563,0.291c0.293,0.146,0.602,0.261,0.918,0.345l0.594,0.156l-0.272,0.55c-2.817,5.67-7.27,10.413-13.231,14.096
	c-0.838,0.517-1.696,1.011-2.557,1.506c-1.977,1.138-4.021,2.314-5.772,3.782c-2.537,2.129-4.204,5.379-5.372,7.972
	c-1.189,2.639-1.729,5.683-2.251,8.627l-0.171,0.961c-0.716,3.971-0.884,7.164-0.529,10.049c0.386,3.143,1.367,6.217,2.371,9.07
	c0.143,0.406,0.299,0.998-0.002,1.454c-0.336,0.51-0.982,0.554-1.8,0.608l-0.275,0.02c-0.789,0.058-1.54,0.161-2.335,0.271
	c-0.422,0.059-0.846,0.117-1.275,0.168C461.426,432.967,460.879,433.014,460.279,433.014z M456.584,431.505
	c1.767,0.472,3.827,0.641,5.131,0.387c0.459-0.056,0.877-0.113,1.293-0.171c0.775-0.107,1.577-0.219,2.397-0.279l0.282-0.02
	c0.374-0.024,0.939-0.062,1.034-0.163l0,0c-0.001,0,0.049-0.122-0.108-0.569c-1.022-2.907-2.022-6.043-2.42-9.28
	c-0.368-2.987-0.197-6.276,0.537-10.349l0.171-0.958c0.532-3.004,1.083-6.11,2.323-8.862c1.213-2.69,2.949-6.068,5.642-8.327
	c1.818-1.525,3.901-2.724,5.917-3.883c0.851-0.49,1.7-0.979,2.529-1.491c5.617-3.47,9.853-7.898,12.597-13.17
	c-0.036-0.015-0.073-0.028-0.109-0.043c-0.329,0.686-1.081,2.009-1.569,2.027c-1.925,2.669-4.169,5.062-6.699,7.136
	c-2.193,1.798-4.645,3.143-7.016,4.444c-1.217,0.667-2.475,1.358-3.684,2.102l-1.754,1.079l1.064-1.764
	c2.278-3.776,4.204-8.06,6.204-13.81c-0.217,0.005-0.433,0.004-0.648-0.011c-0.175,0.416-0.353,0.83-0.531,1.243
	c-0.465,1.064-0.947,2.114-1.435,3.119c-1.013,2.089-2.107,4.122-3.255,6.044c-1.136,1.902-2.422,3.741-3.666,5.519
	c-1.598,2.282-3.249,4.643-4.574,7.134l-1.055,1.982l0.114-2.242c0.156-3.088,0.352-6.161,0.547-9.229
	c0.483-7.609,0.984-15.478,0.831-23.299c-0.101-5.177-0.165-11.199,0.357-17.15c0.173-1.971,0.364-3.939,0.556-5.908l0.205-2.125
	c0.116-1.195,0.233-2.389,0.359-3.583c0.048-0.45,0.098-0.902,0.148-1.353c-0.361-0.098-0.711-0.217-1.049-0.358
	c-1.327,8.189-2.617,17.883-2.411,28.188l0.038,1.908l-0.969-1.645c-0.938-1.592-2.047-3.117-3.12-4.592
	c-1.253-1.723-2.548-3.504-3.603-5.429c-1.77-3.229-3.218-6.856-4.419-11.068c-0.008,0.005-0.015,0.009-0.021,0.014
	c-0.171,0.116-0.383,0.26-0.411,0.314c-0.036,0.104,0.097,0.605,0.238,1.136c0.361,1.358,0.782,2.732,1.295,4.23
	c0.696,2.023,1.646,4.677,2.829,7.247c0.983,2.137,2.281,4.16,3.535,6.117c1.402,2.188,2.853,4.45,3.898,6.912
	c1.512,3.557,0.858,8.031,0.282,11.979c-0.179,1.22-0.347,2.372-0.449,3.459l-0.305,3.162c-0.404,4.16-0.822,8.462-1.039,12.701
	l-0.124,2.441l-0.845-2.294c-1.442-3.923-3.528-7.642-5.545-11.238c-1.039-1.853-2.113-3.768-3.091-5.693
	c-2.604-5.146-4.574-10.992-6.01-17.843c-0.021,0.027-0.041,0.054-0.062,0.081c-0.564,0.738-0.902,1.223-0.748,1.862
	c0.417,1.738,0.876,3.44,1.364,5.062c0.842,2.8,1.889,5.665,3.112,8.518l1.238,2.889l-2.074-2.361
	c-0.565-0.645-1.139-1.282-1.712-1.92c-1.163-1.294-2.365-2.631-3.484-4.007c-0.924-1.137-1.835-2.282-2.734-3.438
	c-0.36-0.463-0.72-0.928-1.077-1.395c-0.147-0.193-0.347-0.423-0.457-0.423c-0.075,0-0.206,0.039-0.357,0.085
	c-0.025,0.008-0.053,0.016-0.08,0.023c3.526,5.078,7.495,10.759,11.775,15.987c4.692,5.729,7.139,10.802,8.179,16.963
	c1.122,6.644,1.821,13.78-0.649,20.945c-0.07,0.203-0.268,0.711-0.526,1.377C458.175,426.962,456.829,430.418,456.584,431.505z"/>
<path fill="#FFFFFF" d="M138.869,434.67c3.93-9.111-3.908-17.445-12.915-17.931c-7.812-0.421-15.805,4.707-17.861,12.532
	c-5.183-2.473-12.452,1.236-11.658,7.434c0.133,1.035-1.788,1.704-2.609,2.457c-0.974,0.893-1.796,1.952-2.427,3.114
	c-1.258,2.315-1.756,5.065-1.142,7.648c0.897,3.771,3.936,6.214,7.771,6.448c1.317,0.082,2.649-0.061,3.932-0.36
	c1.252-0.292,0.809,0.222,1.302,1.22c0.333,0.673,0.775,1.298,1.317,1.819c2.188,2.103,5.251,1.309,7.085-0.839
	c3.189,4.052,8.013,3.988,12.394,1.866c1.914-0.927,3.653-2.292,4.873-4.047c1.989,0.772,4.183,0.345,6.05-0.557
	C142.121,452.023,147.308,439.811,138.869,434.67C140.28,431.398,143.103,437.249,138.869,434.67z"/>
<path fill="#222E63" d="M118.389,464.181c-2.612,0-4.954-0.808-6.894-2.36c-1.221,0.735-2.58,1.133-3.952,1.133
	c-1.805,0-3.47-0.684-4.816-1.978c-0.628-0.604-1.168-1.304-1.61-2.088c-1.108,0.164-2.186,0.215-3.256,0.149
	c-5.044-0.308-9.05-3.643-10.204-8.496c-0.744-3.13-0.249-6.519,1.395-9.541c0.779-1.434,1.778-2.715,2.968-3.806
	c0.447-0.409,0.961-0.728,1.415-1.01c0.082-0.051,0.177-0.11,0.273-0.17c-0.055-2.376,0.764-4.633,2.358-6.444
	c2.063-2.344,5.247-3.744,8.517-3.744c0.625,0,1.237,0.05,1.835,0.149c3.072-7.049,10.499-11.931,18.636-11.931
	c0.347,0,0.695,0.01,1.042,0.028c5.874,0.317,11.352,3.465,14.296,8.217c1.853,2.989,2.536,6.317,2.026,9.651
	c0.849,0.768,1.355,1.884,1.355,2.932c0,0.218-0.021,0.429-0.059,0.632c1.555,2.103,2.31,4.688,2.169,7.578
	c-0.286,5.888-4.475,12.25-9.744,14.796c-1.658,0.801-3.387,1.225-5,1.225l0,0c-0.407,0-0.807-0.026-1.2-0.078
	c-1.286,1.392-2.89,2.57-4.72,3.457C122.893,463.61,120.595,464.181,118.389,464.181z M111.663,455.543c0.018,0,0.035,0,0.053,0
	c0.8,0.016,1.55,0.39,2.045,1.018c1.208,1.534,2.721,2.28,4.628,2.28c1.373,0,2.93-0.403,4.503-1.165
	c1.621-0.785,2.95-1.88,3.845-3.167c0.704-1.012,2.008-1.412,3.159-0.965c1.057,0.41,2.466,0.231,3.921-0.472
	c3.582-1.731,6.54-6.232,6.734-10.247c0.125-2.58-0.909-4.556-3.072-5.874c-0.187-0.114-0.354-0.247-0.502-0.395
	c0.001,0-0.001-0.001-0.002-0.002c-0.001,0-0.002-0.001-0.002-0.002c0,0-0.001-0.001-0.002-0.002c0,0-0.001-0.001-0.002-0.002
	c0,0-0.001-0.001-0.002-0.003l0,0c-0.001-0.002-0.003-0.003-0.005-0.005l0,0c-0.343-0.35-0.578-0.783-0.689-1.249l0,0
	c0-0.001,0-0.002,0-0.003c0,0-0.001-0.002-0.001-0.003c0.002,0,0-0.002-0.001-0.004l0,0c-0.001-0.001-0.001-0.003-0.001-0.004
	s-0.001-0.002-0.001-0.004c0-0.001-0.002-0.002,0-0.003c-0.001-0.002-0.002-0.003-0.001-0.004c0-0.001-0.002-0.002-0.001-0.004
	c0-0.001,0-0.003-0.001-0.004c0-0.001-0.002-0.002,0-0.004c-0.001-0.001-0.001-0.002-0.001-0.004c0-0.002,0-0.003-0.001-0.004
	c0-0.001,0-0.002,0-0.004c-0.004-0.001-0.001-0.003-0.001-0.004c0,0,0-0.002-0.001-0.004v-0.001
	c-0.114-0.528-0.069-1.093,0.158-1.62c1.598-3.705,0.576-6.673-0.563-8.51c-2.008-3.24-5.951-5.477-10.045-5.698
	c-6.879-0.376-13.493,4.293-15.135,10.545c-0.202,0.77-0.737,1.409-1.458,1.743c-0.722,0.335-1.555,0.33-2.273-0.012
	c-0.715-0.341-1.509-0.514-2.359-0.514c-1.732,0-3.459,0.74-4.508,1.932c-0.817,0.929-1.151,2.028-0.993,3.268
	c0.31,2.409-1.735,3.677-2.833,4.357c-0.21,0.13-0.527,0.327-0.624,0.41c-0.75,0.688-1.384,1.502-1.881,2.417
	c-0.999,1.838-1.324,3.936-0.891,5.757c0.615,2.589,2.61,4.234,5.336,4.401c1.027,0.063,2.064-0.04,3.163-0.295
	c0.442-0.103,0.808-0.151,1.151-0.151c0.737,0,2.512,0.25,3.086,2.568c0.032,0.13,0.046,0.183,0.064,0.22
	c0.205,0.415,0.473,0.788,0.774,1.078c0.345,0.332,0.7,0.487,1.115,0.487c0.691,0,1.491-0.435,2.089-1.135
	C110.14,455.885,110.883,455.543,111.663,455.543z"/>
<path fill="#FFFFFF" d="M548.343,93.493c-1.014-0.302-2.039-0.509-3.094-0.598c4.268-9.183-4.237-19.232-13.264-20.383
	c-7.349-0.937-16.404,2.809-16.814,11.188c-5.608-0.971-13.706,6.074-10.082,11.879c-10.656,2.442-14.79,18.249-4.399,23.761
	c4.624,2.453,11.158,2.421,15.861,0.161c4.597,3.722,12.223,2.27,14.386-3.453c7.185,4.549,18.668,5.26,24.924-1.428
	C562.541,107.477,556.658,95.972,548.343,93.493C547.819,93.337,554.748,95.403,548.343,93.493z"/>
<path fill="#222E63" d="M522.498,124.223c-2.231,0-4.397-0.593-6.251-1.691c-2.308,0.87-4.883,1.326-7.54,1.326
	c-3.4,0-6.604-0.747-9.268-2.16c-5.392-2.86-8.116-8.317-7.287-14.598c0.778-5.904,4.459-10.88,9.496-13.163
	c-0.343-1.98,0.033-4.075,1.131-6.053c2.021-3.646,6.117-6.386,10.082-6.869c1.765-7.44,9.457-11.314,16.877-11.314
	c0.872,0,1.741,0.055,2.585,0.162c5.902,0.752,11.646,4.736,14.635,10.148c1.939,3.512,2.54,7.256,1.783,10.818
	c0.109,0.031,0.221,0.062,0.331,0.095l0,0l0,0c0.006,0.001,0.011,0.003,0.016,0.005c0.006,0.001,0.012,0.003,0.017,0.005h0.002
	l2.729,0.814l-0.021,0.071c0.865,0.352,1.45,0.734,1.744,1.282c3.496,2.399,6.225,6.122,7.331,10.242
	c1.301,4.843,0.179,9.617-3.078,13.1c-3.485,3.726-8.635,5.778-14.501,5.778h-0.001c-3.877,0-7.877-0.917-11.338-2.563
	C529.846,122.499,526.382,124.223,522.498,124.223z M516.552,116.831c0.601,0,1.195,0.202,1.681,0.595
	c1.16,0.94,2.675,1.458,4.266,1.458c2.082,0,4.887-0.99,5.94-3.779c0.284-0.751,0.891-1.334,1.651-1.589
	c0.764-0.254,1.598-0.153,2.274,0.276c3.103,1.964,7.092,3.09,10.945,3.09h0.001c4.372,0,8.137-1.451,10.601-4.086
	c2.562-2.738,2.404-5.899,1.821-8.068c-1.067-3.978-4.402-7.54-8.109-8.664c-0.006-0.001-0.01-0.003-0.016-0.005l-0.026-0.008
	c-0.007-0.002-0.014-0.004-0.021-0.006l0,0l0,0l-0.003-0.001l0,0c-0.876-0.259-1.705-0.419-2.533-0.49
	c-0.869-0.074-1.646-0.567-2.084-1.321s-0.479-1.674-0.111-2.465c1.708-3.675,0.646-7.019-0.546-9.177
	c-2.158-3.909-6.433-6.896-10.636-7.432c-0.62-0.079-1.263-0.119-1.909-0.119c-4.61,0-11.585,2.341-11.9,8.79
	c-0.038,0.764-0.401,1.475-0.998,1.953c-0.598,0.478-1.366,0.677-2.125,0.547c-0.196-0.034-0.407-0.051-0.627-0.051
	c-2.378,0-5.356,1.882-6.64,4.195c-1.128,2.035-0.351,3.281-0.095,3.691c0.457,0.732,0.532,1.641,0.201,2.438
	c-0.331,0.797-1.028,1.385-1.869,1.578c-4.938,1.132-7.733,5.779-8.24,9.617c-0.252,1.91-0.318,6.629,4.496,9.182
	c1.868,0.991,4.271,1.537,6.766,1.537c2.402,0,4.778-0.505,6.688-1.423C515.763,116.917,516.158,116.831,516.552,116.831z"/>
<path fill="#FFFFFF" d="M67.979,130.152c-8.621-1.965-15.145,10.97-9.319,17.159c-11.826,4.318-13.984,20.335-8.449,30.289
	c4.821,8.659,16.917,14.497,26.105,8.986c0.158,5.539,6.572,7.836,10.356,3.82c2.665,5.573,8.996,8.196,14.912,7.159
	c5.962-1.044,10.583-6.185,12.063-11.899c8.66,4.962,21.761,1.778,29.262-3.931c8.635-6.572,12.192-18.351,9.519-28.751
	c-2.387-9.29-10.066-17.662-19.849-19.028c-2.309-0.322-4.672-0.242-6.954,0.237c-1.126,0.236-2.306,1.031-3.212,0.283
	c-0.938-0.774-1.955-1.451-3.027-2.025c-4.848-2.595-10.874-3.173-16.126-1.552c-1.681-7.429-7.401-14.176-15.267-15.102
	c-9.312-1.096-16.875,6.132-17.357,15.328C69.79,130.707,68.901,130.362,67.979,130.152
	C63.857,129.213,68.84,130.348,67.979,130.152z"/>
<path fill="#222E63" d="M99.021,200.457c-5.345,0-10.13-2.321-13.114-6.217c-1.17,0.566-2.445,0.865-3.759,0.865
	c-3.392,0-6.236-1.883-7.614-4.734c-1.926,0.688-3.968,1.035-6.104,1.035c-8.001,0-16.453-5.143-20.553-12.507
	c-3.61-6.492-4.246-15.239-1.622-22.283c1.701-4.565,4.665-8.168,8.504-10.412c-1.4-3.125-1.35-6.965,0.255-10.681
	c2.013-4.66,5.961-7.786,10.241-8.196c0.328-0.143,0.689-0.222,1.067-0.222c0.21,0,0.273,0,0.598,0.07v-0.002l0.384,0.088
	c0.062,0.014,0.13,0.03,0.205,0.046l0.948,0.216c1.945-8.364,9.156-14.506,17.673-14.506c0.719,0,1.45,0.043,2.174,0.128
	c7.595,0.894,14.09,6.615,16.819,14.557c1.388-0.251,2.812-0.378,4.256-0.378c3.979,0,7.875,0.959,11.265,2.773
	c1.048,0.561,2.044,1.206,2.968,1.92c0.079-0.027,0.16-0.055,0.23-0.078c0.361-0.123,0.77-0.262,1.234-0.359
	c2.572-0.54,5.268-0.632,7.871-0.268c10.179,1.421,19.252,10.06,22.065,21.008c3.029,11.785-1.186,24.46-10.488,31.54
	c-5.62,4.277-13.558,6.934-20.716,6.934c-3.146,0-6.032-0.491-8.617-1.462c-2.483,5.655-7.473,9.869-13.148,10.863
	C101.052,200.369,100.034,200.457,99.021,200.457z M86.672,187.736c0.137,0,0.274,0.01,0.412,0.032
	c0.87,0.136,1.617,0.692,1.997,1.486c1.729,3.616,5.538,5.863,9.94,5.863c0.705,0,1.413-0.061,2.103-0.182
	c4.542-0.795,8.629-4.882,9.94-9.939c0.209-0.806,0.782-1.468,1.549-1.791c0.767-0.323,1.641-0.27,2.363,0.144
	c2.437,1.396,5.41,2.104,8.835,2.104c5.956,0,12.818-2.294,17.482-5.844c7.497-5.706,11.013-16.382,8.55-25.962
	c-2.289-8.908-9.54-15.918-17.632-17.048c-1.996-0.279-4.065-0.208-6.036,0.205c-0.203,0.043-0.407,0.119-0.611,0.189
	c-0.609,0.207-1.367,0.465-2.249,0.465c-0.968,0-1.868-0.32-2.6-0.925c-0.788-0.65-1.659-1.233-2.588-1.73
	c-2.618-1.401-5.642-2.142-8.745-2.142c-1.848,0-3.642,0.265-5.333,0.787c-0.712,0.219-1.481,0.133-2.125-0.24
	c-0.644-0.372-1.103-0.997-1.267-1.722c-1.332-5.887-5.86-12.203-12.975-13.04c-0.518-0.061-1.04-0.092-1.55-0.092
	c-6.927,0-12.442,5.549-12.829,12.908c-0.047,0.896-0.541,1.709-1.315,2.163c-0.775,0.454-1.727,0.488-2.53,0.092
	c-0.735-0.362-1.407-0.611-2.051-0.76c-0.424-0.095-0.812-0.139-1.19-0.139c-3.048,0-5.298,2.704-6.299,5.02
	c-1.018,2.356-1.372,5.653,0.686,7.84c0.615,0.654,0.861,1.573,0.654,2.446c-0.207,0.874-0.839,1.584-1.682,1.892
	c-4.868,1.777-7.208,5.691-8.315,8.662c-2.102,5.643-1.598,12.638,1.285,17.823c3.149,5.657,9.831,9.763,15.886,9.763
	c2.363,0,4.554-0.595,6.512-1.769c0.812-0.488,1.824-0.508,2.656-0.052s1.359,1.318,1.386,2.266
	c0.061,2.136,1.637,3.254,3.163,3.254c0.666,0,1.654-0.207,2.581-1.19C85.237,188.035,85.942,187.736,86.672,187.736z"/>
<path fill="#FFFFFF" d="M490.892,311.503c7.486-4.707,2.953-18.466-5.543-18.723c5.309-11.415-4.491-24.267-15.444-27.392
	c-9.532-2.714-22.213,1.711-24.813,12.105c-4.028-3.805-10.188-0.894-10.024,4.622c-5.825-2.056-12.156,0.566-15.607,5.483
	c-3.477,4.954-3.109,11.857-0.117,16.944c-9.632,2.615-16.645,14.13-17.911,23.471c-1.458,10.753,4.355,21.597,13.599,27.061
	c8.257,4.881,19.607,5.371,27.49-0.58c1.861-1.405,3.475-3.132,4.749-5.084c0.629-0.963,0.901-2.36,2.071-2.472
	c1.211-0.116,2.409-0.357,3.573-0.709c5.263-1.593,9.933-5.445,12.5-10.305c6.442,4.065,15.258,4.791,21.474-0.116
	c7.359-5.809,7.596-16.268,1.435-23.112C489.218,312.392,490.091,312.007,490.892,311.503
	C494.471,309.253,490.144,311.973,490.892,311.503z"/>
<path fill="#222E63" d="M428.856,361.516c-5.271,0-10.663-1.472-15.183-4.144c-10.476-6.192-16.458-18.135-14.886-29.719
	c1.27-9.365,7.775-20.431,16.875-24.603c-2.246-5.755-1.699-12.268,1.612-16.986c3.171-4.518,8.409-7.324,13.669-7.324
	c0.656,0,1.309,0.042,1.954,0.126c0.412-1.189,1.073-2.271,1.956-3.181c2.25-2.318,5.792-3.169,8.815-2.124
	c3.75-7.961,12.818-11.625,20.455-11.625c2.26,0,4.451,0.298,6.512,0.884c7.143,2.038,13.777,7.772,16.902,14.609
	c2.024,4.427,2.478,9.069,1.352,13.367c4.106,1.561,6.87,5.528,7.928,9.417c1.17,4.302,0.376,8.458-2.011,11.357
	c-0.436,1.059-1.527,1.765-2.371,2.171c2.181,3.514,3.209,7.617,2.864,11.668c-0.421,4.948-2.82,9.385-6.757,12.492
	c-3.315,2.617-7.438,4-11.923,4l0,0c-3.469,0-7.03-0.844-10.262-2.408c-3.031,4.367-7.61,7.756-12.671,9.288
	c-1.137,0.344-2.296,0.593-3.455,0.74c-0.038,0.076-0.076,0.154-0.108,0.219c-0.168,0.342-0.359,0.729-0.618,1.125
	c-1.449,2.22-3.258,4.156-5.376,5.756C439.892,359.824,434.61,361.516,428.856,361.516z M430.944,284.079
	c-3.548,0-7.111,1.936-9.298,5.052c-2.649,3.774-2.649,9.554-0.001,14.056c0.423,0.718,0.485,1.591,0.172,2.361
	c-0.314,0.771-0.97,1.351-1.773,1.569c-8.39,2.278-14.819,12.805-15.965,21.253c-1.267,9.335,3.796,19.371,12.312,24.404
	c3.71,2.193,8.137,3.401,12.466,3.401c4.583,0,8.753-1.319,12.058-3.813c1.624-1.226,3.011-2.711,4.122-4.413
	c0.113-0.174,0.203-0.372,0.298-0.565c0.461-0.935,1.419-2.881,3.755-3.104c1.018-0.097,2.045-0.302,3.053-0.606
	c4.592-1.39,8.671-4.753,10.913-8.997c0.347-0.658,0.953-1.141,1.672-1.333c0.718-0.192,1.483-0.075,2.113,0.322
	c2.962,1.869,6.436,2.898,9.781,2.898c3.271,0,6.25-0.986,8.614-2.852c2.766-2.183,4.45-5.292,4.745-8.753
	c0.317-3.735-1.01-7.554-3.641-10.476c-0.601-0.667-0.825-1.592-0.599-2.46c0.227-0.868,0.874-1.565,1.724-1.854
	c0.785-0.267,1.44-0.569,2.005-0.924c2.689-1.691,2.897-5.049,2.196-7.629c-0.789-2.9-3.128-6.067-6.398-6.166
	c-0.896-0.027-1.72-0.503-2.191-1.267s-0.527-1.714-0.148-2.527c2.186-4.699,1.073-9.122-0.245-12.005
	c-2.503-5.476-7.807-10.066-13.51-11.694c-1.584-0.451-3.282-0.68-5.048-0.68c-6.61,0-14.575,3.4-16.443,10.865
	c-0.229,0.92-0.931,1.649-1.841,1.915c-0.911,0.266-1.893,0.029-2.583-0.622c-0.689-0.652-1.491-0.996-2.32-0.996
	c-0.835,0-1.655,0.352-2.251,0.966c-0.455,0.469-0.989,1.306-0.949,2.632c0.026,0.88-0.384,1.717-1.095,2.236
	s-1.635,0.654-2.463,0.361C433.139,284.266,432.051,284.079,430.944,284.079z"/>
<path fill="#FFFFFF" d="M507.645,351.21c-1.014-0.302-2.039-0.509-3.094-0.598c4.268-9.183-4.237-19.232-13.264-20.383
	c-7.349-0.937-16.404,2.809-16.814,11.188c-5.608-0.971-13.706,6.074-10.082,11.879c-10.656,2.442-14.79,18.249-4.399,23.761
	c4.624,2.453,11.158,2.421,15.861,0.161c4.597,3.722,12.223,2.27,14.386-3.453c7.185,4.549,18.668,5.26,24.924-1.428
	C521.843,365.195,515.96,353.69,507.645,351.21C507.12,351.054,514.05,353.12,507.645,351.21z"/>
<path fill="#222E63" d="M481.8,381.94c-2.23,0-4.398-0.593-6.251-1.691c-2.308,0.87-4.883,1.326-7.54,1.326
	c-3.4,0-6.604-0.747-9.268-2.16c-5.392-2.86-8.116-8.317-7.287-14.598c0.778-5.904,4.458-10.88,9.496-13.162
	c-0.343-1.979,0.033-4.075,1.13-6.052c2.022-3.647,6.117-6.387,10.084-6.869c1.765-7.439,9.456-11.314,16.876-11.314
	c0.872,0,1.741,0.055,2.585,0.162c5.902,0.752,11.646,4.736,14.635,10.148c1.939,3.512,2.54,7.256,1.783,10.818
	c0.109,0.031,0.221,0.062,0.331,0.095l0,0l0,0c0.006,0.001,0.011,0.003,0.016,0.005c0.006,0.001,0.012,0.003,0.017,0.005
	c0.001,0,0.002,0,0.002,0l2.729,0.814l-0.021,0.071c0.865,0.352,1.45,0.734,1.744,1.282c3.496,2.399,6.225,6.122,7.331,10.242
	c1.301,4.843,0.179,9.617-3.078,13.1c-3.485,3.726-8.636,5.778-14.5,5.778c-0.001,0-0.001,0-0.001,0
	c-3.878,0-7.878-0.917-11.339-2.563C489.148,380.216,485.683,381.94,481.8,381.94z M475.853,374.548
	c0.601,0,1.195,0.202,1.681,0.595c1.16,0.94,2.675,1.458,4.266,1.458c2.082,0,4.887-0.99,5.94-3.779
	c0.284-0.751,0.891-1.334,1.651-1.588c0.764-0.254,1.598-0.153,2.274,0.276c3.103,1.964,7.092,3.09,10.946,3.09c0,0,0,0,0.001,0
	c4.371,0,8.136-1.451,10.6-4.086c2.562-2.738,2.404-5.899,1.821-8.068c-1.067-3.978-4.402-7.54-8.109-8.664
	c-0.006-0.001-0.01-0.003-0.016-0.005l-0.026-0.008c-0.007-0.002-0.014-0.004-0.021-0.006l0,0l0,0l-0.003-0.001l0,0
	c-0.876-0.259-1.705-0.419-2.533-0.49c-0.869-0.074-1.646-0.567-2.084-1.321c-0.438-0.754-0.479-1.674-0.111-2.465
	c1.708-3.675,0.646-7.019-0.546-9.177c-2.158-3.909-6.433-6.896-10.636-7.432c-0.62-0.079-1.263-0.119-1.909-0.119
	c-4.61,0-11.585,2.341-11.9,8.79c-0.038,0.764-0.401,1.475-0.998,1.953c-0.598,0.478-1.367,0.678-2.125,0.547
	c-0.196-0.034-0.407-0.051-0.628-0.051c-2.378,0-5.356,1.882-6.639,4.195c-1.129,2.034-0.351,3.281-0.095,3.69
	c0.457,0.732,0.532,1.641,0.201,2.438s-1.027,1.385-1.869,1.578c-4.938,1.132-7.733,5.779-8.24,9.617
	c-0.252,1.91-0.318,6.629,4.496,9.183c1.868,0.991,4.271,1.537,6.766,1.537c2.402,0,4.778-0.505,6.688-1.423
	C475.065,374.635,475.46,374.548,475.853,374.548z"/>
<path fill="#FFFFFF" d="M447.469,359.652c-0.78-1.11-1.72-2.181-2.897-2.882c-1.056-0.628-0.473-0.778-0.153-1.852
	c0.226-0.757,0.385-1.534,0.471-2.319c0.263-2.379-0.15-4.827-1.249-6.955c-1.843-3.576-5.424-5.902-9.267-6.838
	c-9.402-2.29-18.811,4.512-15.591,14.74c-7.268-0.11-8.955,10.584-3.48,14.114c0.675,0.435,1.416,0.776,2.182,1.017
	c1.305,0.411,0.477,1.113,0.498,2.356c0.027,1.606,0.676,3.083,1.839,4.191c2.365,2.251,5.879,2.413,8.889,1.611
	c1.102-0.294,3.426-2.016,4.221-1.569c1.125,0.634,2.355,1.079,3.621,1.328c2.477,0.487,5.12,0.232,7.42-0.83
	C450.271,372.857,451.245,365.035,447.469,359.652C446.986,358.965,449.284,362.24,447.469,359.652z"/>
<path fill="#222E63" d="M425.475,379.945c-2.986,0-5.577-0.964-7.492-2.787c-1.682-1.6-2.629-3.759-2.669-6.079
	c-0.002-0.13,0.001-0.256,0.007-0.376c-0.511-0.232-1-0.499-1.464-0.798c-3.734-2.408-5.369-7.394-3.977-12.124
	c0.926-3.144,3.005-5.409,5.707-6.379c-0.442-3.545,0.38-6.903,2.411-9.671c2.772-3.781,7.521-6.037,12.7-6.037
	c1.44,0,2.89,0.175,4.308,0.521c4.926,1.2,8.938,4.192,11.008,8.209c1.329,2.571,1.858,5.501,1.53,8.471
	c-0.089,0.803-0.241,1.606-0.455,2.395c0.888,0.721,1.706,1.621,2.498,2.735l0.01,0.014c0.002,0.003,0.005,0.007,0.007,0.01
	l0.01,0.014c0.009,0.011,0.017,0.023,0.024,0.034c0.002,0.002,0.003,0.004,0.005,0.007l0,0c0.002,0.002,0.003,0.004,0.004,0.006
	c0.003,0.004,0.006,0.007,0.008,0.011l0.001,0.001c0.063,0.09,0.126,0.18,0.188,0.269l0.514,0.731l-0.025,0.018
	c0.114,0.195,0.217,0.39,0.301,0.586c1.714,3.26,2.181,7.059,1.243,10.476c-0.984,3.585-3.394,6.422-6.782,7.987
	c-1.861,0.86-3.971,1.314-6.101,1.314l0,0c-0.989,0-1.983-0.097-2.954-0.288c-1.262-0.248-2.472-0.65-3.608-1.199
	c-0.297,0.14-0.657,0.33-0.911,0.464c-0.733,0.386-1.427,0.752-2.121,0.937C428.081,379.767,426.761,379.945,425.475,379.945z
	 M418.743,356.217c-2.477,0-3.402,1.925-3.74,3.072c-0.6,2.038-0.19,4.878,1.749,6.128c0.463,0.299,0.98,0.539,1.537,0.715
	c0.976,0.307,3.171,1.359,2.438,4.476c-0.034,0.148-0.074,0.316-0.072,0.383c0.015,0.89,0.364,1.686,1.011,2.301
	c0.916,0.873,2.198,1.315,3.811,1.315c0.821,0,1.68-0.117,2.55-0.349c0.155-0.052,0.668-0.322,1.007-0.501
	c1.149-0.605,2.338-1.231,3.574-1.231c0.595,0,1.146,0.14,1.637,0.417c0.868,0.489,1.819,0.837,2.827,1.035
	c1.97,0.387,4.07,0.158,5.786-0.634c2.48-1.146,3.475-3.108,3.871-4.553c0.676-2.461,0.156-5.274-1.39-7.525
	c-0.001-0.001-0.002-0.003-0.003-0.005l-0.106-0.152c-0.002-0.002-0.004-0.005-0.005-0.007l0,0
	c-0.688-0.968-1.353-1.639-2.017-2.034c-1.846-1.099-2.371-2.731-1.479-4.596c0.039-0.083,0.094-0.183,0.134-0.316
	c0.181-0.606,0.308-1.228,0.376-1.847c0.209-1.892-0.135-3.823-0.969-5.436c-1.362-2.644-4.104-4.636-7.526-5.47
	c-1.005-0.245-2.029-0.369-3.044-0.369c-3.485,0-6.624,1.441-8.395,3.856c-1.578,2.151-1.915,4.868-0.974,7.857
	c0.257,0.818,0.106,1.709-0.406,2.397c-0.504,0.677-1.298,1.074-2.141,1.074C418.769,356.217,418.746,356.218,418.743,356.217z"/>
<path fill="#222E63" d="M318.87,221.38h-59.818c-1.475,0-2.67,1.195-2.67,2.67v56.246c0,1.475,1.195,2.67,2.67,2.67h59.818
	c1.475,0,2.67-1.195,2.67-2.67V224.05C321.54,222.575,320.345,221.38,318.87,221.38z M316.2,249.136h-24.494V226.72H316.2V249.136z
	 M286.215,226.72v22.416h-24.494V226.72H286.215z M261.722,254.626h24.494v23h-24.494V254.626z M291.706,277.626v-23H316.2v23
	H291.706z"/>
</svg>
